<?xml version="1.0" standalone="no"?>
<!DOCTYPE svg PUBLIC "-//W3C//DTD SVG 1.1//EN" "http://www.w3.org/Graphics/SVG/1.1/DTD/svg11.dtd" >
<svg xmlns="http://www.w3.org/2000/svg" xmlns:xlink="http://www.w3.org/1999/xlink" version="1.1">
<metadata>
Created by FontForge 20170731 at Fri Jan  1 02:30:17 1904
 By Aleksey,,,
Copyright (C) 1996 Emigre Graphics, Designed by Zuzana Licko
</metadata>
<defs>
<font id="MrsEavesJustLig-Bold" horiz-adv-x="0" >
  <font-face 
    font-family="MrsEavesJustLig"
    font-weight="700"
    font-stretch="normal"
    units-per-em="1000"
    panose-1="2 11 8 0 0 0 0 0 0 0"
    ascent="800"
    descent="-200"
    x-height="350"
    cap-height="600"
    bbox="-86 -275 1403 708"
    underline-thickness="25"
    underline-position="-110"
    unicode-range="U+0020-2122"
  />
<missing-glyph horiz-adv-x="502" 
d="M-1 0h500v500h-500v-500zM9 10v480h480v-480h-480z" />
    <glyph glyph-name=".notdef" horiz-adv-x="502" 
d="M-1 0h500v500h-500v-500zM9 10v480h480v-480h-480z" />
    <glyph glyph-name=".null" 
 />
    <glyph glyph-name="nonmarkingreturn" horiz-adv-x="333" 
 />
    <glyph glyph-name="space" unicode=" " horiz-adv-x="233" 
 />
    <glyph glyph-name="exclam" unicode="!" horiz-adv-x="329" 
d="M90 540q0 -26 4.5 -45t13.5 -46q16 -49 26.5 -102.5t13.5 -153.5h34q3 99 14 153t28 103q10 28 14.5 46.5t4.5 44.5q0 31 -23 54t-55 23q-31 0 -53 -23t-22 -54zM223 49q0 24 -17 41t-41 17t-40 -17t-16 -41q0 -23 16 -40t40 -17t41 17t17 40z" />
    <glyph glyph-name="quotedbl" unicode="&#x22;" horiz-adv-x="428" 
d="M57 549q0 -14 13 -52q15 -46 25 -88.5t15 -104.5h23q5 63 16 106t26 87q14 39 14 52q0 28 -20 48t-47 20t-46 -20t-19 -48zM240 549q0 -13 13 -52q15 -45 25 -87.5t15 -105.5h24q5 62 15.5 105.5t26.5 88.5q14 38 14 51q0 28 -20.5 48t-47.5 20t-46 -20t-19 -48z" />
    <glyph glyph-name="numbersign" unicode="#" horiz-adv-x="398" 
d="M145 398q-31 -14 -53 -45t-22 -70q0 -29 19 -59.5t56 -50.5l56 -30q34 -18 49 -35t15 -35q0 -19 -14.5 -33.5t-37.5 -14.5q-24 0 -46 9.5t-39 25t-27 34t-10 35.5h-29v-146h29q0 32 13 32q7 0 27 -10q22 -10 41 -16t42 -6q54 0 95 32.5t41 88.5q0 59 -71 106
q32 18 51.5 50t19.5 69q0 29 -20 58t-57 53l-49 27q-37 20 -53 35.5t-16 31.5t14.5 29.5t34.5 13.5q33 0 62.5 -23t29.5 -53h29v116h-29q0 -18 -11 -18q-6 0 -23 5q-41 13 -74 13q-44 0 -81 -28.5t-37 -80.5q0 -29 19 -59.5t56 -50.5zM233 237l-9 5q-35 19 -52 38.5
t-17 37.5q0 22 13 35.5t33 14.5q34 -18 49 -38t15 -41q0 -41 -32 -52z" />
    <glyph glyph-name="dollar" unicode="$" horiz-adv-x="595" 
d="M575 96q0 30 -20 57.5t-57 44.5l-49 23q-41 18 -55 28.5t-14 26.5q0 15 14 24.5t35 9.5q33 0 62.5 -23t29.5 -53h29v116h-29q0 -18 -11 -18q-6 0 -23 5q-41 13 -74 13q-20 0 -40.5 -5.5t-38.5 -17t-28.5 -31t-10.5 -46.5q0 -29 19 -57t56 -45l56 -25q34 -16 49 -29
t15 -30t-14 -28t-38 -11t-46 9.5t-39 25t-27 34t-10 35.5h-29v-146h29q0 32 13 32q7 0 27 -10q22 -10 41 -16t42 -6q55 0 95.5 28.5t40.5 84.5zM85 414v-488q0 -87 -11.5 -122.5t-38.5 -35.5q-22 0 -31 11.5t-15 33.5q-5 20 -11.5 29.5t-23.5 9.5q-33 0 -33 -34
q0 -31 30 -58t79 -27q76 0 122 47t46 146v531q0 66 11.5 92.5t42.5 26.5q18 0 26 -10.5t16 -31.5q9 -23 18.5 -34.5t29.5 -11.5q18 0 28 12t10 29q0 32 -35 60t-91 28q-88 0 -128.5 -50t-40.5 -153z" />
    <glyph glyph-name="percent" unicode="%" horiz-adv-x="595" 
d="M85 414q0 -55 -15.5 -75.5t-63.5 -20.5v-29h79v-143q0 -40 -3 -62t-11 -34t-23 -16.5t-42 -4.5v-29h192v457q0 66 11.5 92.5t42.5 26.5q18 0 26 -10.5t16 -31.5q9 -23 18.5 -34.5t29.5 -11.5q18 0 28 12t10 29q0 32 -35 60t-91 28q-88 0 -128.5 -50t-40.5 -153zM575 96
q0 30 -20 57.5t-57 44.5l-49 23q-41 18 -55 28.5t-14 26.5q0 15 14 24.5t35 9.5q33 0 62.5 -23t29.5 -53h29v116h-29q0 -18 -11 -18q-6 0 -23 5q-41 13 -74 13q-20 0 -40.5 -5.5t-38.5 -17t-28.5 -31t-10.5 -46.5q0 -29 19 -57t56 -45l56 -25q34 -16 49 -29t15 -30t-14 -28
t-38 -11t-46 9.5t-39 25t-27 34t-10 35.5h-29v-146h29q0 32 13 32q7 0 27 -10q22 -10 41 -16t42 -6q55 0 95.5 28.5t40.5 84.5z" />
    <glyph glyph-name="ampersand" unicode="&#x26;" horiz-adv-x="1198" 
d="M690 296v-150q0 -40 -3.5 -62t-13 -34t-27.5 -16.5t-52 -4.5v-29h549l8 141h-29l-5 -20q-12 -44 -32 -60t-84 -16h-90q-33 0 -51 4.5t-28 16.5t-13.5 34.5t-3.5 61.5v133h54q40 0 62 -3.5t34 -13t16.5 -27.5t4.5 -52h29v237h-29q0 -33 -4.5 -51t-16.5 -28t-34.5 -13.5
t-61.5 -3.5h-54v215h153q64 0 84 -16t31 -60l5 -20h30l-9 141h-515v-29q34 0 52 -4.5t27.5 -16.5t13 -34t3.5 -62v-113h-307v113q0 39 3.5 61.5t13.5 34.5t28 16.5t51 4.5v29h-462l-9 -141h30l5 20q11 44 31 60t84 16h100v-409q0 -40 -3.5 -62t-13 -34t-27.5 -16.5t-51 -4.5
v-29h316v29q-33 0 -51 4.5t-28 16.5t-13.5 34.5t-3.5 61.5v150h307z" />
    <glyph glyph-name="quotesingle" unicode="'" horiz-adv-x="245" 
d="M57 549q0 -14 13 -52q15 -46 25 -88.5t15 -104.5h23q5 63 16 106t26 87q14 39 14 52q0 28 -20 48t-47 20t-46 -20t-19 -48z" />
    <glyph glyph-name="parenleft" unicode="(" horiz-adv-x="358" 
d="M334 -86q-27 30 -52.5 65t-49 82.5t-39 107t-15.5 126.5t15.5 126.5t39 107t49 82t52.5 65.5l-27 25q-51 -42 -93.5 -86.5t-75.5 -94.5t-52 -106.5t-19 -118.5q0 -61 19 -118t52 -107t76 -94.5t94 -86.5z" />
    <glyph glyph-name="parenright" unicode=")" horiz-adv-x="358" 
d="M292 295q0 62 -19 118.5t-52 106.5t-75.5 94.5t-93.5 86.5l-28 -25q27 -30 52.5 -65t49.5 -83t39.5 -107t15.5 -126t-15.5 -126.5t-39.5 -106.5t-49.5 -82t-52.5 -66l27 -25q52 42 94.5 86.5t75.5 94.5t52 107t19 118z" />
    <glyph glyph-name="asterisk" unicode="*" horiz-adv-x="818" 
d="M358 547v-261h-135zM728 600h-392l-254 -492q-25 -49 -52 -64t-84 -15v-29h242v29q-40 0 -57.5 6.5t-17.5 22.5q0 14 13 39l74 144h158v-95q0 -40 -3.5 -62t-13 -34t-27.5 -16.5t-51 -4.5v-29h498l8 141h-29l-5 -20q-11 -44 -31.5 -60t-84.5 -16h-40q-33 0 -51 4.5
t-28 16.5t-13.5 34.5t-3.5 61.5v79h5q39 0 61.5 -3.5t34 -13.5t16 -28t4.5 -51h29v237h-29q0 -33 -4.5 -51.5t-16 -28t-33.5 -13t-62 -3.5h-5v269h103q64 0 84 -15.5t32 -60.5l5 -20h29z" />
    <glyph glyph-name="plus" unicode="+" horiz-adv-x="1010" 
d="M503 62q-42 -31 -99 -31q-51 0 -89 24t-62.5 63.5t-36 87t-11.5 94.5t11.5 94.5t36 87t62.5 63.5t89 24q59 0 99 -31v-476zM511 600q-51 17 -107 17q-67 0 -128 -24.5t-107 -68.5t-72 -102t-26 -122t26 -122t72 -102t107 -68.5t128 -24.5q56 0 107 17h444l8 141h-29
l-5 -20q-11 -44 -31.5 -60t-84.5 -16h-90q-33 0 -51 4.5t-27.5 16.5t-13 34t-3.5 62v133h54q40 0 62 -3.5t33.5 -13t16 -28t4.5 -51.5h30v237h-30q0 -33 -4.5 -51t-16 -28t-34 -13.5t-61.5 -3.5h-54v215h152q64 0 84.5 -16t31.5 -60l5 -20h29l-8 141h-411z" />
    <glyph glyph-name="comma" unicode="," horiz-adv-x="313" 
d="M108 -139q54 34 83.5 84t29.5 97q0 36 -22 57t-51 21q-26 0 -44 -19t-18 -45t18 -45t44 -19h5q-7 -51 -65 -111z" />
    <glyph glyph-name="hyphen" unicode="-" horiz-adv-x="458" 
d="M375 166v77h-292v-77h292z" />
    <glyph glyph-name="period" unicode="." horiz-adv-x="313" 
d="M213 56q0 26 -19.5 45t-45.5 19t-44 -19t-18 -45t18 -45t44 -19t45.5 19t19.5 45z" />
    <glyph glyph-name="slash" unicode="/" horiz-adv-x="348" 
d="M334 601l-49 19l-271 -621l49 -17z" />
    <glyph glyph-name="zero" unicode="0" horiz-adv-x="668" 
d="M223 333v119q0 62 26.5 93t68.5 31q38 0 51.5 -17.5t22.5 -51.5q6 -27 15 -40t31 -13q19 0 32 14t13 31q0 54 -48 86t-121 32q-90 0 -147 -54t-57 -160v-70h-82v-44h82v-143q0 -40 -3 -62t-11 -34t-23 -16.5t-42 -4.5v-29h271v29q-27 0 -41.5 4.5t-23 16.5t-11.5 34
t-3 62v143h153q27 0 42 -4.5t23 -16t11 -33.5t3 -62v-27q0 -40 -3 -62t-11 -34t-23 -16.5t-42 -4.5v-29h271v29q-27 0 -41.5 4.5t-23 16.5t-11.5 34t-3 62v187h-345z" />
    <glyph glyph-name="one" unicode="1" horiz-adv-x="1192" 
d="M1019 167q0 -60 -19 -98.5t-56 -38.5q-26 0 -46 25.5t-20 62.5v97q0 38 20 63t46 25q37 0 56 -38t19 -98zM223 289h224v-143q0 -39 -3.5 -61.5t-11.5 -34.5t-23 -16.5t-41 -4.5v-29h270v29q-26 0 -41 4.5t-23 16.5t-11.5 34.5t-3.5 61.5v143h101v44h-101v124
q0 64 13 91.5t50 27.5h64q48 0 63.5 -31.5t15.5 -110.5v-155v-287h29l53 56q19 -30 47.5 -47.5t65.5 -17.5q83 0 132.5 53t49.5 131t-49.5 130.5t-132.5 52.5q-23 0 -44.5 -8t-37.5 -21v296h-254q-177 0 -177 -203v-81h-224v98q0 60 10 83.5t38 23.5q16 0 23 -9t15 -29
q7 -20 16 -30.5t27 -10.5q16 0 25.5 11t9.5 27q0 28 -32 53t-82 25q-81 0 -122 -47t-41 -147v-48h-82v-44h82v-143q0 -40 -3 -62t-11 -34t-23 -16.5t-42 -4.5v-29h271v29q-27 0 -41.5 4.5t-23 16.5t-11.5 34t-3 62v143z" />
    <glyph glyph-name="two" unicode="2" horiz-adv-x="1004" 
d="M447 333h-224v98q0 60 10 83.5t38 23.5q16 0 23 -9t15 -29q7 -20 16 -30.5t27 -10.5q16 0 25.5 11t9.5 27q0 28 -32 53t-82 25q-81 0 -122 -47t-41 -147v-48h-82v-44h82v-143q0 -40 -3 -62t-11 -34t-23 -16.5t-42 -4.5v-29h271v29q-27 0 -41.5 4.5t-23 16.5t-11.5 34
t-3 62v143h224v-143q0 -39 -3.5 -61.5t-11.5 -34.5t-23 -16.5t-41 -4.5v-29h270v29q-26 0 -41 4.5t-23 16.5t-11.5 34.5t-3.5 61.5v143h154q26 0 41 -4.5t23.5 -16t11.5 -34t3 -61.5v-27q0 -39 -3.5 -61.5t-11.5 -34.5t-23 -16.5t-41 -4.5v-29h270v29q-26 0 -41 4.5
t-23 16.5t-11.5 34.5t-3.5 61.5v187h-345v119q0 62 26.5 93t68.5 31q38 0 52 -17.5t22 -51.5q7 -27 15.5 -40t31.5 -13q18 0 31 14t13 31q0 54 -47.5 86t-120.5 32q-90 0 -147 -54t-57 -160v-70z" />
    <glyph glyph-name="three" unicode="3" horiz-adv-x="1223" 
d="M447 333h-224v98q0 60 10 83.5t38 23.5q16 0 23 -9t15 -29q7 -20 16 -30.5t27 -10.5q16 0 25.5 11t9.5 27q0 28 -32 53t-82 25q-81 0 -122 -47t-41 -147v-48h-82v-44h82v-143q0 -40 -3 -62t-11 -34t-23 -16.5t-42 -4.5v-29h271v29q-27 0 -41.5 4.5t-23 16.5t-11.5 34
t-3 62v143h224v-143q0 -39 -3.5 -61.5t-11.5 -34.5t-23 -16.5t-41 -4.5v-29h270v29q-26 0 -41 4.5t-23 16.5t-11.5 34.5t-3.5 61.5v143h101v44h-101v124q0 64 13 91.5t50 27.5h64q48 0 63.5 -31.5t15.5 -110.5v-288q0 -40 -3 -62t-11 -34t-23 -16.5t-42 -4.5v-29h271v29
q-27 0 -41.5 4.5t-23 16.5t-11.5 34t-3 62v49q0 47 27 73t61 26q36 0 49 -26.5t13 -79.5v-42q0 -70 -9.5 -93.5t-30.5 -23.5v-29h231v29q-26 0 -41 4.5t-23 16.5t-11.5 34.5t-3.5 61.5v55q0 65 -39 107t-105 42q-39 0 -68 -14.5t-50 -39.5v321h-254q-177 0 -177 -203v-81z
" />
    <glyph glyph-name="four" unicode="4" horiz-adv-x="983" 
d="M447 333h-224v98q0 60 10 83.5t38 23.5q16 0 23 -9t15 -29q7 -20 16 -30.5t27 -10.5q16 0 25.5 11t9.5 27q0 28 -32 53t-82 25q-81 0 -122 -47t-41 -147v-48h-82v-44h82v-143q0 -40 -3 -62t-11 -34t-23 -16.5t-42 -4.5v-29h271v29q-27 0 -41.5 4.5t-23 16.5t-11.5 34
t-3 62v143h224v-143q0 -39 -3.5 -61.5t-11.5 -34.5t-23 -16.5t-41 -4.5v-29h270v29q-26 0 -41 4.5t-23 16.5t-11.5 34.5t-3.5 61.5v143h154q26 0 41 -4.5t23.5 -16t11.5 -34t3 -61.5v-243q0 -88 -17.5 -122t-49.5 -34q-26 0 -36.5 12t-19.5 36q-7 20 -15 30t-25 10
q-33 0 -33 -35q1 -33 40.5 -63.5t104.5 -30.5q82 0 122.5 45.5t40.5 143.5v411h-345v119q0 62 26.5 93t68.5 31q38 0 52 -17.5t22 -51.5q7 -27 15.5 -40t31.5 -13q18 0 31 14t13 31q0 54 -47.5 86t-120.5 32q-90 0 -147 -54t-57 -160v-70z" />
    <glyph glyph-name="five" unicode="5" horiz-adv-x="1228" 
d="M903 254l120 -268q-35 -93 -79 -141t-106 -48q-21 0 -30 8t-16 22q-4 11 -9 16t-15 5q-22 0 -33 -12.5t-11 -33.5q0 -23 27.5 -44t67.5 -21q53 0 93.5 22.5t70 59.5t49 76t44.5 98l107 261q11 27 28 38.5t43 11.5v29h-148v-29q36 0 36 -22q0 -10 -7 -28l-54 -130l-58 130
q-24 55 -55.5 78t-88.5 23q-32 0 -62.5 -15.5t-69.5 -42.5q-6 -5 -9 -7l-129 -92v419l-191 -25q-84 -11 -140.5 -63t-56.5 -139q0 -19 3 -40q-76 -2 -129 -54.5t-53 -137.5q0 -37 14.5 -69t40.5 -56t61.5 -37t76.5 -13q44 0 82 17.5t67 48.5l-17 29q-26 -22 -53 -34t-48 -12
q-48 0 -75 33t-27 93q0 72 16 111.5t53 40.5q1 -5 3 -14q2 -4 2 -5q12 -32 29.5 -51t41.5 -19q23 0 36 15.5t13 31.5q0 24 -18 44t-54 29q-16 34 -16 70q0 60 39.5 101.5t108.5 41.5q26 0 41 -4.5t23.5 -16t11.5 -34t3 -61.5v-292q0 -39 -3.5 -61.5t-11.5 -34.5t-23 -16.5
t-41 -4.5v-29h254v29q-38 0 -50.5 22t-12.5 87v21l134 -159h141v29q-20 0 -38 8.5t-38 31.5l-117 141l76 58q25 19 42.5 27t38.5 8q20 0 32 -12t23 -37z" />
    <glyph glyph-name="six" unicode="6" horiz-adv-x="969" 
d="M447 333h-224v98q0 60 10 83.5t38 23.5q16 0 23 -9t15 -29q7 -20 16 -30.5t27 -10.5q16 0 25.5 11t9.5 27q0 28 -32 53t-82 25q-81 0 -122 -47t-41 -147v-48h-82v-44h82v-143q0 -40 -3 -62t-11 -34t-23 -16.5t-42 -4.5v-29h271v29q-27 0 -41.5 4.5t-23 16.5t-11.5 34
t-3 62v143h224v-143q0 -39 -3.5 -61.5t-11.5 -34.5t-23 -16.5t-41 -4.5v-29h270v29q-26 0 -41 4.5t-23 16.5t-11.5 34.5t-3.5 61.5v143h101v44h-101v124q0 64 13 91.5t50 27.5h64q48 0 63.5 -31.5t15.5 -110.5v-288q0 -40 -3 -62t-11 -34t-23 -16.5t-42 -4.5v-29h271v29
q-27 0 -41.5 4.5t-23 16.5t-11.5 34t-3 62v471h-254q-177 0 -177 -203v-81z" />
    <glyph glyph-name="seven" unicode="7" horiz-adv-x="1105" 
d="M223 289h224v-143q0 -39 -3.5 -61.5t-11.5 -34.5t-23 -16.5t-41 -4.5v-29h270v29q-26 0 -41 4.5t-23 16.5t-11.5 34.5t-3.5 61.5v143h154q26 0 41 -4.5t23.5 -16t11.5 -34t3 -61.5v-27q0 -39 -3.5 -61.5t-11.5 -34.5t-23 -16.5t-41 -4.5v-29h270v29q-26 0 -41 4.5
t-23 16.5t-11.5 34.5t-3.5 61.5v21q0 56 18.5 81.5t43.5 25.5q19 0 27 -8.5t14 -25.5q7 -16 14.5 -24t24.5 -8q26 0 39.5 19t13.5 41q0 33 -21.5 57.5t-67.5 24.5q-30 0 -60 -21t-46 -51q-1 11 -5 27t-9 28h-331v124q0 66 12 92.5t42 26.5q18 0 26.5 -10.5t16.5 -32.5
t17.5 -33.5t29.5 -11.5q18 0 28.5 12t10.5 29q0 32 -35 60t-91 28q-88 0 -128.5 -50t-40.5 -153v-81h-224v98q0 60 10 83.5t38 23.5q16 0 23 -9t15 -29q7 -20 16 -30.5t27 -10.5q16 0 25.5 11t9.5 27q0 28 -32 53t-82 25q-81 0 -122 -47t-41 -147v-48h-82v-44h82v-143
q0 -40 -3 -62t-11 -34t-23 -16.5t-42 -4.5v-29h271v29q-27 0 -41.5 4.5t-23 16.5t-11.5 34t-3 62v143z" />
    <glyph glyph-name="eight" unicode="8" horiz-adv-x="976" 
d="M223 289h224v-143q0 -39 -3.5 -61.5t-11.5 -34.5t-23 -16.5t-41 -4.5v-29h270v29q-26 0 -41 4.5t-23 16.5t-11.5 34.5t-3.5 61.5v143h191v-183q0 -58 31 -90.5t86 -32.5q25 0 61.5 17.5t60.5 40.5l-14 28q-39 -29 -67 -29q-45 0 -45 73v176h86v44h-86v137h-35
q-5 -54 -42.5 -95.5t-99.5 -41.5h-127v124q0 66 12 92.5t42 26.5q18 0 26.5 -10.5t16.5 -32.5t17.5 -33.5t29.5 -11.5q18 0 28.5 12t10.5 29q0 32 -35 60t-91 28q-88 0 -128.5 -50t-40.5 -153v-81h-224v98q0 60 10 83.5t38 23.5q16 0 23 -9t15 -29q7 -20 16 -30.5t27 -10.5
q16 0 25.5 11t9.5 27q0 28 -32 53t-82 25q-81 0 -122 -47t-41 -147v-48h-82v-44h82v-143q0 -40 -3 -62t-11 -34t-23 -16.5t-42 -4.5v-29h271v29q-27 0 -41.5 4.5t-23 16.5t-11.5 34t-3 62v143z" />
    <glyph glyph-name="nine" unicode="9" horiz-adv-x="1032" 
d="M884 124l-58 130q-8 18 -8 29q0 21 41 21v29h-300v124q0 66 12 92.5t42 26.5q18 0 26.5 -10.5t16.5 -32.5t17.5 -33.5t29.5 -11.5q18 0 28.5 12t10.5 29q0 32 -35 60t-91 28q-88 0 -128.5 -50t-40.5 -153v-81h-224v98q0 60 10 83.5t38 23.5q16 0 23 -9t15 -29
q7 -20 16 -30.5t27 -10.5q16 0 25.5 11t9.5 27q0 28 -32 53t-82 25q-81 0 -122 -47t-41 -147v-48h-82v-44h82v-143q0 -40 -3 -62t-11 -34t-23 -16.5t-42 -4.5v-29h271v29q-27 0 -41.5 4.5t-23 16.5t-11.5 34t-3 62v143h224v-143q0 -39 -3.5 -61.5t-11.5 -34.5t-23 -16.5
t-41 -4.5v-29h270v29q-26 0 -41 4.5t-23 16.5t-11.5 34.5t-3.5 61.5v143h88q24 0 39.5 -11.5t26.5 -38.5l114 -253q-35 -93 -79 -141t-106 -48q-22 0 -31 8t-16 22q-4 11 -9 16t-15 5q-22 0 -32.5 -12.5t-10.5 -33.5q0 -23 27.5 -44t67.5 -21q52 0 93 22.5t70.5 59.5
t49.5 77.5t43 96.5l108 261q10 27 27 38.5t44 11.5v29h-149v-29q37 0 37 -21q0 -11 -8 -29z" />
    <glyph glyph-name="colon" unicode=":" horiz-adv-x="313" 
d="M227 49q0 24 -17 41t-41 17q-23 0 -39.5 -17t-16.5 -41q0 -23 16.5 -40t39.5 -17q24 0 41 17t17 40zM227 238q0 24 -17 41t-41 17q-23 0 -39.5 -17t-16.5 -41q0 -23 16.5 -40t39.5 -17q24 0 41 17t17 40z" />
    <glyph glyph-name="semicolon" unicode=";" horiz-adv-x="313" 
d="M133 -128q48 31 74.5 76t26.5 87q0 33 -20 52t-46 19q-22 0 -38.5 -17.5t-16.5 -40.5t16.5 -40.5t38.5 -17.5h5q-7 -46 -58 -100zM227 238q0 24 -17 41t-41 17q-23 0 -39.5 -17t-16.5 -41q0 -23 16.5 -40t39.5 -17q24 0 41 17t17 40z" />
    <glyph glyph-name="less" unicode="&#x3c;" horiz-adv-x="500" 
d="M428 73l-175 195l175 195l-15 22l-338 -217l338 -218z" />
    <glyph glyph-name="equal" unicode="=" horiz-adv-x="458" 
d="M375 250v78h-292v-78h292zM375 108v78h-292v-78h292z" />
    <glyph glyph-name="greater" unicode="&#x3e;" horiz-adv-x="500" 
d="M425 268l-337 217l-16 -22l175 -195l-175 -195l16 -23z" />
    <glyph glyph-name="question" unicode="?" horiz-adv-x="513" 
d="M392 468q0 -55 -54.5 -87t-139.5 -32v-174h45v54q99 12 161.5 66t62.5 144q0 30 -15 62t-44 58t-71 42t-94 16q-27 0 -55.5 -7.5t-53 -22.5t-39.5 -37t-15 -49q0 -44 27 -65t59 -21q21 0 42.5 13.5t21.5 38.5q0 17 -13 29.5t-31 12.5q-17 0 -25.5 6.5t-8.5 16.5
q0 14 25 29.5t66 15.5q65 0 107 -33t42 -76zM278 49q0 24 -16.5 41t-40.5 17t-40 -17t-16 -41q0 -23 16 -40t40 -17t40.5 17t16.5 40z" />
    <glyph glyph-name="at" unicode="@" horiz-adv-x="787" 
d="M349 245h-159l79 183zM517 170l-194 447h-21l-217 -500q-23 -53 -47 -70.5t-76 -17.5v-29h242v29q-45 0 -65 9t-20 30q0 14 10 37l41 95h198l95 -217h22l217 500q23 53 47 70.5t75 17.5v29h-241v-29q45 0 65 -9t20 -30q0 -14 -10 -37z" />
    <glyph glyph-name="A" unicode="A" horiz-adv-x="1033" 
d="M757 245h-159l79 183zM349 245h-159l79 183zM483 -17l95 217h198l42 -95q11 -24 11 -39q0 -19 -20 -28t-66 -9v-29h328v29q-56 0 -77.5 17.5t-45.5 70.5l-217 500h-22l-192 -444l-194 444h-21l-217 -500q-23 -53 -47 -70.5t-76 -17.5v-29h242v29q-45 0 -65 9t-20 30
q0 14 10 37l41 95h198l94 -217h21z" />
    <glyph glyph-name="B" unicode="B" horiz-adv-x="1120" 
d="M813 45q-31 0 -48.5 5t-26.5 16.5t-12.5 32t-3.5 57.5v139h88q62 0 95 -35.5t33 -89.5t-32 -89t-93 -36zM722 555h56q54 0 82 -31t28 -77q0 -47 -28 -77t-82 -30h-56v215zM813 45h-3h3zM501 0h368q91 0 147 48.5t56 119.5q0 55 -33.5 97.5t-90.5 60.5q35 20 54.5 52.5
t19.5 71.5q0 64 -50 107t-131 43h-223l-187 -433l-193 433h-200v-29q33 0 51 -4.5t27.5 -16.5t13 -34t3.5 -62v-308q0 -40 -3.5 -62t-13 -34t-27.5 -16.5t-51 -4.5v-29h236v29q-33 0 -51 4.5t-28 16.5t-13.5 34.5t-3.5 61.5v288l201 -451h22l196 452v-289q0 -39 -3.5 -61.5
t-13.5 -34.5t-28 -16.5t-51 -4.5v-29z" />
    <glyph glyph-name="C" unicode="C" horiz-adv-x="975" 
d="M469 53q-39 -22 -90 -22q-53 0 -93 24t-65.5 63.5t-37.5 87t-12 94.5t12 94.5t37.5 87t65.5 63.5t93 24q51 0 90 -22q-54 -45 -84.5 -109.5t-30.5 -137.5q0 -74 30.5 -138.5t84.5 -108.5zM529 493q30 -38 44.5 -89.5t14.5 -103.5t-14.5 -103.5t-44.5 -89.5q-24 37 -36 88
t-12 105q0 55 12 105.5t36 87.5zM585 548q35 21 80 21q76 0 131.5 -52t76.5 -148h29v220h-29q-9 -43 -25 -57q-39 41 -87 63t-100 22q-71 0 -135 -33q-69 33 -147 33q-67 0 -128 -24.5t-107 -68.5t-72 -102t-26 -122t26 -122t72 -102t107 -68.5t128 -24.5q78 0 147 33
q64 -33 135 -33q51 0 99 22t88 63q8 -6 14.5 -21.5t10.5 -35.5h29v220h-29q-21 -95 -77 -147.5t-131 -52.5q-45 0 -80 21q60 44 94 109t34 139t-34 139t-94 109z" />
    <glyph glyph-name="D" unicode="D" horiz-adv-x="1210" 
d="M722 555h106q57 0 96 -22.5t60.5 -60t30 -81t8.5 -91.5q0 -47 -8.5 -91t-30 -81.5t-60.5 -60t-96 -22.5h-10q-33 0 -51.5 4.5t-28 16t-13 33t-3.5 59.5v397zM501 0h330q85 0 148 23t104 64t61 95.5t20 117.5t-20 117.5t-61 95.5t-104 64t-148 23h-213l-187 -433l-193 433
h-200v-29q33 0 51 -4.5t27.5 -16.5t13 -34t3.5 -62v-308q0 -40 -3.5 -62t-13 -34t-27.5 -16.5t-51 -4.5v-29h236v29q-33 0 -51 4.5t-28 16.5t-13.5 34.5t-3.5 61.5v288l201 -451h22l196 452v-289q0 -39 -3.5 -61.5t-13.5 -34.5t-28 -16.5t-51 -4.5v-29z" />
    <glyph glyph-name="E" unicode="E" horiz-adv-x="1104" 
d="M1016 600h-398l-187 -433l-193 433h-200v-29q33 0 51 -4.5t27.5 -16.5t13 -34t3.5 -62v-308q0 -40 -3.5 -62t-13 -34t-27.5 -16.5t-51 -4.5v-29h236v29q-33 0 -51 4.5t-28 16.5t-13.5 34.5t-3.5 61.5v288l201 -451h22l196 452v-289q0 -39 -3.5 -61.5t-13.5 -34.5
t-28 -16.5t-51 -4.5v-29h548l9 141h-30l-5 -20q-11 -44 -31 -60t-84 -16h-90q-33 0 -51.5 4.5t-28 16.5t-13 34t-3.5 62v133h54q40 0 62 -3.5t34 -13t16.5 -27.5t4.5 -52h29v237h-29q0 -33 -4.5 -51t-16.5 -28t-34.5 -13.5t-61.5 -3.5h-54v215h152q64 0 84.5 -16t31.5 -60
l5 -20h29z" />
    <glyph glyph-name="F" unicode="F" horiz-adv-x="1138" 
d="M1113 600h-1075v-29q33 0 51 -4.5t27.5 -16.5t13 -34t3.5 -62v-308q0 -40 -3.5 -62t-13 -34t-27.5 -16.5t-51 -4.5v-29h316v29q-33 0 -51 4.5t-28 16.5t-13.5 34.5t-3.5 61.5v149h55q40 0 62 -3.5t33.5 -13t16 -28t4.5 -51.5h29v237h-29q0 -33 -4.5 -51t-16 -28
t-34 -13.5t-61.5 -3.5h-55v215h324q33 0 51 -4.5t28 -16.5t13.5 -34.5t3.5 -61.5v-292q0 -39 -3.5 -61.5t-13.5 -34.5t-28 -16.5t-51 -4.5v-29h316v29q-33 0 -51 4.5t-27.5 16.5t-13 34t-3.5 62v149h54q40 0 62 -3.5t33.5 -13t16 -28t4.5 -51.5h30v237h-30q0 -33 -4.5 -51
t-16 -28t-34 -13.5t-61.5 -3.5h-54v215h169q64 0 84 -16t32 -60l5 -20h29z" />
    <glyph glyph-name="G" unicode="G" horiz-adv-x="1008" 
d="M469 53q-39 -22 -90 -22q-53 0 -93 24t-65.5 63.5t-37.5 87t-12 94.5t12 94.5t37.5 87t65.5 63.5t93 24q51 0 90 -22q-54 -45 -84.5 -109.5t-30.5 -137.5q0 -74 30.5 -138.5t84.5 -108.5zM529 493q30 -38 44.5 -89.5t14.5 -103.5t-14.5 -103.5t-44.5 -89.5q-24 37 -36 88
t-12 105q0 55 12 105.5t36 87.5zM585 548q35 21 80 21q76 0 131.5 -52t76.5 -148h29v220h-29q-9 -43 -25 -57q-39 41 -87 63t-100 22q-71 0 -135 -33q-69 33 -147 33q-67 0 -128 -24.5t-107 -68.5t-72 -102t-26 -122t26 -122t72 -102t107 -68.5t128 -24.5q78 0 147 33
q64 -33 135 -33q33 0 59 6.5t60 18.5q40 13 70 20t71 7v68q0 40 3.5 62t13 33.5t28 16t51.5 4.5v29h-263v-29q33 0 47 -15.5t14 -48.5q0 -64 -42.5 -94t-107.5 -30q-45 0 -80 21q60 44 94 109t34 139t-34 139t-94 109z" />
    <glyph glyph-name="H" unicode="H" horiz-adv-x="1073" 
d="M565 296v-150q0 -40 -3.5 -62t-13 -34t-27.5 -16.5t-52 -4.5v-29h549l8 141h-29l-5 -20q-12 -44 -32 -60t-84 -16h-90q-33 0 -51 4.5t-28 16.5t-13.5 34.5t-3.5 61.5v133h54q40 0 62 -3.5t34 -13t16.5 -27.5t4.5 -52h29v237h-29q0 -33 -4.5 -51t-16.5 -28t-34.5 -13.5
t-61.5 -3.5h-54v215h153q64 0 84 -16t31 -60l5 -20h30l-9 141h-515v-29q34 0 52 -4.5t27.5 -16.5t13 -34t3.5 -62v-113h-307v113q0 39 3.5 61.5t13.5 34.5t28 16.5t51 4.5v29h-316v-29q33 0 51 -4.5t27.5 -16.5t13 -34t3.5 -62v-308q0 -40 -3.5 -62t-13 -34t-27.5 -16.5
t-51 -4.5v-29h316v29q-33 0 -51 4.5t-28 16.5t-13.5 34.5t-3.5 61.5v150h307z" />
    <glyph glyph-name="I" unicode="I" horiz-adv-x="944" 
d="M907 600h-869v-29q33 0 51 -4.5t27.5 -16.5t13 -34t3.5 -62v-308q0 -40 -3.5 -62t-13 -34t-27.5 -16.5t-51 -4.5v-29h316v29q-33 0 -51 4.5t-28 16.5t-13.5 34.5t-3.5 61.5v149h55q40 0 62 -3.5t33.5 -13t16 -28t4.5 -51.5h29v237h-29q0 -33 -4.5 -51t-16 -28t-34 -13.5
t-61.5 -3.5h-55v215h332q33 0 51 -4.5t28 -16.5t13.5 -34.5t3.5 -61.5v-292q0 -39 -3.5 -61.5t-13.5 -34.5t-28 -16.5t-51 -4.5v-29h317v29q-33 0 -51.5 4.5t-28 16.5t-13 34t-3.5 62v308q0 40 3.5 62t13 34t28 16.5t51.5 4.5v29z" />
    <glyph glyph-name="J" unicode="J" horiz-adv-x="1078" 
d="M770 45q-31 0 -48.5 5t-26.5 16.5t-12.5 32t-3.5 57.5v139h89q62 0 94.5 -35.5t32.5 -89.5t-32 -89t-93 -36zM679 555h56q54 0 82 -31t28 -77q0 -47 -28 -77t-82 -30h-56v215zM770 45h-2h2zM554 0h273q91 0 146.5 48t55.5 120q0 55 -33 97.5t-91 60.5q35 20 54.5 52.5
t19.5 71.5q0 64 -50 107t-131 43h-340v-29q34 0 52 -4.5t27.5 -16.5t13 -34t3.5 -62v-220q0 -94 -40 -141.5t-107 -47.5q-68 0 -111.5 48t-43.5 141v220q0 40 3.5 62t13 34t28 16.5t51.5 4.5v29h-317v-29q33 0 51 -4.5t28 -16.5t13.5 -34.5t3.5 -61.5v-231q0 -114 68 -177
t172 -63q57 0 106 20.5t81 59.5v-63z" />
    <glyph glyph-name="K" unicode="K" horiz-adv-x="1152" 
d="M622 -17v284l42 35l198 -214q19 -20 19 -34q0 -25 -57 -25v-29h333v29q-24 0 -64.5 17.5t-64.5 41.5l-278 287l143 114q4 3 6 4q55 45 88.5 61.5t88.5 16.5v29h-241v-29q22 0 32 -5.5t10 -14.5q0 -13 -14.5 -30.5t-31.5 -31.5l-209 -169v134q0 40 3.5 62t13 34t28 16.5
t51.5 4.5v29h-300v-29q33 0 51 -4.5t27.5 -16.5t13 -34t3.5 -62v-183l-275 329h-200v-29q33 0 51 -4.5t27.5 -16.5t13 -34t3.5 -62v-308q0 -40 -3.5 -62t-13 -34t-27.5 -16.5t-51 -4.5v-29h236v29q-33 0 -51 4.5t-28 16.5t-13.5 34.5t-3.5 61.5v331l414 -494h30z" />
    <glyph glyph-name="L" unicode="L" horiz-adv-x="1186" 
d="M907 600h-869v-29q33 0 51 -4.5t27.5 -16.5t13 -34t3.5 -62v-308q0 -40 -3.5 -62t-13 -34t-27.5 -16.5t-51 -4.5v-29h316v29q-33 0 -51 4.5t-28 16.5t-13.5 34.5t-3.5 61.5v149h55q40 0 62 -3.5t33.5 -13t16 -28t4.5 -51.5h29v237h-29q0 -33 -4.5 -51t-16 -28t-34 -13.5
t-61.5 -3.5h-55v215h332q33 0 51 -4.5t28 -16.5t13.5 -34.5t3.5 -61.5v-292q0 -39 -3.5 -61.5t-13.5 -34.5t-28 -16.5t-51 -4.5v-29h573l9 141h-29l-5 -20q-12 -44 -32 -60t-84 -16h-115q-33 0 -51.5 4.5t-28 16.5t-13 34t-3.5 62v292q0 40 3.5 62t13 34t28 16.5t51.5 4.5
v29z" />
    <glyph glyph-name="M" unicode="M" horiz-adv-x="1117" 
d="M841 245h-159l79 183zM38 0h658v29q-45 0 -65 9t-20 30q0 14 10 37l41 95h198l42 -95q11 -24 11 -39q0 -19 -20 -28t-66 -9v-29h328v29q-56 0 -77.5 17.5t-44.5 70.5l-218 500h-22l-210 -484q-22 -53 -46.5 -70.5t-75.5 -17.5h-34h-73q-33 0 -51 4.5t-28 16.5t-13.5 34.5
t-3.5 61.5v292q0 39 3.5 61.5t13.5 34.5t28 16.5t51 4.5v29h-316v-29q33 0 51 -4.5t27.5 -16.5t13 -34t3.5 -62v-308q0 -40 -3.5 -62t-13 -34t-27.5 -16.5t-51 -4.5v-29z" />
    <glyph glyph-name="N" unicode="N" horiz-adv-x="1308" 
d="M1291 600h-815v-29q33 0 51 -4.5t28 -16.5t13.5 -34.5t3.5 -61.5v-252l-334 398h-200v-29q33 0 51 -4.5t27.5 -16.5t13 -34t3.5 -62v-308q0 -40 -3.5 -62t-13 -34t-27.5 -16.5t-51 -4.5v-29h236v29q-33 0 -51 4.5t-28 16.5t-13.5 34.5t-3.5 61.5v331l414 -494h25v455
q0 40 3.5 62t13 34t28 16.5t51.5 4.5h211v-409q0 -40 -3.5 -62t-13 -34t-27.5 -16.5t-52 -4.5v-29h317v29q-33 0 -51 4.5t-28 16.5t-13.5 34.5t-3.5 61.5v409h100q64 0 84.5 -16t31.5 -60l5 -20h29z" />
    <glyph glyph-name="O" unicode="O" horiz-adv-x="1067" 
d="M533 488q27 -38 41 -88t14 -100q0 -51 -13.5 -100.5t-41.5 -87.5q-27 38 -40.5 88t-13.5 100t13.5 100t40.5 88zM533 581q-75 36 -154 36q-67 0 -128 -24.5t-107 -68.5t-72 -102t-26 -122t26 -122t72 -102t107 -68.5t128 -24.5q80 0 154 36q77 -36 155 -36q67 0 128 24.5
t107 68.5t72 102t26 122t-25.5 122t-72 102t-107.5 68.5t-128 24.5q-80 0 -155 -36zM475 57q-41 -26 -96 -26q-53 0 -93 24t-65.5 63.5t-37.5 87t-12 94.5t12 94.5t37.5 87t65.5 63.5t93 24q55 0 96 -26q-56 -43 -88.5 -107t-32.5 -136q0 -71 32.5 -134.5t88.5 -108.5z
M592 543q40 26 96 26q53 0 93 -24t65.5 -63.5t37.5 -87t12 -94.5t-12 -94.5t-37.5 -87t-65.5 -63.5t-93 -24q-56 0 -96 26q56 43 88.5 107t32.5 136t-32.5 135t-88.5 108z" />
    <glyph glyph-name="P" unicode="P" horiz-adv-x="1062" 
d="M777 308h-55v247h55q62 0 94.5 -35t32.5 -89t-32.5 -88.5t-94.5 -34.5zM501 0h317v29q-33 0 -51.5 4.5t-28 16.5t-13 34t-3.5 62v117h114q91 0 146.5 48t55.5 120t-55.5 120.5t-146.5 48.5h-218l-187 -433l-193 433h-200v-29q33 0 51 -4.5t27.5 -16.5t13 -34t3.5 -62
v-308q0 -40 -3.5 -62t-13 -34t-27.5 -16.5t-51 -4.5v-29h236v29q-33 0 -51 4.5t-28 16.5t-13.5 34.5t-3.5 61.5v288l201 -451h22l196 452v-289q0 -39 -3.5 -61.5t-13.5 -34.5t-28 -16.5t-51 -4.5v-29z" />
    <glyph glyph-name="Q" unicode="Q" horiz-adv-x="766" 
d="M678 600h-661l-9 -141h30l5 20q11 44 31 60t84 16h100v-409q0 -40 -3.5 -62t-13 -34t-27.5 -16.5t-51 -4.5v-29h548l8 141h-29l-5 -20q-11 -44 -31.5 -60t-84.5 -16h-90q-33 0 -51 4.5t-28 16.5t-13.5 34.5t-3.5 61.5v133h55q40 0 62 -3.5t33.5 -13t16 -28t4.5 -51.5h29
v237h-29q0 -33 -4.5 -51t-16 -28t-34 -13.5t-61.5 -3.5h-55v215h153q64 0 84 -15.5t32 -60.5l5 -20h29z" />
    <glyph glyph-name="R" unicode="R" horiz-adv-x="803" 
d="M438 308h-55v247h55q62 0 95 -35t33 -89t-33 -88.5t-95 -34.5zM163 0h316v29q-33 0 -51 4.5t-28 16.5t-13.5 34.5t-3.5 61.5v117h29l178 -263h217v29q-24 3 -43.5 10t-40 20.5t-45.5 37t-58 60.5l-97 106q81 7 129 54.5t48 113.5q0 72 -55.5 120.5t-146.5 48.5h-481
l-9 -141h30l5 20q11 44 31 60t84 16h100v-409q0 -40 -3.5 -62t-13 -34t-27.5 -16.5t-51 -4.5v-29z" />
    <glyph glyph-name="S" unicode="S" horiz-adv-x="1168" 
d="M679 555h106q58 0 96.5 -22.5t60 -60t30 -81.5t8.5 -91t-8.5 -91t-30 -81.5t-60 -60t-96.5 -22.5h-10q-33 0 -51 4.5t-28 16t-13.5 33t-3.5 59.5v397zM554 0h234q85 0 148.5 23t104.5 64t61 95.5t20 117.5t-20 117.5t-61 95.5t-104.5 64t-148.5 23h-330v-29q34 0 52 -4.5
t27.5 -16.5t13 -34t3.5 -62v-220q0 -94 -40 -141.5t-107 -47.5q-68 0 -111.5 48t-43.5 141v220q0 40 3.5 62t13 34t28 16.5t51.5 4.5v29h-317v-29q33 0 51 -4.5t28 -16.5t13.5 -34.5t3.5 -61.5v-231q0 -114 68 -177t172 -63q57 0 106 20.5t81 59.5v-63z" />
    <glyph glyph-name="T" unicode="T" horiz-adv-x="1183" 
d="M1167 600h-1150l-9 -141h30l5 20q11 44 31 60t84 16h100v-409q0 -40 -3.5 -62t-13 -34t-27.5 -16.5t-51 -4.5v-29h316v29q-33 0 -51 4.5t-28 16.5t-13.5 34.5t-3.5 61.5v409h417v-409q0 -40 -3.5 -62t-13 -34t-27.5 -16.5t-52 -4.5v-29h317v29q-33 0 -51 4.5t-28 16.5
t-13.5 34.5t-3.5 61.5v409h100q64 0 84.5 -16t31.5 -60l5 -20h29z" />
    <glyph glyph-name="U" unicode="U" horiz-adv-x="1019" 
d="M734 308h-55v247h55q62 0 95 -35t33 -89t-33 -88.5t-95 -34.5zM554 0h221v29q-33 0 -51 4.5t-28 16.5t-13.5 34.5t-3.5 61.5v117h114q92 0 147.5 48t55.5 120t-55.5 120.5t-147.5 48.5h-335v-29q34 0 52 -4.5t27.5 -16.5t13 -34t3.5 -62v-220q0 -94 -40 -141.5
t-107 -47.5q-68 0 -111.5 48t-43.5 141v220q0 40 3.5 62t13 34t28 16.5t51.5 4.5v29h-317v-29q33 0 51 -4.5t28 -16.5t13.5 -34.5t3.5 -61.5v-231q0 -114 68 -177t172 -63q57 0 106 20.5t81 59.5v-63z" />
    <glyph glyph-name="V" unicode="V" horiz-adv-x="872" 
d="M910 0v29q-56 0 -77.5 17.5t-44.5 70.5l-218 500h-22l-193 -447l-140 325q-11 24 -11 39q0 19 20 28t66 9v29h-328v-29q57 0 78 -17.5t44 -70.5l218 -500h21l94 217h198l42 -95q11 -24 11 -39q0 -19 -20 -28t-66 -9v-29h328zM596 245h-159l79 183z" />
    <glyph glyph-name="W" unicode="W" horiz-adv-x="1353" 
d="M865 600h-848l-9 -141h30l5 20q11 44 31 60t84 16h100v-409q0 -40 -3.5 -62t-13 -34t-27.5 -16.5t-51 -4.5v-29h316v29q-33 0 -51 4.5t-28 16.5t-13.5 34.5t-3.5 61.5v409h148h23q32 0 51.5 -4t31.5 -13.5t19.5 -25t16.5 -44.5l157 -485h22l123 387l126 -387h22l161 500
q9 28 17 44t20 26t31.5 14t50.5 4v29h-233v-29q41 0 59 -10t18 -32q0 -14 -7 -34l-92 -282l-125 387h-23l-122 -386l-91 281q-7 23 -7 37q0 21 19 30t66 9v29z" />
    <glyph glyph-name="X" unicode="X" horiz-adv-x="1054" 
d="M775 600h-317v-29q34 0 52 -4.5t27.5 -16.5t13 -34t3.5 -62v-220q0 -94 -40 -141.5t-107 -47.5q-68 0 -111.5 48t-43.5 141v220q0 40 3.5 62t13 34t28 16.5t51.5 4.5v29h-317v-29q33 0 51 -4.5t28 -16.5t13.5 -34.5t3.5 -61.5v-231q0 -114 68 -177t172 -63q57 0 106 20.5
t81 59.5v-63h478l8 141h-29l-5 -20q-11 -44 -31.5 -60t-84.5 -16h-115q-33 0 -51 4.5t-28 16.5t-13.5 34.5t-3.5 61.5v292q0 39 3.5 61.5t13.5 34.5t28 16.5t51 4.5v29z" />
    <glyph glyph-name="Y" unicode="Y" horiz-adv-x="1200" 
d="M873 600h-856l-9 -141h30l5 20q11 44 31 60t84 16h100v-409q0 -40 -3.5 -62t-13 -34t-27.5 -16.5t-51 -4.5v-29h316v29q-33 0 -51 4.5t-28 16.5t-13.5 34.5t-3.5 61.5v409h105h57q53 0 81 -17t63 -70l134 -204v-118q0 -40 -3.5 -62t-13 -34t-27.5 -16.5t-51 -4.5v-29h312
v29q-33 0 -51 4.5t-28 16.5t-13.5 34.5t-3.5 61.5v121l144 216q19 29 30.5 44t26 25t35 14.5t52.5 4.5v29h-242v-29q73 0 73 -30q0 -16 -20 -46l-111 -169l-113 169q-18 26 -18 43q0 33 72 33v29z" />
    <glyph glyph-name="Z" unicode="Z" horiz-adv-x="1099" 
d="M734 308h-55v247h55q62 0 95 -35t33 -89t-33 -88.5t-95 -34.5zM554 0h221v29q-33 0 -51 4.5t-28 16.5t-13.5 34.5t-3.5 61.5v117h29l178 -263h217v29q-24 3 -43.5 10t-40 20.5t-45.5 37t-58 60.5l-98 106q81 7 129.5 54.5t48.5 113.5q0 72 -55.5 120.5t-147.5 48.5h-335
v-29q34 0 52 -4.5t27.5 -16.5t13 -34t3.5 -62v-220q0 -94 -40 -141.5t-107 -47.5q-68 0 -111.5 48t-43.5 141v220q0 40 3.5 62t13 34t28 16.5t51.5 4.5v29h-317v-29q33 0 51 -4.5t28 -16.5t13.5 -34.5t3.5 -61.5v-231q0 -114 68 -177t172 -63q57 0 106 20.5t81 59.5v-63z
" />
    <glyph glyph-name="bracketleft" unicode="[" horiz-adv-x="375" 
d="M336 -88v40h-104v686h104v40h-219v-766h219z" />
    <glyph glyph-name="backslash" unicode="\" horiz-adv-x="348" 
d="M383 7l-370 613l-47 -26l369 -612z" />
    <glyph glyph-name="bracketright" unicode="]" horiz-adv-x="375" 
d="M258 -88v766h-219v-40h104v-686h-104v-40h219z" />
    <glyph glyph-name="asciicircum" unicode="^" horiz-adv-x="630" 
d="M373 229q17 73 72 73q30 0 46 -19.5t16 -53.5h-134zM261 88q-24 -21 -47 -33t-36 -12q-17 0 -28.5 9.5t-11.5 30.5q0 35 29.5 54t93.5 36v-85zM279 63q26 -37 70 -58.5t99 -21.5q42 0 84 18.5t69 47.5l-18 29q-22 -20 -53 -31t-65 -11q-40 0 -69.5 33.5t-29.5 95.5
q0 3 1 10v10h217q5 15 5 31q0 51 -41.5 92.5t-107.5 41.5q-61 0 -112 -32q-36 32 -120 32q-58 0 -101.5 -22t-43.5 -58q0 -20 11 -31.5t28 -11.5t28.5 12t11.5 31q0 18 17 28.5t37 10.5q33 0 49 -21t16 -74v-1q-107 -16 -164.5 -49t-57.5 -93q0 -38 29 -61t67 -23
q33 0 66.5 17.5t77.5 58.5z" />
    <glyph glyph-name="underscore" unicode="_" horiz-adv-x="358" 
d="M359 -44v44h-360v-44h360z" />
    <glyph glyph-name="grave" unicode="`" horiz-adv-x="1108" 
d="M383 555h199q26 0 41 -4.5t23 -16.5t11.5 -34.5t3.5 -61.5v-292q0 -39 -3.5 -61.5t-11.5 -34.5t-23 -16.5t-41 -4.5v-29h271v29q-27 0 -42 4.5t-23 16.5t-11.5 34.5t-3.5 61.5v49q0 47 27.5 73t61.5 26q35 0 48 -26.5t13 -79.5v-42q0 -70 -9 -93.5t-30 -23.5v-29h231v29
q-27 0 -41.5 4.5t-23 16.5t-11.5 34t-3 62v55q0 65 -39 107t-105 42q-39 0 -68 -14t-51 -40v321q-7 -1 -23 -3.5t-47 -5.5t-63.5 -5.5t-65.5 -2.5h-557l-9 -141h30l5 20q11 44 31 60t84 16h100v-409q0 -40 -3.5 -62t-13 -34t-27.5 -16.5t-51 -4.5v-29h316v29q-33 0 -51 4.5
t-28 16.5t-13.5 34.5t-3.5 61.5v409z" />
    <glyph glyph-name="a" unicode="a" horiz-adv-x="883" 
d="M626 229q17 73 72 73q29 0 45.5 -18t16.5 -46q0 -1 -1 -4v-5h-133zM261 88q-24 -21 -47 -33t-36 -12q-17 0 -28.5 9.5t-11.5 30.5q0 35 29.5 54t93.5 36v-85zM366 223q-2 67 -39.5 97t-118.5 30q-58 0 -101.5 -22t-43.5 -58q0 -20 11 -31.5t28 -11.5t28.5 12t11.5 31
q0 18 17 28.5t37 10.5q33 0 49 -21t16 -74v-1q-107 -16 -164.5 -49t-57.5 -93q0 -38 29 -61t67 -23q32 0 56.5 12.5t69.5 47.5q11 -58 77 -58q18 0 45 10.5t48 26.5l-14 27q-1 -1 -2 -1q-17 -11 -27 -11q-22 0 -22 38v101q27 2 52.5 3t71.5 2h10q-1 -6 -1 -18
q0 -38 14.5 -71.5t41.5 -59t64.5 -39.5t81.5 -14q42 0 83.5 18.5t68.5 47.5l-17 29q-48 -42 -118 -42q-41 0 -70.5 34t-29.5 97l1 9v9h218q4 15 4 30q0 52 -41 93.5t-107 41.5q-63 0 -113 -33t-70 -88q-60 0 -144 -6z" />
    <glyph glyph-name="b" unicode="b" horiz-adv-x="855" 
d="M805 167q0 78 -49.5 130.5t-132.5 52.5q-46 0 -82 -29v296h-253q-178 0 -178 -203v-81h-82v-44h82v-143q0 -40 -3 -62t-11 -34t-23 -16.5t-42 -4.5v-29h271v29q-27 0 -41.5 4.5t-23 16.5t-11.5 34t-3 62v143h100v44h-100v124q0 64 12.5 91.5t49.5 27.5h64
q48 0 63.5 -31.5t15.5 -110.5v-155v-287h30l52 56q19 -30 48 -47.5t65 -17.5q83 0 132.5 53t49.5 131zM683 167q0 -60 -19 -98.5t-56 -38.5q-27 0 -47 25.5t-20 62.5v97q0 38 20 63t47 25q37 0 56 -38t19 -98z" />
    <glyph glyph-name="c" unicode="c" horiz-adv-x="716" 
d="M233 310q1 -5 3 -14q2 -4 2 -5q12 -32 29.5 -51t41.5 -19q23 0 36 15.5t13 31.5q0 24 -18 44t-54 29q-16 39 -16 75q0 61 42.5 99.5t95.5 38.5q66 0 102.5 -35t36.5 -79q0 -34 -24.5 -66.5t-71.5 -45.5q-1 0 -5.5 -1.5t-16.5 -4.5v-33h53v-183q0 -58 31 -90.5t85 -32.5
q26 0 62 17.5t61 40.5l-14 28q-41 -29 -68 -29q-45 0 -45 73v176h87v44h-87v77q0 79 -50.5 124.5t-133.5 45.5q-36 0 -70.5 -13t-61 -37.5t-42 -60.5t-15.5 -80q0 -19 3 -39q-76 -2 -129 -54.5t-53 -137.5q0 -37 14.5 -69t40.5 -56t61.5 -37t76.5 -13q44 0 82 17.5t67 48.5
l-17 29q-26 -22 -53 -34t-48 -12q-48 0 -75 33t-27 93q0 72 16 111.5t53 40.5z" />
    <glyph glyph-name="d" unicode="d" horiz-adv-x="695" 
d="M548 124l-59 130q-8 18 -8 28q0 22 42 22v29h-300v124q0 66 11.5 92.5t42.5 26.5q18 0 26 -10.5t16 -31.5q9 -23 18.5 -34.5t29.5 -11.5q18 0 28 12t10 29q0 32 -35 60t-91 28q-88 0 -128.5 -50t-40.5 -153v-81h-82v-44h82v-143q0 -40 -3 -62t-11 -34t-23 -16.5t-42 -4.5
v-29h271v29q-27 0 -41.5 4.5t-23 16.5t-11.5 34t-3 62v143h87q23 0 39 -11.5t28 -38.5l113 -253q-35 -93 -79 -141t-106 -48q-22 0 -31 8t-15 22q-5 11 -10 16t-15 5q-22 0 -32.5 -12.5t-10.5 -33.5q0 -23 27.5 -44t67.5 -21q52 0 93 22.5t70.5 59.5t49.5 77t44 97l107 261
q10 27 27 38.5t44 11.5v29h-148v-29q36 0 36 -22q0 -10 -7 -28z" />
    <glyph glyph-name="e" unicode="e" horiz-adv-x="858" 
d="M302 229h-134q17 73 72 73q30 0 46 -19.5t16 -53.5zM735 229h-133q17 73 71 73q62 0 62 -73zM476 185q-1 -6 -1 -18q0 -38 14.5 -71.5t41.5 -59t64.5 -39.5t81.5 -14q41 0 83 19t69 47l-17 29q-23 -20 -54 -31t-65 -11q-41 0 -70 34t-29 97l1 9v9h218q4 15 4 30
q0 52 -41 93.5t-108 41.5q-62 0 -112 -33t-70 -88h-103q-6 49 -45.5 85t-102.5 36q-39 0 -74 -13.5t-62 -38.5t-42 -58.5t-15 -72.5q0 -38 14.5 -71.5t41.5 -59t64 -39.5t81 -14q42 0 84 18.5t69 47.5l-18 29q-22 -20 -53 -31t-65 -11q-40 0 -69.5 33.5t-29.5 95.5q0 3 1 10
v10h314z" />
    <glyph glyph-name="f" unicode="f" horiz-adv-x="673" 
d="M742 529q0 32 -35 60t-91 28q-88 0 -128.5 -50t-40.5 -153v-81h-224v98q0 60 10 83.5t38 23.5q16 0 23 -9t15 -29q7 -20 16 -30.5t27 -10.5q16 0 25.5 11t9.5 27q0 28 -32 53t-82 25q-81 0 -122 -47t-41 -147v-48h-82v-44h82v-143q0 -40 -3 -62t-11 -34t-23 -16.5
t-42 -4.5v-29h271v29q-27 0 -41.5 4.5t-23 16.5t-11.5 34t-3 62v143h224v-143q0 -39 -3.5 -61.5t-11.5 -34.5t-23 -16.5t-41 -4.5v-29h270v29q-26 0 -41 4.5t-23 16.5t-11.5 34.5t-3.5 61.5v143h101v44h-101v124q0 66 12 92.5t42 26.5q18 0 26.5 -10.5t16.5 -32.5
t17.5 -33.5t29.5 -11.5q18 0 28.5 12t10.5 29z" />
    <glyph glyph-name="g" unicode="g" horiz-adv-x="699" 
d="M250 206q0 -42 -14 -68.5t-42 -26.5q-27 0 -41.5 26.5t-14.5 68.5t14.5 68.5t41.5 26.5q28 0 42 -26.5t14 -68.5zM278 318q-40 24 -84 24q-30 0 -57 -10.5t-48 -29.5t-32.5 -44t-11.5 -52q0 -38 21 -69.5t54 -45.5q-40 -13 -63.5 -37t-23.5 -51q0 -87 125 -100
q89 -9 119 -24.5t30 -42.5q0 -31 -33 -50t-86 -19q-43 0 -81 17.5t-38 49.5q0 28 32 62l-19 11q-66 -33 -66 -82q0 -41 49.5 -70.5t132.5 -29.5q81 0 136 39t55 103q0 23 -9 45.5t-29.5 42.5t-53 34t-78.5 19q-2 0 -24 3q-48 5 -65 9.5t-17 16.5q0 17 20 23t65 9q2 1 7 1
q61 5 99.5 44.5t38.5 91.5q0 42 -25 75q-13 49 -13 92q0 78 37.5 122t84.5 44q46 0 65 -40q10 -22 22 -34t29 -12q20 0 34 14.5t14 34.5q0 27 -22.5 46t-43.5 25q-32 10 -64 10q-40 0 -74.5 -15t-60.5 -43t-40.5 -65.5t-14.5 -81.5q0 -30 7 -60zM678 -8v29q-26 0 -41 4.5
t-23 16.5t-11.5 34.5t-3.5 61.5v204l-191 -25v-29q26 0 41 -4.5t23 -16.5t11.5 -34.5t3.5 -61.5v-33q0 -39 -3.5 -61.5t-11.5 -34.5t-23 -16.5t-41 -4.5v-29h270z" />
    <glyph glyph-name="h" unicode="h" horiz-adv-x="883" 
d="M541 296v321h-253q-178 0 -178 -203v-81h-82v-44h82v-143q0 -40 -3 -62t-11 -34t-23 -16.5t-42 -4.5v-29h271v29q-27 0 -41.5 4.5t-23 16.5t-11.5 34t-3 62v143h100v44h-100v124q0 64 12.5 91.5t49.5 27.5h64q48 0 63.5 -31.5t15.5 -110.5v-288q0 -40 -3 -62t-11 -34
t-23 -16.5t-42 -4.5v-29h271v29q-27 0 -41.5 4.5t-23 16.5t-11.5 34t-3 62v49q0 47 27 73t61 26q36 0 49 -26.5t13 -79.5v-42q0 -70 -9 -93.5t-30 -23.5v-29h231v29q-27 0 -42 4.5t-23 16.5t-11.5 34.5t-3.5 61.5v55q0 65 -39 107t-105 42q-38 0 -67 -14t-51 -40z" />
    <glyph glyph-name="i" unicode="i" horiz-adv-x="633" 
d="M310 0v29q-27 0 -41.5 4.5t-23 16.5t-11.5 34t-3 62v204l-192 -25v-29q27 0 42 -4.5t23 -16.5t11 -34t3 -62v-33q0 -40 -3 -62t-11 -34t-23 -16.5t-42 -4.5v-29h271zM219 477q24 42 48 59.5t66 17.5q67 0 103.5 -35t36.5 -79q0 -34 -24.5 -66.5t-71.5 -45.5q-4 -2 -22 -6
v-33h53v-183q0 -58 31 -90.5t85 -32.5q25 0 61.5 17.5t61.5 40.5l-14 28q-41 -29 -68 -29q-45 0 -45 73v176h87v44h-87v77q0 79 -50.5 124.5t-133.5 45.5q-48 0 -83.5 -2t-66.5 -8.5t-49.5 -21t-18.5 -38.5t16 -41t39 -17q13 0 26.5 7.5t19.5 17.5z" />
    <glyph glyph-name="j" unicode="j" horiz-adv-x="622" 
d="M543 -78v411h-320v119q0 62 26.5 93t68.5 31q38 0 51.5 -17.5t22.5 -51.5q6 -27 15 -40t31 -13q19 0 32 14t13 31q0 54 -48 86t-121 32q-90 0 -147 -54t-57 -160v-70h-82v-44h82v-143q0 -40 -3 -62t-11 -34t-23 -16.5t-42 -4.5v-29h271v29q-27 0 -41.5 4.5t-23 16.5
t-11.5 34t-3 62v143h128q27 0 42 -4.5t23 -16t11 -33.5t3 -62v-243q0 -89 -17 -122.5t-50 -33.5q-25 0 -35.5 12t-19.5 36q-7 20 -15 30t-25 10q-34 0 -34 -35q1 -33 40.5 -63.5t104.5 -30.5q82 0 123 45.5t41 143.5z" />
    <glyph glyph-name="k" unicode="k" horiz-adv-x="823" 
d="M676 124l-58 130q-24 55 -55.5 78t-88.5 23q-34 0 -65 -16t-71 -45l-5 -4l-129 -92v419l-191 -25v-29q26 0 41 -4.5t23 -16.5t11.5 -34.5t3.5 -61.5v-300q0 -39 -3.5 -61.5t-11.5 -34.5t-23 -16.5t-41 -4.5v-29h254v29q-38 0 -50.5 22t-12.5 87v21l134 -159h141v29
q-20 0 -38 8.5t-38 31.5l-117 141l76 58q25 19 42.5 27t38.5 8q20 0 32 -12t23 -37l120 -268q-35 -93 -79 -141t-106 -48q-21 0 -30 8t-16 22q-4 11 -9 16t-15 5q-22 0 -33 -12.5t-11 -33.5q0 -23 27.5 -44t67.5 -21q53 0 93.5 22.5t70 59.5t49 76t44.5 98l107 261
q11 27 28 38.5t43 11.5v29h-148v-29q36 0 36 -22q0 -10 -7 -28z" />
    <glyph glyph-name="l" unicode="l" horiz-adv-x="633" 
d="M285 576h64q48 0 63.5 -31.5t15.5 -110.5v-288q0 -40 -3 -62t-11 -34t-23 -16.5t-42 -4.5v-29h271v29q-27 0 -41.5 4.5t-23 16.5t-11.5 34t-3 62v471h-253q-178 0 -178 -203v-81h-82v-44h82v-143q0 -40 -3 -62t-11 -34t-23 -16.5t-42 -4.5v-29h271v29q-27 0 -41.5 4.5
t-23 16.5t-11.5 34t-3 62v143h100v44h-100v124q0 64 12.5 91.5t49.5 27.5z" />
    <glyph glyph-name="m" unicode="m" horiz-adv-x="820" 
d="M250 214q0 -42 -14 -68.5t-42 -26.5q-27 0 -41.5 26.5t-14.5 68.5t14.5 68.5t41.5 26.5q28 0 42 -26t14 -69zM426 389q2 0 5 -1h4q16 0 25.5 12t9.5 29q0 24 -18.5 42.5t-54.5 18.5q-49 0 -82 -32t-33 -91q0 -22 6 -49q-21 15 -43.5 23.5t-50.5 8.5q-30 0 -57 -10.5
t-48 -29.5t-32.5 -44t-11.5 -52q0 -38 21 -69t54 -46q-39 -12 -63 -36t-24 -51q0 -87 125 -100q89 -10 119 -25.5t30 -42.5q0 -31 -33 -49.5t-86 -18.5q-43 0 -81 17.5t-38 49.5q0 27 32 61l-19 11q-66 -33 -66 -82q0 -41 49.5 -70.5t132.5 -29.5q81 0 136 39t55 104
q0 23 -9 45.5t-29.5 42.5t-53.5 34t-78 19l-21 2q-50 5 -67.5 9.5t-17.5 16.5q0 17 19.5 23t61.5 9q7 1 11 1q61 5 99.5 44.5t38.5 91.5q0 23 -5 39.5t-19 33.5q-7 37 -7 67q0 42 14 65.5t43 23.5q14 0 19.5 -6t9.5 -19q5 -12 10.5 -19t17.5 -10zM660 214q0 -42 -14 -68.5
t-42 -26.5q-27 0 -41.5 26.5t-14.5 68.5t14.5 68.5t41.5 26.5q28 0 42 -26t14 -69zM669 343q-9 0 -30 3q-24 4 -35 4q-30 0 -57 -10.5t-48 -29.5t-32.5 -44t-11.5 -52q0 -38 21 -69t54 -46q-39 -12 -63 -36t-24 -51q0 -87 125 -100q89 -10 119 -25.5t30 -42.5
q0 -31 -33 -49.5t-86 -18.5q-43 0 -81 17.5t-38 49.5q0 27 32 61l-19 11q-66 -33 -66 -82q0 -40 49.5 -70t132.5 -30q81 0 136 39t55 104q0 23 -9 45.5t-29.5 42.5t-53.5 34t-78 19l-21 2q-50 5 -67.5 9.5t-17.5 16.5q0 17 19.5 23t61.5 9q7 1 11 1q61 5 99.5 44.5
t38.5 91.5q0 29 -13 55t-36 45q50 6 77 37.5t27 76.5q0 35 -18.5 53.5t-42.5 18.5q-17 0 -29 -9t-12 -24v-5q1 -3 1 -5q3 -12 9.5 -17.5t19.5 -10.5q12 -4 18 -9.5t6 -19.5q0 -32 -26 -44.5t-65 -12.5z" />
    <glyph glyph-name="n" unicode="n" horiz-adv-x="768" 
d="M522 -233l201 487q11 27 28 38.5t43 11.5v29h-148v-29q36 0 36 -22q0 -10 -7 -28l-54 -130l-58 130q-9 19 -9 29q0 21 42 21v29h-219v-29q24 0 39.5 -11.5t26.5 -38.5l120 -268l-43 -106q-11 -27 -23.5 -43t-29.5 -31q-12 -11 -17.5 -19t-5.5 -20q0 -20 13 -28.5t27 -8.5
q11 0 21 10.5t17 26.5zM250 214q0 -42 -14 -68.5t-42 -26.5q-27 0 -41.5 26.5t-14.5 68.5t14.5 68.5t41.5 26.5q28 0 42 -26t14 -69zM113 45q0 17 19.5 23t61.5 9q7 1 11 1q61 5 99.5 44.5t38.5 91.5q0 23 -5 39.5t-19 33.5q-7 37 -7 67q0 42 14 65.5t43 23.5q14 0 19.5 -6
t9.5 -19q5 -12 10.5 -19t17.5 -10q2 0 5 -1h4q16 0 25.5 12t9.5 29q0 24 -18.5 42.5t-54.5 18.5q-49 0 -82 -32t-33 -91q0 -22 6 -49q-21 15 -43.5 23.5t-50.5 8.5q-30 0 -57 -10.5t-48 -29.5t-32.5 -44t-11.5 -52q0 -38 21 -69t54 -46q-39 -12 -63 -36t-24 -51
q0 -87 125 -100q89 -10 119 -25.5t30 -42.5q0 -31 -33 -49.5t-86 -18.5q-43 0 -81 17.5t-38 49.5q0 27 32 61l-19 11q-66 -33 -66 -82q0 -41 49.5 -70.5t132.5 -29.5q81 0 136 39t55 104q0 23 -9 45.5t-29.5 42.5t-53.5 34t-78 19l-21 2q-50 5 -67.5 9.5t-17.5 16.5z" />
    <glyph glyph-name="o" unicode="o" horiz-adv-x="928" 
d="M672 229q17 73 71 73q62 0 62 -73h-133zM323 167q0 -60 -20.5 -98.5t-59.5 -38.5t-59 38.5t-20 98.5t20 98t59 38t59.5 -38t20.5 -98zM433 229q-22 54 -74 87.5t-116 33.5q-41 0 -77.5 -14t-64.5 -39.5t-43.5 -59t-15.5 -70.5t15.5 -70.5t43.5 -59t65 -40t77 -14.5
q41 0 78 14t65 40t43.5 59.5t15.5 70.5q0 12 -1 18h102q-1 -6 -1 -18q0 -38 14.5 -71.5t41.5 -59t64.5 -39.5t81.5 -14q41 0 83 19t69 47l-17 29q-23 -20 -54 -31t-65 -11q-41 0 -70 34t-29 97l1 9v9h218q4 15 4 30q0 52 -41 93.5t-108 41.5q-62 0 -112 -33t-70 -88h-123z
" />
    <glyph glyph-name="p" unicode="p" horiz-adv-x="860" 
d="M688 167q0 -60 -19 -98.5t-56 -38.5q-27 0 -47 25.5t-20 62.5v97q0 38 20 63t47 25q37 0 56 -38t19 -98zM393 331l-39 -6v-29q27 0 42 -4.5t23 -16.5t11 -34t3 -62v-283q0 -40 -3 -62t-11 -34t-23 -16.5t-42 -4.5v-29h271v29q-27 0 -41.5 4.5t-23 16.5t-11.5 34t-3 62
v117q35 -30 82 -30q83 0 132.5 53t49.5 131t-49.5 130.5t-132.5 52.5q-52 0 -90 -36v96q0 80 -46.5 125t-128.5 45q-74 0 -125 -51.5t-51 -139.5q0 -20 3 -40q-7 1 -22 1q-20 0 -40.5 -5.5t-38.5 -17t-28.5 -31t-10.5 -46.5q0 -29 19 -57t56 -45l56 -25q34 -16 49 -29
t15 -30t-14 -28t-38 -11t-46 9.5t-39 25t-27 34t-10 35.5h-29v-146h29q0 32 13 32q7 0 27 -10q22 -10 41 -16t42 -6q55 0 95.5 28.5t40.5 84.5q0 30 -20 57.5t-57 44.5l-49 23q-41 18 -55 28.5t-14 26.5q0 15 14 24.5t35 9.5q10 0 15 -2q2 -4 4 -11q1 -3 1 -4q9 -25 23 -40
t34 -15q18 0 28.5 12t10.5 25q0 22 -13.5 35t-38.5 26q-17 41 -17 80q0 61 39.5 99.5t90.5 38.5q65 0 97.5 -34t32.5 -80q0 -35 -25 -68.5t-73 -40.5z" />
    <glyph glyph-name="q" unicode="q" horiz-adv-x="1178" 
d="M401 249q2 0 5 -1h4q16 0 25.5 12t9.5 29q0 24 -18.5 42.5t-54.5 18.5q-17 0 -39.5 -11t-34.5 -27q-44 38 -104 38q-30 0 -57 -10.5t-48 -29.5t-32.5 -44t-11.5 -52q0 -38 21 -69t54 -46q-39 -12 -63 -36t-24 -51q0 -87 125 -100q89 -10 119 -25.5t30 -42.5
q0 -31 -33 -49.5t-86 -18.5q-43 0 -81 17.5t-38 49.5q0 27 32 61l-19 11q-66 -33 -66 -82q0 -41 49.5 -70.5t132.5 -29.5q81 0 136 39t55 104q0 23 -9 45.5t-29.5 42.5t-53.5 34t-78 19l-21 2q-50 5 -67.5 9.5t-17.5 16.5q0 17 19.5 23t61.5 9q7 1 11 1q61 5 99.5 44.5
t38.5 91.5q0 23 -5 39.5t-19 33.5q16 16 31 16q11 0 15.5 -5.5t7.5 -17.5q4 -13 9.5 -20.5t18.5 -10.5zM250 214q0 -42 -14 -68.5t-42 -26.5q-27 0 -41.5 26.5t-14.5 68.5t14.5 68.5t41.5 26.5q28 0 42 -26t14 -69zM932 -233l201 487q11 27 28 38.5t43 11.5v29h-148v-29
q36 0 36 -22q0 -10 -7 -28l-54 -130l-58 130q-9 19 -9 29q0 21 42 21v29h-219v-29q24 0 39.5 -11.5t26.5 -38.5l120 -268l-43 -106q-11 -27 -23.5 -43t-29.5 -31q-12 -11 -17.5 -19t-5.5 -20q0 -20 13 -28.5t27 -8.5q11 0 21 10.5t17 26.5zM660 214q0 -42 -14 -68.5
t-42 -26.5q-27 0 -41.5 26.5t-14.5 68.5t14.5 68.5t41.5 26.5q28 0 42 -26t14 -69zM523 45q0 17 19.5 23t61.5 9q7 1 11 1q61 5 99.5 44.5t38.5 91.5q0 23 -5 39.5t-19 33.5q-7 37 -7 67q0 42 14 65.5t43 23.5q14 0 19.5 -6t9.5 -19q5 -12 10.5 -19t17.5 -10q2 0 5 -1h4
q16 0 25.5 12t9.5 29q0 24 -18.5 42.5t-54.5 18.5q-49 0 -82 -32t-33 -91q0 -22 6 -49q-21 15 -43.5 23.5t-50.5 8.5q-30 0 -57 -10.5t-48 -29.5t-32.5 -44t-11.5 -52q0 -38 21 -69t54 -46q-39 -12 -63 -36t-24 -51q0 -87 125 -100q89 -10 119 -25.5t30 -42.5
q0 -31 -33 -49.5t-86 -18.5q-43 0 -81 17.5t-38 49.5q0 27 32 61l-19 11q-66 -33 -66 -82q0 -40 49.5 -70t132.5 -30q81 0 136 39t55 104q0 23 -9 45.5t-29.5 42.5t-53.5 34t-78 19l-21 2q-50 5 -67.5 9.5t-17.5 16.5z" />
    <glyph glyph-name="r" unicode="r" horiz-adv-x="768" 
d="M553 333h-330v124q0 66 11.5 92.5t42.5 26.5q18 0 26 -10.5t16 -31.5q9 -23 18.5 -34.5t29.5 -11.5q18 0 28 12t10 29q0 32 -35 60t-91 28q-88 0 -128.5 -50t-40.5 -153v-81h-82v-44h82v-143q0 -40 -3 -62t-11 -34t-23 -16.5t-42 -4.5v-29h271v29q-27 0 -41.5 4.5
t-23 16.5t-11.5 34t-3 62v143h153q27 0 42 -4.5t23 -16t11 -33.5t3 -62v-27q0 -40 -3 -62t-11 -34t-23 -16.5t-42 -4.5v-29h271v29q-27 0 -41.5 4.5t-23 16.5t-11.5 34t-3 62v21q0 56 18 81.5t43 25.5q19 0 27 -8.5t15 -25.5q7 -16 14 -24t24 -8q26 0 40 19t14 41
q0 33 -21.5 57.5t-68.5 24.5q-30 0 -60 -21t-45 -51q-2 12 -6 27.5t-9 27.5z" />
    <glyph glyph-name="s" unicode="s" horiz-adv-x="661" 
d="M190 349q-7 1 -22 1q-20 0 -40.5 -5.5t-38.5 -17t-28.5 -31t-10.5 -46.5q0 -29 19 -57t56 -45l56 -25q34 -16 49 -29t15 -30t-14 -28t-38 -11t-46 9.5t-39 25t-27 34t-10 35.5h-29v-146h29q0 32 13 32q7 0 27 -10q22 -10 41 -16t42 -6q55 0 95.5 28.5t40.5 84.5
q0 30 -20 57.5t-57 44.5l-49 23q-41 18 -55 28.5t-14 26.5q0 15 14 24.5t35 9.5q10 0 15 -2q2 -4 4 -11q1 -3 1 -4q9 -25 23 -40t34 -15q18 0 28.5 12t10.5 25q0 22 -13.5 35t-38.5 26q-17 41 -17 80q0 61 39.5 99.5t90.5 38.5q65 0 98 -34.5t33 -79.5q0 -34 -24.5 -66.5
t-71.5 -45.5q-1 0 -5.5 -1.5t-16.5 -4.5v-33h53v-183q0 -58 31 -90.5t85 -32.5q26 0 62 17.5t61 40.5l-14 28q-41 -29 -68 -29q-45 0 -45 73v176h87v44h-87v77q0 80 -46.5 125t-129.5 45q-74 0 -125 -51.5t-51 -139.5q0 -20 3 -40z" />
    <glyph glyph-name="t" unicode="t" horiz-adv-x="639" 
d="M349 333h-126v124q0 66 11.5 92.5t42.5 26.5q18 0 26 -10.5t16 -31.5q9 -23 18.5 -34.5t29.5 -11.5q18 0 28 12t10 29q0 32 -35 60t-91 28q-88 0 -128.5 -50t-40.5 -153v-81h-82v-44h82v-143q0 -40 -3 -62t-11 -34t-23 -16.5t-42 -4.5v-29h271v29q-27 0 -41.5 4.5
t-23 16.5t-11.5 34t-3 62v143h190v-183q0 -58 31.5 -90.5t85.5 -32.5q25 0 61.5 17.5t61.5 40.5l-15 28q-39 -29 -67 -29q-45 0 -45 73v176h87v44h-87v137h-34q-6 -55 -43.5 -96t-99.5 -41z" />
    <glyph glyph-name="u" unicode="u" horiz-adv-x="841" 
d="M668 167q0 -60 -19 -98.5t-56 -38.5q-26 0 -46 25.5t-20 62.5v97q0 38 20 63t46 25q37 0 56 -38t19 -98zM472 440q0 -15 -5.5 -32t-16.5 -32q-27 -38 -76 -45l-39 -6v-29q27 0 42 -4.5t23 -16.5t11 -34t3 -62v-283q0 -40 -3 -62t-11 -34t-23 -16.5t-42 -4.5v-29h271v29
q-27 0 -41.5 4.5t-23 16.5t-11.5 34t-3 62v117q35 -30 82 -30q83 0 132.5 53t49.5 131t-49.5 130.5t-132.5 52.5q-52 0 -90 -36v96q0 79 -50.5 124.5t-133.5 45.5q-48 0 -83.5 -2t-66.5 -8.5t-49.5 -21t-18.5 -38.5t16.5 -41t39.5 -17q12 0 26.5 8t19.5 18q22 41 48 58.5
t66 17.5q66 0 102.5 -35t36.5 -79zM310 0v29q-27 0 -41.5 4.5t-23 16.5t-11.5 34t-3 62v204l-192 -25v-29q27 0 42 -4.5t23 -16.5t11 -34t3 -62v-33q0 -40 -3 -62t-11 -34t-23 -16.5t-42 -4.5v-29h271z" />
    <glyph glyph-name="v" unicode="v" horiz-adv-x="868" 
d="M338 167q0 -60 -19 -98.5t-56 -38.5q-27 0 -47 25.5t-20 62.5v97q0 38 20 63t47 25q37 0 56 -38t19 -98zM460 167q0 78 -49.5 130.5t-132.5 52.5q-52 0 -90 -36l-1 4q-5 27 -8 32l-175 -25v-29q27 0 42 -4.5t23 -16.5t11 -34t3 -62v-283q0 -40 -3 -62t-11 -34t-23 -16.5
t-42 -4.5v-29h271v29q-27 0 -41.5 4.5t-23 16.5t-11.5 34t-3 62v117q35 -30 82 -30q83 0 132.5 53t49.5 131zM716 -7l107 261q11 27 28 38.5t43 11.5v29h-148v-29q36 0 36 -22q0 -10 -7 -28l-54 -130l-58 130q-9 19 -9 29q0 21 42 21v29h-219v-29q24 0 39.5 -11.5
t26.5 -38.5l120 -268q-35 -93 -79 -141t-106 -48q-21 0 -30 8t-16 22q-4 11 -9 16t-15 5q-22 0 -33 -12.5t-11 -33.5q0 -23 27.5 -44t67.5 -21q53 0 93.5 22.5t70 59.5t49 76t44.5 98z" />
    <glyph glyph-name="w" unicode="w" horiz-adv-x="808" 
d="M484 333h-295v126h-34q-5 -47 -44.5 -87t-86.5 -50v-33h53v-183q0 -58 31 -90.5t85 -32.5q26 0 62 17.5t61 40.5l-14 28q-41 -29 -68 -29q-45 0 -45 73v176h90q26 0 40 -10.5t27 -39.5l107 -257h20l75 193l80 -193h20l105 272q12 29 27.5 39.5t43.5 10.5v29h-148v-29
q36 0 36 -21q0 -10 -7 -29l-38 -99l-74 178h-32l-69 -178l-41 99q-8 19 -8 30q0 20 41 20v29z" />
    <glyph glyph-name="x" unicode="x" horiz-adv-x="605" 
d="M315 333h-126v137h-34q-4 -53 -43.5 -95.5t-87.5 -52.5v-33h53v-183q0 -58 31 -90.5t85 -32.5q26 0 62 17.5t61 40.5l-14 28q-41 -29 -68 -29q-45 0 -45 73v176h190v-183q0 -58 31 -90.5t86 -32.5q25 0 61.5 17.5t60.5 40.5l-14 28q-39 -29 -67 -29q-45 0 -45 73v176h86
v44h-86v137h-34q-6 -54 -43.5 -95.5t-99.5 -41.5z" />
    <glyph glyph-name="y" unicode="y" horiz-adv-x="661" 
d="M343 239l113 -253q-35 -93 -79 -141t-106 -48q-22 0 -31 8t-15 22q-5 11 -10 16t-15 5q-22 0 -32.5 -12.5t-10.5 -33.5q0 -23 27.5 -44t67.5 -21q52 0 93 22.5t70.5 59.5t49.5 77.5t43 96.5l108 261q10 27 27 38.5t44 11.5v29h-149v-29q37 0 37 -22q0 -10 -7 -28
l-55 -130l-58 130q-8 18 -8 29q0 21 41 21v29h-299v137h-34q-4 -53 -43.5 -95.5t-87.5 -52.5v-33h53v-183q0 -58 31 -90.5t85 -32.5q26 0 62 17.5t61 40.5l-14 28q-41 -29 -68 -29q-45 0 -45 73v176h87q23 0 39 -11.5t28 -38.5z" />
    <glyph glyph-name="z" unicode="z" horiz-adv-x="963" 
d="M645 239l113 -253q-35 -93 -79 -141t-106 -48q-21 0 -30 8t-16 22q-4 11 -9 16t-15 5q-22 0 -33 -12.5t-11 -33.5q0 -23 27.5 -44t67.5 -21q53 0 93.5 22.5t70 59.5t49 76t44.5 98l107 261q11 27 28 38.5t43 11.5v29h-148v-29q36 0 36 -22q0 -10 -7 -28l-54 -130l-58 130
q-9 19 -9 29q0 21 42 21v29h-299v137h-34q-6 -54 -43.5 -95.5t-99.5 -41.5h-126v137h-34q-4 -53 -43.5 -95.5t-87.5 -52.5v-33h53v-183q0 -58 31 -90.5t85 -32.5q26 0 62 17.5t61 40.5l-14 28q-41 -29 -68 -29q-45 0 -45 73v176h190v-183q0 -58 31 -90.5t86 -32.5
q25 0 61.5 17.5t60.5 40.5l-14 28q-39 -29 -67 -29q-45 0 -45 73v176h86q23 0 39 -11.5t28 -38.5z" />
    <glyph glyph-name="braceleft" unicode="{" horiz-adv-x="375" 
d="M42 304v-16l3 -1q26 -9 41 -17t27 -25t18.5 -48.5t6.5 -82.5q0 -44 12.5 -76.5t33.5 -55.5t45 -38.5t62 -36.5q24 -13 32 -18l23 29q-30 21 -46.5 37.5t-25.5 36t-12.5 47.5t-3.5 73q0 52 -10 86t-27 53t-38 28t-54 17q32 8 53.5 17t38.5 28t27 53t10 86q0 45 3.5 73
t12 47.5t25.5 36t47 36.5l-23 30q-10 -6 -31 -17q-39 -21 -63 -37t-45 -38.5t-33.5 -55.5t-12.5 -77q0 -51 -6.5 -82.5t-18 -48.5t-27 -25t-41.5 -17z" />
    <glyph glyph-name="bar" unicode="|" horiz-adv-x="270" 
d="M115 708v-708h44v708h-44z" />
    <glyph glyph-name="braceright" unicode="}" horiz-adv-x="375" 
d="M333 288v16l-2 1q-27 9 -42 17t-26.5 25t-18 48.5t-6.5 82.5q0 44 -12.5 76.5t-33.5 55.5t-45.5 39t-62.5 37q-20 10 -32 17l-23 -30q30 -20 47 -36.5t26 -36t12 -47.5t3 -73q0 -52 10 -86t27 -53t38.5 -28t53.5 -17q-32 -8 -53.5 -17t-38.5 -28t-27 -53t-10 -86
q0 -45 -3.5 -73t-12 -47.5t-25.5 -36t-47 -37.5l23 -29q8 5 32 18q39 21 63 36.5t45 38.5t33.5 55.5t12.5 76.5q0 51 6.5 83t18 48.5t26.5 24.5t42 17z" />
    <glyph glyph-name="asciitilde" unicode="~" horiz-adv-x="708" 
d="M451 229q17 73 72 73q29 0 45.5 -18t16.5 -46q0 -1 -1 -4v-5h-133zM323 167q0 -60 -20.5 -98.5t-59.5 -38.5t-59 38.5t-20 98.5t20 98t59 38t59.5 -38t20.5 -98zM383 35q27 -24 63.5 -38t79.5 -14q42 0 83.5 18.5t68.5 47.5l-17 29q-48 -42 -118 -42q-41 0 -70.5 34
t-29.5 97l1 9v9h218q4 15 4 30q0 52 -41 93.5t-107 41.5q-38 0 -73 -13.5t-62 -37.5q-59 51 -140 51q-41 0 -77.5 -14t-64.5 -39.5t-43.5 -59t-15.5 -70.5t15.5 -70.5t43.5 -59t65 -40t77 -14.5t76 14t64 38z" />
    <glyph glyph-name="nbspace" unicode="&#xa0;" horiz-adv-x="233" 
 />
    <glyph glyph-name="exclamdown" unicode="&#xa1;" horiz-adv-x="329" 
d="M243 -109q0 26 -4.5 45t-14.5 46q-17 49 -28 102.5t-14 153.5h-34q-3 -100 -13.5 -153t-26.5 -103q-10 -29 -14 -47t-4 -44q0 -31 22 -54t53 -23q32 0 55 23t23 54zM223 382q0 23 -17 40t-41 17t-40 -16.5t-16 -40.5t16 -41t40 -17t41 17t17 41z" />
    <glyph glyph-name="cent" unicode="&#xa2;" 
 />
    <glyph glyph-name="sterling" unicode="&#xa3;" 
 />
    <glyph glyph-name="currency" unicode="&#xa4;" 
 />
    <glyph glyph-name="yen" unicode="&#xa5;" 
 />
    <glyph glyph-name="brokenbar" unicode="&#xa6;" horiz-adv-x="211" 
d="M128 708h-45v-300h45v300zM128 300h-45v-300h45v300z" />
    <glyph glyph-name="section" unicode="&#xa7;" horiz-adv-x="398" 
d="M145 398q-31 -14 -53 -45t-22 -70q0 -29 19 -59.5t56 -50.5l56 -30q34 -18 49 -35t15 -35q0 -19 -14.5 -33.5t-37.5 -14.5q-24 0 -46 9.5t-39 25t-27 34t-10 35.5h-29v-146h29q0 32 13 32q7 0 27 -10q22 -10 41 -16t42 -6q54 0 95 32.5t41 88.5q0 59 -71 106
q32 18 51.5 50t19.5 69q0 29 -20 58t-57 53l-49 27q-37 20 -53 35.5t-16 31.5t14.5 29.5t34.5 13.5q33 0 62.5 -23t29.5 -53h29v116h-29q0 -18 -11 -18q-6 0 -23 5q-41 13 -74 13q-44 0 -81 -28.5t-37 -80.5q0 -29 19 -59.5t56 -50.5zM233 237l-9 5q-35 19 -52 38.5
t-17 37.5q0 22 13 35.5t33 14.5q34 -18 49 -38t15 -41q0 -41 -32 -52z" />
    <glyph glyph-name="dieresis" unicode="&#xa8;" 
 />
    <glyph glyph-name="copyright" unicode="&#xa9;" horiz-adv-x="683" 
d="M342 617q-65 0 -122.5 -24.5t-101.5 -68.5t-68.5 -101.5t-24.5 -122.5t24.5 -122.5t68.5 -101.5t101.5 -68.5t122.5 -24.5t122.5 24.5t101 68.5t68 101.5t24.5 122.5t-24.5 123t-68 101.5t-101 68t-122.5 24.5zM342 571q56 0 105.5 -21t86.5 -58t58 -86.5t21 -105.5
q0 -55 -21 -104.5t-58 -87t-86.5 -58.5t-105.5 -21q-55 0 -104.5 21t-87 58.5t-58.5 87t-21 104.5q0 56 21 105.5t58.5 86.5t87 58t104.5 21zM497 124v142h-24q-23 -117 -105 -117q-49 0 -74.5 41.5t-25.5 109.5q0 66 25.5 108.5t74.5 42.5q82 0 105 -116h24v141h-23
q-1 -10 -5.5 -22.5t-8.5 -17.5q-19 23 -52 38t-63 15q-37 0 -70 -14.5t-58.5 -41t-39.5 -61t-14 -72.5t14 -72.5t39.5 -61t58.5 -41t70 -14.5q30 0 63 15.5t52 37.5q4 -5 8.5 -17t5.5 -23h23z" />
    <glyph glyph-name="ordfeminine" unicode="&#xaa;" 
 />
    <glyph glyph-name="guillemotleft" unicode="&#xab;" 
 />
    <glyph glyph-name="logicalnot" unicode="&#xac;" 
 />
    <glyph glyph-name="minus" unicode="&#xad;" horiz-adv-x="458" 
d="M375 183v77h-292v-77h292z" />
    <glyph glyph-name="minus" unicode="&#x2212;" horiz-adv-x="458" 
d="M375 183v77h-292v-77h292z" />
    <glyph glyph-name="registered" unicode="&#xae;" horiz-adv-x="683" 
d="M658 300q0 65 -24.5 123t-68 101.5t-101 68t-122.5 24.5t-122.5 -24.5t-101.5 -68.5t-68.5 -101.5t-24.5 -122.5t24.5 -122.5t68.5 -101.5t101.5 -68.5t122.5 -24.5t122.5 24.5t101 68.5t68 101.5t24.5 122.5zM408 373q0 -28 -16 -45.5t-39 -17.5h-26v126h26
q23 0 39 -17.5t16 -45.5zM547 123q-38 -44 -91.5 -69t-113.5 -25q-55 0 -104.5 21t-87 58.5t-58.5 87t-21 104.5q0 56 21 105.5t58.5 86.5t87 58t104.5 21q56 0 105.5 -21t86.5 -58t58 -86.5t21 -105.5q0 -78 -43 -147q-38 17 -91 70l-56 55q35 11 57 35.5t22 59.5
q0 44 -34 72t-89 28h-204v-24q40 0 52 -17t12 -77v-114q0 -60 -12 -77t-52 -17v-24h216v24q-40 0 -52 17t-12 77v32h16l106 -150h98z" />
    <glyph glyph-name="macron" unicode="&#xaf;" 
 />
    <glyph glyph-name="degree" unicode="&#xb0;" 
 />
    <glyph glyph-name="plusminus" unicode="&#xb1;" 
 />
    <glyph glyph-name="twosuperior" unicode="&#xb2;" horiz-adv-x="336" 
d="M300 352h-159l89 62q28 20 44 45.5t16 58.5q0 44 -40 71.5t-94 27.5q-53 0 -86.5 -29.5t-33.5 -67.5q0 -43 40 -71l27 25q-14 24 -14 44q0 24 16.5 38.5t39.5 14.5q63 0 63 -62q0 -20 -8 -37.5t-27 -35.5l-132 -127v-22h250z" />
    <glyph glyph-name="threesuperior" unicode="&#xb3;" horiz-adv-x="336" 
d="M306 378q0 34 -30 68t-68 44l90 87v23h-232l-18 -137h22l5 18q5 21 21 29t42 8h56l-77 -79q-8 -9 -8 -18q0 -18 17 -18q14 0 24 17q8 13 16 23q25 -6 41 -23t16 -42q0 -31 -15 -52t-46 -21q-27 0 -40.5 9t-24.5 25q-6 10 -11 14t-13 4q-24 0 -24 -18q0 -23 32.5 -46
t80.5 -23q66 0 105 31.5t39 76.5z" />
    <glyph glyph-name="acute" unicode="&#xb4;" 
 />
    <glyph glyph-name="mu" unicode="&#xb5;" 
 />
    <glyph glyph-name="paragraph" unicode="&#xb6;" 
 />
    <glyph glyph-name="periodcentered" unicode="&#xb7;" 
 />
    <glyph glyph-name="periodcentered" unicode="&#x2219;" 
 />
    <glyph glyph-name="cedilla" unicode="&#xb8;" 
 />
    <glyph glyph-name="onesuperior" unicode="&#xb9;" horiz-adv-x="336" 
d="M272 291v27q-34 0 -44.5 15t-10.5 65v218l-163 -23v-27q40 0 53.5 -14.5t13.5 -60.5v-93q0 -50 -10 -65t-44 -15v-27h205z" />
    <glyph glyph-name="ordmasculine" unicode="&#xba;" 
 />
    <glyph glyph-name="guillemotright" unicode="&#xbb;" 
 />
    <glyph glyph-name="onequarter" unicode="&#xbc;" horiz-adv-x="755" 
d="M715 203h-29l-4 -17q-8 -30 -19.5 -40.5t-33.5 -11.5v205h-35l-195 -221v-25h138q0 -39 -11 -51t-47 -12v-30h207v30q-36 0 -46.5 12t-10.5 51h80zM537 134h-76l76 86v-86zM573 598l-40 22l-369 -617l39 -21zM272 291v27q-34 0 -44.5 15t-10.5 65v218l-163 -23v-27
q40 0 53.5 -14.5t13.5 -60.5v-93q0 -50 -10 -65t-44 -15v-27h205z" />
    <glyph glyph-name="onehalf" unicode="&#xbd;" horiz-adv-x="755" 
d="M573 598l-40 22l-369 -617l39 -21zM272 291v27q-34 0 -44.5 15t-10.5 65v218l-163 -23v-27q40 0 53.5 -14.5t13.5 -60.5v-93q0 -50 -10 -65t-44 -15v-27h205zM708 65h-159l89 63q28 19 44 44.5t16 58.5q0 45 -39.5 72t-94.5 27q-54 0 -87 -29t-33 -68q0 -42 40 -70l27 25
q-13 24 -13 44q0 24 16 38t39 14q64 0 64 -61q0 -21 -8 -38.5t-27 -35.5l-133 -126v-23h250z" />
    <glyph glyph-name="threequarters" unicode="&#xbe;" horiz-adv-x="755" 
d="M306 378q0 34 -30 68t-68 44l90 87v23h-232l-18 -137h22l5 18q5 21 21 29t42 8h56l-77 -79q-8 -9 -8 -18q0 -18 17 -18q14 0 24 17q8 13 16 23q25 -6 41 -23t16 -42q0 -31 -15 -52t-46 -21q-27 0 -40.5 9t-24.5 25q-6 10 -11 14t-13 4q-24 0 -24 -18q0 -23 32.5 -46
t80.5 -23q66 0 105 31.5t39 76.5zM715 203h-29l-4 -17q-8 -30 -19.5 -40.5t-33.5 -11.5v205h-35l-195 -221v-25h138q0 -39 -11 -51t-47 -12v-30h207v30q-36 0 -46.5 12t-10.5 51h80zM537 134h-76l76 86v-86zM585 598l-39 22l-369 -617l39 -21z" />
    <glyph glyph-name="questiondown" unicode="&#xbf;" horiz-adv-x="513" 
d="M463 -71q0 44 -27 65t-59 21q-21 0 -42.5 -13.5t-21.5 -38.5q0 -17 13 -29.5t31 -12.5q17 0 25.5 -6.5t8.5 -16.5q0 -15 -25 -30t-67 -15q-64 0 -106 33t-42 76q0 55 54 87t139 32v174h-44v-54q-99 -12 -161.5 -66t-62.5 -144q0 -30 15 -62t44 -58t71 -42t94 -16
q27 0 55.5 7.5t53 22.5t39.5 37t15 49zM379 382q0 23 -17 40t-40 17q-24 0 -40 -16.5t-16 -40.5t16 -41t40 -17q23 0 40 17t17 41z" />
    <glyph glyph-name="Agrave" unicode="&#xc0;" 
 />
    <glyph glyph-name="Aacute" unicode="&#xc1;" 
 />
    <glyph glyph-name="Acircumflex" unicode="&#xc2;" 
 />
    <glyph glyph-name="Atilde" unicode="&#xc3;" 
 />
    <glyph glyph-name="Adieresis" unicode="&#xc4;" 
 />
    <glyph glyph-name="Aring" unicode="&#xc5;" 
 />
    <glyph glyph-name="AE" unicode="&#xc6;" horiz-adv-x="818" 
d="M358 547v-261h-135zM728 600h-392l-254 -492q-25 -49 -52 -64t-84 -15v-29h242v29q-40 0 -57.5 6.5t-17.5 22.5q0 14 13 39l74 144h158v-95q0 -40 -3.5 -62t-13 -34t-27.5 -16.5t-51 -4.5v-29h498l8 141h-29l-5 -20q-11 -44 -31.5 -60t-84.5 -16h-40q-33 0 -51 4.5
t-28 16.5t-13.5 34.5t-3.5 61.5v79h5q39 0 61.5 -3.5t34 -13.5t16 -28t4.5 -51h29v237h-29q0 -33 -4.5 -51.5t-16 -28t-33.5 -13t-62 -3.5h-5v269h103q64 0 84 -15.5t32 -60.5l5 -20h29z" />
    <glyph glyph-name="Ccedilla" unicode="&#xc7;" 
 />
    <glyph glyph-name="Egrave" unicode="&#xc8;" 
 />
    <glyph glyph-name="Eacute" unicode="&#xc9;" 
 />
    <glyph glyph-name="Ecircumflex" unicode="&#xca;" 
 />
    <glyph glyph-name="Edieresis" unicode="&#xcb;" 
 />
    <glyph glyph-name="Igrave" unicode="&#xcc;" 
 />
    <glyph glyph-name="Iacute" unicode="&#xcd;" horiz-adv-x="595" 
d="M85 414q0 -55 -15.5 -75.5t-63.5 -20.5v-29h79v-143q0 -40 -3 -62t-11 -34t-23 -16.5t-42 -4.5v-29h192v457q0 66 11.5 92.5t42.5 26.5q18 0 26 -10.5t16 -31.5q9 -23 18.5 -34.5t29.5 -11.5q18 0 28 12t10 29q0 32 -35 60t-91 28q-88 0 -128.5 -50t-40.5 -153zM575 96
q0 30 -20 57.5t-57 44.5l-49 23q-41 18 -55 28.5t-14 26.5q0 15 14 24.5t35 9.5q33 0 62.5 -23t29.5 -53h29v116h-29q0 -18 -11 -18q-6 0 -23 5q-41 13 -74 13q-20 0 -40.5 -5.5t-38.5 -17t-28.5 -31t-10.5 -46.5q0 -29 19 -57t56 -45l56 -25q34 -16 49 -29t15 -30t-14 -28
t-38 -11t-46 9.5t-39 25t-27 34t-10 35.5h-29v-146h29q0 32 13 32q7 0 27 -10q22 -10 41 -16t42 -6q55 0 95.5 28.5t40.5 84.5z" />
    <glyph glyph-name="Icircumflex" unicode="&#xce;" 
 />
    <glyph glyph-name="Idieresis" unicode="&#xcf;" 
 />
    <glyph glyph-name="Eth" unicode="&#xd0;" 
 />
    <glyph glyph-name="Ntilde" unicode="&#xd1;" 
 />
    <glyph glyph-name="Ograve" unicode="&#xd2;" 
 />
    <glyph glyph-name="Oacute" unicode="&#xd3;" 
 />
    <glyph glyph-name="Ocircumflex" unicode="&#xd4;" 
 />
    <glyph glyph-name="Otilde" unicode="&#xd5;" 
 />
    <glyph glyph-name="Odieresis" unicode="&#xd6;" 
 />
    <glyph glyph-name="multiply" unicode="&#xd7;" 
 />
    <glyph glyph-name="Oslash" unicode="&#xd8;" 
 />
    <glyph glyph-name="Ugrave" unicode="&#xd9;" 
 />
    <glyph glyph-name="Uacute" unicode="&#xda;" 
 />
    <glyph glyph-name="Ucircumflex" unicode="&#xdb;" 
 />
    <glyph glyph-name="Udieresis" unicode="&#xdc;" 
 />
    <glyph glyph-name="Yacute" unicode="&#xdd;" 
 />
    <glyph glyph-name="Thorn" unicode="&#xde;" 
 />
    <glyph glyph-name="germandbls" unicode="&#xdf;" horiz-adv-x="595" 
d="M575 96q0 30 -20 57.5t-57 44.5l-49 23q-41 18 -55 28.5t-14 26.5q0 15 14 24.5t35 9.5q33 0 62.5 -23t29.5 -53h29v116h-29q0 -18 -11 -18q-6 0 -23 5q-41 13 -74 13q-20 0 -40.5 -5.5t-38.5 -17t-28.5 -31t-10.5 -46.5q0 -29 19 -57t56 -45l56 -25q34 -16 49 -29
t15 -30t-14 -28t-38 -11t-46 9.5t-39 25t-27 34t-10 35.5h-29v-146h29q0 32 13 32q7 0 27 -10q22 -10 41 -16t42 -6q55 0 95.5 28.5t40.5 84.5zM85 414v-488q0 -87 -11.5 -122.5t-38.5 -35.5q-22 0 -31 11.5t-15 33.5q-5 20 -11.5 29.5t-23.5 9.5q-33 0 -33 -34
q0 -31 30 -58t79 -27q76 0 122 47t46 146v531q0 66 11.5 92.5t42.5 26.5q18 0 26 -10.5t16 -31.5q9 -23 18.5 -34.5t29.5 -11.5q18 0 28 12t10 29q0 32 -35 60t-91 28q-88 0 -128.5 -50t-40.5 -153z" />
    <glyph glyph-name="agrave" unicode="&#xe0;" 
 />
    <glyph glyph-name="aacute" unicode="&#xe1;" 
 />
    <glyph glyph-name="acircumflex" unicode="&#xe2;" 
 />
    <glyph glyph-name="atilde" unicode="&#xe3;" 
 />
    <glyph glyph-name="adieresis" unicode="&#xe4;" 
 />
    <glyph glyph-name="aring" unicode="&#xe5;" 
 />
    <glyph glyph-name="ae" unicode="&#xe6;" horiz-adv-x="630" 
d="M373 229q17 73 72 73q30 0 46 -19.5t16 -53.5h-134zM261 88q-24 -21 -47 -33t-36 -12q-17 0 -28.5 9.5t-11.5 30.5q0 35 29.5 54t93.5 36v-85zM279 63q26 -37 70 -58.5t99 -21.5q42 0 84 18.5t69 47.5l-18 29q-22 -20 -53 -31t-65 -11q-40 0 -69.5 33.5t-29.5 95.5
q0 3 1 10v10h217q5 15 5 31q0 51 -41.5 92.5t-107.5 41.5q-61 0 -112 -32q-36 32 -120 32q-58 0 -101.5 -22t-43.5 -58q0 -20 11 -31.5t28 -11.5t28.5 12t11.5 31q0 18 17 28.5t37 10.5q33 0 49 -21t16 -74v-1q-107 -16 -164.5 -49t-57.5 -93q0 -38 29 -61t67 -23
q33 0 66.5 17.5t77.5 58.5z" />
    <glyph glyph-name="ccedilla" unicode="&#xe7;" 
 />
    <glyph glyph-name="egrave" unicode="&#xe8;" 
 />
    <glyph glyph-name="eacute" unicode="&#xe9;" 
 />
    <glyph glyph-name="ecircumflex" unicode="&#xea;" 
 />
    <glyph glyph-name="edieresis" unicode="&#xeb;" 
 />
    <glyph glyph-name="igrave" unicode="&#xec;" 
 />
    <glyph glyph-name="iacute" unicode="&#xed;" 
 />
    <glyph glyph-name="icircumflex" unicode="&#xee;" 
 />
    <glyph glyph-name="idieresis" unicode="&#xef;" 
 />
    <glyph glyph-name="eth" unicode="&#xf0;" 
 />
    <glyph glyph-name="ntilde" unicode="&#xf1;" 
 />
    <glyph glyph-name="ograve" unicode="&#xf2;" 
 />
    <glyph glyph-name="oacute" unicode="&#xf3;" 
 />
    <glyph glyph-name="ocircumflex" unicode="&#xf4;" 
 />
    <glyph glyph-name="otilde" unicode="&#xf5;" 
 />
    <glyph glyph-name="odieresis" unicode="&#xf6;" 
 />
    <glyph glyph-name="divide" unicode="&#xf7;" 
 />
    <glyph glyph-name="oslash" unicode="&#xf8;" 
 />
    <glyph glyph-name="ugrave" unicode="&#xf9;" 
 />
    <glyph glyph-name="uacute" unicode="&#xfa;" 
 />
    <glyph glyph-name="ucircumflex" unicode="&#xfb;" 
 />
    <glyph glyph-name="udieresis" unicode="&#xfc;" 
 />
    <glyph glyph-name="yacute" unicode="&#xfd;" 
 />
    <glyph glyph-name="thorn" unicode="&#xfe;" 
 />
    <glyph glyph-name="ydieresis" unicode="&#xff;" 
 />
    <glyph glyph-name="OE" unicode="&#x152;" horiz-adv-x="1010" 
d="M503 62q-42 -31 -99 -31q-51 0 -89 24t-62.5 63.5t-36 87t-11.5 94.5t11.5 94.5t36 87t62.5 63.5t89 24q59 0 99 -31v-476zM511 600q-51 17 -107 17q-67 0 -128 -24.5t-107 -68.5t-72 -102t-26 -122t26 -122t72 -102t107 -68.5t128 -24.5q56 0 107 17h444l8 141h-29
l-5 -20q-11 -44 -31.5 -60t-84.5 -16h-90q-33 0 -51 4.5t-27.5 16.5t-13 34t-3.5 62v133h54q40 0 62 -3.5t33.5 -13t16 -28t4.5 -51.5h30v237h-30q0 -33 -4.5 -51t-16 -28t-34 -13.5t-61.5 -3.5h-54v215h152q64 0 84.5 -16t31.5 -60l5 -20h29l-8 141h-411z" />
    <glyph glyph-name="oe" unicode="&#x153;" horiz-adv-x="708" 
d="M451 229q17 73 72 73q29 0 45.5 -18t16.5 -46q0 -1 -1 -4v-5h-133zM323 167q0 -60 -20.5 -98.5t-59.5 -38.5t-59 38.5t-20 98.5t20 98t59 38t59.5 -38t20.5 -98zM383 35q27 -24 63.5 -38t79.5 -14q42 0 83.5 18.5t68.5 47.5l-17 29q-48 -42 -118 -42q-41 0 -70.5 34
t-29.5 97l1 9v9h218q4 15 4 30q0 52 -41 93.5t-107 41.5q-38 0 -73 -13.5t-62 -37.5q-59 51 -140 51q-41 0 -77.5 -14t-64.5 -39.5t-43.5 -59t-15.5 -70.5t15.5 -70.5t43.5 -59t65 -40t77 -14.5t76 14t64 38z" />
    <glyph glyph-name="Scaron" unicode="&#x160;" 
 />
    <glyph glyph-name="scaron" unicode="&#x161;" 
 />
    <glyph glyph-name="Ydieresis" unicode="&#x178;" 
 />
    <glyph glyph-name="florin" unicode="&#x192;" horiz-adv-x="337" 
d="M223 -78v367h100v44h-100v124q0 66 11.5 92.5t42.5 26.5q18 0 26 -10.5t16 -31.5q9 -23 18.5 -34.5t29.5 -11.5q18 0 28 12t10 29q0 32 -35 60t-91 28q-88 0 -128.5 -50t-40.5 -153v-81h-82v-44h82v-359q0 -89 -17 -122.5t-50 -33.5q-25 0 -35.5 12t-19.5 36
q-7 20 -15 30t-26 10q-33 0 -33 -35q1 -33 40.5 -63.5t104.5 -30.5q82 0 123 45.5t41 143.5z" />
    <glyph glyph-name="circumflex" unicode="&#x2c6;" 
 />
    <glyph glyph-name="tilde" unicode="&#x2dc;" 
 />
    <glyph glyph-name="endash" unicode="&#x2013;" horiz-adv-x="525" 
d="M525 166v77h-526v-77h526z" />
    <glyph glyph-name="emdash" unicode="&#x2014;" horiz-adv-x="667" 
d="M667 166v77h-668v-77h668z" />
    <glyph glyph-name="quoteleft" unicode="&#x2018;" horiz-adv-x="251" 
d="M192 424q0 26 -18.5 45t-44.5 19h-5q9 53 65 111l-20 20q-54 -34 -83 -84t-29 -97q0 -36 22 -57t50 -21q26 0 44.5 19t18.5 45z" />
    <glyph glyph-name="quoteright" unicode="&#x2019;" horiz-adv-x="251" 
d="M82 358q54 34 83 84t29 96q0 37 -21.5 58t-50.5 21q-26 0 -44.5 -19t-18.5 -45t18.5 -45.5t44.5 -19.5h5q-9 -52 -65 -110z" />
    <glyph glyph-name="quotesinglbase" unicode="&#x201a;" horiz-adv-x="292" 
d="M88 -139q54 34 83 84t29 97q0 36 -22 57t-50 21q-26 0 -44.5 -19t-18.5 -45t18.5 -45t44.5 -19h5q-8 -51 -65 -111z" />
    <glyph glyph-name="quotedblleft" unicode="&#x201c;" horiz-adv-x="434" 
d="M375 424q0 26 -18 45t-44 19h-5q7 51 65 111l-20 20q-54 -34 -83.5 -84t-29.5 -97q0 -36 22.5 -57t50.5 -21q26 0 44 19t18 45zM192 424q0 26 -18.5 45t-44.5 19h-5q9 53 65 111l-20 20q-54 -34 -83 -84t-29 -97q0 -36 22 -57t50 -21q26 0 44.5 19t18.5 45z" />
    <glyph glyph-name="quotedblright" unicode="&#x201d;" horiz-adv-x="434" 
d="M82 358q54 34 83 84t29 96q0 37 -21.5 58t-50.5 21q-26 0 -44.5 -19t-18.5 -45t18.5 -45.5t44.5 -19.5h5q-9 -52 -65 -110zM265 358q54 34 83.5 84t29.5 96q0 37 -22 58t-51 21q-26 0 -44 -19t-18 -45t18 -45.5t44 -19.5h5q-9 -52 -65 -110z" />
    <glyph glyph-name="quotedblbase" unicode="&#x201e;" horiz-adv-x="434" 
d="M82 -139q54 34 83 84t29 97q0 36 -22 57t-50 21q-26 0 -44.5 -19t-18.5 -45t18.5 -45t44.5 -19h5q-9 -53 -65 -111zM265 -139q54 34 83.5 84t29.5 97q0 36 -22 57t-51 21q-26 0 -44 -19t-18 -45t18 -45t44 -19h5q-9 -53 -65 -111z" />
    <glyph glyph-name="dagger" unicode="&#x2020;" 
 />
    <glyph glyph-name="daggerdbl" unicode="&#x2021;" 
 />
    <glyph glyph-name="bullet" unicode="&#x2022;" 
 />
    <glyph glyph-name="ellipsis" unicode="&#x2026;" horiz-adv-x="896" 
d="M213 56q0 26 -19.5 45t-45.5 19t-44 -19t-18 -45t18 -45t44 -19t45.5 19t19.5 45zM504 56q0 26 -19 45t-45 19t-44 -19t-18 -45t18 -45t44 -19t45 19t19 45zM796 56q0 26 -19 45t-45 19t-44.5 -19t-18.5 -45t18.5 -45t44.5 -19t45 19t19 45z" />
    <glyph glyph-name="perthousand" unicode="&#x2030;" 
 />
    <glyph glyph-name="guilsinglleft" unicode="&#x2039;" 
 />
    <glyph glyph-name="guilsinglright" unicode="&#x203a;" 
 />
    <glyph glyph-name="trademark" unicode="&#x2122;" horiz-adv-x="1013" 
d="M174 558v-216q0 -67 -13 -86t-58 -19v-27h252v27q-45 0 -58.5 19t-13.5 86v216h16q59 0 77.5 -12t26.5 -46l5 -18h27l-7 118h-400l-6 -118h26l5 18q8 34 27 46t78 12h16zM591 494l129 -299h12l123 286v-139q0 -67 -13 -86t-58 -19v-27h227v27q-45 0 -58 19t-13 86v126
q0 67 13 86t58 19v27h-147l-109 -253l-108 253h-169v-27q45 0 58 -19q7 -10 9.5 -30t2.5 -56v-126q0 -36 -2.5 -55.5t-9.5 -30.5q-13 -19 -58 -19v-27h184v27q-45 0 -58 19t-13 86v152z" />
    </font>
</defs>
</svg>
