<?xml version="1.0" standalone="no"?>
<!DOCTYPE svg PUBLIC "-//W3C//DTD SVG 1.1//EN" "http://www.w3.org/Graphics/SVG/1.1/DTD/svg11.dtd" >
<svg xmlns="http://www.w3.org/2000/svg" xmlns:xlink="http://www.w3.org/1999/xlink" version="1.1">
<metadata>
Created by FontForge 20170731 at Fri Jan  1 02:30:17 1904
 By Aleksey,,,
Copyright (C) 1996 Emigre Graphics, Designed by Zuzana Licko
</metadata>
<defs>
<font id="MrsEaves-Bold" horiz-adv-x="625" >
  <font-face 
    font-family="MrsEaves"
    font-weight="700"
    font-stretch="normal"
    units-per-em="1000"
    panose-1="2 11 8 0 0 0 0 0 0 0"
    ascent="800"
    descent="-200"
    x-height="333"
    cap-height="600"
    bbox="-108 -301 1090 874"
    underline-thickness="25"
    underline-position="-110"
    unicode-range="U+0020-2122"
  />
<missing-glyph horiz-adv-x="502" 
d="M-1 0h500v500h-500v-500zM9 10v480h480v-480h-480z" />
    <glyph glyph-name=".notdef" horiz-adv-x="502" 
d="M-1 0h500v500h-500v-500zM9 10v480h480v-480h-480z" />
    <glyph glyph-name=".null" horiz-adv-x="0" 
 />
    <glyph glyph-name="nonmarkingreturn" horiz-adv-x="333" 
 />
    <glyph glyph-name="space" unicode=" " horiz-adv-x="233" 
 />
    <glyph glyph-name="exclam" unicode="!" horiz-adv-x="329" 
d="M90 540q0 -26 4.5 -45t13.5 -46q16 -49 26.5 -102.5t13.5 -153.5h34q3 99 14 153t28 103q10 28 14.5 46.5t4.5 44.5q0 31 -23 54t-55 23q-31 0 -53 -23t-22 -54zM223 49q0 24 -17 41t-41 17t-40 -17t-16 -41q0 -23 16 -40t40 -17t41 17t17 40z" />
    <glyph glyph-name="quotedbl" unicode="&#x22;" horiz-adv-x="428" 
d="M57 549q0 -14 13 -52q15 -46 25 -88.5t15 -104.5h23q5 63 16 106t26 87q14 39 14 52q0 28 -20 48t-47 20t-46 -20t-19 -48zM240 549q0 -13 13 -52q15 -45 25 -87.5t15 -105.5h24q5 62 15.5 105.5t26.5 88.5q14 38 14 51q0 28 -20.5 48t-47.5 20t-46 -20t-19 -48z" />
    <glyph glyph-name="numbersign" unicode="#" horiz-adv-x="435" 
d="M311 323l16 94h70l12 69h-70l19 114h-56l-19 -114h-90l20 114h-57l-19 -114h-69l-13 -69h69l-16 -94h-69l-12 -70h70l-19 -114h56l19 114h90l-20 -114h57l18 114h70l13 70h-70zM165 323l16 94h89l-16 -94h-89z" />
    <glyph glyph-name="dollar" unicode="$" horiz-adv-x="498" 
d="M260 589v94h-52v-92q-68 -4 -112 -44t-44 -99q0 -51 30.5 -91t77.5 -64l48 -25v-216q-36 7 -56 26t-39 48q-12 19 -20.5 27.5t-19.5 8.5q-7 0 -16 -4q-16 -7 -16 -26q0 -15 11.5 -34t33.5 -37.5t53.5 -32t68.5 -18.5v-93h52v91q74 5 123.5 51t49.5 120q0 41 -26.5 80
t-76.5 65l-70 36v185q21 -7 33.5 -21.5t26.5 -36.5q12 -18 20 -27t20 -9q4 0 10 2q27 8 27 34q0 31 -37 62.5t-100 39.5zM260 49v192q37 -21 57.5 -47.5t20.5 -60.5q0 -35 -21.5 -57t-56.5 -27zM208 548v-160q-32 19 -46.5 39.5t-14.5 48.5q0 27 17.5 46.5t43.5 25.5z" />
    <glyph glyph-name="percent" unicode="%" horiz-adv-x="763" 
d="M372 473q0 29 -12.5 55t-35.5 46.5t-53 31.5t-63 11t-63 -11t-53 -31t-36 -46.5t-13 -55.5q0 -28 13 -54.5t36 -46.5t53 -31t63 -11t63 11t53 31t35.5 46t12.5 55zM273 473q0 -41 -17 -73t-48 -32t-48.5 32.5t-17.5 72.5q0 41 17.5 73t48.5 32t48 -32t17 -73zM587 598
l-39 22l-370 -617l40 -21zM719 128q0 29 -12.5 55t-35.5 46t-53 31t-63 11t-63 -11t-53 -31t-35.5 -46t-12.5 -55t12.5 -55t35.5 -46.5t53 -31.5t63 -11t63 11t53 31t35.5 46.5t12.5 55.5zM621 128q0 -41 -17.5 -73t-48.5 -32t-48.5 32t-17.5 73t17.5 73t48.5 32t48.5 -32
t17.5 -73z" />
    <glyph glyph-name="ampersand" unicode="&#x26;" horiz-adv-x="657" 
d="M249 368q-16 29 -23 58t-7 63q0 31 19.5 56t50.5 25q27 0 44.5 -18t17.5 -50q0 -42 -26.5 -72.5t-75.5 -61.5zM374 67q-42 -37 -89 -37q-49 0 -83 34.5t-34 85.5q0 34 9 61t26 50q46 -62 171 -194zM405 38q29 -25 58 -40t54 -15q35 0 65.5 23.5t60.5 67.5l-20 19
q-35 -35 -65 -35q-45 0 -97 55q15 32 22 55q13 36 22 54.5t21 29.5t29 15.5t45 4.5v29h-234v-29q48 0 68.5 -9.5t20.5 -33.5q0 -14 -7 -36q-8 -27 -18 -46q-8 9 -16 17q-58 65 -88 99.5t-51 64.5q17 11 52 33q62 36 91.5 65.5t29.5 75.5q0 55 -46 85t-113 30
q-78 0 -131 -39.5t-53 -104.5q0 -69 58 -155q-56 -36 -86.5 -72t-30.5 -88q0 -83 59.5 -129t146.5 -46q94 0 153 55z" />
    <glyph glyph-name="quotesingle" unicode="'" horiz-adv-x="245" 
d="M57 549q0 -14 13 -52q15 -46 25 -88.5t15 -104.5h23q5 63 16 106t26 87q14 39 14 52q0 28 -20 48t-47 20t-46 -20t-19 -48z" />
    <glyph glyph-name="parenleft" unicode="(" horiz-adv-x="358" 
d="M334 -86q-27 30 -52.5 65t-49 82.5t-39 107t-15.5 126.5t15.5 126.5t39 107t49 82t52.5 65.5l-27 25q-51 -42 -93.5 -86.5t-75.5 -94.5t-52 -106.5t-19 -118.5q0 -61 19 -118t52 -107t76 -94.5t94 -86.5z" />
    <glyph glyph-name="parenright" unicode=")" horiz-adv-x="358" 
d="M292 295q0 62 -19 118.5t-52 106.5t-75.5 94.5t-93.5 86.5l-28 -25q27 -30 52.5 -65t49.5 -83t39.5 -107t15.5 -126t-15.5 -126.5t-39.5 -106.5t-49.5 -82t-52.5 -66l27 -25q52 42 94.5 86.5t75.5 94.5t52 107t19 118z" />
    <glyph glyph-name="asterisk" unicode="*" horiz-adv-x="425" 
d="M181 429q-27 -9 -70 -11q-30 -2 -41 -8q-12 -7 -19.5 -20.5t-7.5 -27.5q0 -15 7 -26q14 -26 46 -26q15 0 27 8q12 7 30 32q23 35 45 52q-6 -28 -25 -64q-15 -28 -15 -41q0 -22 16.5 -38.5t38.5 -16.5t37 16.5t15 38.5q0 14 -14 41q-18 36 -23 64q21 -18 44 -53
q17 -26 29 -33q11 -7 26 -7q14 0 27.5 7t20.5 20q6 11 6 24q0 33 -27 48q-13 7 -44 9q-40 3 -67 12q28 10 71 12q30 1 41 7q27 16 27 49q0 14 -7 26q-14 26 -46 26q-15 0 -27 -8q-12 -6 -31 -33q-22 -33 -43 -51q5 27 24 63q15 28 15 42q0 22 -16 38.5t-38 16.5t-37.5 -16.5
t-15.5 -38.5q0 -14 14 -42q19 -37 24 -65q-22 19 -45 54q-17 27 -29 34q-11 7 -26 7q-14 0 -27.5 -7t-20.5 -20q-6 -11 -6 -25q0 -33 27 -48q11 -7 41 -8q41 -3 69 -13z" />
    <glyph glyph-name="plus" unicode="+" horiz-adv-x="458" 
d="M268 260v140h-78v-140h-140v-77h140v-141h78v141h140v77h-140z" />
    <glyph glyph-name="comma" unicode="," horiz-adv-x="313" 
d="M108 -139q54 34 83.5 84t29.5 97q0 36 -22 57t-51 21q-26 0 -44 -19t-18 -45t18 -45t44 -19h5q-7 -51 -65 -111z" />
    <glyph glyph-name="hyphen" unicode="-" horiz-adv-x="458" 
d="M375 166v77h-292v-77h292z" />
    <glyph glyph-name="period" unicode="." horiz-adv-x="313" 
d="M213 56q0 26 -19.5 45t-45.5 19t-44 -19t-18 -45t18 -45t44 -19t45.5 19t19.5 45z" />
    <glyph glyph-name="slash" unicode="/" horiz-adv-x="348" 
d="M334 601l-49 19l-271 -621l49 -17z" />
    <glyph glyph-name="zero" unicode="0" horiz-adv-x="592" 
d="M296 450q-47 0 -89.5 -18t-75 -50.5t-50.5 -75t-18 -89.5t18 -90t50.5 -75.5t75 -50.5t89.5 -18t89.5 18t75 50.5t50.5 75.5t18 90t-18 89.5t-50.5 75t-75 50.5t-89.5 18zM296 366q29 0 55 -11.5t46 -32t31.5 -48t11.5 -57.5t-11 -57.5t-31.5 -48t-46.5 -32t-55 -11.5
t-55 11.5t-46 32t-31.5 48t-11.5 57.5t11.5 57.5t31.5 48t46 32t55 11.5z" />
    <glyph glyph-name="one" unicode="1" horiz-adv-x="404" 
d="M354 0v29q-33 0 -51 4.5t-28 16.5t-13.5 34.5t-3.5 61.5v142q0 39 3.5 61.5t13.5 34t28 16t51 4.5v29h-304v-29q33 0 51.5 -4.5t28 -16t13 -34t3.5 -61.5v-142q0 -39 -3.5 -61.5t-13.5 -34.5t-28 -16.5t-51 -4.5v-29h304z" />
    <glyph glyph-name="two" unicode="2" horiz-adv-x="553" 
d="M348 163q51 32 83 67.5t32 85.5q0 57 -58.5 95.5t-156.5 38.5q-83 0 -134 -39.5t-51 -91.5q0 -56 60 -92l47 31q-18 34 -18 63q0 36 24.5 57t61.5 21q44 0 68 -27t24 -69q0 -38 -16.5 -67t-51.5 -58l-188 -154v-24h231q39 0 61.5 -3.5t34.5 -11.5t16.5 -23t4.5 -41h21
l25 171h-237z" />
    <glyph glyph-name="three" unicode="3" horiz-adv-x="525" 
d="M258 115q36 -21 52 -54t16 -81q0 -53 -22 -87t-63 -34q-37 0 -58 16t-42 46q-13 19 -22 28t-22 9q-2 0 -3 -1h-4q-26 -5 -26 -30q0 -16 12.5 -36t36.5 -38t59 -29t77 -11q43 0 82 11.5t69 33t47 52.5t17 70q0 58 -49 104.5t-123 56.5l49 28q42 25 74 62t32 85
q0 62 -59.5 98t-148.5 36q-81 0 -129.5 -38t-48.5 -89q0 -27 15.5 -52t46.5 -44l47 31q-18 31 -18 61q0 35 24 57.5t57 22.5q38 0 60 -27t22 -73q0 -24 -13.5 -55.5t-38.5 -56.5l-55 -58l-1 -1q-13 -13 -19.5 -21.5t-6.5 -16.5q0 -9 8 -15q7 -6 14 -6q8 0 15.5 6t18.5 19
q13 15 21 21z" />
    <glyph glyph-name="four" unicode="4" horiz-adv-x="565" 
d="M358 492h-26l-296 -423v-27h210v-66q0 -39 -3.5 -61.5t-13.5 -34.5t-28 -16.5t-51 -4.5v-29h304v29q-33 0 -51 4.5t-28 16.5t-13.5 34.5t-3.5 61.5v66h145l8 141h-29l-5 -20q-12 -44 -32 -60t-84 -16h-3v405zM246 87h-143l143 203v-203z" />
    <glyph glyph-name="five" unicode="5" horiz-adv-x="501" 
d="M133 186l15 135h254l24 188h-23q-11 -45 -31 -60.5t-84 -15.5h-178l-31 -343h45q18 54 39.5 72t56.5 18q40 0 66.5 -44t26.5 -114q0 -71 -26.5 -117t-66.5 -46q-39 0 -56 15.5t-30 44.5q-8 19 -16.5 28.5t-24.5 9.5q-28 0 -28 -29q0 -16 11.5 -36t33 -38t52 -29.5
t66.5 -11.5q45 0 84 16t67 45t43.5 67t15.5 81t-15 81t-42 66.5t-64.5 44.5t-79.5 16q-30 0 -60.5 -13t-43.5 -31z" />
    <glyph glyph-name="six" unicode="6" horiz-adv-x="533" 
d="M179 278q11 16 35 24t51 8q41 0 63.5 -34t22.5 -104q0 -65 -18 -102.5t-60 -37.5q-17 0 -32.5 9.5t-29.5 36t-23 76.5t-9 124zM179 332q2 50 8.5 93.5t20.5 78t37.5 55t56.5 20.5q30 0 49 -12t38 -34q11 -13 17.5 -18.5t14.5 -5.5q6 0 14 5q13 9 13 23q0 13 -11 27.5
t-32 27.5t-47.5 20.5t-56.5 7.5q-55 0 -100 -30t-75.5 -81.5t-46.5 -114.5t-16 -128q0 -82 21 -138.5t53.5 -88t68 -44t67.5 -12.5q41 0 78 14.5t64.5 40.5t43.5 60.5t16 72.5t-16.5 72t-46.5 60t-68 40.5t-79 14.5q-24 0 -46.5 -6t-39.5 -20z" />
    <glyph glyph-name="seven" unicode="7" horiz-adv-x="479" 
d="M435 442h-195q-40 0 -62 3t-34 11.5t-16.5 23t-4.5 41.5h-20l-42 -288h21l5 20q11 45 31 60.5t85 15.5h150l-219 -439q-9 -18 -9 -34q0 -19 11.5 -31.5t27.5 -12.5q31 0 48 40l223 562v28z" />
    <glyph glyph-name="eight" unicode="8" horiz-adv-x="545" 
d="M292 383q-41 33 -63 62.5t-22 60.5q0 25 18.5 44.5t47.5 19.5q30 0 52 -20t22 -54q0 -32 -15 -60t-40 -53zM245 288q60 -47 91.5 -83t31.5 -76q0 -41 -26 -70t-69 -29q-49 0 -77 35t-28 81t20.5 79.5t56.5 62.5zM336 349q53 33 80.5 63.5t27.5 76.5q0 25 -14 48t-39 41.5
t-57 28.5t-66 10t-65.5 -10.5t-56.5 -30.5t-39 -46.5t-14 -56.5q0 -39 28.5 -74.5t81.5 -78.5l-12 -7q-33 -19 -53 -32.5t-37.5 -31.5t-27.5 -41.5t-10 -53.5q0 -35 17 -66.5t46.5 -55t67.5 -36.5t79 -13t79 13t67.5 37t46.5 56.5t17 68.5q0 52 -37.5 94t-109.5 97z" />
    <glyph glyph-name="nine" unicode="9" horiz-adv-x="533" 
d="M471 168q0 82 -21 138t-53.5 87.5t-68 44t-68.5 12.5q-41 0 -78 -14.5t-64.5 -40.5t-43.5 -60t-16 -72t17 -72.5t46.5 -60.5t67.5 -40.5t79 -14.5q24 0 46.5 6.5t39.5 20.5q-2 -50 -8.5 -93.5t-20.5 -78.5t-37 -55.5t-56 -20.5q-30 0 -48.5 12t-37.5 34q-11 13 -18 18.5
t-15 5.5q-7 0 -15 -5q-13 -8 -13 -22q0 -13 11 -27.5t32 -27.5t48 -21t57 -8q56 0 100.5 30t75.5 81.5t46.5 115t15.5 128.5zM354 156q-10 -16 -34.5 -24.5t-51.5 -8.5q-40 0 -62.5 34.5t-22.5 104.5q0 65 18 102.5t59 37.5q17 0 32.5 -9.5t30 -36t23 -76.5t8.5 -124z" />
    <glyph glyph-name="colon" unicode=":" horiz-adv-x="313" 
d="M227 49q0 24 -17 41t-41 17q-23 0 -39.5 -17t-16.5 -41q0 -23 16.5 -40t39.5 -17q24 0 41 17t17 40zM227 238q0 24 -17 41t-41 17q-23 0 -39.5 -17t-16.5 -41q0 -23 16.5 -40t39.5 -17q24 0 41 17t17 40z" />
    <glyph glyph-name="semicolon" unicode=";" horiz-adv-x="313" 
d="M133 -128q48 31 74.5 76t26.5 87q0 33 -20 52t-46 19q-22 0 -38.5 -17.5t-16.5 -40.5t16.5 -40.5t38.5 -17.5h5q-7 -46 -58 -100zM227 238q0 24 -17 41t-41 17q-23 0 -39.5 -17t-16.5 -41q0 -23 16.5 -40t39.5 -17q24 0 41 17t17 40z" />
    <glyph glyph-name="less" unicode="&#x3c;" horiz-adv-x="500" 
d="M428 73l-175 195l175 195l-15 22l-338 -217l338 -218z" />
    <glyph glyph-name="equal" unicode="=" horiz-adv-x="458" 
d="M375 250v78h-292v-78h292zM375 108v78h-292v-78h292z" />
    <glyph glyph-name="greater" unicode="&#x3e;" horiz-adv-x="500" 
d="M425 268l-337 217l-16 -22l175 -195l-175 -195l16 -23z" />
    <glyph glyph-name="question" unicode="?" horiz-adv-x="513" 
d="M392 468q0 -55 -54.5 -87t-139.5 -32v-174h45v54q99 12 161.5 66t62.5 144q0 30 -15 62t-44 58t-71 42t-94 16q-27 0 -55.5 -7.5t-53 -22.5t-39.5 -37t-15 -49q0 -44 27 -65t59 -21q21 0 42.5 13.5t21.5 38.5q0 17 -13 29.5t-31 12.5q-17 0 -25.5 6.5t-8.5 16.5
q0 14 25 29.5t66 15.5q65 0 107 -33t42 -76zM278 49q0 24 -16.5 41t-40.5 17t-40 -17t-16 -41q0 -23 16 -40t40 -17t40.5 17t16.5 40z" />
    <glyph glyph-name="at" unicode="@" horiz-adv-x="708" 
d="M674 360q0 59 -21 108.5t-59.5 85t-90 54.5t-111.5 19q-71 0 -136 -27.5t-114 -76t-76.5 -113t-27.5 -135.5q0 -64 25 -120.5t69.5 -98.5t104 -65t126.5 -23q56 0 118.5 22.5t118.5 64.5l-19 28q-55 -34 -103.5 -51t-106.5 -17q-53 0 -98 19t-78 54.5t-50.5 84
t-17.5 105.5q0 56 21 108t59.5 93.5t89.5 65t109 23.5q42 0 81.5 -14t70 -41.5t48 -66.5t17.5 -88q0 -45 -11.5 -82t-30 -63.5t-39.5 -40t-39 -13.5q-21 0 -21 24q0 8 2 20l48 267h-67q-16 9 -30.5 12.5t-34.5 3.5q-32 0 -63 -14.5t-57.5 -40.5t-45 -60.5t-25.5 -72.5
q-4 -24 -4 -48q0 -64 31 -104t86 -40q20 0 46 12t45 31q10 -17 28 -28.5t41 -11.5q32 0 66 19.5t62.5 54.5t46 81t17.5 96zM444 425l-32 -187q-7 -33 -28.5 -56.5t-45.5 -23.5q-25 0 -36.5 21.5t-11.5 58.5q0 25 5 56q11 60 38.5 104t64.5 44q27 0 46 -17z" />
    <glyph glyph-name="A" unicode="A" 
d="M170 200h198l42 -95q11 -24 11 -39q0 -19 -20 -28t-66 -9v-29h328v29q-56 0 -77.5 17.5t-44.5 70.5l-218 500h-21l-217 -500q-23 -53 -47 -70.5t-76 -17.5v-29h242v29q-45 0 -65 9t-20 30q0 14 10 37zM349 245h-159l79 183z" />
    <glyph glyph-name="B" unicode="B" horiz-adv-x="657" 
d="M347 45h7q-33 0 -51 4.5t-28 15.5t-13.5 32.5t-3.5 58.5v139h89q62 0 94.5 -35.5t32.5 -89.5q0 -55 -32.5 -90t-94.5 -35zM258 555h56q54 0 82 -31t28 -77q0 -47 -28 -77t-82 -30h-56v215zM484 326q35 20 54.5 52.5t19.5 71.5q0 64 -49.5 107t-130.5 43h-340v-29
q33 0 51 -4.5t27.5 -16.5t13 -34t3.5 -62v-308q0 -40 -3.5 -62t-13 -34t-27.5 -16.5t-51 -4.5v-29h368q91 0 146.5 48t55.5 120q0 55 -33 97.5t-91 60.5z" />
    <glyph glyph-name="C" unicode="C" horiz-adv-x="692" 
d="M618 11v220h-29q-20 -95 -76 -147.5t-131 -52.5q-49 0 -83.5 23.5t-54.5 62.5t-29 86t-9 97q0 51 9 98t29 85.5t54.5 62t83.5 23.5q76 0 131.5 -52t75.5 -148h29v220h-28q-5 -21 -11 -35.5t-15 -21.5q-39 41 -86.5 63t-99.5 22q-62 0 -118 -24.5t-98.5 -68.5t-66.5 -102
t-24 -122t24 -122t66.5 -102t98.5 -68.5t118 -24.5q52 0 99.5 22t86.5 63q9 -6 15 -20.5t11 -36.5h28z" />
    <glyph glyph-name="D" unicode="D" horiz-adv-x="713" 
d="M38 0h330q85 0 148 23t104 64t61 95.5t20 117.5t-20 117.5t-61 95.5t-104 64t-148 23h-330v-29q33 0 51 -4.5t27.5 -16.5t13 -34t3.5 -62v-308q0 -40 -3.5 -62t-13 -34t-27.5 -16.5t-51 -4.5v-29zM258 555h106q58 0 96.5 -22.5t60 -60t30 -81.5t8.5 -91t-8.5 -91
t-30 -81.5t-60 -60t-96.5 -22.5h-10q-33 0 -51 4.5t-28 16t-13.5 33t-3.5 59.5v397z" />
    <glyph glyph-name="E" unicode="E" horiz-adv-x="641" 
d="M38 0h548l8 141h-29l-5 -20q-11 -44 -31.5 -60t-84.5 -16h-90q-33 0 -51 4.5t-28 16.5t-13.5 34.5t-3.5 61.5v133h55q40 0 62 -3.5t33.5 -13t16 -28t4.5 -51.5h29v237h-29q0 -33 -4.5 -51t-16 -28t-34 -13.5t-61.5 -3.5h-55v215h153q64 0 84 -15.5t32 -60.5l5 -20h29
l-8 141h-515v-29q33 0 51 -4.5t27.5 -16.5t13 -34t3.5 -62v-308q0 -40 -3.5 -62t-13 -34t-27.5 -16.5t-51 -4.5v-29z" />
    <glyph glyph-name="F" unicode="F" horiz-adv-x="594" 
d="M258 555h170q64 0 84 -16t31 -60l5 -20h30l-9 141h-531v-29q33 0 51 -4.5t27.5 -16.5t13 -34t3.5 -62v-308q0 -40 -3.5 -62t-13 -34t-27.5 -16.5t-51 -4.5v-29h316v29q-33 0 -51 4.5t-28 16.5t-13.5 34.5t-3.5 61.5v149h55q40 0 62 -3.5t33.5 -13t16 -28t4.5 -51.5h29
v237h-29q0 -33 -4.5 -51t-16 -28t-34 -13.5t-61.5 -3.5h-55v215z" />
    <glyph glyph-name="G" unicode="G" horiz-adv-x="725" 
d="M532 155q0 -64 -42.5 -94t-107.5 -30q-49 0 -83.5 23.5t-54.5 62.5t-29 86t-9 97q0 51 9 98t29 85.5t54.5 62t83.5 23.5q76 0 131.5 -52t75.5 -148h29v220h-28q-5 -21 -11 -35.5t-15 -21.5q-39 41 -86.5 63t-99.5 22q-62 0 -118 -24.5t-98.5 -68.5t-66.5 -102t-24 -122
t24 -122t66.5 -102t98.5 -68.5t118 -24.5q32 0 58 6t61 18q40 14 70 21t71 7v68q0 40 3.5 62t13 33.5t27.5 16t51 4.5v29h-295v-29q51 0 72.5 -15.5t21.5 -48.5z" />
    <glyph glyph-name="H" unicode="H" horiz-adv-x="823" 
d="M258 296h307v-150q0 -40 -3.5 -62t-13 -34t-27.5 -16.5t-52 -4.5v-29h317v29q-33 0 -51 4.5t-28 16.5t-13.5 34.5t-3.5 61.5v308q0 39 3.5 61.5t13.5 34.5t28 16.5t51 4.5v29h-317v-29q34 0 52 -4.5t27.5 -16.5t13 -34t3.5 -62v-113h-307v113q0 39 3.5 61.5t13.5 34.5
t28 16.5t51 4.5v29h-316v-29q33 0 51 -4.5t27.5 -16.5t13 -34t3.5 -62v-308q0 -40 -3.5 -62t-13 -34t-27.5 -16.5t-51 -4.5v-29h316v29q-33 0 -51 4.5t-28 16.5t-13.5 34.5t-3.5 61.5v150z" />
    <glyph glyph-name="I" unicode="I" horiz-adv-x="392" 
d="M354 0v29q-33 0 -51 4.5t-28 16.5t-13.5 34.5t-3.5 61.5v308q0 39 3.5 61.5t13.5 34.5t28 16.5t51 4.5v29h-316v-29q33 0 51 -4.5t27.5 -16.5t13 -34t3.5 -62v-308q0 -40 -3.5 -62t-13 -34t-27.5 -16.5t-51 -4.5v-29h316z" />
    <glyph glyph-name="J" unicode="J" horiz-adv-x="383" 
d="M51 -178q-38 0 -57.5 24t-19.5 54q0 18 -11.5 30t-29.5 12t-29.5 -12t-11.5 -30q0 -54 48 -88.5t114 -34.5q90 0 147 56t57 163v458q0 39 3.5 61.5t13.5 34.5t28 16.5t51 4.5v29h-316v-29q33 0 51 -4.5t27.5 -16.5t13 -34t3.5 -62v-507q0 -64 -21 -94.5t-61 -30.5z" />
    <glyph glyph-name="K" unicode="K" horiz-adv-x="788" 
d="M387 375l142 114q2 2 6 4q55 45 88.5 61.5t89.5 16.5v29h-241v-29q22 0 32 -5.5t10 -14.5q0 -13 -14.5 -30.5t-31.5 -31.5l-210 -169v134q0 39 3.5 61.5t13.5 34.5t28 16.5t51 4.5v29h-316v-29q33 0 51 -4.5t27.5 -16.5t13 -34t3.5 -62v-308q0 -40 -3.5 -62t-13 -34
t-27.5 -16.5t-51 -4.5v-29h316v29q-33 0 -51 4.5t-28 16.5t-13.5 34.5t-3.5 61.5v121l43 35l197 -214q19 -20 19 -34q0 -25 -56 -25v-29h332v29q-23 0 -64 17.5t-65 41.5z" />
    <glyph glyph-name="L" unicode="L" horiz-adv-x="633" 
d="M133 454v-308q0 -40 -3.5 -62t-13 -34t-27.5 -16.5t-51 -4.5v-29h573l8 141h-29l-5 -20q-11 -44 -31.5 -60t-84.5 -16h-115q-33 0 -51 4.5t-28 16.5t-13.5 34.5t-3.5 61.5v292q0 39 3.5 61.5t13.5 34.5t28 16.5t51 4.5v29h-316v-29q33 0 51 -4.5t27.5 -16.5t13 -34
t3.5 -62z" />
    <glyph glyph-name="M" unicode="M" horiz-adv-x="850" 
d="M178 434l201 -451h22l196 452v-289q0 -39 -3.5 -61.5t-13.5 -34.5t-28 -16.5t-51 -4.5v-29h312v29q-33 0 -51.5 4.5t-28 16.5t-13 34t-3.5 62v308q0 40 3.5 62t13 34t28 16.5t51.5 4.5v29h-195l-187 -433l-193 433h-200v-29q33 0 51 -4.5t27.5 -16.5t13 -34t3.5 -62v-308
q0 -40 -3.5 -62t-13 -34t-27.5 -16.5t-51 -4.5v-29h236v29q-33 0 -51 4.5t-28 16.5t-13.5 34.5t-3.5 61.5v288z" />
    <glyph glyph-name="N" unicode="N" horiz-adv-x="749" 
d="M572 202l-334 398h-200v-29q33 0 51 -4.5t27.5 -16.5t13 -34t3.5 -62v-308q0 -40 -3.5 -62t-13 -34t-27.5 -16.5t-51 -4.5v-29h236v29q-33 0 -51 4.5t-28 16.5t-13.5 34.5t-3.5 61.5v331l414 -494h25v471q0 40 3.5 62t13 34t28 16.5t51.5 4.5v29h-237v-29q33 0 51 -4.5
t28 -16.5t13.5 -34.5t3.5 -61.5v-252z" />
    <glyph glyph-name="O" unicode="O" horiz-adv-x="808" 
d="M738 300q0 64 -26 122t-72 102t-107 68.5t-129 24.5q-67 0 -128 -24.5t-107 -68.5t-72 -102t-26 -122t26 -122t72 -102t107 -68.5t128 -24.5q68 0 129 24.5t107 68.5t72 102t26 122zM603 300q0 -47 -11.5 -94.5t-36 -87t-62.5 -63.5t-89 -24t-89 24t-62.5 63.5t-36 87
t-11.5 94.5t11.5 94.5t36 87t62.5 63.5t89 24t89.5 -24t62.5 -63.5t35.5 -87t11.5 -94.5z" />
    <glyph glyph-name="P" unicode="P" horiz-adv-x="598" 
d="M373 600h-335v-29q33 0 51 -4.5t27.5 -16.5t13 -34t3.5 -62v-308q0 -40 -3.5 -62t-13 -34t-27.5 -16.5t-51 -4.5v-29h316v29q-33 0 -51 4.5t-28 16.5t-13.5 34.5t-3.5 61.5v117h115q91 0 146.5 48t55.5 120t-55.5 120.5t-146.5 48.5zM313 308h-55v247h55q62 0 95 -35
t33 -89t-33 -88.5t-95 -34.5z" />
    <glyph glyph-name="Q" unicode="Q" horiz-adv-x="808" 
d="M350 -13q-32 -10 -61 -25t-50 -32t-33 -33.5t-12 -27.5q0 -32 34 -32q9 1 14.5 6.5t12.5 15.5q15 21 34 33t59 12q28 0 53.5 -17.5t65.5 -54.5q55 -52 100 -79.5t107 -27.5q48 0 84 18t59.5 46.5t38 58.5t26.5 65l-24 10q-26 -42 -66 -63.5t-99 -21.5q-31 0 -60.5 10.5
t-74.5 33.5q-53 26 -93 40t-89 14q-36 0 -74 -9q26 22 66 38.5t70 19.5q61 7 116 33t96.5 68.5t64.5 97t23 116.5q0 64 -26 122t-72 102t-107 68.5t-129 24.5q-67 0 -128 -24.5t-107 -68.5t-72 -102t-26 -122q0 -57 20.5 -109t58 -94.5t89 -71t111.5 -38.5zM404 569
q51 0 89.5 -24t62.5 -63.5t35.5 -87t11.5 -94.5t-11.5 -94.5t-36 -87t-62.5 -63.5t-89 -24t-89 24t-62.5 63.5t-36 87t-11.5 94.5t11.5 94.5t36 87t62.5 63.5t89 24z" />
    <glyph glyph-name="R" unicode="R" horiz-adv-x="678" 
d="M398 263q81 7 129 54.5t48 113.5q0 72 -55.5 120.5t-146.5 48.5h-335v-29q33 0 51 -4.5t27.5 -16.5t13 -34t3.5 -62v-308q0 -40 -3.5 -62t-13 -34t-27.5 -16.5t-51 -4.5v-29h316v29q-33 0 -51 4.5t-28 16.5t-13.5 34.5t-3.5 61.5v117h29l178 -263h217v29q-24 3 -43.5 10
t-40 20.5t-45.5 37t-58 60.5zM313 308h-55v247h55q62 0 95 -35t33 -89t-33 -88.5t-95 -34.5z" />
    <glyph glyph-name="S" unicode="S" horiz-adv-x="498" 
d="M107 30q11 -2 36 -15q31 -14 58.5 -23t61.5 -9q38 0 74 13t64.5 37.5t44.5 58t16 73.5q0 56 -36 101.5t-93 75.5l-96 49q-38 19 -59 48.5t-21 53.5q0 36 24 58t57 22q38 0 64.5 -14.5t43 -39t25 -54.5t11.5 -63h29v220h-28q-6 -27 -29 -46q-27 20 -54.5 30.5t-67.5 10.5
q-36 0 -67.5 -11.5t-55.5 -32.5t-37.5 -48.5t-13.5 -57.5q0 -70 33 -112t102 -77l96 -50q35 -18 54.5 -45.5t19.5 -55.5q0 -48 -27.5 -73.5t-72.5 -25.5q-64 0 -117 48.5t-68 126.5h-29v-220h29q6 28 29 47z" />
    <glyph glyph-name="T" unicode="T" horiz-adv-x="642" 
d="M625 600h-608l-9 -141h30l5 20q11 44 31 60t84 16h100v-409q0 -40 -3.5 -62t-13 -34t-27.5 -16.5t-51 -4.5v-29h316v29q-33 0 -51 4.5t-28 16.5t-13.5 34.5t-3.5 61.5v409h100q64 0 84.5 -16t31.5 -60l5 -20h29z" />
    <glyph glyph-name="U" unicode="U" horiz-adv-x="733" 
d="M554 454v-220q0 -94 -40 -141.5t-107 -47.5q-68 0 -111.5 48t-43.5 141v220q0 40 3.5 62t13 34t28 16.5t51.5 4.5v29h-317v-29q33 0 51 -4.5t28 -16.5t13.5 -34.5t3.5 -61.5v-231q0 -114 68 -177t172 -63t172.5 63.5t68.5 176.5v231q0 40 3.5 62t13 34t27.5 16.5t51 4.5
v29h-245v-29q34 0 52 -4.5t27.5 -16.5t13 -34t3.5 -62z" />
    <glyph glyph-name="V" unicode="V" 
d="M663 571v29h-242v-29q45 0 65 -9t20 -30q0 -14 -10 -37l-141 -325l-140 325q-11 24 -11 39q0 19 20 28t66 9v29h-328v-29q57 0 78 -17.5t44 -70.5l218 -500h21l217 500q23 53 47 70.5t76 17.5z" />
    <glyph glyph-name="W" unicode="W" horiz-adv-x="762" 
d="M812 571v29h-234v-29q41 0 59 -10t18 -32q0 -14 -7 -34l-91 -282l-126 387h-23l-122 -386l-91 281q-7 23 -7 37q0 21 19 30t66 9v29h-316v-29q32 0 51.5 -4t31.5 -14t20 -25.5t17 -44.5l161 -500h22l123 387l126 -387h22l162 500q9 28 16.5 44t19.5 26t32 14t51 4z" />
    <glyph glyph-name="X" unicode="X" horiz-adv-x="614" 
d="M359 348l111 135q41 51 68 69.5t76 18.5v29h-246v-29q76 0 76 -31q0 -18 -22 -45l-88 -107l-67 107q-17 28 -17 44q0 32 71 32v29h-334v-29q48 0 78 -19.5t62 -68.5l124 -199l-136 -167q-37 -46 -68.5 -67t-75.5 -21v-29h246v29q-76 0 -76 32q0 17 22 44l114 139l87 -139
q18 -29 18 -46q0 -30 -72 -30v-29h335v29q-50 0 -79 19t-62 69z" />
    <glyph glyph-name="Y" unicode="Y" horiz-adv-x="633" 
d="M665 571v29h-242v-29q74 0 74 -30q0 -17 -20 -46l-112 -169l-112 169q-18 26 -18 43q0 33 71 33v29h-339v-29q53 0 82 -17q15 -10 29.5 -26.5t33.5 -44.5l145 -219v-118q0 -39 -3.5 -61.5t-13.5 -34.5t-28 -16.5t-51 -4.5v-29h312v29q-33 0 -51 4.5t-27.5 16.5t-13 34
t-3.5 62v121l143 216q19 29 30.5 44t26.5 25t35.5 14.5t51.5 4.5z" />
    <glyph glyph-name="Z" unicode="Z" horiz-adv-x="592" 
d="M353 563l-310 -539v-24h476l9 133h-21l-5 -20q-12 -44 -32 -60t-84 -16h-193l313 541v22h-443l-9 -132h21l5 20q11 44 31.5 59.5t84.5 15.5h157z" />
    <glyph glyph-name="bracketleft" unicode="[" horiz-adv-x="375" 
d="M336 -88v40h-104v686h104v40h-219v-766h219z" />
    <glyph glyph-name="backslash" unicode="\" horiz-adv-x="348" 
d="M383 7l-370 613l-47 -26l369 -612z" />
    <glyph glyph-name="bracketright" unicode="]" horiz-adv-x="375" 
d="M258 -88v766h-219v-40h104v-686h-104v-40h219z" />
    <glyph glyph-name="asciicircum" unicode="^" horiz-adv-x="485" 
d="M460 296l-217 321l-218 -321l23 -16l195 158l194 -158z" />
    <glyph glyph-name="underscore" unicode="_" horiz-adv-x="358" 
d="M359 -44v44h-360v-44h360z" />
    <glyph glyph-name="grave" unicode="`" horiz-adv-x="404" 
d="M270 490l-122 113q-17 16 -29 23t-28 7q-17 0 -27 -11.5t-10 -25.5q0 -13 9 -22.5t21 -16.5l179 -76z" />
    <glyph glyph-name="a" unicode="a" horiz-adv-x="449" 
d="M431 26l-14 27q-1 -1 -2 -1q-17 -11 -27 -11q-22 0 -22 38v135q0 71 -37.5 103.5t-120.5 32.5q-58 0 -101.5 -22t-43.5 -58q0 -20 11 -31.5t28 -11.5t28.5 12t11.5 31q0 18 17 28.5t37 10.5q33 0 49 -21t16 -74v-1q-107 -16 -164.5 -49t-57.5 -93q0 -38 29 -61t67 -23
q32 0 56.5 12.5t69.5 47.5q11 -58 77 -58q18 0 45 10.5t48 26.5zM261 88q-24 -21 -47 -33t-36 -12q-17 0 -28.5 9.5t-11.5 30.5q0 35 29.5 54t93.5 36v-85z" />
    <glyph glyph-name="b" unicode="b" horiz-adv-x="510" 
d="M338 167q0 -60 -19 -98.5t-56 -38.5q-27 0 -47 25.5t-20 62.5v97q0 38 20 63t47 25q37 0 56 -38t19 -98zM83 -8h30l52 56q19 -30 48 -47.5t65 -17.5q83 0 132.5 53t49.5 131t-49.5 130.5t-132.5 52.5q-46 0 -82 -29v296l-192 -25v-29q27 0 42 -4.5t23 -16.5t11 -34t3 -62
v-454z" />
    <glyph glyph-name="c" unicode="c" horiz-adv-x="413" 
d="M243 310q15 0 25.5 -10t10.5 -33q0 -16 11.5 -28t27.5 -12q23 0 34 13.5t11 28.5q0 31 -34.5 56t-93.5 25q-37 0 -70.5 -13.5t-59.5 -39t-40.5 -61t-14.5 -78.5q0 -37 14.5 -69t40.5 -56t61.5 -37t76.5 -13q87 0 150 66l-18 29q-53 -46 -101 -46t-74.5 33t-26.5 93
q0 74 16 113t54 39z" />
    <glyph glyph-name="d" unicode="d" horiz-adv-x="518" 
d="M314 321q-36 29 -82 29q-83 0 -132.5 -52.5t-49.5 -130.5t50 -131t132 -53q52 0 90 36l1 -4q5 -27 8 -32l175 25v30q-27 0 -42 4.5t-23 16t-11 33.5t-3 62v463l-192 -25v-29q27 0 42 -4.5t23 -16.5t11 -34t3 -62v-125zM314 118q0 -37 -20 -62.5t-46 -25.5q-37 0 -56 38.5
t-19 98.5t19 98t56 38q27 0 46.5 -25t19.5 -63v-97z" />
    <glyph glyph-name="e" unicode="e" horiz-adv-x="433" 
d="M177 229q17 73 71 73q62 0 62 -73h-133zM170 185h218q4 15 4 30q0 52 -41 93.5t-108 41.5q-39 0 -74 -13.5t-62 -38.5t-42 -58.5t-15 -72.5q0 -38 14.5 -71.5t41.5 -59t64.5 -39.5t81.5 -14q41 0 83 19t69 47l-17 29q-23 -20 -54 -31t-65 -11q-41 0 -70 34t-29 97l1 9v9z
" />
    <glyph glyph-name="f" unicode="f" horiz-adv-x="337" 
d="M405 529q0 32 -35 60t-91 28q-88 0 -128.5 -50t-40.5 -153v-81h-82v-44h82v-143q0 -40 -3 -62t-11 -34t-23 -16.5t-42 -4.5v-29h271v29q-27 0 -41.5 4.5t-23 16.5t-11.5 34t-3 62v143h100v44h-100v124q0 66 11.5 92.5t42.5 26.5q18 0 26 -10.5t16 -31.5q9 -23 18.5 -34.5
t29.5 -11.5q18 0 28 12t10 29z" />
    <glyph glyph-name="g" unicode="g" horiz-adv-x="410" 
d="M250 214q0 -42 -14 -68.5t-42 -26.5q-27 0 -41.5 26.5t-14.5 68.5t14.5 68.5t41.5 26.5q28 0 42 -26t14 -69zM113 45q0 17 19.5 23t61.5 9q7 1 11 1q61 5 99.5 44.5t38.5 91.5q0 23 -5 39.5t-19 33.5q16 16 31 16q11 0 15.5 -5.5t7.5 -17.5q4 -13 9.5 -20.5t18.5 -10.5
q2 0 5 -1h4q16 0 25.5 12t9.5 29q0 24 -18.5 42.5t-54.5 18.5q-17 0 -39.5 -11t-34.5 -27q-44 38 -104 38q-30 0 -57 -10.5t-48 -29.5t-32.5 -44t-11.5 -52q0 -38 21 -69t54 -46q-39 -12 -63 -36t-24 -51q0 -87 125 -100q89 -10 119 -25.5t30 -42.5q0 -31 -33 -49.5
t-86 -18.5q-43 0 -81 17.5t-38 49.5q0 27 32 61l-19 11q-66 -33 -66 -82q0 -41 49.5 -70.5t132.5 -29.5q81 0 136 39t55 104q0 23 -9 45.5t-29.5 42.5t-53.5 34t-78 19l-21 2q-50 5 -67.5 9.5t-17.5 16.5z" />
    <glyph glyph-name="h" unicode="h" horiz-adv-x="550" 
d="M92 446v-300q0 -39 -3.5 -61.5t-11.5 -34.5t-23 -16.5t-41 -4.5v-29h270v29q-26 0 -41 4.5t-23 16.5t-11.5 34.5t-3.5 61.5v49q0 47 27.5 73t61.5 26q35 0 48 -26.5t13 -79.5v-42q0 -70 -9 -93.5t-30 -23.5v-29h231v29q-27 0 -41.5 4.5t-23 16.5t-11.5 34t-3 62v55
q0 65 -39 107t-105 42q-39 0 -68 -14t-51 -40v321l-191 -25v-29q26 0 41 -4.5t23 -16.5t11.5 -34.5t3.5 -61.5z" />
    <glyph glyph-name="i" unicode="i" horiz-adv-x="331" 
d="M310 0v29q-27 0 -41.5 4.5t-23 16.5t-11.5 34t-3 62v204l-192 -25v-29q27 0 42 -4.5t23 -16.5t11 -34t3 -62v-33q0 -40 -3 -62t-11 -34t-23 -16.5t-42 -4.5v-29h271zM238 518q0 26 -19 45t-45 19t-44 -19t-18 -45t18 -45.5t44 -19.5t45 19.5t19 45.5z" />
    <glyph glyph-name="j" unicode="j" horiz-adv-x="285" 
d="M206 -78v428l-192 -25v-29q27 0 42 -4.5t23 -16.5t11 -34t3 -62v-249q0 -88 -17 -122t-49 -34q-26 0 -36.5 12t-19.5 36q-7 20 -15 30t-25 10q-34 0 -34 -35q1 -32 41 -63t105 -31q82 0 122.5 45.5t40.5 143.5zM213 518q0 26 -19 45t-45 19t-44 -19t-18 -45t18 -45.5
t44 -19.5t45 19.5t19 45.5z" />
    <glyph glyph-name="k" unicode="k" horiz-adv-x="465" 
d="M204 198v419l-191 -25v-29q26 0 41 -4.5t23 -16.5t11.5 -34.5t3.5 -61.5v-300q0 -39 -3.5 -61.5t-11.5 -34.5t-23 -16.5t-41 -4.5v-29h254v29q-38 0 -50.5 22t-12.5 87v21l134 -159h141v29q-20 0 -38 8.5t-38 31.5l-117 141l76 58q26 21 47.5 28.5t48.5 7.5v29h-209v-29
q49 0 49 -25q0 -13 -18 -27z" />
    <glyph glyph-name="l" unicode="l" horiz-adv-x="331" 
d="M310 0v29q-27 0 -41.5 4.5t-23 16.5t-11.5 34t-3 62v471l-192 -25v-29q27 0 42 -4.5t23 -16.5t11 -34t3 -62v-300q0 -40 -3 -62t-11 -34t-23 -16.5t-42 -4.5v-29h271z" />
    <glyph glyph-name="m" unicode="m" horiz-adv-x="836" 
d="M492 195q0 46 29 72.5t63 26.5q32 0 44 -26.5t12 -79.5v-42q0 -70 -9 -93.5t-30 -23.5v-29h231v29q-27 0 -41.5 4.5t-23 16.5t-11.5 34t-3 62v55q0 66 -36.5 107.5t-102.5 41.5q-84 0 -138 -74q-16 35 -47.5 54.5t-75.5 19.5q-39 0 -71.5 -15.5t-53.5 -41.5
q-1 15 -5.5 32t-8.5 25l-175 -25v-29q27 0 42 -4.5t23 -16.5t11 -34t3 -62v-33q0 -40 -3 -62t-11 -34t-23 -16.5t-42 -4.5v-29h259v29q-41 0 -54 21.5t-13 95.5v49q0 46 29 72.5t63 26.5q32 0 44 -26.5t12 -79.5v-42q0 -70 -9 -93.5t-30 -23.5v-29h231v29q-27 0 -41.5 4.5
t-23 16.5t-11.5 34t-3 62v49z" />
    <glyph glyph-name="n" unicode="n" horiz-adv-x="592" 
d="M228 293q-1 15 -5.5 32t-8.5 25l-175 -25v-29q27 0 42 -4.5t23 -16.5t11 -34t3 -62v-33q0 -40 -3 -62t-11 -34t-23 -16.5t-42 -4.5v-29h271v29q-27 0 -41.5 4.5t-23 16.5t-11.5 34t-3 62v49q0 46 29 72.5t63 26.5q40 0 56.5 -27t16.5 -79v-42q0 -70 -9 -93.5t-30 -23.5
v-29h231v29q-27 0 -42 4.5t-23 16.5t-11.5 34.5t-3.5 61.5v55q0 64 -44 106.5t-111 42.5q-39 0 -71.5 -15.5t-53.5 -41.5z" />
    <glyph glyph-name="o" unicode="o" horiz-adv-x="503" 
d="M453 167q0 37 -15.5 70.5t-43.5 59t-64.5 39.5t-77.5 14t-78 -14t-64.5 -39.5t-43.5 -59t-16 -70.5t15.5 -70.5t44 -59.5t65 -40t77.5 -14t77.5 14t64.5 40t43.5 59.5t15.5 70.5zM331 167q0 -60 -20 -98.5t-59 -38.5t-59 38.5t-20 98.5t20 98t59 38t59 -38t20 -98z" />
    <glyph glyph-name="p" unicode="p" horiz-adv-x="510" 
d="M338 167q0 -60 -19 -98.5t-56 -38.5q-27 0 -47 25.5t-20 62.5v97q0 38 20 63t47 25q37 0 56 -38t19 -98zM196 -104v117q35 -30 82 -30q83 0 132.5 53t49.5 131t-49.5 130.5t-132.5 52.5q-52 0 -90 -36l-1 4q-5 27 -8 32l-175 -25v-29q27 0 42 -4.5t23 -16.5t11 -34t3 -62
v-283q0 -40 -3 -62t-11 -34t-23 -16.5t-42 -4.5v-29h271v29q-27 0 -41.5 4.5t-23 16.5t-11.5 34t-3 62z" />
    <glyph glyph-name="q" unicode="q" horiz-adv-x="510" 
d="M314 118q0 -37 -20 -62.5t-46 -25.5q-37 0 -56 38.5t-19 98.5t19 98t56 38q27 0 46.5 -25t19.5 -63v-97zM427 -104v446h-29l-53 -56q-19 29 -47.5 46.5t-65.5 17.5q-83 0 -132.5 -52.5t-49.5 -130.5t50 -131t132 -53q47 0 82 30v-117q0 -40 -3 -62t-11 -34t-23 -16.5
t-42 -4.5v-29h271v29q-27 0 -41.5 4.5t-23 16.5t-11.5 34t-3 62z" />
    <glyph glyph-name="r" unicode="r" horiz-adv-x="432" 
d="M426 268q0 33 -21.5 57.5t-67.5 24.5q-30 0 -60 -21t-46 -51q-2 16 -7.5 40.5t-9.5 31.5l-175 -25v-29q27 0 42 -4.5t23 -16.5t11 -34t3 -62v-33q0 -40 -3 -62t-11 -34t-23 -16.5t-42 -4.5v-29h271v29q-27 0 -41.5 4.5t-23 16.5t-11.5 34t-3 62v21q0 56 18.5 81.5
t43.5 25.5q19 0 27 -8.5t14 -25.5q7 -16 14.5 -24t24.5 -8q25 0 39 19t14 41z" />
    <glyph glyph-name="s" unicode="s" horiz-adv-x="350" 
d="M330 96q0 30 -20 57.5t-57 44.5l-49 23q-41 18 -55 28.5t-14 26.5q0 15 14 24.5t35 9.5q33 0 62.5 -23t29.5 -53h29v116h-29q0 -18 -11 -18q-6 0 -23 5q-41 13 -74 13q-20 0 -40.5 -5.5t-38.5 -17t-28.5 -31t-10.5 -46.5q0 -29 19 -57t56 -45l56 -25q34 -16 49 -29
t15 -30t-14 -28t-38 -11t-46 9.5t-39 25t-27 34t-10 35.5h-29v-146h29q0 32 13 32q7 0 27 -10q22 -10 41 -16t42 -6q55 0 95.5 28.5t40.5 84.5z" />
    <glyph glyph-name="t" unicode="t" horiz-adv-x="303" 
d="M77 289v-183q0 -58 31 -90.5t85 -32.5q26 0 62 17.5t61 40.5l-14 28q-41 -29 -68 -29q-45 0 -45 73v176h87v44h-87v126h-34q-5 -47 -44.5 -87t-86.5 -50v-33h53z" />
    <glyph glyph-name="u" unicode="u" horiz-adv-x="557" 
d="M553 8v30q-27 0 -42 4.5t-23 16t-11.5 34t-3.5 61.5v179h-191v-29q26 0 41 -4.5t23.5 -16t11.5 -34t3 -61.5v-50q0 -46 -29.5 -72.5t-63.5 -26.5q-39 0 -55.5 27.5t-16.5 79.5v187h-192v-29q27 0 42 -4.5t23 -16t11 -33.5t3 -62v-55q0 -64 44 -107t111 -43q40 0 72 16
t53 42q2 -16 6.5 -33.5t8.5 -24.5z" />
    <glyph glyph-name="v" unicode="v" horiz-adv-x="368" 
d="M213 125l-60 129q-8 17 -8 28q0 22 41 22v29h-219v-29q24 0 38.5 -11t27.5 -39l135 -272h28l126 272q12 27 28 38.5t43 11.5v29h-149v-29q37 0 37 -21q0 -11 -8 -29z" />
    <glyph glyph-name="w" unicode="w" horiz-adv-x="505" 
d="M245 175l81 -193h20l105 272q12 29 27.5 39.5t43.5 10.5v29h-149v-29q37 0 37 -21q0 -10 -7 -29l-39 -99l-73 178h-33l-69 -178l-41 99q-7 19 -7 29q0 21 41 21v29h-211v-29q26 0 40 -10.5t27 -39.5l113 -272h20z" />
    <glyph glyph-name="x" unicode="x" horiz-adv-x="407" 
d="M178 118l30 -39q16 -20 16 -32q0 -18 -41 -18v-29h247v29q-32 0 -52 10t-44 40l-86 113l59 62q26 28 49.5 39t46.5 11v29h-163v-29q34 0 34 -15q0 -13 -21 -35l-30 -31l-24 31q-17 22 -17 34q0 16 38 16v29h-235v-29q26 0 45.5 -10.5t42.5 -39.5l80 -105l-66 -70
q-27 -29 -47.5 -39.5t-40.5 -10.5v-29h159v29q-38 0 -38 16q0 12 21 34z" />
    <glyph glyph-name="y" unicode="y" horiz-adv-x="358" 
d="M112 -233l201 487q11 27 28 38.5t43 11.5v29h-148v-29q36 0 36 -22q0 -10 -7 -28l-54 -130l-58 130q-9 19 -9 29q0 21 42 21v29h-219v-29q45 0 66 -50l120 -268l-43 -106q-11 -27 -23.5 -43t-29.5 -31q-12 -11 -17.5 -19t-5.5 -20q0 -20 13 -28.5t27 -8.5q11 0 21 10.5
t17 26.5z" />
    <glyph glyph-name="z" unicode="z" horiz-adv-x="333" 
d="M305 333h-277l-7 -119h21l5 20q9 34 29.5 46.5t85.5 12.5h6l-150 -276v-17h290l8 119h-21l-5 -20q-9 -34 -29.5 -46.5t-85.5 -12.5h-19l149 277v16z" />
    <glyph glyph-name="braceleft" unicode="{" horiz-adv-x="375" 
d="M42 304v-16l3 -1q26 -9 41 -17t27 -25t18.5 -48.5t6.5 -82.5q0 -44 12.5 -76.5t33.5 -55.5t45 -38.5t62 -36.5q24 -13 32 -18l23 29q-30 21 -46.5 37.5t-25.5 36t-12.5 47.5t-3.5 73q0 52 -10 86t-27 53t-38 28t-54 17q32 8 53.5 17t38.5 28t27 53t10 86q0 45 3.5 73
t12 47.5t25.5 36t47 36.5l-23 30q-10 -6 -31 -17q-39 -21 -63 -37t-45 -38.5t-33.5 -55.5t-12.5 -77q0 -51 -6.5 -82.5t-18 -48.5t-27 -25t-41.5 -17z" />
    <glyph glyph-name="bar" unicode="|" horiz-adv-x="270" 
d="M115 708v-708h44v708h-44z" />
    <glyph glyph-name="braceright" unicode="}" horiz-adv-x="375" 
d="M333 288v16l-2 1q-27 9 -42 17t-26.5 25t-18 48.5t-6.5 82.5q0 44 -12.5 76.5t-33.5 55.5t-45.5 39t-62.5 37q-20 10 -32 17l-23 -30q30 -20 47 -36.5t26 -36t12 -47.5t3 -73q0 -52 10 -86t27 -53t38.5 -28t53.5 -17q-32 -8 -53.5 -17t-38.5 -28t-27 -53t-10 -86
q0 -45 -3.5 -73t-12 -47.5t-25.5 -36t-47 -37.5l23 -29q8 5 32 18q39 21 63 36.5t45 38.5t33.5 55.5t12.5 76.5q0 51 6.5 83t18 48.5t26.5 24.5t42 17z" />
    <glyph glyph-name="asciitilde" unicode="~" horiz-adv-x="506" 
d="M358 283q-20 0 -42 9t-57 27q-36 20 -61.5 30t-49.5 10q-22 0 -42 -14.5t-36 -40.5t-24.5 -59.5t-8.5 -69.5h35q8 30 28 46.5t44 16.5q16 0 37 -9t57 -27q40 -21 65 -31.5t46 -10.5q54 0 86.5 53t32.5 135h-35q-9 -37 -26.5 -51t-48.5 -14z" />
    <glyph glyph-name="nbspace" unicode="&#xa0;" horiz-adv-x="233" 
 />
    <glyph glyph-name="exclamdown" unicode="&#xa1;" horiz-adv-x="329" 
d="M243 -109q0 26 -4.5 45t-14.5 46q-17 49 -28 102.5t-14 153.5h-34q-3 -100 -13.5 -153t-26.5 -103q-10 -29 -14 -47t-4 -44q0 -31 22 -54t53 -23q32 0 55 23t23 54zM223 382q0 23 -17 40t-41 17t-40 -16.5t-16 -40.5t16 -41t40 -17t41 17t17 41z" />
    <glyph glyph-name="cent" unicode="&#xa2;" horiz-adv-x="463" 
d="M281 448v169h-46v-168q-34 -3 -66.5 -17.5t-57 -39.5t-39 -59.5t-14.5 -74.5q0 -69 51 -117t126 -56v-168h46v167q39 4 75 21t62 44l-18 29q-53 -46 -101 -46q-12 0 -18 1v275q10 -4 16.5 -14t6.5 -27q0 -16 11.5 -28t27.5 -12q23 0 34 13.5t11 28.5q0 26 -29.5 49.5
t-77.5 29.5zM235 401v-251q-25 16 -39.5 44t-14.5 64q0 53 14 90.5t40 52.5z" />
    <glyph glyph-name="sterling" unicode="&#xa3;" horiz-adv-x="513" 
d="M357 45h-55q-27 0 -41.5 4.5t-23 16.5t-11.5 34t-3 62v127h100v44h-100v124q0 66 11.5 92.5t42.5 26.5q18 0 26 -10.5t16 -31.5q9 -23 18.5 -34.5t29.5 -11.5q18 0 28 12t10 29q0 32 -35 60t-91 28q-88 0 -128.5 -50t-40.5 -153v-81h-82v-44h82v-143q0 -40 -3 -62
t-11 -34t-23 -16.5t-42 -4.5v-29h467l9 141h-29l-5 -20q-12 -44 -32 -60t-84 -16z" />
    <glyph glyph-name="currency" unicode="&#xa4;" horiz-adv-x="500" 
d="M111 348q-30 -44 -30 -96q0 -55 30 -96l-55 -55l41 -42l55 56q41 -30 96 -30q54 0 95 30l55 -56l42 41l-55 56q30 45 30 96q0 49 -30 96l55 55l-42 41l-55 -55q-41 30 -95 30q-55 0 -97 -31l-54 55l-41 -41zM248 345q38 0 65.5 -27.5t27.5 -65.5t-27.5 -65.5t-65.5 -27.5
t-65.5 27.5t-27.5 65.5t27.5 65.5t65.5 27.5z" />
    <glyph glyph-name="yen" unicode="&#xa5;" horiz-adv-x="633" 
d="M378 230h122v57h-109l130 196q19 29 30.5 44t26.5 25t35.5 14.5t51.5 4.5v29h-242v-29q74 0 74 -30q0 -17 -20 -46l-112 -169l-112 169q-18 26 -18 43q0 33 71 33v29h-339v-29q53 0 82 -17q15 -10 29.5 -26.5t33.5 -44.5l130 -196h-119v-57h134v-42h-134v-56h134
q-1 -35 -5 -54.5t-14 -30t-28 -14.5t-49 -4v-29h312v29q-31 0 -49 4t-28 14.5t-13.5 30t-4.5 54.5h122v56h-122v42z" />
    <glyph glyph-name="brokenbar" unicode="&#xa6;" horiz-adv-x="211" 
d="M128 708h-45v-300h45v300zM128 300h-45v-300h45v300z" />
    <glyph glyph-name="section" unicode="&#xa7;" horiz-adv-x="398" 
d="M145 398q-31 -14 -53 -45t-22 -70q0 -29 19 -59.5t56 -50.5l56 -30q34 -18 49 -35t15 -35q0 -19 -14.5 -33.5t-37.5 -14.5q-24 0 -46 9.5t-39 25t-27 34t-10 35.5h-29v-146h29q0 32 13 32q7 0 27 -10q22 -10 41 -16t42 -6q54 0 95 32.5t41 88.5q0 59 -71 106
q32 18 51.5 50t19.5 69q0 29 -20 58t-57 53l-49 27q-37 20 -53 35.5t-16 31.5t14.5 29.5t34.5 13.5q33 0 62.5 -23t29.5 -53h29v116h-29q0 -18 -11 -18q-6 0 -23 5q-41 13 -74 13q-44 0 -81 -28.5t-37 -80.5q0 -29 19 -59.5t56 -50.5zM233 237l-9 5q-35 19 -52 38.5
t-17 37.5q0 22 13 35.5t33 14.5q34 -18 49 -38t15 -41q0 -41 -32 -52z" />
    <glyph glyph-name="dieresis" unicode="&#xa8;" horiz-adv-x="370" 
d="M71 685q-21 0 -36 -14.5t-15 -36.5q0 -21 15 -36t36 -15t36 15t15 36q0 22 -15 36.5t-36 14.5zM270 685q-21 0 -36 -14.5t-15 -36.5q0 -21 15 -36t36 -15t36 15t15 36q0 22 -15 36.5t-36 14.5z" />
    <glyph glyph-name="copyright" unicode="&#xa9;" horiz-adv-x="683" 
d="M342 617q-65 0 -122.5 -24.5t-101.5 -68.5t-68.5 -101.5t-24.5 -122.5t24.5 -122.5t68.5 -101.5t101.5 -68.5t122.5 -24.5t122.5 24.5t101 68.5t68 101.5t24.5 122.5t-24.5 123t-68 101.5t-101 68t-122.5 24.5zM342 571q56 0 105.5 -21t86.5 -58t58 -86.5t21 -105.5
q0 -55 -21 -104.5t-58 -87t-86.5 -58.5t-105.5 -21q-55 0 -104.5 21t-87 58.5t-58.5 87t-21 104.5q0 56 21 105.5t58.5 86.5t87 58t104.5 21zM497 124v142h-24q-23 -117 -105 -117q-49 0 -74.5 41.5t-25.5 109.5q0 66 25.5 108.5t74.5 42.5q82 0 105 -116h24v141h-23
q-1 -10 -5.5 -22.5t-8.5 -17.5q-19 23 -52 38t-63 15q-37 0 -70 -14.5t-58.5 -41t-39.5 -61t-14 -72.5t14 -72.5t39.5 -61t58.5 -41t70 -14.5q30 0 63 15.5t52 37.5q4 -5 8.5 -17t5.5 -23h23z" />
    <glyph glyph-name="ordfeminine" unicode="&#xaa;" horiz-adv-x="449" 
d="M422 309l-14 26q-14 -12 -28 -12q-21 0 -21 36v129q0 68 -35 98.5t-114 30.5q-55 0 -96.5 -21t-41.5 -55q0 -18 10.5 -29.5t25.5 -11.5q17 0 28 11.5t11 29.5q0 17 16.5 27t34.5 10q32 0 47 -20t15 -70v-1q-102 -16 -156.5 -47t-54.5 -88q0 -36 27 -57.5t64 -21.5
q30 0 53.5 11.5t66.5 43.5q10 -54 73 -54q17 0 42.5 9.5t46.5 25.5zM260 368q-22 -20 -44 -31t-35 -11q-16 0 -27 9t-11 28q0 33 27.5 51t89.5 35v-81z" />
    <glyph glyph-name="guillemotleft" unicode="&#xab;" horiz-adv-x="667" 
d="M428 73l-175 195l175 195l-15 22l-338 -217l338 -218zM598 118l-135 150l135 150l-14 24l-274 -174l274 -175z" />
    <glyph glyph-name="logicalnot" unicode="&#xac;" horiz-adv-x="570" 
d="M459 295h-376v-77h299v-103h77v180z" />
    <glyph glyph-name="minus" unicode="&#xad;" horiz-adv-x="458" 
d="M375 183v77h-292v-77h292z" />
    <glyph glyph-name="minus" unicode="&#x2212;" horiz-adv-x="458" 
d="M375 183v77h-292v-77h292z" />
    <glyph glyph-name="registered" unicode="&#xae;" horiz-adv-x="683" 
d="M658 300q0 65 -24.5 123t-68 101.5t-101 68t-122.5 24.5t-122.5 -24.5t-101.5 -68.5t-68.5 -101.5t-24.5 -122.5t24.5 -122.5t68.5 -101.5t101.5 -68.5t122.5 -24.5t122.5 24.5t101 68.5t68 101.5t24.5 122.5zM408 373q0 -28 -16 -45.5t-39 -17.5h-26v126h26
q23 0 39 -17.5t16 -45.5zM547 123q-38 -44 -91.5 -69t-113.5 -25q-55 0 -104.5 21t-87 58.5t-58.5 87t-21 104.5q0 56 21 105.5t58.5 86.5t87 58t104.5 21q56 0 105.5 -21t86.5 -58t58 -86.5t21 -105.5q0 -78 -43 -147q-38 17 -91 70l-56 55q35 11 57 35.5t22 59.5
q0 44 -34 72t-89 28h-204v-24q40 0 52 -17t12 -77v-114q0 -60 -12 -77t-52 -17v-24h216v24q-40 0 -52 17t-12 77v32h16l106 -150h98z" />
    <glyph glyph-name="macron" unicode="&#xaf;" horiz-adv-x="258" 
d="M203 621v23h-181v-23h181z" />
    <glyph glyph-name="degree" unicode="&#xb0;" horiz-adv-x="400" 
d="M199 601q-30 0 -57.5 -11.5t-48 -32.5t-32.5 -48.5t-12 -57.5q0 -31 11.5 -58t32.5 -48t48.5 -32.5t57.5 -11.5q31 0 58 11.5t48 32.5t32.5 48.5t11.5 57.5t-11.5 57.5t-32 48.5t-48 32.5t-58.5 11.5zM200 530q32 0 55.5 -23.5t23.5 -55.5t-23.5 -55.5t-55.5 -23.5
t-55.5 23.5t-23.5 55.5t23.5 55.5t55.5 23.5z" />
    <glyph glyph-name="plusminus" unicode="&#xb1;" horiz-adv-x="458" 
d="M190 78h-140v-78h358v78h-140v130h140v77h-140v140h-78v-140h-140v-77h140v-130z" />
    <glyph glyph-name="twosuperior" unicode="&#xb2;" horiz-adv-x="336" 
d="M300 352h-159l89 62q28 20 44 45.5t16 58.5q0 44 -40 71.5t-94 27.5q-53 0 -86.5 -29.5t-33.5 -67.5q0 -43 40 -71l27 25q-14 24 -14 44q0 24 16.5 38.5t39.5 14.5q63 0 63 -62q0 -20 -8 -37.5t-27 -35.5l-132 -127v-22h250z" />
    <glyph glyph-name="threesuperior" unicode="&#xb3;" horiz-adv-x="336" 
d="M306 378q0 34 -30 68t-68 44l90 87v23h-232l-18 -137h22l5 18q5 21 21 29t42 8h56l-77 -79q-8 -9 -8 -18q0 -18 17 -18q14 0 24 17q8 13 16 23q25 -6 41 -23t16 -42q0 -31 -15 -52t-46 -21q-27 0 -40.5 9t-24.5 25q-6 10 -11 14t-13 4q-24 0 -24 -18q0 -23 32.5 -46
t80.5 -23q66 0 105 31.5t39 76.5z" />
    <glyph glyph-name="acute" unicode="&#xb4;" horiz-adv-x="227" 
d="M196 668q0 13 -10 25t-27 12q-15 0 -27 -7t-30 -23l-121 -113l6 -9l179 75q11 6 20.5 16.5t9.5 23.5z" />
    <glyph glyph-name="mu" unicode="&#xb5;" horiz-adv-x="557" 
d="M83 188v-212q0 -40 -3 -62t-11 -34t-23 -16.5t-42 -4.5v-29h271v29q-27 0 -41.5 4.5t-23 16.5t-11.5 34t-3 62v12q22 -5 42 -5q40 0 72 16t53 42q2 -16 6.5 -33.5t8.5 -24.5l175 25v30q-27 0 -42 4.5t-23 16t-11.5 34t-3.5 61.5v179h-191v-29q26 0 41 -4.5t23.5 -16
t11.5 -34t3 -61.5v-50q0 -46 -29.5 -72.5t-63.5 -26.5q-39 0 -55.5 27.5t-16.5 79.5v187h-192v-29q27 0 42 -4.5t23 -16t11 -33.5t3 -62z" />
    <glyph glyph-name="paragraph" unicode="&#xb6;" horiz-adv-x="563" 
d="M504 600h-284q-34 0 -65 -13.5t-54.5 -37t-37 -54.5t-13.5 -65q0 -65 44 -113t108 -55v-286q0 -39 -3.5 -61.5t-13.5 -34.5t-28 -16.5t-51 -4.5v-29h157v718h84v-718h157v29q-33 0 -51 4.5t-28 16.5t-13.5 34.5t-3.5 61.5v478q0 39 3.5 61.5t13.5 34.5t28 16.5t51 4.5v29
z" />
    <glyph glyph-name="periodcentered" unicode="&#xb7;" horiz-adv-x="283" 
d="M205 233q0 26 -19 45.5t-45 19.5t-44.5 -19.5t-18.5 -45.5t18.5 -45t44.5 -19t45 19t19 45z" />
    <glyph glyph-name="periodcentered" unicode="&#x2219;" horiz-adv-x="283" 
d="M205 233q0 26 -19 45.5t-45 19.5t-44.5 -19.5t-18.5 -45.5t18.5 -45t44.5 -19t45 19t19 45z" />
    <glyph glyph-name="cedilla" unicode="&#xb8;" horiz-adv-x="218" 
d="M227 -136q0 48 -34 74t-75 28l97 99h-58l-141 -140v-18q25 8 50 8q35 0 58.5 -14t23.5 -37q0 -22 -12 -39t-29.5 -28t-34.5 -17.5t-35 -12.5v-36q22 3 52.5 11.5t62 23.5t53.5 40t22 58z" />
    <glyph glyph-name="onesuperior" unicode="&#xb9;" horiz-adv-x="336" 
d="M272 291v27q-34 0 -44.5 15t-10.5 65v218l-163 -23v-27q40 0 53.5 -14.5t13.5 -60.5v-93q0 -50 -10 -65t-44 -15v-27h205z" />
    <glyph glyph-name="ordmasculine" unicode="&#xba;" horiz-adv-x="503" 
d="M443 443q0 35 -15 66.5t-41.5 56t-61 38t-73.5 13.5t-73.5 -13.5t-61.5 -38t-42 -56t-15 -66.5t15 -67t41.5 -56.5t62 -38t73.5 -13.5q39 0 74 13.5t61 38t41 56.5t15 67zM327 443q0 -57 -19.5 -93.5t-55.5 -36.5q-37 0 -56 36.5t-19 93.5q0 56 19 93t56 37
q36 0 55.5 -37t19.5 -93z" />
    <glyph glyph-name="guillemotright" unicode="&#xbb;" horiz-adv-x="667" 
d="M592 268l-338 217l-16 -22l175 -195l-175 -195l16 -23zM357 268l-274 174l-15 -24l135 -150l-135 -150l15 -25z" />
    <glyph glyph-name="onequarter" unicode="&#xbc;" horiz-adv-x="755" 
d="M715 203h-29l-4 -17q-8 -30 -19.5 -40.5t-33.5 -11.5v205h-35l-195 -221v-25h138q0 -39 -11 -51t-47 -12v-30h207v30q-36 0 -46.5 12t-10.5 51h80zM537 134h-76l76 86v-86zM573 598l-40 22l-369 -617l39 -21zM272 291v27q-34 0 -44.5 15t-10.5 65v218l-163 -23v-27
q40 0 53.5 -14.5t13.5 -60.5v-93q0 -50 -10 -65t-44 -15v-27h205z" />
    <glyph glyph-name="onehalf" unicode="&#xbd;" horiz-adv-x="755" 
d="M573 598l-40 22l-369 -617l39 -21zM272 291v27q-34 0 -44.5 15t-10.5 65v218l-163 -23v-27q40 0 53.5 -14.5t13.5 -60.5v-93q0 -50 -10 -65t-44 -15v-27h205zM708 65h-159l89 63q28 19 44 44.5t16 58.5q0 45 -39.5 72t-94.5 27q-54 0 -87 -29t-33 -68q0 -42 40 -70l27 25
q-13 24 -13 44q0 24 16 38t39 14q64 0 64 -61q0 -21 -8 -38.5t-27 -35.5l-133 -126v-23h250z" />
    <glyph glyph-name="threequarters" unicode="&#xbe;" horiz-adv-x="755" 
d="M306 378q0 34 -30 68t-68 44l90 87v23h-232l-18 -137h22l5 18q5 21 21 29t42 8h56l-77 -79q-8 -9 -8 -18q0 -18 17 -18q14 0 24 17q8 13 16 23q25 -6 41 -23t16 -42q0 -31 -15 -52t-46 -21q-27 0 -40.5 9t-24.5 25q-6 10 -11 14t-13 4q-24 0 -24 -18q0 -23 32.5 -46
t80.5 -23q66 0 105 31.5t39 76.5zM715 203h-29l-4 -17q-8 -30 -19.5 -40.5t-33.5 -11.5v205h-35l-195 -221v-25h138q0 -39 -11 -51t-47 -12v-30h207v30q-36 0 -46.5 12t-10.5 51h80zM537 134h-76l76 86v-86zM585 598l-39 22l-369 -617l39 -21z" />
    <glyph glyph-name="questiondown" unicode="&#xbf;" horiz-adv-x="513" 
d="M463 -71q0 44 -27 65t-59 21q-21 0 -42.5 -13.5t-21.5 -38.5q0 -17 13 -29.5t31 -12.5q17 0 25.5 -6.5t8.5 -16.5q0 -15 -25 -30t-67 -15q-64 0 -106 33t-42 76q0 55 54 87t139 32v174h-44v-54q-99 -12 -161.5 -66t-62.5 -144q0 -30 15 -62t44 -58t71 -42t94 -16
q27 0 55.5 7.5t53 22.5t39.5 37t15 49zM379 382q0 23 -17 40t-40 17q-24 0 -40 -16.5t-16 -40.5t16 -41t40 -17q23 0 40 17t17 41z" />
    <glyph glyph-name="Agrave" unicode="&#xc0;" 
d="M388 682l-122 113q-17 16 -29 23t-28 7q-17 0 -27 -11.5t-10 -25.5q0 -13 9 -22.5t21 -16.5l179 -76zM170 200h198l42 -95q11 -24 11 -39q0 -19 -20 -28t-66 -9v-29h328v29q-56 0 -77.5 17.5t-44.5 70.5l-218 500h-21l-217 -500q-23 -53 -47 -70.5t-76 -17.5v-29h242v29
q-45 0 -65 9t-20 30q0 14 10 37zM349 245h-159l79 183z" />
    <glyph glyph-name="Aacute" unicode="&#xc1;" 
d="M480 788q0 13 -10 25t-27 12q-15 0 -27 -7t-30 -23l-121 -113l6 -9l179 75q11 6 20.5 16.5t9.5 23.5zM170 200h198l42 -95q11 -24 11 -39q0 -19 -20 -28t-66 -9v-29h328v29q-56 0 -77.5 17.5t-44.5 70.5l-218 500h-21l-217 -500q-23 -53 -47 -70.5t-76 -17.5v-29h242v29
q-45 0 -65 9t-20 30q0 14 10 37zM349 245h-159l79 183z" />
    <glyph glyph-name="Acircumflex" unicode="&#xc2;" 
d="M464 689l-143 155l-143 -155l15 -14l128 83l128 -83zM170 200h198l42 -95q11 -24 11 -39q0 -19 -20 -28t-66 -9v-29h328v29q-56 0 -77.5 17.5t-44.5 70.5l-218 500h-21l-217 -500q-23 -53 -47 -70.5t-76 -17.5v-29h242v29q-45 0 -65 9t-20 30q0 14 10 37zM349 245h-159
l79 183z" />
    <glyph glyph-name="Atilde" unicode="&#xc3;" 
d="M387 731q-14 0 -30.5 8t-42.5 24q-26 17 -44 25.5t-34 8.5q-33 0 -55.5 -33t-22.5 -84h19q6 23 20.5 39t30.5 16q11 0 27 -8t40 -23q28 -17 46.5 -26t33.5 -9q38 0 60.5 32t22.5 87h-20q-13 -57 -51 -57zM170 200h198l42 -95q11 -24 11 -39q0 -19 -20 -28t-66 -9v-29h328
v29q-56 0 -77.5 17.5t-44.5 70.5l-218 500h-21l-217 -500q-23 -53 -47 -70.5t-76 -17.5v-29h242v29q-45 0 -65 9t-20 30q0 14 10 37zM349 245h-159l79 183z" />
    <glyph glyph-name="Adieresis" unicode="&#xc4;" 
d="M214 776q-21 0 -36 -14.5t-15 -36.5q0 -21 15 -36t36 -15t36 15t15 36q0 22 -15 36.5t-36 14.5zM413 776q-21 0 -36 -14.5t-15 -36.5q0 -21 15 -36t36 -15t36 15t15 36q0 22 -15 36.5t-36 14.5zM170 200h198l42 -95q11 -24 11 -39q0 -19 -20 -28t-66 -9v-29h328v29
q-56 0 -77.5 17.5t-44.5 70.5l-218 500h-21l-217 -500q-23 -53 -47 -70.5t-76 -17.5v-29h242v29q-45 0 -65 9t-20 30q0 14 10 37zM349 245h-159l79 183z" />
    <glyph glyph-name="Aring" unicode="&#xc5;" 
d="M315 874q-41 0 -70.5 -29.5t-29.5 -70.5t29.5 -70t70.5 -29t70 29t29 70t-29 70.5t-70 29.5zM315 820q19 0 32 -13.5t13 -32.5t-13 -32t-32 -13t-32.5 13t-13.5 32t13.5 32.5t32.5 13.5zM170 200h198l42 -95q11 -24 11 -39q0 -19 -20 -28t-66 -9v-29h328v29
q-56 0 -77.5 17.5t-44.5 70.5l-218 500h-21l-217 -500q-23 -53 -47 -70.5t-76 -17.5v-29h242v29q-45 0 -65 9t-20 30q0 14 10 37zM349 245h-159l79 183z" />
    <glyph glyph-name="AE" unicode="&#xc6;" horiz-adv-x="818" 
d="M358 547v-261h-135zM728 600h-392l-254 -492q-25 -49 -52 -64t-84 -15v-29h242v29q-40 0 -57.5 6.5t-17.5 22.5q0 14 13 39l74 144h158v-95q0 -40 -3.5 -62t-13 -34t-27.5 -16.5t-51 -4.5v-29h498l8 141h-29l-5 -20q-11 -44 -31.5 -60t-84.5 -16h-40q-33 0 -51 4.5
t-28 16.5t-13.5 34.5t-3.5 61.5v79h5q39 0 61.5 -3.5t34 -13.5t16 -28t4.5 -51h29v237h-29q0 -33 -4.5 -51.5t-16 -28t-33.5 -13t-62 -3.5h-5v269h103q64 0 84 -15.5t32 -60.5l5 -20h29z" />
    <glyph glyph-name="Ccedilla" unicode="&#xc7;" horiz-adv-x="692" 
d="M324 -12l-95 -95v-18q26 8 52 8q34 0 57 -14t23 -37q0 -22 -11.5 -38.5t-29.5 -28t-35.5 -18.5t-34.5 -12v-36q22 3 52.5 11.5t62 23.5t53.5 40t22 58q0 48 -34 74t-75 28l48 49q51 1 98.5 23t86.5 62q9 -6 15 -20.5t11 -36.5h28v220h-29q-20 -95 -76 -147.5t-131 -52.5
q-49 0 -83.5 23.5t-54.5 62.5t-29 86t-9 97q0 51 9 98t29 85.5t54.5 62t83.5 23.5q76 0 131.5 -52t75.5 -148h29v220h-28q-5 -21 -11 -35.5t-15 -21.5q-39 41 -86.5 63t-99.5 22q-62 0 -118 -24.5t-98.5 -68.5t-66.5 -102t-24 -122q0 -58 19 -110.5t53.5 -94t81 -69.5
t99.5 -38z" />
    <glyph glyph-name="Egrave" unicode="&#xc8;" horiz-adv-x="641" 
d="M406 682l-122 113q-17 16 -29 23t-28 7q-17 0 -27 -11.5t-10 -25.5q0 -13 9 -22.5t21 -16.5l179 -76zM38 0h548l8 141h-29l-5 -20q-11 -44 -31.5 -60t-84.5 -16h-90q-33 0 -51 4.5t-28 16.5t-13.5 34.5t-3.5 61.5v133h55q40 0 62 -3.5t33.5 -13t16 -28t4.5 -51.5h29v237
h-29q0 -33 -4.5 -51t-16 -28t-34 -13.5t-61.5 -3.5h-55v215h153q64 0 84 -15.5t32 -60.5l5 -20h29l-8 141h-515v-29q33 0 51 -4.5t27.5 -16.5t13 -34t3.5 -62v-308q0 -40 -3.5 -62t-13 -34t-27.5 -16.5t-51 -4.5v-29z" />
    <glyph glyph-name="Eacute" unicode="&#xc9;" horiz-adv-x="641" 
d="M477 789q0 13 -10 25t-27 12q-15 0 -27 -7t-30 -23l-121 -113l6 -9l179 75q11 6 20.5 16.5t9.5 23.5zM38 0h548l8 141h-29l-5 -20q-11 -44 -31.5 -60t-84.5 -16h-90q-33 0 -51 4.5t-28 16.5t-13.5 34.5t-3.5 61.5v133h55q40 0 62 -3.5t33.5 -13t16 -28t4.5 -51.5h29v237
h-29q0 -33 -4.5 -51t-16 -28t-34 -13.5t-61.5 -3.5h-55v215h153q64 0 84 -15.5t32 -60.5l5 -20h29l-8 141h-515v-29q33 0 51 -4.5t27.5 -16.5t13 -34t3.5 -62v-308q0 -40 -3.5 -62t-13 -34t-27.5 -16.5t-51 -4.5v-29z" />
    <glyph glyph-name="Ecircumflex" unicode="&#xca;" horiz-adv-x="641" 
d="M471 689l-143 155l-143 -155l15 -14l128 83l128 -83zM38 0h548l8 141h-29l-5 -20q-11 -44 -31.5 -60t-84.5 -16h-90q-33 0 -51 4.5t-28 16.5t-13.5 34.5t-3.5 61.5v133h55q40 0 62 -3.5t33.5 -13t16 -28t4.5 -51.5h29v237h-29q0 -33 -4.5 -51t-16 -28t-34 -13.5
t-61.5 -3.5h-55v215h153q64 0 84 -15.5t32 -60.5l5 -20h29l-8 141h-515v-29q33 0 51 -4.5t27.5 -16.5t13 -34t3.5 -62v-308q0 -40 -3.5 -62t-13 -34t-27.5 -16.5t-51 -4.5v-29z" />
    <glyph glyph-name="Edieresis" unicode="&#xcb;" horiz-adv-x="641" 
d="M222 776q-21 0 -36 -14.5t-15 -36.5q0 -21 15 -36t36 -15t36 15t15 36q0 22 -15 36.5t-36 14.5zM421 776q-21 0 -36 -14.5t-15 -36.5q0 -21 15 -36t36 -15t36 15t15 36q0 22 -15 36.5t-36 14.5zM38 0h548l8 141h-29l-5 -20q-11 -44 -31.5 -60t-84.5 -16h-90
q-33 0 -51 4.5t-28 16.5t-13.5 34.5t-3.5 61.5v133h55q40 0 62 -3.5t33.5 -13t16 -28t4.5 -51.5h29v237h-29q0 -33 -4.5 -51t-16 -28t-34 -13.5t-61.5 -3.5h-55v215h153q64 0 84 -15.5t32 -60.5l5 -20h29l-8 141h-515v-29q33 0 51 -4.5t27.5 -16.5t13 -34t3.5 -62v-308
q0 -40 -3.5 -62t-13 -34t-27.5 -16.5t-51 -4.5v-29z" />
    <glyph glyph-name="Igrave" unicode="&#xcc;" horiz-adv-x="392" 
d="M264 682l-122 113q-17 16 -29 23t-28 7q-17 0 -27 -11.5t-10 -25.5q0 -13 9 -22.5t21 -16.5l179 -76zM354 0v29q-33 0 -51 4.5t-28 16.5t-13.5 34.5t-3.5 61.5v308q0 39 3.5 61.5t13.5 34.5t28 16.5t51 4.5v29h-316v-29q33 0 51 -4.5t27.5 -16.5t13 -34t3.5 -62v-308
q0 -40 -3.5 -62t-13 -34t-27.5 -16.5t-51 -4.5v-29h316z" />
    <glyph glyph-name="Iacute" unicode="&#xcd;" horiz-adv-x="392" 
d="M343 788q0 13 -10 25t-27 12q-15 0 -27 -7t-30 -23l-121 -113l6 -9l179 75q11 6 20.5 16.5t9.5 23.5zM354 0v29q-33 0 -51 4.5t-28 16.5t-13.5 34.5t-3.5 61.5v308q0 39 3.5 61.5t13.5 34.5t28 16.5t51 4.5v29h-316v-29q33 0 51 -4.5t27.5 -16.5t13 -34t3.5 -62v-308
q0 -40 -3.5 -62t-13 -34t-27.5 -16.5t-51 -4.5v-29h316z" />
    <glyph glyph-name="Icircumflex" unicode="&#xce;" horiz-adv-x="392" 
d="M333 689l-143 155l-143 -155l15 -14l128 83l128 -83zM354 0v29q-33 0 -51 4.5t-28 16.5t-13.5 34.5t-3.5 61.5v308q0 39 3.5 61.5t13.5 34.5t28 16.5t51 4.5v29h-316v-29q33 0 51 -4.5t27.5 -16.5t13 -34t3.5 -62v-308q0 -40 -3.5 -62t-13 -34t-27.5 -16.5t-51 -4.5v-29
h316z" />
    <glyph glyph-name="Idieresis" unicode="&#xcf;" horiz-adv-x="392" 
d="M90 776q-21 0 -36 -14.5t-15 -36.5q0 -21 15 -36t36 -15t36 15t15 36q0 22 -15 36.5t-36 14.5zM289 776q-21 0 -36 -14.5t-15 -36.5q0 -21 15 -36t36 -15t36 15t15 36q0 22 -15 36.5t-36 14.5zM354 0v29q-33 0 -51 4.5t-28 16.5t-13.5 34.5t-3.5 61.5v308q0 39 3.5 61.5
t13.5 34.5t28 16.5t51 4.5v29h-316v-29q33 0 51 -4.5t27.5 -16.5t13 -34t3.5 -62v-308q0 -40 -3.5 -62t-13 -34t-27.5 -16.5t-51 -4.5v-29h316z" />
    <glyph glyph-name="Eth" unicode="&#xd0;" horiz-adv-x="713" 
d="M258 330v225h106q58 0 96.5 -22.5t60 -60t30 -81.5t8.5 -91t-8.5 -91t-30 -81.5t-60 -60t-96.5 -22.5h-10q-33 0 -51 4.5t-28 16t-13.5 33t-3.5 59.5v111h92v61h-92zM133 269v-123q0 -40 -3.5 -62t-13 -34t-27.5 -16.5t-51 -4.5v-29h330q85 0 148 23t104 64t61 95.5
t20 117.5t-20 117.5t-61 95.5t-104 64t-148 23h-330v-29q33 0 51 -4.5t27.5 -16.5t13 -34t3.5 -62v-124h-91v-61h91z" />
    <glyph glyph-name="Ntilde" unicode="&#xd1;" horiz-adv-x="749" 
d="M441 726q-14 0 -30.5 8t-42.5 24q-26 17 -44 25.5t-34 8.5q-33 0 -55.5 -33t-22.5 -84h19q6 23 20.5 39t30.5 16q11 0 27 -8t40 -23q28 -17 46.5 -26t33.5 -9q38 0 60.5 32t22.5 87h-20q-13 -57 -51 -57zM572 202l-334 398h-200v-29q33 0 51 -4.5t27.5 -16.5t13 -34
t3.5 -62v-308q0 -40 -3.5 -62t-13 -34t-27.5 -16.5t-51 -4.5v-29h236v29q-33 0 -51 4.5t-28 16.5t-13.5 34.5t-3.5 61.5v331l414 -494h25v471q0 40 3.5 62t13 34t28 16.5t51.5 4.5v29h-237v-29q33 0 51 -4.5t28 -16.5t13.5 -34.5t3.5 -61.5v-252z" />
    <glyph glyph-name="Ograve" unicode="&#xd2;" horiz-adv-x="808" 
d="M458 682l-122 113q-17 16 -29 23t-28 7q-17 0 -27 -11.5t-10 -25.5q0 -13 9 -22.5t21 -16.5l179 -76zM738 300q0 64 -26 122t-72 102t-107 68.5t-129 24.5q-67 0 -128 -24.5t-107 -68.5t-72 -102t-26 -122t26 -122t72 -102t107 -68.5t128 -24.5q68 0 129 24.5t107 68.5
t72 102t26 122zM603 300q0 -47 -11.5 -94.5t-36 -87t-62.5 -63.5t-89 -24t-89 24t-62.5 63.5t-36 87t-11.5 94.5t11.5 94.5t36 87t62.5 63.5t89 24t89.5 -24t62.5 -63.5t35.5 -87t11.5 -94.5z" />
    <glyph glyph-name="Oacute" unicode="&#xd3;" horiz-adv-x="808" 
d="M572 788q0 13 -10 25t-27 12q-15 0 -27 -7t-30 -23l-121 -113l6 -9l179 75q11 6 20.5 16.5t9.5 23.5zM738 300q0 64 -26 122t-72 102t-107 68.5t-129 24.5q-67 0 -128 -24.5t-107 -68.5t-72 -102t-26 -122t26 -122t72 -102t107 -68.5t128 -24.5q68 0 129 24.5t107 68.5
t72 102t26 122zM603 300q0 -47 -11.5 -94.5t-36 -87t-62.5 -63.5t-89 -24t-89 24t-62.5 63.5t-36 87t-11.5 94.5t11.5 94.5t36 87t62.5 63.5t89 24t89.5 -24t62.5 -63.5t35.5 -87t11.5 -94.5z" />
    <glyph glyph-name="Ocircumflex" unicode="&#xd4;" horiz-adv-x="808" 
d="M558 687l-143 155l-143 -155l15 -14l128 83l128 -83zM738 300q0 64 -26 122t-72 102t-107 68.5t-129 24.5q-67 0 -128 -24.5t-107 -68.5t-72 -102t-26 -122t26 -122t72 -102t107 -68.5t128 -24.5q68 0 129 24.5t107 68.5t72 102t26 122zM603 300q0 -47 -11.5 -94.5
t-36 -87t-62.5 -63.5t-89 -24t-89 24t-62.5 63.5t-36 87t-11.5 94.5t11.5 94.5t36 87t62.5 63.5t89 24t89.5 -24t62.5 -63.5t35.5 -87t11.5 -94.5z" />
    <glyph glyph-name="Otilde" unicode="&#xd5;" horiz-adv-x="808" 
d="M473 731q-14 0 -30.5 8t-42.5 24q-26 17 -44 25.5t-34 8.5q-33 0 -55.5 -33t-22.5 -84h19q6 23 20.5 39t30.5 16q11 0 27 -8t40 -23q28 -17 46.5 -26t33.5 -9q38 0 60.5 32t22.5 87h-20q-13 -57 -51 -57zM738 300q0 64 -26 122t-72 102t-107 68.5t-129 24.5
q-67 0 -128 -24.5t-107 -68.5t-72 -102t-26 -122t26 -122t72 -102t107 -68.5t128 -24.5q68 0 129 24.5t107 68.5t72 102t26 122zM603 300q0 -47 -11.5 -94.5t-36 -87t-62.5 -63.5t-89 -24t-89 24t-62.5 63.5t-36 87t-11.5 94.5t11.5 94.5t36 87t62.5 63.5t89 24t89.5 -24
t62.5 -63.5t35.5 -87t11.5 -94.5z" />
    <glyph glyph-name="Odieresis" unicode="&#xd6;" horiz-adv-x="808" 
d="M313 776q-21 0 -36 -14.5t-15 -36.5q0 -21 15 -36t36 -15t36 15t15 36q0 22 -15 36.5t-36 14.5zM512 776q-21 0 -36 -14.5t-15 -36.5q0 -21 15 -36t36 -15t36 15t15 36q0 22 -15 36.5t-36 14.5zM738 300q0 64 -26 122t-72 102t-107 68.5t-129 24.5q-67 0 -128 -24.5
t-107 -68.5t-72 -102t-26 -122t26 -122t72 -102t107 -68.5t128 -24.5q68 0 129 24.5t107 68.5t72 102t26 122zM603 300q0 -47 -11.5 -94.5t-36 -87t-62.5 -63.5t-89 -24t-89 24t-62.5 63.5t-36 87t-11.5 94.5t11.5 94.5t36 87t62.5 63.5t89 24t89.5 -24t62.5 -63.5t35.5 -87
t11.5 -94.5z" />
    <glyph glyph-name="multiply" unicode="&#xd7;" horiz-adv-x="0" 
 />
    <glyph glyph-name="Oslash" unicode="&#xd8;" horiz-adv-x="808" 
d="M551 488q26 -37 39 -86.5t13 -101.5q0 -47 -11.5 -94.5t-36 -87t-62.5 -63.5t-89 -24q-59 0 -104 34zM258 109q-26 39 -39.5 89.5t-13.5 101.5q0 47 11.5 94.5t36 87t62.5 63.5t89 24q63 0 105 -36zM217 38l-38 -63l53 -26l36 62q65 -28 136 -28q68 0 129 24.5t107 68.5
t72 102t26 122q0 79 -39 147.5t-106 112.5q16 26 25 41.5t14 23.5l-53 27q-5 -8 -37 -64q-64 29 -138 29q-67 0 -128 -24.5t-107 -68.5t-72 -102t-26 -122q0 -79 39.5 -148.5t106.5 -113.5z" />
    <glyph glyph-name="Ugrave" unicode="&#xd9;" horiz-adv-x="733" 
d="M436 682l-122 113q-17 16 -29 23t-28 7q-17 0 -27 -11.5t-10 -25.5q0 -13 9 -22.5t21 -16.5l179 -76zM554 454v-220q0 -94 -40 -141.5t-107 -47.5q-68 0 -111.5 48t-43.5 141v220q0 40 3.5 62t13 34t28 16.5t51.5 4.5v29h-317v-29q33 0 51 -4.5t28 -16.5t13.5 -34.5
t3.5 -61.5v-231q0 -114 68 -177t172 -63t172.5 63.5t68.5 176.5v231q0 40 3.5 62t13 34t27.5 16.5t51 4.5v29h-245v-29q34 0 52 -4.5t27.5 -16.5t13 -34t3.5 -62z" />
    <glyph glyph-name="Uacute" unicode="&#xda;" horiz-adv-x="733" 
d="M560 788q0 13 -10 25t-27 12q-15 0 -27 -7t-30 -23l-121 -113l6 -9l179 75q11 6 20.5 16.5t9.5 23.5zM554 454v-220q0 -94 -40 -141.5t-107 -47.5q-68 0 -111.5 48t-43.5 141v220q0 40 3.5 62t13 34t28 16.5t51.5 4.5v29h-317v-29q33 0 51 -4.5t28 -16.5t13.5 -34.5
t3.5 -61.5v-231q0 -114 68 -177t172 -63t172.5 63.5t68.5 176.5v231q0 40 3.5 62t13 34t27.5 16.5t51 4.5v29h-245v-29q34 0 52 -4.5t27.5 -16.5t13 -34t3.5 -62z" />
    <glyph glyph-name="Ucircumflex" unicode="&#xdb;" horiz-adv-x="733" 
d="M555 689l-143 155l-143 -155l15 -14l128 83l128 -83zM554 454v-220q0 -94 -40 -141.5t-107 -47.5q-68 0 -111.5 48t-43.5 141v220q0 40 3.5 62t13 34t28 16.5t51.5 4.5v29h-317v-29q33 0 51 -4.5t28 -16.5t13.5 -34.5t3.5 -61.5v-231q0 -114 68 -177t172 -63t172.5 63.5
t68.5 176.5v231q0 40 3.5 62t13 34t27.5 16.5t51 4.5v29h-245v-29q34 0 52 -4.5t27.5 -16.5t13 -34t3.5 -62z" />
    <glyph glyph-name="Udieresis" unicode="&#xdc;" horiz-adv-x="733" 
d="M299 777q-21 0 -36 -14.5t-15 -36.5q0 -21 15 -36t36 -15t36 15t15 36q0 22 -15 36.5t-36 14.5zM498 777q-21 0 -36 -14.5t-15 -36.5q0 -21 15 -36t36 -15t36 15t15 36q0 22 -15 36.5t-36 14.5zM554 454v-220q0 -94 -40 -141.5t-107 -47.5q-68 0 -111.5 48t-43.5 141v220
q0 40 3.5 62t13 34t28 16.5t51.5 4.5v29h-317v-29q33 0 51 -4.5t28 -16.5t13.5 -34.5t3.5 -61.5v-231q0 -114 68 -177t172 -63t172.5 63.5t68.5 176.5v231q0 40 3.5 62t13 34t27.5 16.5t51 4.5v29h-245v-29q34 0 52 -4.5t27.5 -16.5t13 -34t3.5 -62z" />
    <glyph glyph-name="Yacute" unicode="&#xdd;" horiz-adv-x="633" 
d="M555 789q0 13 -10 25t-27 12q-15 0 -27 -7t-30 -23l-121 -113l6 -9l179 75q11 6 20.5 16.5t9.5 23.5zM665 571v29h-242v-29q74 0 74 -30q0 -17 -20 -46l-112 -169l-112 169q-18 26 -18 43q0 33 71 33v29h-339v-29q53 0 82 -17q15 -10 29.5 -26.5t33.5 -44.5l145 -219
v-118q0 -39 -3.5 -61.5t-13.5 -34.5t-28 -16.5t-51 -4.5v-29h312v29q-33 0 -51 4.5t-27.5 16.5t-13 34t-3.5 62v121l143 216q19 29 30.5 44t26.5 25t35.5 14.5t51.5 4.5z" />
    <glyph glyph-name="Thorn" unicode="&#xde;" horiz-adv-x="510" 
d="M338 167q0 -60 -19 -98.5t-56 -38.5q-27 0 -47 25.5t-20 62.5v97q0 38 20 63t47 25q37 0 56 -38t19 -98zM83 446v-550q0 -40 -3 -62t-11 -34t-23 -16.5t-42 -4.5v-29h271v29q-27 0 -41.5 4.5t-23 16.5t-11.5 34t-3 62v117q35 -30 82 -30q83 0 132.5 53t49.5 131
t-49.5 130.5t-132.5 52.5q-44 0 -82 -29v296l-192 -25v-29q27 0 42 -4.5t23 -16.5t11 -34t3 -62z" />
    <glyph glyph-name="germandbls" unicode="&#xdf;" horiz-adv-x="593" 
d="M110 414q0 -44 -15.5 -62.5t-63.5 -18.5v-29h79v-158q0 -40 -3 -62t-11 -34t-23 -16.5t-42 -4.5v-29h192v457q0 59 18.5 89t52.5 30q68 0 68 -73q0 -22 -8.5 -44.5t-25.5 -56.5q-19 -38 -28.5 -62.5t-9.5 -51.5q0 -45 20.5 -73.5t54.5 -46.5l56 -30q28 -15 46 -33.5
t18 -36.5t-14.5 -30.5t-37.5 -12.5q-24 0 -46 9.5t-39 25t-27 34t-10 35.5h-29v-146h29q0 32 13 32q7 0 27 -10q22 -10 41 -16t42 -6q54 0 95 30.5t41 86.5q0 32 -18 61t-59 52l-49 26q-33 18 -51 39.5t-18 51.5q0 26 5.5 44.5t17.5 44.5q11 25 16.5 42.5t5.5 41.5
q0 48 -34 81t-98 33q-178 0 -178 -203z" />
    <glyph glyph-name="agrave" unicode="&#xe0;" horiz-adv-x="449" 
d="M294 416l-122 113q-17 16 -29 23t-28 7q-17 0 -27 -11.5t-10 -25.5q0 -13 9 -22.5t21 -16.5l179 -76zM431 26l-14 27q-1 -1 -2 -1q-17 -11 -27 -11q-22 0 -22 38v135q0 71 -37.5 103.5t-120.5 32.5q-58 0 -101.5 -22t-43.5 -58q0 -20 11 -31.5t28 -11.5t28.5 12t11.5 31
q0 18 17 28.5t37 10.5q33 0 49 -21t16 -74v-1q-107 -16 -164.5 -49t-57.5 -93q0 -38 29 -61t67 -23q32 0 56.5 12.5t69.5 47.5q11 -58 77 -58q18 0 45 10.5t48 26.5zM261 88q-24 -21 -47 -33t-36 -12q-17 0 -28.5 9.5t-11.5 30.5q0 35 29.5 54t93.5 36v-85z" />
    <glyph glyph-name="aacute" unicode="&#xe1;" horiz-adv-x="449" 
d="M340 522q0 13 -10 25t-27 12q-15 0 -27 -7t-30 -23l-121 -113l6 -9l179 75q11 6 20.5 16.5t9.5 23.5zM431 26l-14 27q-1 -1 -2 -1q-17 -11 -27 -11q-22 0 -22 38v135q0 71 -37.5 103.5t-120.5 32.5q-58 0 -101.5 -22t-43.5 -58q0 -20 11 -31.5t28 -11.5t28.5 12t11.5 31
q0 18 17 28.5t37 10.5q33 0 49 -21t16 -74v-1q-107 -16 -164.5 -49t-57.5 -93q0 -38 29 -61t67 -23q32 0 56.5 12.5t69.5 47.5q11 -58 77 -58q18 0 45 10.5t48 26.5zM261 88q-24 -21 -47 -33t-36 -12q-17 0 -28.5 9.5t-11.5 30.5q0 35 29.5 54t93.5 36v-85z" />
    <glyph glyph-name="acircumflex" unicode="&#xe2;" horiz-adv-x="449" 
d="M363 423l-143 155l-143 -155l15 -14l128 83l128 -83zM431 26l-14 27q-1 -1 -2 -1q-17 -11 -27 -11q-22 0 -22 38v135q0 71 -37.5 103.5t-120.5 32.5q-58 0 -101.5 -22t-43.5 -58q0 -20 11 -31.5t28 -11.5t28.5 12t11.5 31q0 18 17 28.5t37 10.5q33 0 49 -21t16 -74v-1
q-107 -16 -164.5 -49t-57.5 -93q0 -38 29 -61t67 -23q32 0 56.5 12.5t69.5 47.5q11 -58 77 -58q18 0 45 10.5t48 26.5zM261 88q-24 -21 -47 -33t-36 -12q-17 0 -28.5 9.5t-11.5 30.5q0 35 29.5 54t93.5 36v-85z" />
    <glyph glyph-name="atilde" unicode="&#xe3;" horiz-adv-x="449" 
d="M291 460q-14 0 -30.5 8t-42.5 24q-26 17 -44 25.5t-34 8.5q-33 0 -55.5 -33t-22.5 -84h19q6 23 20.5 39t30.5 16q11 0 27 -8t40 -23q28 -17 46.5 -26t33.5 -9q38 0 60.5 32t22.5 87h-20q-13 -57 -51 -57zM431 26l-14 27q-1 -1 -2 -1q-17 -11 -27 -11q-22 0 -22 38v135
q0 71 -37.5 103.5t-120.5 32.5q-58 0 -101.5 -22t-43.5 -58q0 -20 11 -31.5t28 -11.5t28.5 12t11.5 31q0 18 17 28.5t37 10.5q33 0 49 -21t16 -74v-1q-107 -16 -164.5 -49t-57.5 -93q0 -38 29 -61t67 -23q32 0 56.5 12.5t69.5 47.5q11 -58 77 -58q18 0 45 10.5t48 26.5z
M261 88q-24 -21 -47 -33t-36 -12q-17 0 -28.5 9.5t-11.5 30.5q0 35 29.5 54t93.5 36v-85z" />
    <glyph glyph-name="adieresis" unicode="&#xe4;" horiz-adv-x="449" 
d="M122 510q-21 0 -36 -14.5t-15 -36.5q0 -21 15 -36t36 -15t36 15t15 36q0 22 -15 36.5t-36 14.5zM321 510q-21 0 -36 -14.5t-15 -36.5q0 -21 15 -36t36 -15t36 15t15 36q0 22 -15 36.5t-36 14.5zM431 26l-14 27q-1 -1 -2 -1q-17 -11 -27 -11q-22 0 -22 38v135
q0 71 -37.5 103.5t-120.5 32.5q-58 0 -101.5 -22t-43.5 -58q0 -20 11 -31.5t28 -11.5t28.5 12t11.5 31q0 18 17 28.5t37 10.5q33 0 49 -21t16 -74v-1q-107 -16 -164.5 -49t-57.5 -93q0 -38 29 -61t67 -23q32 0 56.5 12.5t69.5 47.5q11 -58 77 -58q18 0 45 10.5t48 26.5z
M261 88q-24 -21 -47 -33t-36 -12q-17 0 -28.5 9.5t-11.5 30.5q0 35 29.5 54t93.5 36v-85z" />
    <glyph glyph-name="aring" unicode="&#xe5;" horiz-adv-x="449" 
d="M230 606q-41 0 -70.5 -29.5t-29.5 -70.5t29.5 -70t70.5 -29t70 29t29 70t-29 70.5t-70 29.5zM230 552q19 0 32 -13.5t13 -32.5t-13 -32t-32 -13t-32.5 13t-13.5 32t13.5 32.5t32.5 13.5zM431 26l-14 27q-1 -1 -2 -1q-17 -11 -27 -11q-22 0 -22 38v135q0 71 -37.5 103.5
t-120.5 32.5q-58 0 -101.5 -22t-43.5 -58q0 -20 11 -31.5t28 -11.5t28.5 12t11.5 31q0 18 17 28.5t37 10.5q33 0 49 -21t16 -74v-1q-107 -16 -164.5 -49t-57.5 -93q0 -38 29 -61t67 -23q32 0 56.5 12.5t69.5 47.5q11 -58 77 -58q18 0 45 10.5t48 26.5zM261 88
q-24 -21 -47 -33t-36 -12q-17 0 -28.5 9.5t-11.5 30.5q0 35 29.5 54t93.5 36v-85z" />
    <glyph glyph-name="ae" unicode="&#xe6;" horiz-adv-x="630" 
d="M373 229q17 73 72 73q30 0 46 -19.5t16 -53.5h-134zM261 88q-24 -21 -47 -33t-36 -12q-17 0 -28.5 9.5t-11.5 30.5q0 35 29.5 54t93.5 36v-85zM279 63q26 -37 70 -58.5t99 -21.5q42 0 84 18.5t69 47.5l-18 29q-22 -20 -53 -31t-65 -11q-40 0 -69.5 33.5t-29.5 95.5
q0 3 1 10v10h217q5 15 5 31q0 51 -41.5 92.5t-107.5 41.5q-61 0 -112 -32q-36 32 -120 32q-58 0 -101.5 -22t-43.5 -58q0 -20 11 -31.5t28 -11.5t28.5 12t11.5 31q0 18 17 28.5t37 10.5q33 0 49 -21t16 -74v-1q-107 -16 -164.5 -49t-57.5 -93q0 -38 29 -61t67 -23
q33 0 66.5 17.5t77.5 58.5z" />
    <glyph glyph-name="ccedilla" unicode="&#xe7;" horiz-adv-x="413" 
d="M183 -9l-98 -98v-18q26 8 52 8q34 0 57 -14t23 -37q0 -22 -12 -39t-29.5 -28t-34.5 -17.5t-35 -12.5v-36q22 3 52.5 11.5t62 23.5t53.5 40t22 58q0 48 -34 74t-75 28l48 49h8q87 0 150 66l-18 29q-53 -46 -101 -46t-74.5 33t-26.5 93q0 74 16 113t54 39q15 0 25.5 -10
t10.5 -33q0 -16 11.5 -28t27.5 -12q23 0 34 13.5t11 28.5q0 31 -34.5 56t-93.5 25q-37 0 -70.5 -13.5t-59.5 -39t-40.5 -61t-14.5 -78.5q0 -60 36.5 -105t96.5 -62z" />
    <glyph glyph-name="egrave" unicode="&#xe8;" horiz-adv-x="433" 
d="M319 416l-122 113q-17 16 -29 23t-28 7q-17 0 -27 -11.5t-10 -25.5q0 -13 9 -22.5t21 -16.5l179 -76zM177 229q17 73 71 73q62 0 62 -73h-133zM170 185h218q4 15 4 30q0 52 -41 93.5t-108 41.5q-39 0 -74 -13.5t-62 -38.5t-42 -58.5t-15 -72.5q0 -38 14.5 -71.5t41.5 -59
t64.5 -39.5t81.5 -14q41 0 83 19t69 47l-17 29q-23 -20 -54 -31t-65 -11q-41 0 -70 34t-29 97l1 9v9z" />
    <glyph glyph-name="eacute" unicode="&#xe9;" horiz-adv-x="433" 
d="M368 522q0 13 -10 25t-27 12q-15 0 -27 -7t-30 -23l-121 -113l6 -9l179 75q11 6 20.5 16.5t9.5 23.5zM177 229q17 73 71 73q62 0 62 -73h-133zM170 185h218q4 15 4 30q0 52 -41 93.5t-108 41.5q-39 0 -74 -13.5t-62 -38.5t-42 -58.5t-15 -72.5q0 -38 14.5 -71.5t41.5 -59
t64.5 -39.5t81.5 -14q41 0 83 19t69 47l-17 29q-23 -20 -54 -31t-65 -11q-41 0 -70 34t-29 97l1 9v9z" />
    <glyph glyph-name="ecircumflex" unicode="&#xea;" horiz-adv-x="433" 
d="M380 423l-143 155l-143 -155l15 -14l128 83l128 -83zM177 229q17 73 71 73q62 0 62 -73h-133zM170 185h218q4 15 4 30q0 52 -41 93.5t-108 41.5q-39 0 -74 -13.5t-62 -38.5t-42 -58.5t-15 -72.5q0 -38 14.5 -71.5t41.5 -59t64.5 -39.5t81.5 -14q41 0 83 19t69 47l-17 29
q-23 -20 -54 -31t-65 -11q-41 0 -70 34t-29 97l1 9v9z" />
    <glyph glyph-name="edieresis" unicode="&#xeb;" horiz-adv-x="433" 
d="M135 510q-21 0 -36 -14.5t-15 -36.5q0 -21 15 -36t36 -15t36 15t15 36q0 22 -15 36.5t-36 14.5zM334 510q-21 0 -36 -14.5t-15 -36.5q0 -21 15 -36t36 -15t36 15t15 36q0 22 -15 36.5t-36 14.5zM177 229q17 73 71 73q62 0 62 -73h-133zM170 185h218q4 15 4 30
q0 52 -41 93.5t-108 41.5q-39 0 -74 -13.5t-62 -38.5t-42 -58.5t-15 -72.5q0 -38 14.5 -71.5t41.5 -59t64.5 -39.5t81.5 -14q41 0 83 19t69 47l-17 29q-23 -20 -54 -31t-65 -11q-41 0 -70 34t-29 97l1 9v9z" />
    <glyph glyph-name="igrave" unicode="&#xec;" horiz-adv-x="331" 
d="M243 416l-122 113q-17 16 -29 23t-28 7q-17 0 -27 -11.5t-10 -25.5q0 -13 9 -22.5t21 -16.5l179 -76zM310 0v29q-27 0 -41.5 4.5t-23 16.5t-11.5 34t-3 62v204l-192 -25v-29q27 0 42 -4.5t23 -16.5t11 -34t3 -62v-33q0 -40 -3 -62t-11 -34t-23 -16.5t-42 -4.5v-29h271z
" />
    <glyph glyph-name="iacute" unicode="&#xed;" horiz-adv-x="331" 
d="M295 522q0 13 -10 25t-27 12q-15 0 -27 -7t-30 -23l-121 -113l6 -9l179 75q11 6 20.5 16.5t9.5 23.5zM310 0v29q-27 0 -41.5 4.5t-23 16.5t-11.5 34t-3 62v204l-192 -25v-29q27 0 42 -4.5t23 -16.5t11 -34t3 -62v-33q0 -40 -3 -62t-11 -34t-23 -16.5t-42 -4.5v-29h271z
" />
    <glyph glyph-name="icircumflex" unicode="&#xee;" horiz-adv-x="331" 
d="M307 422l-143 155l-143 -155l15 -14l128 83l128 -83zM310 0v29q-27 0 -41.5 4.5t-23 16.5t-11.5 34t-3 62v204l-192 -25v-29q27 0 42 -4.5t23 -16.5t11 -34t3 -62v-33q0 -40 -3 -62t-11 -34t-23 -16.5t-42 -4.5v-29h271z" />
    <glyph glyph-name="idieresis" unicode="&#xef;" horiz-adv-x="331" 
d="M66 510q-21 0 -36 -14.5t-15 -36.5q0 -21 15 -36t36 -15t36 15t15 36q0 22 -15 36.5t-36 14.5zM265 510q-21 0 -36 -14.5t-15 -36.5q0 -21 15 -36t36 -15t36 15t15 36q0 22 -15 36.5t-36 14.5zM310 0v29q-27 0 -41.5 4.5t-23 16.5t-11.5 34t-3 62v204l-192 -25v-29
q27 0 42 -4.5t23 -16.5t11 -34t3 -62v-33q0 -40 -3 -62t-11 -34t-23 -16.5t-42 -4.5v-29h271z" />
    <glyph glyph-name="eth" unicode="&#xf0;" horiz-adv-x="533" 
d="M351 278q0 -74 -8.5 -124t-23 -76.5t-30 -36t-32.5 -9.5q-42 0 -60 38t-18 102q0 70 23 104t63 34q27 0 51.5 -8t34.5 -24zM348 577q-54 43 -119 43q-29 0 -56 -8t-47.5 -20.5t-32 -27t-11.5 -27.5q0 -14 13 -23q8 -5 15 -5q8 0 15 6t18 18q18 22 36.5 34t48.5 12
q45 0 72 -37l-122 -92l27 -37l118 88q13 -34 19.5 -77t8.5 -92q-17 14 -39.5 20t-46.5 6q-41 0 -79 -14.5t-67.5 -40.5t-46.5 -60t-17 -72t16 -72t44 -60.5t64.5 -41t77.5 -14.5q33 0 68.5 12.5t68 44t53.5 88t21 138.5q0 79 -23 153t-65 124l75 56l-28 37z" />
    <glyph glyph-name="ntilde" unicode="&#xf1;" horiz-adv-x="592" 
d="M376 470q-14 0 -30.5 8t-42.5 24q-26 17 -44 25.5t-34 8.5q-33 0 -55.5 -33t-22.5 -84h19q6 23 20.5 39t30.5 16q11 0 27 -8t40 -23q28 -17 46.5 -26t33.5 -9q38 0 60.5 32t22.5 87h-20q-13 -57 -51 -57zM228 293q-1 15 -5.5 32t-8.5 25l-175 -25v-29q27 0 42 -4.5
t23 -16.5t11 -34t3 -62v-33q0 -40 -3 -62t-11 -34t-23 -16.5t-42 -4.5v-29h271v29q-27 0 -41.5 4.5t-23 16.5t-11.5 34t-3 62v49q0 46 29 72.5t63 26.5q40 0 56.5 -27t16.5 -79v-42q0 -70 -9 -93.5t-30 -23.5v-29h231v29q-27 0 -42 4.5t-23 16.5t-11.5 34.5t-3.5 61.5v55
q0 64 -44 106.5t-111 42.5q-39 0 -71.5 -15.5t-53.5 -41.5z" />
    <glyph glyph-name="ograve" unicode="&#xf2;" horiz-adv-x="503" 
d="M315 416l-122 113q-17 16 -29 23t-28 7q-17 0 -27 -11.5t-10 -25.5q0 -13 9 -22.5t21 -16.5l179 -76zM453 167q0 37 -15.5 70.5t-43.5 59t-64.5 39.5t-77.5 14t-78 -14t-64.5 -39.5t-43.5 -59t-16 -70.5t15.5 -70.5t44 -59.5t65 -40t77.5 -14t77.5 14t64.5 40t43.5 59.5
t15.5 70.5zM331 167q0 -60 -20 -98.5t-59 -38.5t-59 38.5t-20 98.5t20 98t59 38t59 -38t20 -98z" />
    <glyph glyph-name="oacute" unicode="&#xf3;" horiz-adv-x="503" 
d="M383 522q0 13 -10 25t-27 12q-15 0 -27 -7t-30 -23l-121 -113l6 -9l179 75q11 6 20.5 16.5t9.5 23.5zM453 167q0 37 -15.5 70.5t-43.5 59t-64.5 39.5t-77.5 14t-78 -14t-64.5 -39.5t-43.5 -59t-16 -70.5t15.5 -70.5t44 -59.5t65 -40t77.5 -14t77.5 14t64.5 40t43.5 59.5
t15.5 70.5zM331 167q0 -60 -20 -98.5t-59 -38.5t-59 38.5t-20 98.5t20 98t59 38t59 -38t20 -98z" />
    <glyph glyph-name="ocircumflex" unicode="&#xf4;" horiz-adv-x="503" 
d="M386 423l-143 155l-143 -155l15 -14l128 83l128 -83zM453 167q0 37 -15.5 70.5t-43.5 59t-64.5 39.5t-77.5 14t-78 -14t-64.5 -39.5t-43.5 -59t-16 -70.5t15.5 -70.5t44 -59.5t65 -40t77.5 -14t77.5 14t64.5 40t43.5 59.5t15.5 70.5zM331 167q0 -60 -20 -98.5t-59 -38.5
t-59 38.5t-20 98.5t20 98t59 38t59 -38t20 -98z" />
    <glyph glyph-name="otilde" unicode="&#xf5;" horiz-adv-x="503" 
d="M329 460q-14 0 -30.5 8t-42.5 24q-26 17 -44 25.5t-34 8.5q-33 0 -55.5 -33t-22.5 -84h19q6 23 20.5 39t30.5 16q11 0 27 -8t40 -23q28 -17 46.5 -26t33.5 -9q38 0 60.5 32t22.5 87h-20q-13 -57 -51 -57zM453 167q0 37 -15.5 70.5t-43.5 59t-64.5 39.5t-77.5 14t-78 -14
t-64.5 -39.5t-43.5 -59t-16 -70.5t15.5 -70.5t44 -59.5t65 -40t77.5 -14t77.5 14t64.5 40t43.5 59.5t15.5 70.5zM331 167q0 -60 -20 -98.5t-59 -38.5t-59 38.5t-20 98.5t20 98t59 38t59 -38t20 -98z" />
    <glyph glyph-name="odieresis" unicode="&#xf6;" horiz-adv-x="503" 
d="M156 510q-21 0 -36 -14.5t-15 -36.5q0 -21 15 -36t36 -15t36 15t15 36q0 22 -15 36.5t-36 14.5zM355 510q-21 0 -36 -14.5t-15 -36.5q0 -21 15 -36t36 -15t36 15t15 36q0 22 -15 36.5t-36 14.5zM453 167q0 37 -15.5 70.5t-43.5 59t-64.5 39.5t-77.5 14t-78 -14
t-64.5 -39.5t-43.5 -59t-16 -70.5t15.5 -70.5t44 -59.5t65 -40t77.5 -14t77.5 14t64.5 40t43.5 59.5t15.5 70.5zM331 167q0 -60 -20 -98.5t-59 -38.5t-59 38.5t-20 98.5t20 98t59 38t59 -38t20 -98z" />
    <glyph glyph-name="divide" unicode="&#xf7;" horiz-adv-x="458" 
d="M392 183v77h-325v-77h325zM287 83q0 23 -18 40.5t-41 17.5q-22 0 -38.5 -17.5t-16.5 -40.5t16.5 -41t38.5 -18q23 0 41 18t18 41zM287 360q0 23 -18 40.5t-41 17.5q-22 0 -38.5 -17.5t-16.5 -40.5t16.5 -40.5t38.5 -17.5q23 0 41 17.5t18 40.5z" />
    <glyph glyph-name="oslash" unicode="&#xf8;" horiz-adv-x="503" 
d="M322 238q9 -30 9 -71q0 -60 -20 -98.5t-59 -38.5q-28 0 -45 19zM182 96q-9 32 -9 71q0 60 20 98t59 38q27 0 44 -19zM134 18l-26 -43l40 -22l27 44q36 -14 77 -14t77.5 14t64.5 40t43.5 59.5t15.5 70.5q0 45 -23 84.5t-62 64.5l26 42l-40 22l-26 -43q-39 13 -76 13
q-41 0 -78 -14t-64.5 -39.5t-43.5 -59t-16 -70.5q0 -45 22.5 -84t61.5 -65z" />
    <glyph glyph-name="ugrave" unicode="&#xf9;" horiz-adv-x="557" 
d="M329 415l-122 113q-17 16 -29 23t-28 7q-17 0 -27 -11.5t-10 -25.5q0 -13 9 -22.5t21 -16.5l179 -76zM553 8v30q-27 0 -42 4.5t-23 16t-11.5 34t-3.5 61.5v179h-191v-29q26 0 41 -4.5t23.5 -16t11.5 -34t3 -61.5v-50q0 -46 -29.5 -72.5t-63.5 -26.5q-39 0 -55.5 27.5
t-16.5 79.5v187h-192v-29q27 0 42 -4.5t23 -16t11 -33.5t3 -62v-55q0 -64 44 -107t111 -43q40 0 72 16t53 42q2 -16 6.5 -33.5t8.5 -24.5z" />
    <glyph glyph-name="uacute" unicode="&#xfa;" horiz-adv-x="557" 
d="M398 521q0 13 -10 25t-27 12q-15 0 -27 -7t-30 -23l-121 -113l6 -9l179 75q11 6 20.5 16.5t9.5 23.5zM553 8v30q-27 0 -42 4.5t-23 16t-11.5 34t-3.5 61.5v179h-191v-29q26 0 41 -4.5t23.5 -16t11.5 -34t3 -61.5v-50q0 -46 -29.5 -72.5t-63.5 -26.5q-39 0 -55.5 27.5
t-16.5 79.5v187h-192v-29q27 0 42 -4.5t23 -16t11 -33.5t3 -62v-55q0 -64 44 -107t111 -43q40 0 72 16t53 42q2 -16 6.5 -33.5t8.5 -24.5z" />
    <glyph glyph-name="ucircumflex" unicode="&#xfb;" horiz-adv-x="557" 
d="M403 423l-143 155l-143 -155l15 -14l128 83l128 -83zM553 8v30q-27 0 -42 4.5t-23 16t-11.5 34t-3.5 61.5v179h-191v-29q26 0 41 -4.5t23.5 -16t11.5 -34t3 -61.5v-50q0 -46 -29.5 -72.5t-63.5 -26.5q-39 0 -55.5 27.5t-16.5 79.5v187h-192v-29q27 0 42 -4.5t23 -16
t11 -33.5t3 -62v-55q0 -64 44 -107t111 -43q40 0 72 16t53 42q2 -16 6.5 -33.5t8.5 -24.5z" />
    <glyph glyph-name="udieresis" unicode="&#xfc;" horiz-adv-x="557" 
d="M158 510q-21 0 -36 -14.5t-15 -36.5q0 -21 15 -36t36 -15t36 15t15 36q0 22 -15 36.5t-36 14.5zM357 510q-21 0 -36 -14.5t-15 -36.5q0 -21 15 -36t36 -15t36 15t15 36q0 22 -15 36.5t-36 14.5zM553 8v30q-27 0 -42 4.5t-23 16t-11.5 34t-3.5 61.5v179h-191v-29
q26 0 41 -4.5t23.5 -16t11.5 -34t3 -61.5v-50q0 -46 -29.5 -72.5t-63.5 -26.5q-39 0 -55.5 27.5t-16.5 79.5v187h-192v-29q27 0 42 -4.5t23 -16t11 -33.5t3 -62v-55q0 -64 44 -107t111 -43q40 0 72 16t53 42q2 -16 6.5 -33.5t8.5 -24.5z" />
    <glyph glyph-name="yacute" unicode="&#xfd;" horiz-adv-x="358" 
d="M373 522q0 13 -10 25t-27 12q-15 0 -27 -7t-30 -23l-121 -113l6 -9l179 75q11 6 20.5 16.5t9.5 23.5zM112 -233l201 487q11 27 28 38.5t43 11.5v29h-148v-29q36 0 36 -22q0 -10 -7 -28l-54 -130l-58 130q-9 19 -9 29q0 21 42 21v29h-219v-29q45 0 66 -50l120 -268
l-43 -106q-11 -27 -23.5 -43t-29.5 -31q-12 -11 -17.5 -19t-5.5 -20q0 -20 13 -28.5t27 -8.5q11 0 21 10.5t17 26.5z" />
    <glyph glyph-name="thorn" unicode="&#xfe;" horiz-adv-x="598" 
d="M258 477q2 59 20 76.5t76 17.5v29h-316v-29q33 0 51 -4.5t27.5 -16.5t13 -34t3.5 -62v-308q0 -40 -3.5 -62t-13 -34t-27.5 -16.5t-51 -4.5v-29h316v29q-32 0 -50 4.5t-28 15.5t-13.5 31.5t-4.5 58.5h115q91 0 146.5 48.5t55.5 120.5t-55.5 120.5t-146.5 48.5h-115z
M313 184h-55v248h55q62 0 95 -35t33 -89q0 -55 -32.5 -89.5t-95.5 -34.5z" />
    <glyph glyph-name="ydieresis" unicode="&#xff;" horiz-adv-x="358" 
d="M91 510q-21 0 -36 -14.5t-15 -36.5q0 -21 15 -36t36 -15t36 15t15 36q0 22 -15 36.5t-36 14.5zM290 510q-21 0 -36 -14.5t-15 -36.5q0 -21 15 -36t36 -15t36 15t15 36q0 22 -15 36.5t-36 14.5zM112 -233l201 487q11 27 28 38.5t43 11.5v29h-148v-29q36 0 36 -22
q0 -10 -7 -28l-54 -130l-58 130q-9 19 -9 29q0 21 42 21v29h-219v-29q45 0 66 -50l120 -268l-43 -106q-11 -27 -23.5 -43t-29.5 -31q-12 -11 -17.5 -19t-5.5 -20q0 -20 13 -28.5t27 -8.5q11 0 21 10.5t17 26.5z" />
    <glyph glyph-name="OE" unicode="&#x152;" horiz-adv-x="1010" 
d="M503 62q-42 -31 -99 -31q-51 0 -89 24t-62.5 63.5t-36 87t-11.5 94.5t11.5 94.5t36 87t62.5 63.5t89 24q59 0 99 -31v-476zM511 600q-51 17 -107 17q-67 0 -128 -24.5t-107 -68.5t-72 -102t-26 -122t26 -122t72 -102t107 -68.5t128 -24.5q56 0 107 17h444l8 141h-29
l-5 -20q-11 -44 -31.5 -60t-84.5 -16h-90q-33 0 -51 4.5t-27.5 16.5t-13 34t-3.5 62v133h54q40 0 62 -3.5t33.5 -13t16 -28t4.5 -51.5h30v237h-30q0 -33 -4.5 -51t-16 -28t-34 -13.5t-61.5 -3.5h-54v215h152q64 0 84.5 -16t31.5 -60l5 -20h29l-8 141h-411z" />
    <glyph glyph-name="oe" unicode="&#x153;" horiz-adv-x="716" 
d="M459 229q17 73 72 73q30 0 46 -19.5t16 -53.5h-134zM331 167q0 -60 -20 -98.5t-59 -38.5t-59 38.5t-20 98.5t20 98t59 38t59 -38t20 -98zM391 35q59 -52 143 -52q42 0 84 18.5t69 47.5l-18 29q-48 -42 -118 -42q-40 0 -69.5 33.5t-29.5 95.5q0 3 1 10v10h217q5 15 5 31
q0 51 -41.5 92.5t-107.5 41.5q-38 0 -73 -13.5t-62 -37.5q-59 51 -139 51q-41 0 -78 -14t-64.5 -39.5t-43.5 -59t-16 -70.5t15.5 -70.5t44 -59.5t65 -40t77.5 -14q40 0 75.5 14t63.5 38z" />
    <glyph glyph-name="Scaron" unicode="&#x160;" horiz-adv-x="498" 
d="M394 829l-15 14l-128 -83l-128 83l-16 -14l144 -155zM107 30q11 -2 36 -15q31 -14 58.5 -23t61.5 -9q38 0 74 13t64.5 37.5t44.5 58t16 73.5q0 56 -36 101.5t-93 75.5l-96 49q-38 19 -59 48.5t-21 53.5q0 36 24 58t57 22q38 0 64.5 -14.5t43 -39t25 -54.5t11.5 -63h29
v220h-28q-6 -27 -29 -46q-27 20 -54.5 30.5t-67.5 10.5q-36 0 -67.5 -11.5t-55.5 -32.5t-37.5 -48.5t-13.5 -57.5q0 -70 33 -112t102 -77l96 -50q35 -18 54.5 -45.5t19.5 -55.5q0 -48 -27.5 -73.5t-72.5 -25.5q-64 0 -117 48.5t-68 126.5h-29v-220h29q6 28 29 47z" />
    <glyph glyph-name="scaron" unicode="&#x161;" horiz-adv-x="350" 
d="M317 563l-15 14l-128 -83l-128 83l-16 -14l144 -155zM330 96q0 30 -20 57.5t-57 44.5l-49 23q-41 18 -55 28.5t-14 26.5q0 15 14 24.5t35 9.5q33 0 62.5 -23t29.5 -53h29v116h-29q0 -18 -11 -18q-6 0 -23 5q-41 13 -74 13q-20 0 -40.5 -5.5t-38.5 -17t-28.5 -31
t-10.5 -46.5q0 -29 19 -57t56 -45l56 -25q34 -16 49 -29t15 -30t-14 -28t-38 -11t-46 9.5t-39 25t-27 34t-10 35.5h-29v-146h29q0 32 13 32q7 0 27 -10q22 -10 41 -16t42 -6q55 0 95.5 28.5t40.5 84.5z" />
    <glyph glyph-name="Ydieresis" unicode="&#x178;" horiz-adv-x="633" 
d="M243 776q-21 0 -36 -14.5t-15 -36.5q0 -21 15 -36t36 -15t36 15t15 36q0 22 -15 36.5t-36 14.5zM442 776q-21 0 -36 -14.5t-15 -36.5q0 -21 15 -36t36 -15t36 15t15 36q0 22 -15 36.5t-36 14.5zM665 571v29h-242v-29q74 0 74 -30q0 -17 -20 -46l-112 -169l-112 169
q-18 26 -18 43q0 33 71 33v29h-339v-29q53 0 82 -17q15 -10 29.5 -26.5t33.5 -44.5l145 -219v-118q0 -39 -3.5 -61.5t-13.5 -34.5t-28 -16.5t-51 -4.5v-29h312v29q-33 0 -51 4.5t-27.5 16.5t-13 34t-3.5 62v121l143 216q19 29 30.5 44t26.5 25t35.5 14.5t51.5 4.5z" />
    <glyph glyph-name="florin" unicode="&#x192;" horiz-adv-x="337" 
d="M223 -78v367h100v44h-100v124q0 66 11.5 92.5t42.5 26.5q18 0 26 -10.5t16 -31.5q9 -23 18.5 -34.5t29.5 -11.5q18 0 28 12t10 29q0 32 -35 60t-91 28q-88 0 -128.5 -50t-40.5 -153v-81h-82v-44h82v-359q0 -89 -17 -122.5t-50 -33.5q-25 0 -35.5 12t-19.5 36
q-7 20 -15 30t-26 10q-33 0 -33 -35q1 -33 40.5 -63.5t104.5 -30.5q82 0 123 45.5t41 143.5z" />
    <glyph glyph-name="circumflex" unicode="&#x2c6;" horiz-adv-x="342" 
d="M323 536l-143 155l-143 -155l15 -14l128 83l128 -83z" />
    <glyph glyph-name="tilde" unicode="&#x2dc;" horiz-adv-x="300" 
d="M232 603q-14 0 -30.5 8t-42.5 24q-26 17 -44 25.5t-34 8.5q-33 0 -55.5 -33t-22.5 -84h19q6 23 20.5 39t30.5 16q11 0 27 -8t40 -23q28 -17 46.5 -26t33.5 -9q38 0 60.5 32t22.5 87h-20q-13 -57 -51 -57z" />
    <glyph glyph-name="endash" unicode="&#x2013;" horiz-adv-x="525" 
d="M525 166v77h-526v-77h526z" />
    <glyph glyph-name="emdash" unicode="&#x2014;" horiz-adv-x="667" 
d="M667 166v77h-668v-77h668z" />
    <glyph glyph-name="quoteleft" unicode="&#x2018;" horiz-adv-x="251" 
d="M192 553q0 26 -18.5 45t-44.5 19q-28 0 -50 -21t-22 -58q0 -46 29 -96t83 -84l20 20q-56 58 -65 110h5q26 0 44.5 19.5t18.5 45.5z" />
    <glyph glyph-name="quoteright" unicode="&#x2019;" horiz-adv-x="251" 
d="M82 358q54 34 83 84t29 96q0 37 -21.5 58t-50.5 21q-26 0 -44.5 -19t-18.5 -45t18.5 -45.5t44.5 -19.5h5q-9 -52 -65 -110z" />
    <glyph glyph-name="quotesinglbase" unicode="&#x201a;" horiz-adv-x="292" 
d="M88 -139q54 34 83 84t29 97q0 36 -22 57t-50 21q-26 0 -44.5 -19t-18.5 -45t18.5 -45t44.5 -19h5q-8 -51 -65 -111z" />
    <glyph glyph-name="quotedblleft" unicode="&#x201c;" horiz-adv-x="434" 
d="M375 553q0 26 -18 45t-44 19q-28 0 -50.5 -21t-22.5 -58q0 -46 29.5 -96t83.5 -84l20 20q-58 60 -65 110h5q26 0 44 19.5t18 45.5zM192 553q0 26 -18.5 45t-44.5 19q-28 0 -50 -21t-22 -58q0 -46 29 -96t83 -84l20 20q-56 58 -65 110h5q26 0 44.5 19.5t18.5 45.5z" />
    <glyph glyph-name="quotedblright" unicode="&#x201d;" horiz-adv-x="434" 
d="M82 358q54 34 83 84t29 96q0 37 -21.5 58t-50.5 21q-26 0 -44.5 -19t-18.5 -45t18.5 -45.5t44.5 -19.5h5q-9 -52 -65 -110zM265 358q54 34 83.5 84t29.5 96q0 37 -22 58t-51 21q-26 0 -44 -19t-18 -45t18 -45.5t44 -19.5h5q-9 -52 -65 -110z" />
    <glyph glyph-name="quotedblbase" unicode="&#x201e;" horiz-adv-x="434" 
d="M82 -139q54 34 83 84t29 97q0 36 -22 57t-50 21q-26 0 -44.5 -19t-18.5 -45t18.5 -45t44.5 -19h5q-9 -53 -65 -111zM265 -139q54 34 83.5 84t29.5 97q0 36 -22 57t-51 21q-26 0 -44 -19t-18 -45t18 -45t44 -19h5q-9 -53 -65 -111z" />
    <glyph glyph-name="dagger" unicode="&#x2020;" horiz-adv-x="448" 
d="M240 388l109 -35q7 -2 14 -2q21 0 38 17t17 40t-17 40t-38 17q-7 0 -14 -2l-111 -37l41 122q2 7 2 14q0 21 -17 38t-40 17t-40 -17t-17 -38q0 -7 2 -14l41 -122l-112 37q-6 2 -13 2q-22 0 -39 -17t-17 -40t17 -40t39 -17q7 0 13 2l110 36l-54 -182l62 -394h16l62 394z
" />
    <glyph glyph-name="daggerdbl" unicode="&#x2021;" horiz-adv-x="448" 
d="M418 14q0 23 -17 40t-38 17q-7 0 -14 -2l-109 -35l56 178l-56 176l109 -36q6 -2 12 -2q23 0 40 17.5t17 40.5q0 22 -17 39.5t-39 17.5q-7 0 -13 -2l-111 -38l41 123q2 6 2 13q0 22 -17 39t-40 17t-40 -17t-17 -39q0 -7 2 -13l41 -123l-112 38q-6 2 -13 2q-22 0 -39 -17.5
t-17 -39.5q0 -23 17.5 -40.5t39.5 -17.5q6 0 12 2l110 37l-56 -178l56 -178l-110 36q-6 2 -13 2q-22 0 -39 -17t-17 -40q0 -22 17.5 -39.5t38.5 -17.5q7 0 13 2l112 38l-41 -123q-2 -6 -2 -13q0 -21 17 -38t40 -17t40 17t17 38q0 7 -2 13l-41 123l111 -38q6 -2 13 -2
q22 0 39 17.5t17 39.5z" />
    <glyph glyph-name="bullet" unicode="&#x2022;" horiz-adv-x="303" 
d="M152 330q-41 0 -70.5 -29.5t-29.5 -70.5t29.5 -70.5t70.5 -29.5t70.5 29.5t29.5 70.5t-29.5 70.5t-70.5 29.5z" />
    <glyph glyph-name="ellipsis" unicode="&#x2026;" horiz-adv-x="896" 
d="M213 56q0 26 -19.5 45t-45.5 19t-44 -19t-18 -45t18 -45t44 -19t45.5 19t19.5 45zM504 56q0 26 -19 45t-45 19t-44 -19t-18 -45t18 -45t44 -19t45 19t19 45zM796 56q0 26 -19 45t-45 19t-44.5 -19t-18.5 -45t18.5 -45t44.5 -19t45 19t19 45z" />
    <glyph glyph-name="perthousand" unicode="&#x2030;" horiz-adv-x="1133" 
d="M372 473q0 29 -12.5 55t-35.5 46.5t-53 31.5t-63 11t-63 -11t-53 -31t-36 -46.5t-13 -55.5q0 -28 13 -54.5t36 -46.5t53 -31t63 -11t63 11t53 31t35.5 46t12.5 55zM273 473q0 -41 -17 -73t-48 -32t-48.5 32.5t-17.5 72.5q0 41 17.5 73t48.5 32t48 -32t17 -73zM587 598
l-39 22l-370 -617l40 -21zM719 128q0 29 -12.5 55t-35.5 46t-53 31t-63 11t-63 -11t-53 -31t-35.5 -46t-12.5 -55t12.5 -55t35.5 -46.5t53 -31.5t63 -11t63 11t53 31t35.5 46.5t12.5 55.5zM621 128q0 -41 -17.5 -73t-48.5 -32t-48.5 32t-17.5 73t17.5 73t48.5 32t48.5 -32
t17.5 -73zM1090 128q0 29 -12.5 55t-35.5 46t-53 31t-63 11t-63 -11t-53 -31t-35.5 -46t-12.5 -55t12.5 -55t35.5 -46.5t53 -31.5t63 -11t63 11t53 31t35.5 46.5t12.5 55.5zM992 128q0 -41 -17.5 -73t-48.5 -32t-48.5 32t-17.5 73t17.5 73t48.5 32t48.5 -32t17.5 -73z" />
    <glyph glyph-name="guilsinglleft" unicode="&#x2039;" horiz-adv-x="500" 
d="M428 73l-175 195l175 195l-15 22l-338 -217l338 -218z" />
    <glyph glyph-name="guilsinglright" unicode="&#x203a;" horiz-adv-x="500" 
d="M425 268l-337 217l-16 -22l175 -195l-175 -195l16 -23z" />
    <glyph glyph-name="trademark" unicode="&#x2122;" horiz-adv-x="1013" 
d="M174 558v-216q0 -67 -13 -86t-58 -19v-27h252v27q-45 0 -58.5 19t-13.5 86v216h16q59 0 77.5 -12t26.5 -46l5 -18h27l-7 118h-400l-6 -118h26l5 18q8 34 27 46t78 12h16zM591 494l129 -299h12l123 286v-139q0 -67 -13 -86t-58 -19v-27h227v27q-45 0 -58 19t-13 86v126
q0 67 13 86t58 19v27h-147l-109 -253l-108 253h-169v-27q45 0 58 -19q7 -10 9.5 -30t2.5 -56v-126q0 -36 -2.5 -55.5t-9.5 -30.5q-13 -19 -58 -19v-27h184v27q-45 0 -58 19t-13 86v152z" />
    </font>
</defs>
</svg>
