<?xml version="1.0" standalone="no"?>
<!DOCTYPE svg PUBLIC "-//W3C//DTD SVG 1.1//EN" "http://www.w3.org/Graphics/SVG/1.1/DTD/svg11.dtd" >
<svg xmlns="http://www.w3.org/2000/svg" xmlns:xlink="http://www.w3.org/1999/xlink" version="1.1">
<metadata>
Created by FontForge 20170731 at Fri Jan  1 02:30:17 1904
 By Aleksey,,,
Copyright (C) 1996 Emigre Graphics, Designed by Zuzana Licko
</metadata>
<defs>
<font id="MrsEavesFractions" horiz-adv-x="336" >
  <font-face 
    font-family="MrsEavesFractions"
    font-weight="400"
    font-stretch="normal"
    units-per-em="1000"
    panose-1="2 11 5 0 0 0 0 0 0 0"
    ascent="800"
    descent="-200"
    x-height="433"
    cap-height="618"
    bbox="-119 -267 1043 816"
    underline-thickness="25"
    underline-position="-110"
    unicode-range="U+0020-2122"
  />
<missing-glyph horiz-adv-x="502" 
d="M-1 0h500v500h-500v-500zM9 10v480h480v-480h-480z" />
    <glyph glyph-name=".notdef" horiz-adv-x="502" 
d="M-1 0h500v500h-500v-500zM9 10v480h480v-480h-480z" />
    <glyph glyph-name=".null" horiz-adv-x="0" 
 />
    <glyph glyph-name="nonmarkingreturn" horiz-adv-x="333" 
 />
    <glyph glyph-name="space" unicode=" " horiz-adv-x="233" 
 />
    <glyph glyph-name="exclam" unicode="!" 
d="M253 0v22q-36 0 -46 14.5t-10 66.5v231l-127 -26v-20q42 0 55.5 -12.5t13.5 -62.5v-110q0 -52 -10 -66.5t-47 -14.5v-22h171z" />
    <glyph glyph-name="quotedbl" unicode="&#x22;" horiz-adv-x="412" 
d="M75 568q0 -9 9 -36q11 -32 18.5 -62.5t10.5 -76.5h17q3 45 11 76.5t19 62.5q10 27 10 36q0 20 -14.5 34.5t-33.5 14.5t-33 -14.5t-14 -34.5zM242 568q0 -9 9 -36q11 -32 18.5 -62.5t10.5 -76.5h17q3 45 11 76.5t19 62.5q10 27 10 36q0 19 -15 34t-34 15t-32.5 -14.5
t-13.5 -34.5z" />
    <glyph glyph-name="numbersign" unicode="#" 
d="M289 92q0 33 -24 62t-62 42l79 94v23h-216l-18 -103h22l5 18q5 21 21 29t42 8h86l-99 -104q-9 -9 -9 -18q0 -18 18 -18q15 0 24 17q12 18 16 22q26 -4 42 -25t16 -47q0 -32 -18 -55.5t-52 -23.5q-28 0 -42 10.5t-26 28.5t-21 18q-20 0 -20 -18q0 -23 30 -46t79 -23
q54 0 90.5 32t36.5 77z" />
    <glyph glyph-name="dollar" unicode="$" 
d="M296 194h-21l-4 -16q-8 -30 -19.5 -40.5t-33.5 -11.5v213h-24l-172 -229v-17h139q0 -45 -10.5 -58t-47.5 -13v-22h172v22q-35 0 -46 13t-11 58h72zM161 126h-89l89 118v-118z" />
    <glyph glyph-name="percent" unicode="%" 
d="M288 98q0 48 -34.5 81.5t-85.5 33.5q-19 0 -37.5 -8.5t-28.5 -18.5l7 79h154l10 48h-195l-18 -188h33q7 25 26.5 41t41.5 16q33 0 51 -24t18 -60q0 -34 -20.5 -59.5t-54.5 -25.5q-28 0 -41 10.5t-23 28.5q-11 18 -20 18q-21 0 -21 -20q0 -23 28.5 -45t76.5 -22
q55 0 94 34t39 81z" />
    <glyph glyph-name="ampersand" unicode="&#x26;" 
d="M300 290v23h-243l-19 -103h23l4 18q6 21 22 29t41 8h128l-148 -233q-9 -15 -9 -27q0 -19 18 -25q1 0 5 -1h4q11 0 18.5 8t16.5 26z" />
    <glyph glyph-name="quotesingle" unicode="'" horiz-adv-x="245" 
d="M75 568q0 -9 9 -36q11 -32 18.5 -62.5t10.5 -76.5h17q3 45 11 76.5t19 62.5q10 27 10 36q0 20 -14.5 34.5t-33.5 14.5t-33 -14.5t-14 -34.5z" />
    <glyph glyph-name="parenleft" unicode="(" 
d="M288 178q0 45 -12.5 75t-32 46.5t-41.5 23.5t-41 7q-48 0 -82 -30.5t-34 -73.5t36.5 -73.5t85.5 -30.5q16 0 33.5 5.5t30.5 14.5q-6 -53 -25.5 -90t-53.5 -37q-17 0 -27.5 6.5t-21.5 17.5q-13 13 -20 13t-13 -5t-6 -12q0 -17 26 -34.5t63 -17.5q32 0 57.5 17t42.5 45.5
t26 63t9 69.5zM233 188q-7 -16 -25.5 -26.5t-40.5 -10.5q-29 0 -46.5 23.5t-17.5 51.5t15 51.5t43 23.5q29 0 50 -30.5t22 -82.5z" />
    <glyph glyph-name="parenright" unicode=")" 
d="M294 157q0 35 -9.5 66.5t-27 55.5t-40.5 37.5t-49 13.5t-49 -13.5t-40 -37.5t-27 -55.5t-10 -66.5t9.5 -66.5t27 -56t40.5 -38t49 -13.5t49 13.5t40.5 38t27 56t9.5 66.5zM236 157q0 -61 -17.5 -102t-50.5 -41t-50 40.5t-17 102.5t17 102t50 40q34 0 51 -40.5t17 -101.5z
" />
    <glyph glyph-name="asterisk" unicode="*" 
d="M294 83q0 34 -22 55.5t-62 39.5q29 13 48 31.5t19 42.5q0 34 -32 56t-77 22q-44 0 -76 -25t-32 -61q0 -22 16 -40t42 -35q-34 -14 -54.5 -35.5t-20.5 -55.5q0 -41 36.5 -68t88.5 -27t89 29.5t37 70.5zM222 253q0 -19 -12.5 -34.5t-32.5 -25.5q-30 15 -46.5 28.5
t-16.5 31.5q0 21 15.5 34.5t38.5 13.5q22 0 38 -15t16 -33zM239 75q0 -25 -19.5 -44t-51.5 -19t-51.5 19t-19.5 44q0 27 15 45.5t39 30.5l8 -4q39 -17 59.5 -32.5t20.5 -39.5z" />
    <glyph glyph-name="plus" unicode="+" horiz-adv-x="458" 
d="M251 243v157h-44v-157h-157v-44h157v-157h44v157h157v44h-157z" />
    <glyph glyph-name="comma" unicode="," horiz-adv-x="313" 
d="M154 -2q-5 -30 -17.5 -53.5t-39.5 -52.5l11 -12q44 27 68 71t24 80q0 31 -16 47t-38 16q-19 0 -33 -14t-14 -34t14 -34.5t33 -14.5q6 0 8 1z" />
    <glyph glyph-name="hyphen" unicode="-" horiz-adv-x="458" 
d="M375 199v44h-292v-44h292z" />
    <glyph glyph-name="period" unicode="." horiz-adv-x="313" 
d="M211 44q0 22 -17 37.5t-40 15.5t-39 -15.5t-16 -37.5q0 -21 16 -36.5t39 -15.5t40 15.5t17 36.5z" />
    <glyph glyph-name="slash" unicode="/" horiz-adv-x="181" 
d="M300 600l-36 18l-383 -618l36 -18z" />
    <glyph glyph-name="zero" unicode="0" horiz-adv-x="467" 
d="M404 300q0 64 -13.5 122t-37 102t-54.5 68.5t-66 24.5q-34 0 -65 -24.5t-54.5 -68.5t-37 -102t-13.5 -122t13.5 -122t37 -102t54.5 -68.5t65 -24.5q35 0 66 24.5t54.5 68.5t37 102t13.5 122zM233 578q24 0 41.5 -24.5t28 -65.5t15.5 -90t5 -98t-5 -98t-15.5 -89.5
t-28 -65t-41.5 -24.5t-41 24.5t-27.5 65.5t-15.5 89t-5 98t5 98.5t15.5 89.5t27.5 65.5t41 24.5z" />
    <glyph glyph-name="one" unicode="1" horiz-adv-x="467" 
d="M268 138v479l-166 -34v-20q58 0 77 -19.5t19 -89.5v-316q0 -39 -3.5 -61.5t-11.5 -34.5t-23 -16.5t-42 -4.5v-21h230v21q-27 0 -42 4.5t-23 16.5t-11.5 34.5t-3.5 61.5z" />
    <glyph glyph-name="two" unicode="2" horiz-adv-x="467" 
d="M64 0h325l24 143h-22q-11 -45 -31 -60.5t-85 -15.5h-128l117 151l10 13q62 78 87.5 123t25.5 97q0 68 -47 117t-127 49q-78 0 -122.5 -35.5t-44.5 -84.5q0 -29 17 -56.5t50 -47.5l30 31q-20 34 -20 65q0 38 26 61.5t64 23.5q49 0 73 -34t24 -90q0 -41 -25.5 -96.5
t-78.5 -130.5l-142 -199v-24z" />
    <glyph glyph-name="three" unicode="3" horiz-adv-x="467" 
d="M237 285q46 -11 65.5 -48.5t19.5 -86.5q0 -60 -25.5 -94.5t-74.5 -34.5q-26 0 -47 11.5t-35 27.5q-8 10 -19 30q-8 15 -14 22t-14 7q-25 0 -25 -25q0 -15 10.5 -34t31.5 -36.5t51 -29t68 -11.5q79 0 129 48.5t50 118.5q0 58 -37.5 102t-102.5 59l40 32q13 9 27 23.5
t27 33t21.5 40t8.5 43.5q0 64 -50.5 99t-121.5 35q-73 0 -116.5 -38t-43.5 -89q0 -59 55 -97l34 31q-16 31 -16 59q0 40 27 65.5t60 25.5q42 0 67 -26t25 -65q0 -35 -20 -74t-60 -77l-36 -34q-12 -10 -19.5 -20t-7.5 -19q0 -8 6 -14t13 -6t13.5 6.5t17.5 19.5q12 15 18 20z
" />
    <glyph glyph-name="four" unicode="4" horiz-adv-x="467" 
d="M238 196h-150l150 265v-265zM309 197v428h-18l-254 -447v-19h201v-38q0 -40 -3.5 -62t-13 -34t-27.5 -16.5t-51 -4.5v-21h262v21q-33 0 -51 4.5t-28 16.5t-13.5 34.5t-3.5 61.5v38h111l8 133h-20l-5 -20q-11 -42 -27.5 -57.5t-66.5 -17.5z" />
    <glyph glyph-name="five" unicode="5" horiz-adv-x="467" 
d="M120 355l14 174h238l11 71h-280l-29 -340h37q5 54 34.5 76.5t70.5 22.5q58 0 82 -43.5t24 -123.5q0 -78 -27 -124.5t-79 -46.5q-43 0 -62 17t-34 48q-8 17 -14.5 25t-18.5 8q-27 0 -27 -26q0 -15 11 -34t31.5 -36.5t49.5 -28.5t64 -11q39 0 74 16.5t61.5 45.5t41.5 67
t15 80q0 43 -13 81t-38 66.5t-59 44.5t-74 16q-30 0 -58 -12t-46 -33z" />
    <glyph glyph-name="six" unicode="6" horiz-adv-x="467" 
d="M146 317q3 78 12.5 129.5t24.5 80t33.5 40t41.5 11.5q24 0 39.5 -11t31.5 -30q19 -22 29 -22q25 0 25 26q0 12 -10 25.5t-27.5 25t-40.5 18.5t-47 7q-47 0 -84 -29.5t-62 -80.5t-37 -113.5t-12 -127.5q0 -82 16.5 -138.5t42.5 -88t55 -44t57 -12.5q35 0 66.5 14.5
t55 40.5t37 60.5t13.5 72.5t-12.5 72t-35.5 60t-54 40.5t-66 14.5q-52 0 -92 -41zM145 272q39 46 89 46q27 0 44 -12t26.5 -32.5t12.5 -45.5t3 -56q0 -32 -3 -57.5t-12 -46t-26.5 -33t-44.5 -12.5q-13 0 -28 9.5t-29 33.5t-23 68.5t-9 109.5v28z" />
    <glyph glyph-name="seven" unicode="7" horiz-adv-x="467" 
d="M417 600h-329l-29 -167h21l5 20q11 45 31 60.5t85 15.5h163l-238 -486q-7 -15 -7 -28t7 -21.5t17 -11.5q7 -2 12 -2q14 0 22 11t19 39l221 543v27z" />
    <glyph glyph-name="eight" unicode="8" horiz-adv-x="467" 
d="M240 359q-73 47 -73 122q0 36 16 66.5t50 30.5q35 0 50.5 -30t15.5 -67q0 -44 -14 -73t-45 -49zM215 308q53 -35 83 -75t30 -87q0 -22 -5 -43.5t-16 -39.5t-29.5 -29.5t-44.5 -11.5t-44.5 11.5t-29.5 30t-16 39.5t-5 43q0 111 77 162zM269 340q49 27 78.5 62t29.5 79
q0 61 -41.5 98.5t-102.5 37.5q-60 0 -102 -41t-42 -103q0 -44 25 -77.5t71 -66.5q-56 -27 -91 -70t-35 -109q0 -35 13.5 -65.5t38 -53.5t56 -35.5t66.5 -12.5t67 13t56 37t37.5 56t13.5 69q0 63 -36.5 104.5t-101.5 77.5z" />
    <glyph glyph-name="nine" unicode="9" horiz-adv-x="467" 
d="M404 334q0 82 -16.5 138.5t-42.5 88t-55 44t-57 12.5q-35 0 -66.5 -14.5t-55 -40.5t-37 -60.5t-13.5 -72.5t12.5 -72t35.5 -60t53.5 -40.5t65.5 -14.5q52 0 93 41q-3 -78 -12.5 -129.5t-24.5 -79.5t-34 -39.5t-42 -11.5t-38 10.5t-32 29.5q-19 22 -29 22q-25 0 -25 -26
q0 -12 10 -25.5t27.5 -25t40.5 -18.5t47 -7q47 0 84 30t62 80.5t37 113t12 127.5zM322 328q-39 -46 -89 -46q-27 0 -44 12t-26.5 32.5t-12.5 45.5t-3 56q0 32 3.5 57.5t12 46.5t26 33t44.5 12q13 0 28 -9t29 -33.5t23 -68.5t9 -110v-28z" />
    <glyph glyph-name="colon" unicode=":" horiz-adv-x="335" 
d="M215 40q0 20 -14 34t-34 14q-19 0 -33 -14t-14 -34q0 -19 14 -33.5t33 -14.5q20 0 34 14t14 34zM215 230q0 20 -14 34t-34 14q-19 0 -33 -14t-14 -34q0 -19 14 -33.5t33 -14.5q20 0 34 14t14 34z" />
    <glyph glyph-name="semicolon" unicode=";" horiz-adv-x="335" 
d="M215 230q0 20 -14 34t-34 14q-19 0 -33 -14t-14 -34q0 -19 14 -33.5t33 -14.5q20 0 34 14t14 34zM175 -8q-5 -30 -17.5 -53.5t-39.5 -52.5l11 -12q44 27 68 71t24 80q0 31 -16 47t-38 16q-19 0 -33 -14t-14 -34q0 -19 14 -33.5t33 -14.5h8z" />
    <glyph glyph-name="less" unicode="&#x3c;" horiz-adv-x="500" 
d="M428 68l-233 200l233 200l-15 17l-330 -217l330 -218z" />
    <glyph glyph-name="equal" unicode="=" horiz-adv-x="458" 
d="M375 258v45h-292v-45h292zM375 133v45h-292v-45h292z" />
    <glyph glyph-name="greater" unicode="&#x3e;" horiz-adv-x="500" 
d="M417 268l-329 217l-15 -17l232 -200l-232 -200l15 -18z" />
    <glyph glyph-name="question" unicode="?" horiz-adv-x="504" 
d="M273 40q0 20 -14 34t-34 14q-19 0 -33 -14t-14 -34q0 -19 14 -33.5t33 -14.5q20 0 34 14t14 34zM388 459q0 -36 -16 -62t-43 -42t-59.5 -23.5t-66.5 -7.5v-164h44v94q13 1 42 7.5t68 26.5t68 60t29 100q0 38 -17.5 70t-47.5 54t-68.5 33.5t-79.5 11.5q-71 0 -119.5 -34
t-48.5 -82q0 -41 23.5 -67t51.5 -26q19 0 35 11.5t16 33.5q0 16 -12 27.5t-28 11.5q-23 0 -33 7t-10 19q0 25 32 46t85 21q64 0 109.5 -34t45.5 -92z" />
    <glyph glyph-name="at" unicode="@" 
d="M289 48h-159l89 80q27 23 43.5 47.5t16.5 55.5q0 45 -36 72t-87 27q-53 0 -84.5 -28t-31.5 -66q0 -44 42 -73l26 25q-16 24 -16 46q0 26 19 42.5t43 16.5q32 0 50.5 -18t18.5 -47q0 -27 -9.5 -46t-34.5 -41l-132 -118v-23h233z" />
    <glyph glyph-name="A" unicode="A" horiz-adv-x="984" 
d="M772 236q-33 -1 -61 -12t-67 -33q-34 -19 -58 -28.5t-49 -9.5q-93 0 -129 73l-16 -8q18 -52 57.5 -89.5t99.5 -37.5q32 0 61.5 17t69.5 48q32 25 52.5 38t40.5 15l-23 -72q0 -2 -1 -5v-4q0 -14 11.5 -25.5t26.5 -11.5t26 11t11 26v4q-1 3 -1 5l-25 75l82 -28q1 0 4 -1h4
q15 0 26.5 11.5t11.5 26.5t-11.5 26.5t-26.5 11.5h-4q-3 -1 -4 -1l-82 -28l25 74q0 2 1 5v4q0 15 -11 26t-26 11t-26.5 -11t-11.5 -26v-4q1 -3 1 -5zM210 232l24 72q0 2 1 5v4q0 15 -11 26t-26 11t-26.5 -11t-11.5 -26v-4q1 -3 1 -5l25 -75l-82 28q-1 0 -4 1h-4
q-15 0 -26.5 -11.5t-11.5 -26.5t11.5 -26.5t26.5 -11.5h4q3 1 4 1l82 28l-25 -74q0 -2 -1 -5v-4q0 -14 11.5 -25.5t26.5 -11.5t26 11t11 26v4q-1 3 -1 5l-21 68q32 1 60 12t66 32q35 20 59 29.5t50 9.5q92 0 129 -73l16 8q-18 52 -58 89.5t-100 37.5q-31 0 -60.5 -16.5
t-69.5 -47.5q-32 -26 -53.5 -39t-41.5 -15z" />
    <glyph glyph-name="B" unicode="B" horiz-adv-x="667" 
d="M608 220q0 15 -11 26.5t-26 11.5h-4q-3 -1 -4 -1l-82 -28l25 75q0 2 1 5v4q0 15 -11 26t-27 11q-15 0 -26 -11t-11 -26v-4q1 -3 1 -5l24 -73l-164 22l-106 -21v-23l106 -21l163 21l-23 -72q0 -2 -1 -5v-4q0 -15 11 -26t26 -11q16 0 27 11.5t11 25.5v4q-1 3 -1 5l-25 74
l82 -28q1 0 4 -1h4q15 0 26 11.5t11 26.5zM263 46l-110 163v23l110 163l-25 17l-184 -191l184 -192z" />
    <glyph glyph-name="C" unicode="C" horiz-adv-x="683" 
d="M342 617q-65 0 -122.5 -24.5t-101.5 -68.5t-68.5 -101.5t-24.5 -122.5t24.5 -122.5t68.5 -101.5t101.5 -68.5t122.5 -24.5t122.5 24.5t101 68.5t68 101.5t24.5 122.5t-24.5 123t-68 101.5t-101 68t-122.5 24.5zM342 585q58 0 110 -22t91.5 -61.5t61.5 -91.5t22 -110
t-22 -110t-61.5 -91.5t-91.5 -61.5t-110 -22t-110 22t-91.5 61.5t-61.5 91.5t-22 110t22 110.5t61 91.5t91.5 61t110.5 22zM506 105v157h-18q-13 -64 -48 -101t-86 -37q-36 0 -62.5 16t-42.5 42t-23.5 56.5t-7.5 61.5q0 30 7.5 60.5t23.5 57t42.5 42.5t62.5 16
q51 0 86 -36.5t48 -100.5h18v156h-17q-2 -13 -7 -26t-9 -18q-21 26 -54 42.5t-65 16.5q-41 0 -78 -16.5t-65 -45.5t-44 -67.5t-16 -80.5q0 -43 16 -81.5t44 -67t65 -45t78 -16.5q32 0 65 16.5t54 42.5q4 -4 9 -17t7 -27h17z" />
    <glyph glyph-name="D" unicode="D" horiz-adv-x="667" 
d="M463 220q0 15 -11.5 26.5t-25.5 11.5h-4q-3 -1 -4 -1l-75 -25l27 81q0 2 1 5v4q0 15 -11 26t-27 11q-15 0 -26 -11t-11 -25v-5q1 -3 1 -5l27 -81l-74 25q-1 0 -4 1h-4q-15 0 -26.5 -11.5t-11.5 -26.5t11.5 -26.5t26.5 -11.5h4q3 1 4 1l73 24l-22 -163l22 -107h22l21 107
l-22 164l74 -25q1 0 4 -1h4q14 0 25.5 11.5t11.5 26.5zM525 -12l-17 25l-163 -109h-22l-164 109l-16 -25l191 -183z" />
    <glyph glyph-name="E" unicode="E" horiz-adv-x="333" 
d="M151 500q1 -33 12 -61.5t32 -66.5q19 -34 28.5 -57.5t9.5 -49.5q0 -47 -17 -78.5t-55 -50.5l8 -16q52 18 89.5 57.5t37.5 100.5q0 31 -16.5 60.5t-48.5 69.5q-25 32 -38 53t-15 41l72 -24q1 0 4 -1h4q15 0 26.5 11.5t11.5 26.5t-11.5 26.5t-26.5 11.5h-4q-3 -1 -4 -1
l-75 -25l28 81q0 1 1 4v4q0 15 -11.5 26.5t-26.5 11.5t-26.5 -11.5t-11.5 -26.5v-4q1 -3 1 -4l28 -81l-74 25q-1 0 -4 1h-4q-15 0 -26.5 -11.5t-11.5 -26.5t11.5 -26.5t26.5 -11.5h4q3 1 4 1zM155 -62l-72 24q-2 0 -5 1h-4q-15 0 -26 -11t-11 -26q0 -16 11.5 -27t25.5 -11h4
q3 1 5 1l75 25l-28 -82q0 -2 -1 -5v-4q0 -14 11.5 -25t26.5 -11t26 11t11 25v4q-1 3 -1 5l-27 82l74 -25q2 0 5 -1h4q15 0 26 11t11 27q0 15 -11 26t-26 11h-4q-3 -1 -5 -1l-68 -21q-1 33 -12 61t-33 67q-19 35 -28.5 58.5t-9.5 48.5q0 47 17.5 78.5t55.5 50.5l-9 16
q-51 -18 -88.5 -57.5t-37.5 -100.5q0 -31 16 -59.5t48 -70.5q26 -33 39 -54t15 -41z" />
    <glyph glyph-name="F" unicode="F" horiz-adv-x="667" 
d="M613 220l-184 191l-25 -17l109 -163v-23l-109 -163l25 -17zM480 208v23l-107 21l-163 -22l24 73q0 2 1 5v4q0 15 -11 26t-26 11t-26.5 -11t-11.5 -26v-4q1 -3 1 -5l25 -75l-82 28q-2 0 -5 1h-4q-14 0 -25.5 -11t-11.5 -27q0 -15 11 -26t26 -11h4q3 1 5 1l82 27l-25 -74
q0 -2 -1 -5v-4q0 -14 11.5 -25.5t26.5 -11.5t26 11t11 26v4q-1 3 -1 5l-23 72l162 -21z" />
    <glyph glyph-name="G" unicode="G" horiz-adv-x="853" 
d="M636 600l-36 18l-383 -618l36 -18zM779 194h-21l-4 -16q-8 -30 -19.5 -40.5t-32.5 -11.5v213h-24l-173 -229v-17h139q0 -45 -10.5 -58t-46.5 -13v-22h171v22q-35 0 -45.5 13t-10.5 58h71zM644 126h-89l89 118v-118zM270 287v21q-36 0 -46.5 14.5t-10.5 66.5v232l-126 -26
v-21q42 0 55.5 -13.5t13.5 -61.5v-110q0 -52 -10 -66.5t-48 -14.5v-21h172z" />
    <glyph glyph-name="H" unicode="H" horiz-adv-x="853" 
d="M636 600l-36 18l-383 -618l36 -18zM781 48h-159l89 80q27 24 43.5 48t16.5 55q0 45 -36 72t-87 27q-53 0 -85 -28t-32 -66q0 -44 42 -73l27 25q-16 24 -16 47q0 25 18 41.5t41 16.5q34 0 52.5 -17t18.5 -53q0 -26 -11.5 -46t-31.5 -36l-133 -118v-23h234zM270 287v21
q-36 0 -46.5 14.5t-10.5 66.5v232l-126 -26v-21q42 0 55.5 -13.5t13.5 -61.5v-110q0 -52 -10 -66.5t-48 -14.5v-21h172z" />
    <glyph glyph-name="I" unicode="I" horiz-adv-x="853" 
d="M636 600l-36 18l-383 -618l36 -18zM771 194h-21l-4 -16q-8 -30 -19.5 -40.5t-33.5 -11.5v213h-24l-172 -229v-17h139q0 -45 -10.5 -58t-47.5 -13v-22h172v22q-35 0 -46 13t-11 58h72zM636 126h-89l89 118v-118zM306 378q0 34 -24.5 63t-62.5 42l79 94v23h-215l-19 -103
h23l5 17q4 21 20.5 29.5t41.5 8.5h87l-99 -104q-9 -9 -9 -18q0 -18 18 -18q15 0 24 16q11 18 16 23q26 -5 41.5 -25.5t15.5 -47.5q0 -32 -18 -55t-52 -23q-28 0 -42 10.5t-26 28.5t-21 18q-20 0 -20 -19q0 -22 30.5 -45t78.5 -23q55 0 91.5 32t36.5 76z" />
    <glyph glyph-name="J" unicode="J" horiz-adv-x="853" 
d="M628 600l-36 18l-384 -618l36 -18zM799 83q0 34 -22.5 55.5t-63.5 39.5q33 14 50.5 28.5t17.5 37.5q0 36 -33 61t-80 25q-46 0 -79 -25t-33 -61q0 -22 16 -40.5t44 -34.5q-38 -14 -58 -33t-20 -53q0 -41 38 -70.5t92 -29.5q55 0 93 29.5t38 70.5zM725 253
q0 -19 -13 -34.5t-34 -25.5q-31 16 -48.5 29t-17.5 31t16.5 33t39.5 15q24 0 40.5 -15t16.5 -33zM743 75q0 -25 -20.5 -44t-54.5 -19q-33 0 -54 19t-21 44q0 27 16 45.5t41 30.5l9 -4q42 -18 63 -33t21 -39zM270 287v21q-36 0 -46.5 14.5t-10.5 66.5v232l-126 -26v-21
q42 0 55.5 -13.5t13.5 -61.5v-110q0 -52 -10 -66.5t-48 -14.5v-21h172z" />
    <glyph glyph-name="K" unicode="K" horiz-adv-x="853" 
d="M636 600l-36 18l-383 -618l36 -18zM791 83q0 34 -23 55.5t-64 39.5q34 14 51.5 28.5t17.5 37.5q0 36 -33 61t-80 25t-79.5 -25t-32.5 -61q0 -22 16 -40.5t44 -34.5q-38 -14 -58.5 -33t-20.5 -53q0 -41 38.5 -70.5t92.5 -29.5q55 0 93 29.5t38 70.5zM717 253
q0 -19 -13.5 -34.5t-34.5 -25.5q-31 16 -48.5 29t-17.5 31t17 33t40 15q24 0 40.5 -15t16.5 -33zM735 75q0 -25 -20.5 -44t-54.5 -19q-33 0 -54 19t-21 44q0 27 16 45.5t41 30.5l9 -4q42 -18 63 -33t21 -39zM306 378q0 34 -24.5 63t-62.5 42l79 94v23h-215l-19 -103h23l5 17
q4 21 20.5 29.5t41.5 8.5h87l-99 -104q-9 -9 -9 -18q0 -18 18 -18q15 0 24 16q11 18 16 23q26 -5 41.5 -25.5t15.5 -47.5q0 -32 -18 -55t-52 -23q-28 0 -42 10.5t-26 28.5t-21 18q-20 0 -20 -19q0 -22 30.5 -45t78.5 -23q55 0 91.5 32t36.5 76z" />
    <glyph glyph-name="L" unicode="L" horiz-adv-x="853" 
d="M313 385q0 48 -35 81.5t-92 33.5q-16 0 -33 -8t-26 -18l7 78h154l10 48h-195l-18 -188h33q7 25 26.5 40.5t41.5 15.5q33 0 51 -24t18 -59q0 -34 -20.5 -60t-54.5 -26q-28 0 -41 10.5t-23 28.5q-9 19 -19 19q-22 0 -22 -20q0 -23 28.5 -45t76.5 -22q55 0 94 34t39 81z
M636 600l-36 18l-383 -618l36 -18zM791 83q0 34 -23 55.5t-64 39.5q34 14 51.5 28.5t17.5 37.5q0 36 -33 61t-80 25t-79.5 -25t-32.5 -61q0 -22 16 -40.5t44 -34.5q-38 -14 -58.5 -33t-20.5 -53q0 -41 38.5 -70.5t92.5 -29.5q55 0 93 29.5t38 70.5zM717 253
q0 -19 -13.5 -34.5t-34.5 -25.5q-31 16 -48.5 29t-17.5 31t17 33t40 15q24 0 40.5 -15t16.5 -33zM735 75q0 -25 -20.5 -44t-54.5 -19q-33 0 -54 19t-21 44q0 27 16 45.5t41 30.5l9 -4q42 -18 63 -33t21 -39z" />
    <glyph glyph-name="M" unicode="M" horiz-adv-x="853" 
d="M342 577v23h-244l-19 -103h24l4 17q5 21 21.5 29.5t40.5 8.5h129l-149 -234q-9 -14 -9 -26q0 -10 5.5 -16t12.5 -9q1 0 5 -1h5q11 0 18.5 8t16.5 26zM628 600l-36 18l-384 -618l36 -18zM791 83q0 34 -23 55.5t-64 39.5q34 14 51.5 28.5t17.5 37.5q0 36 -33 61t-80 25
t-79.5 -25t-32.5 -61q0 -22 16 -40.5t44 -34.5q-38 -14 -58.5 -33t-20.5 -53q0 -41 38.5 -70.5t92.5 -29.5q55 0 93 29.5t38 70.5zM717 253q0 -19 -13.5 -34.5t-34.5 -25.5q-31 16 -48.5 29t-17.5 31t17 33t40 15q24 0 40.5 -15t16.5 -33zM735 75q0 -25 -20.5 -44t-54.5 -19
q-33 0 -54 19t-21 44q0 27 16 45.5t41 30.5l9 -4q42 -18 63 -33t21 -39z" />
    <glyph glyph-name="N" unicode="N" horiz-adv-x="853" 
d="M628 600l-36 18l-384 -618l36 -18zM781 92q0 34 -24 62.5t-63 41.5l79 94v23h-215l-19 -103h23l5 18q4 21 20.5 29t41.5 8h87l-99 -104q-8 -9 -8 -18q0 -18 17 -18q14 0 24 17q12 18 16 22q26 -4 41.5 -25t15.5 -47q0 -32 -18 -55.5t-52 -23.5q-28 0 -42 10.5t-26 28.5
t-21 18q-20 0 -20 -18q0 -23 30.5 -46t78.5 -23q55 0 91.5 32t36.5 77zM270 287v21q-36 0 -46.5 14.5t-10.5 66.5v232l-126 -26v-21q42 0 55.5 -13.5t13.5 -61.5v-110q0 -52 -10 -66.5t-48 -14.5v-21h172z" />
    <glyph glyph-name="O" unicode="O" horiz-adv-x="853" 
d="M636 600l-36 18l-383 -618l36 -18zM789 92q0 33 -24 62t-62 42l79 94v23h-216l-18 -103h22l5 18q5 21 21 29t42 8h86l-99 -104q-8 -9 -8 -18q0 -18 18 -18q14 0 23 17q12 18 16 22q26 -4 42 -25t16 -47q0 -32 -18 -55.5t-52 -23.5q-28 0 -42 10.5t-26 28.5t-21 18
q-20 0 -20 -18q0 -23 30.5 -46t78.5 -23q54 0 90.5 32t36.5 77zM314 335h-159l89 79q27 23 43.5 47.5t16.5 56.5q0 44 -36.5 71.5t-86.5 27.5q-52 0 -84 -28t-32 -66q0 -45 42 -74l26 25q-16 24 -16 46q0 26 19 42.5t43 16.5q32 0 50.5 -17.5t18.5 -46.5q0 -28 -9.5 -46.5
t-34.5 -40.5l-132 -119v-22h233z" />
    <glyph glyph-name="P" unicode="P" horiz-adv-x="683" 
d="M444 383q0 -33 -18.5 -55.5t-52.5 -22.5h-62v157h62q34 0 52.5 -22.5t18.5 -56.5zM374 273q62 0 99 31.5t37 78.5q0 49 -37 80.5t-99 31.5h-194v-18q45 0 58.5 -19t13.5 -86v-144q0 -67 -13.5 -86t-58.5 -19v-18h202v18q-45 0 -58 19t-13 86v45h63zM342 617
q-65 0 -122.5 -24.5t-101.5 -68.5t-68.5 -101.5t-24.5 -122.5t24.5 -122.5t68.5 -101.5t101.5 -68.5t122.5 -24.5t122.5 24.5t101 68.5t68 101.5t24.5 122.5t-24.5 123t-68 101.5t-101 68t-122.5 24.5zM342 585q58 0 110 -22t91.5 -61.5t61.5 -91.5t22 -110t-22 -110
t-61.5 -91.5t-91.5 -61.5t-110 -22t-110 22t-91.5 61.5t-61.5 91.5t-22 110t22 110.5t61 91.5t91.5 61t110.5 22z" />
    <glyph glyph-name="Q" unicode="Q" horiz-adv-x="583" 
d="M578 344q-10 19 -34 19q-15 0 -25 -10l-51 -59l-17 84q-3 12 -13 19t-22 7q-10 0 -19 -5q-19 -10 -19 -34q0 -14 9 -23l66 -57l-79 -16q-11 -3 -18 -13.5t-7 -23.5q0 -10 4 -18q11 -18 34 -18q16 0 25 10l51 57l20 10l74 16q12 3 19 13.5t7 23.5q0 10 -5 18zM365 316
l-23 73v22l23 72q0 2 1 5v4q0 15 -11 26t-27 11q-15 0 -26 -11t-11 -26v-4q1 -3 1 -5l25 -74l-82 28q-1 0 -4 1h-4q-15 0 -26.5 -11.5t-11.5 -26.5t11.5 -26.5t26.5 -11.5h4q3 1 4 1l82 28l-25 -75q0 -2 -1 -5v-4q0 -15 11 -26t26 -11q16 0 27 11.5t11 25.5v4q-1 3 -1 5z
M542 34q5 8 5 19q0 13 -7.5 23t-18.5 13l-78 15l66 58q10 9 10 24q0 23 -19 33q-8 5 -19 5q-12 0 -22.5 -7t-13.5 -19l-17 -85l-52 60q-9 10 -24 10q-25 0 -35 -19q-5 -8 -5 -18q0 -13 7.5 -23.5t18.5 -13.5l75 -16l20 -11l50 -56q10 -10 25 -10q23 0 34 18zM268 276
q4 8 4 18q0 13 -7 24t-19 14l-75 16l-19 11l-51 55q-10 11 -26 11q-22 0 -32 -18q-5 -9 -5 -20q0 -13 7 -23t18 -13l78 -14l-66 -59q-9 -9 -9 -22q0 -23 19 -35q9 -5 19 -5q12 0 22 7t13 19l18 86l51 -60q9 -10 25 -10q24 0 35 18zM396 40q0 15 -11.5 26.5t-26.5 11.5h-4
q-3 -1 -4 -1l-82 -28l25 75q0 2 1 5v4q0 15 -11 26t-26 11t-26.5 -11t-11.5 -26v-4q1 -3 1 -5l23 -73v-22l-23 -72q0 -2 -1 -5v-4q0 -15 11.5 -26t26.5 -11t26 11t11 26v4q-1 3 -1 5l-25 74l82 -28q1 0 4 -1h4q15 0 26.5 11.5t11.5 26.5zM231 226q-11 19 -34 19
q-15 0 -24 -10l-52 -57l-19 -10l-74 -17q-12 -3 -19.5 -13t-7.5 -23q0 -10 5 -18q11 -19 34 -19q16 0 25 10l51 59l17 -85q3 -12 13.5 -19t22.5 -7q11 0 19 5q19 12 19 35q0 13 -9 22l-66 58l78 16q12 3 19 13t7 23q0 10 -5 18z" />
    <glyph glyph-name="R" unicode="R" horiz-adv-x="683" 
d="M342 617q-65 0 -122.5 -24.5t-101.5 -68.5t-68.5 -101.5t-24.5 -122.5t24.5 -122.5t68.5 -101.5t101.5 -68.5t122.5 -24.5t122.5 24.5t101 68.5t68 101.5t24.5 122.5t-24.5 123t-68 101.5t-101 68t-122.5 24.5zM428 383q0 -34 -19.5 -56t-55.5 -22h-59v157h59
q36 0 55.5 -22.5t19.5 -56.5zM550 105q-40 -42 -94 -66t-114 -24q-58 0 -110 22t-91.5 61.5t-61.5 91.5t-22 110t22 110.5t61 91.5t91.5 61t110.5 22t110 -22t91.5 -61.5t61.5 -91.5t22 -110q0 -49 -16 -94t-46 -83q-28 0 -61 24.5t-63 60.5l-57 66q50 7 79.5 37t29.5 72
q0 49 -37 80.5t-98 31.5h-195v-18q45 0 58.5 -19t13.5 -86v-144q0 -67 -13.5 -86t-58.5 -19v-18h202v18q-45 0 -58 19t-13 86v45h31l125 -168h100z" />
    <glyph glyph-name="S" unicode="S" horiz-adv-x="583" 
d="M584 317q-10 19 -34 19q-15 0 -24 -9l-68 -79l-20 100q-3 12 -13 19t-23 7q-10 0 -19 -5q-19 -10 -19 -34q0 -15 10 -24l81 -71l108 23q12 2 19 12t7 23q0 11 -5 19zM390 475q2 5 2 10q0 14 -12 25t-27 11t-26 -11t-11 -25v-5q1 -3 1 -5l33 -97l-96 32q-2 0 -5 1h-4
q-14 0 -25.5 -11t-11.5 -27q0 -15 11 -26.5t25 -11.5q5 0 10 2l101 34zM523 15q4 8 4 17q0 13 -7 24t-19 14l-101 19l76 67q10 10 10 25q0 23 -19 33q-8 5 -19 5q-13 0 -23 -7t-12 -19l-21 -105l72 -82q9 -10 24 -10q23 0 35 19zM192 350l-73 83q-9 10 -23 10q-23 0 -35 -20
q-5 -8 -5 -18q0 -13 7.5 -23t19.5 -13l100 -20l-76 -66q-9 -9 -9 -23q0 -23 19 -35q9 -5 19 -5q13 0 22.5 7.5t11.5 19.5zM375 65q0 15 -11 26.5t-26 11.5h-4q-3 -1 -5 -1l-101 -34l-35 -105q0 -2 -1 -4v-5q0 -14 11.5 -25.5t26.5 -11.5t26.5 11.5t11.5 26.5v4q-1 3 -1 4
l-34 98l96 -33q1 0 4 -1h4q15 0 26.5 11.5t11.5 26.5zM208 128l-80 70l-107 -21q-12 -3 -19.5 -13t-7.5 -23q0 -10 5 -19q11 -19 35 -19q15 0 24 10l67 78l20 -99q3 -12 13.5 -19.5t22.5 -7.5q11 0 19 5q19 12 19 34q0 15 -11 24z" />
    <glyph glyph-name="T" unicode="T" horiz-adv-x="583" 
d="M526 311q0 15 -11.5 26.5t-26.5 11.5h-4q-3 -1 -4 -1l-97 -34l32 96q0 2 1 5v4q0 15 -11 26t-27 11q-15 0 -26.5 -11t-11.5 -25q0 -5 2 -10l34 -101l104 -35q2 0 5 -1h4q15 0 26 11.5t11 26.5zM431 220q0 15 -11.5 26.5t-26.5 11.5h-4q-3 -1 -4 -1l-81 -28l24 74q0 2 1 5
v4q0 15 -11 26t-26 11t-26.5 -11t-11.5 -26v-4q1 -3 1 -5l25 -74l-82 28q-1 0 -4 1h-4q-15 0 -26 -11.5t-11 -26.5t11 -26.5t26 -11.5h4q3 1 4 1l82 28l-25 -75q0 -2 -1 -5v-4q0 -14 11.5 -25.5t26.5 -11.5t26 11t11 26v4q-1 3 -1 5l-24 75l81 -28q1 0 4 -1h4
q15 0 26.5 11.5t11.5 26.5zM526 125q0 15 -11 26.5t-26 11.5h-4q-3 -1 -5 -1l-101 -34l-35 -105q0 -2 -1 -4v-5q0 -14 11.5 -25.5t26.5 -11.5t26.5 11.5t11.5 26.5v4q-1 3 -1 4l-34 98l96 -33q1 0 4 -1h4q15 0 26.5 11.5t11.5 26.5zM229 410q2 5 2 10q0 14 -11.5 25
t-26.5 11t-26.5 -11t-11.5 -26v-4q1 -3 1 -5l33 -97l-96 32q-2 0 -5 1h-4q-14 0 -25 -11.5t-11 -26.5t10.5 -26.5t24.5 -11.5q5 0 10 2l101 34zM232 23l-34 101l-105 35q-5 2 -10 2q-14 0 -24.5 -11.5t-10.5 -26.5t11 -26.5t25 -11.5h4q3 1 5 1l98 33l-33 -96q0 -1 -1 -4v-4
q0 -15 11.5 -26.5t26.5 -11.5t26.5 11.5t11.5 25.5v5q-1 2 -1 4z" />
    <glyph glyph-name="U" unicode="U" horiz-adv-x="667" 
d="M345 503h-22l-22 -107l22 -163l-73 24q-1 0 -4 1h-4q-15 0 -26.5 -11.5t-11.5 -26.5t11.5 -26.5t26.5 -11.5h4q3 1 4 1l74 25l-27 -81q0 -2 -1 -5v-4q0 -15 11 -26t26 -11q16 0 27 11t11 26v4q-1 3 -1 5l-27 81l75 -25q1 0 4 -1h4q14 0 25.5 11.5t11.5 26.5t-11.5 26.5
t-25.5 11.5h-4q-3 -1 -4 -1l-74 -24l22 163zM525 452l-191 183l-191 -183l16 -25l164 109h22l163 -109z" />
    <glyph glyph-name="V" unicode="V" horiz-adv-x="625" 
d="M188 298h241v-160q0 -40 -3 -62t-11 -34t-23 -16.5t-42 -4.5v-21h229v21q-26 0 -41 4.5t-23 16.5t-11.5 34.5t-3.5 61.5v160h101v35h-101v96q0 84 18 119.5t57 35.5q22 0 32 -10.5t18 -31.5q6 -18 13 -26.5t22 -8.5q33 0 33 34q0 28 -27 52t-73 24q-32 0 -61 -10.5
t-52.5 -33.5t-37 -59t-13.5 -85v-96h-241v55q0 84 18 119.5t57 35.5q22 0 31.5 -11t17.5 -32q7 -18 14 -26.5t22 -8.5q33 0 33 34q0 28 -27 52t-73 24q-32 0 -61.5 -10.5t-52.5 -33t-36.5 -58.5t-13.5 -85v-55h-82v-35h82v-160q0 -39 -3.5 -61.5t-11.5 -34.5t-23 -16.5
t-41 -4.5v-21h229v21q-27 0 -41.5 4.5t-23 16.5t-11.5 34t-3 62v160z" />
    <glyph glyph-name="W" unicode="W" horiz-adv-x="598" 
d="M35 298h82v-160q0 -39 -3.5 -61.5t-11.5 -34.5t-23 -16.5t-41 -4.5v-21h229v21q-27 0 -41.5 4.5t-23 16.5t-11.5 34t-3 62v160h162q27 0 42 -4.5t23 -16.5t11 -34t3 -62v-43q0 -40 -3 -62t-11 -34t-23 -16.5t-42 -4.5v-21h229v21q-26 0 -41 4.5t-23 16.5t-11.5 34.5
t-3.5 61.5v195h-312v96q0 46 7.5 76.5t21 47.5t30.5 24t39 7q33 0 46.5 -15t22.5 -42q7 -21 14.5 -31t24.5 -10q14 0 25 9.5t11 24.5q0 34 -37.5 65.5t-95.5 31.5q-35 0 -67 -10.5t-57.5 -33.5t-40.5 -59t-15 -85v-96h-82v-35z" />
    <glyph glyph-name="X" unicode="X" horiz-adv-x="580" 
d="M340 572q41 0 56 -23.5t15 -90.5v-320q0 -39 -3.5 -61.5t-11.5 -34.5t-23 -16.5t-41 -4.5v-21h229v21q-27 0 -41.5 4.5t-23 16.5t-11.5 34t-3 62v462h-184q-87 0 -134 -45t-47 -142v-80h-82v-35h82v-160q0 -39 -3.5 -61.5t-11.5 -34.5t-23 -16.5t-41 -4.5v-21h229v21
q-27 0 -41.5 4.5t-23 16.5t-11.5 34t-3 62v160h100v35h-100v80q0 52 8.5 83t25.5 47.5t45 22.5t73 6z" />
    <glyph glyph-name="Y" unicode="Y" horiz-adv-x="911" 
d="M188 298h241v-160q0 -40 -3 -62t-11 -34t-23 -16.5t-42 -4.5v-21h229v21q-26 0 -41 4.5t-23 16.5t-11.5 34.5t-3.5 61.5v160h163q26 0 41 -4.5t23 -16.5t11.5 -34.5t3.5 -61.5v-43q0 -39 -3.5 -61.5t-11.5 -34.5t-23 -16.5t-41 -4.5v-21h229v21q-27 0 -41.5 4.5t-23 16.5
t-11.5 34t-3 62v195h-313v96q0 46 7.5 76.5t21 47.5t30.5 24t39 7q33 0 47 -15t23 -43q8 -20 15.5 -30t23.5 -10q14 0 25 9.5t11 24.5q0 34 -37.5 65.5t-96.5 31.5q-35 0 -67 -10.5t-57.5 -33.5t-40.5 -59t-15 -85v-96h-241v55q0 84 18 119.5t57 35.5q22 0 31.5 -11
t17.5 -32q7 -18 14 -26.5t22 -8.5q33 0 33 34q0 28 -27 52t-73 24q-32 0 -61.5 -10.5t-52.5 -33t-36.5 -58.5t-13.5 -85v-55h-82v-35h82v-160q0 -39 -3.5 -61.5t-11.5 -34.5t-23 -16.5t-41 -4.5v-21h229v21q-27 0 -41.5 4.5t-23 16.5t-11.5 34t-3 62v160z" />
    <glyph glyph-name="Z" unicode="Z" horiz-adv-x="893" 
d="M188 298h241v-160q0 -40 -3 -62t-11 -34t-23 -16.5t-42 -4.5v-21h229v21q-26 0 -41 4.5t-23 16.5t-11.5 34.5t-3.5 61.5v160h101v35h-101v80q0 52 8.5 83t26 47.5t45.5 22.5t73 6q40 0 55 -23.5t15 -90.5v-320q0 -40 -3 -62t-11 -34t-23 -16.5t-42 -4.5v-21h229v21
q-26 0 -41 4.5t-23 16.5t-11.5 34.5t-3.5 61.5v462h-184q-86 0 -133.5 -45t-47.5 -142v-80h-241v55q0 84 18 119.5t57 35.5q22 0 31.5 -11t17.5 -32q7 -18 14 -26.5t22 -8.5q33 0 33 34q0 28 -27 52t-73 24q-32 0 -61.5 -10.5t-52.5 -33t-36.5 -58.5t-13.5 -85v-55h-82v-35
h82v-160q0 -39 -3.5 -61.5t-11.5 -34.5t-23 -16.5t-41 -4.5v-21h229v21q-27 0 -41.5 4.5t-23 16.5t-11.5 34t-3 62v160z" />
    <glyph glyph-name="bracketleft" unicode="[" horiz-adv-x="358" 
d="M319 -88v32h-137v702h137v32h-202v-766h202z" />
    <glyph glyph-name="backslash" unicode="\" horiz-adv-x="348" 
d="M383 0l-384 618l-36 -18l384 -618z" />
    <glyph glyph-name="bracketright" unicode="]" horiz-adv-x="358" 
d="M242 -88v766h-203v-32h138v-702h-138v-32h203z" />
    <glyph glyph-name="asciicircum" unicode="^" 
d="M291 88q0 42 -36.5 73t-85.5 31q-16 0 -33.5 -5.5t-30.5 -14.5q6 53 25.5 89.5t53.5 36.5q17 0 27.5 -6t21.5 -18q13 -12 20 -12t13 5t6 11q0 18 -26 35t-63 17q-32 0 -57 -16.5t-42.5 -45t-26.5 -63t-9 -69.5q0 -45 12.5 -75.5t32.5 -47.5t41 -23.5t41 -6.5q48 0 82 31
t34 74zM233 88q0 -29 -15 -52t-43 -23q-29 0 -50 30.5t-22 82.5q7 16 25.5 26.5t40.5 10.5q29 0 46.5 -24t17.5 -51z" />
    <glyph glyph-name="underscore" unicode="_" horiz-adv-x="358" 
d="M359 -44v44h-360v-44h360z" />
    <glyph glyph-name="grave" unicode="`" horiz-adv-x="404" 
d="M186 489l-93 88q-14 12 -23.5 17.5t-21.5 5.5q-13 0 -20.5 -9.5t-7.5 -19.5t7.5 -18t15.5 -12l138 -58z" />
    <glyph glyph-name="a" unicode="a" horiz-adv-x="514" 
d="M158 143h164l20 -46q13 -31 13 -46q0 -17 -15.5 -23.5t-51.5 -6.5v-21h224v21q-21 0 -33.5 3t-22.5 12t-19.5 25.5t-22.5 46.5l-147 342h-14l-147 -342q-13 -31 -22 -47t-19 -25t-24 -12t-38 -3v-21h189v21q-38 0 -53.5 6t-15.5 21q0 14 15 49zM306 180h-132l66 153z" />
    <glyph glyph-name="b" unicode="b" horiz-adv-x="490" 
d="M359 122q0 -37 -21 -61t-62 -24h-19q-40 0 -50.5 13.5t-10.5 62.5v95h80q41 0 62 -24t21 -62zM323 321q0 -31 -18 -52t-52 -21h-57v149h57q34 0 52 -22t18 -54zM46 0h112h119q75 0 117 34.5t42 88.5q0 38 -20 68t-58 46q43 35 43 86q0 48 -38 79t-106 31h-99h-112v-20
q27 0 42 -4.5t23 -16t11 -33.5t3 -62v-160q0 -40 -3 -62t-11 -34t-23 -16.5t-42 -4.5v-20z" />
    <glyph glyph-name="c" unicode="c" horiz-adv-x="517" 
d="M452 0v174h-20q-14 -71 -53 -111.5t-96 -40.5q-40 0 -68 17.5t-45 46.5t-24.5 63t-7.5 68t7.5 68t24 63t45 46.5t68.5 17.5q57 0 96 -40.5t53 -111.5h20v173h-19q-4 -15 -8.5 -29.5t-9.5 -19.5q-22 29 -59 47.5t-73 18.5q-46 0 -87 -18t-72.5 -50.5t-49 -75t-17.5 -89.5
t17.5 -90t48.5 -75.5t72.5 -50.5t87.5 -18q36 0 72.5 19t59.5 47q5 -5 10 -19t8 -30h19z" />
    <glyph glyph-name="d" unicode="d" horiz-adv-x="558" 
d="M419 217q0 -34 -6.5 -65t-24 -57t-49 -42t-78.5 -16h-8q-37 0 -47 13.5t-10 62.5v284h65q47 0 78.5 -16t49 -42.5t24 -57t6.5 -64.5zM46 0h212q121 0 186 64q29 29 43.5 68t14.5 85q0 45 -14.5 84.5t-44.5 69t-76.5 46t-108.5 16.5h-212v-20q27 0 42 -4.5t23 -16
t11 -33.5t3 -62v-160q0 -40 -3 -62t-11 -34t-23 -16.5t-42 -4.5v-20z" />
    <glyph glyph-name="e" unicode="e" horiz-adv-x="475" 
d="M287 37h-12q-27 0 -42 4.5t-23 16t-11 33.5t-3 62v58h6q39 0 60 -3t31.5 -11.5t13.5 -23t3 -41.5h20v195h-20q0 -28 -3 -42.5t-13.5 -22.5t-31 -11t-60.5 -3h-6v149h67q64 0 85 -13.5t30 -50.5l5 -20h21l-8 120h-129h-221v-20q27 0 42 -4.5t23 -16t11 -33.5t3 -62v-160
q0 -40 -3 -62t-11 -34t-23 -16.5t-42 -4.5v-20h374l8 121h-20l-5 -20q-10 -38 -30.5 -51t-85.5 -13z" />
    <glyph glyph-name="f" unicode="f" horiz-adv-x="435" 
d="M196 137v74h6q39 0 60 -3t31.5 -11.5t13.5 -23t3 -41.5h20v195h-20q0 -28 -3 -42.5t-13.5 -22.5t-31 -11t-60.5 -3h-6v149h78q65 0 85.5 -13t30.5 -51l5 -20h21l-8 120h-130h-232v-20q27 0 42 -4.5t23 -16t11 -33.5t3 -62v-160q0 -40 -3 -62t-11 -34t-23 -16.5t-42 -4.5
v-20h229v20q-27 0 -41.5 4.5t-23 16.5t-11.5 34t-3 62z" />
    <glyph glyph-name="g" unicode="g" horiz-adv-x="558" 
d="M466 21v30q0 40 3 62t11.5 34t23 16.5t41.5 4.5v20h-221v-20q38 0 62 -16t24 -45q0 -19 -12 -35t-31.5 -27t-42 -17t-41.5 -6q-40 0 -68.5 17.5t-46 46.5t-25 63t-7.5 68t7.5 68t25 63t46 46.5t68.5 17.5q57 0 96 -40.5t53 -111.5h20v173h-19q-4 -15 -8.5 -29.5
t-9.5 -19.5q-22 29 -59 47.5t-73 18.5q-46 0 -87 -18t-72.5 -50.5t-49 -75t-17.5 -89.5t17.5 -90t48.5 -75.5t72.5 -50.5t87.5 -18q28 0 88 18q63 20 95 20z" />
    <glyph glyph-name="h" unicode="h" horiz-adv-x="620" 
d="M196 248v49q0 40 3 62t11.5 33.5t23 16t41.5 4.5v20h-229v-20q27 0 42 -4.5t23 -16t11 -33.5t3 -62v-160q0 -40 -3 -62t-11 -34t-23 -16.5t-42 -4.5v-20h229v20q-27 0 -41.5 4.5t-23 16.5t-11.5 34t-3 62v74h227v-74q0 -40 -3 -62t-11 -34t-23 -16.5t-42 -4.5v-20h229v20
q-26 0 -41 4.5t-23 16.5t-11.5 34.5t-3.5 61.5v160q0 39 3.5 61.5t11.5 34t23 16t41 4.5v20h-229v-20q27 0 42 -4.5t23 -16t11 -33.5t3 -62v-49h-227z" />
    <glyph glyph-name="i" unicode="i" horiz-adv-x="322" 
d="M275 0v20q-27 0 -41.5 4.5t-23 16.5t-11.5 34t-3 62v160q0 40 3 62t11.5 33.5t23 16t41.5 4.5v20h-229v-20q27 0 42 -4.5t23 -16t11 -33.5t3 -62v-160q0 -40 -3 -62t-11 -34t-23 -16.5t-42 -4.5v-20h229z" />
    <glyph glyph-name="j" unicode="j" horiz-adv-x="322" 
d="M125 297v-271q0 -88 -19 -122t-52 -34q-25 0 -35.5 11t-19.5 32q-7 17 -15 26t-25 9q-27 -2 -27 -28q0 -29 32 -56t85 -27q62 0 104.5 47.5t42.5 141.5v271q0 40 3 62t11.5 33.5t23 16t41.5 4.5v20h-229v-20q27 0 42 -4.5t23 -16t11 -33.5t3 -62z" />
    <glyph glyph-name="k" unicode="k" horiz-adv-x="571" 
d="M222 210l121 -113q43 -41 43 -59q0 -17 -45 -17v-21h235v21q-13 0 -26 3.5t-28 12.5t-36.5 26t-53.5 45l-163 143l86 74q32 28 54 44.5t40 26t34 13.5t35 4v20h-188v-20q42 0 42 -14q0 -16 -54 -62l-122 -104v64q0 40 3 62t11.5 33.5t23 16t41.5 4.5v20h-229v-20
q27 0 42 -4.5t23 -16t11 -33.5t3 -62v-160q0 -40 -3 -62t-11 -34t-23 -16.5t-42 -4.5v-20h229v20q-27 0 -41.5 4.5t-23 16.5t-11.5 34t-3 62v51z" />
    <glyph glyph-name="l" unicode="l" horiz-adv-x="443" 
d="M125 297v-160q0 -40 -3 -62t-11 -34t-23 -16.5t-42 -4.5v-20h399l7 121h-21l-5 -20q-10 -38 -30.5 -51t-85.5 -13h-35q-27 0 -42 4.5t-23 16t-11 33.5t-3 62v144q0 40 3 62t11.5 33.5t23 16t41.5 4.5v20h-229v-20q27 0 42 -4.5t23 -16t11 -33.5t3 -62z" />
    <glyph glyph-name="m" unicode="m" horiz-adv-x="678" 
d="M162 337l156 -354h14l151 341v-187q0 -40 -3 -62t-11 -34t-23 -16.5t-42 -4.5v-20h229v20q-27 0 -42 4.5t-23 16.5t-11.5 34.5t-3.5 61.5v160q0 39 3.5 61.5t11.5 34t23 16t42 4.5v20h-140l-148 -334l-149 334h-150v-20q27 0 42 -4.5t23 -16t11 -33.5t3 -62v-160
q0 -40 -3 -62t-11 -34t-23 -16.5t-42 -4.5v-20h195v20q-27 0 -41.5 4.5t-23 16.5t-11.5 34t-3 62v200z" />
    <glyph glyph-name="n" unicode="n" horiz-adv-x="597" 
d="M125 297v-160q0 -40 -3 -62t-11 -34t-23 -16.5t-42 -4.5v-20h195v20q-27 0 -41.5 4.5t-23 16.5t-11.5 34t-3 62v196l291 -349h19v313q0 40 3 62t11.5 33.5t23 16t41.5 4.5v20h-195v-20q27 0 42 -4.5t23 -16t11 -33.5t3 -62v-180l-266 316h-123v-20q27 0 42 -4.5t23 -16
t11 -33.5t3 -62z" />
    <glyph glyph-name="o" unicode="o" horiz-adv-x="602" 
d="M545 217q0 47 -19 89.5t-53 75t-78.5 50.5t-93.5 18t-93.5 -18t-78.5 -50.5t-53 -75t-19 -89.5t19 -90t53 -75.5t78.5 -50.5t93.5 -18t93.5 18t78.5 50.5t53 75.5t19 90zM463 217q0 -35 -9 -69t-28.5 -62.5t-51 -46t-73.5 -17.5t-73.5 17.5t-51 46t-28.5 62.5t-9 69t9 69
t28.5 62.5t51 46t73.5 17.5t73.5 -17.5t51 -46t28.5 -62.5t9 -69z" />
    <glyph glyph-name="p" unicode="p" horiz-adv-x="433" 
d="M335 309q0 -37 -21 -61.5t-61 -24.5h-57v174h57q40 0 61 -25t21 -63zM196 137v49h57q75 0 117.5 34.5t42.5 88.5q0 55 -42.5 89.5t-117.5 34.5h-207v-20q27 0 42 -4.5t23 -16t11 -33.5t3 -62v-160q0 -40 -3 -62t-11 -34t-23 -16.5t-42 -4.5v-20h229v20q-27 0 -41.5 4.5
t-23 16.5t-11.5 34t-3 62z" />
    <glyph glyph-name="q" unicode="q" horiz-adv-x="602" 
d="M637 -68l-16 8q-37 -73 -129 -73q-25 0 -49 9.5t-58 28.5q-40 22 -69.5 33.5t-64.5 11.5q-3 0 -9 -1h-9q15 12 46.5 23t46.5 13q45 5 85 24.5t70 50.5t47 71t17 86q0 47 -19 89t-53 74.5t-78.5 50.5t-93.5 18t-93.5 -18t-78.5 -50.5t-53 -74.5t-19 -89q0 -84 54.5 -146.5
t141.5 -82.5q-23 -7 -44.5 -18.5t-39 -25.5t-27.5 -27t-10 -20q0 -30 31 -30q9 1 20 19q11 17 24 27t41 10q22 0 44 -13t57 -40q41 -32 70 -48.5t60 -16.5q61 0 100.5 37.5t57.5 89.5zM465 217q0 -34 -9.5 -68.5t-29.5 -63t-51.5 -46t-73.5 -17.5t-73.5 17.5t-51.5 46
t-29 63t-9 68.5t9 68t29 63t51.5 46.5t73.5 17.5t73.5 -17.5t51.5 -46t29.5 -63t9.5 -68.5z" />
    <glyph glyph-name="r" unicode="r" horiz-adv-x="485" 
d="M335 309q0 -37 -21 -61.5t-61 -24.5h-57v174h57q40 0 61 -25t21 -63zM292 188q55 7 88 41t33 80q0 55 -42.5 89.5t-117.5 34.5h-207v-20q27 0 42 -4.5t23 -16t11 -33.5t3 -62v-160q0 -40 -3 -62t-11 -34t-23 -16.5t-42 -4.5v-20h229v20q-27 0 -41.5 4.5t-23 16.5
t-11.5 34t-3 62v49h28l136 -186h128v20q-34 5 -67.5 29.5t-66.5 63.5z" />
    <glyph glyph-name="s" unicode="s" horiz-adv-x="398" 
d="M353 120q0 31 -20.5 62.5t-57.5 50.5l-67 35q-48 25 -67.5 42.5t-19.5 41.5q0 26 21 43t51 17q26 0 45 -11.5t31.5 -30.5t19.5 -41.5t9 -47.5h20v169h-20q-1 -11 -4.5 -16.5t-9.5 -11.5q-38 27 -96 27q-53 0 -89 -33t-36 -81q0 -39 24 -71.5t59 -50.5l68 -35
q39 -20 60.5 -39t21.5 -41q0 -36 -23.5 -56t-61.5 -20q-42 0 -69 19t-39.5 43.5t-16.5 43.5t-4 27h-20v-172h18q4 21 17 34q6 -2 18 -8q26 -12 48 -19t48 -7q59 0 100.5 38.5t41.5 98.5z" />
    <glyph glyph-name="t" unicode="t" horiz-adv-x="464" 
d="M198 394v-257q0 -39 -3.5 -61.5t-11.5 -34.5t-23 -16.5t-42 -4.5v-20h230v20q-27 0 -42 4.5t-23 16.5t-11.5 34.5t-3.5 61.5v257h52q65 0 85.5 -13t30.5 -51l5 -20h21l-7 123h-446l-6 -123h20l5 20q5 21 10.5 32t16.5 18t31 10.5t54 3.5h58z" />
    <glyph glyph-name="u" unicode="u" horiz-adv-x="573" 
d="M179 155v142q0 39 3.5 61.5t11.5 34t23 16t41 4.5v20h-229v-20q27 0 42 -4.5t23 -16t11 -33.5t3 -62v-135q0 -84 50.5 -131t127.5 -47t128 47t51 131v135q0 39 3.5 61.5t11.5 34t23 16t41 4.5v20h-204v-20q27 0 42 -4.5t23 -16t11 -33.5t3 -62v-142q0 -63 -33.5 -95
t-88.5 -32q-54 0 -86 32t-32 95z" />
    <glyph glyph-name="v" unicode="v" horiz-adv-x="514" 
d="M514 413v20h-188v-20q38 0 53.5 -6t15.5 -21q0 -14 -16 -49l-101 -236l-102 236q-13 31 -13 46q0 16 15.5 23t51.5 7v20h-224v-20q21 0 33.5 -3.5t22.5 -12t19 -25.5t22 -47l148 -342h13l148 342q14 32 22 48t18 25t24 12t38 3z" />
    <glyph glyph-name="w" unicode="w" horiz-adv-x="664" 
d="M358 433h-19l-101 -300l-67 204q-9 26 -9 41q0 20 15 27.5t48 7.5v20h-222v-20q44 0 62 -16.5t36 -71.5l111 -342h13l104 313l102 -313h13l114 342q10 29 18.5 45.5t19 26t26 13t39.5 3.5v20h-188v-20q34 0 48.5 -7.5t14.5 -25.5q0 -15 -10 -43l-69 -204z" />
    <glyph glyph-name="x" unicode="x" horiz-adv-x="513" 
d="M245 180l58 -83q27 -39 27 -55q0 -21 -52 -21v-21h224v21q-36 0 -60.5 18t-60.5 69l-91 130l70 87q40 51 64.5 69.5t60.5 18.5v20h-188v-20q55 0 55 -22q0 -17 -29 -54l-55 -69l-47 69q-26 38 -26 54q0 22 52 22v20h-224v-20q38 0 60.5 -17.5t59.5 -70.5l80 -113
l-82 -104q-40 -50 -65.5 -68.5t-59.5 -18.5v-21h188v21q-53 0 -53 24q0 17 27 52z" />
    <glyph glyph-name="y" unicode="y" horiz-adv-x="483" 
d="M283 179l99 146q35 51 58.5 69.5t63.5 18.5v20h-188v-20q56 0 56 -20q0 -16 -28 -56l-77 -115l-78 115q-25 36 -25 53q0 23 54 23v20h-222v-20q38 0 59.5 -17t57.5 -71l100 -147v-41q0 -39 -3.5 -61.5t-11.5 -34.5t-23 -16.5t-42 -4.5v-20h230v20q-27 0 -42 4.5t-23 16.5
t-11.5 34.5t-3.5 61.5v42z" />
    <glyph glyph-name="z" unicode="z" horiz-adv-x="445" 
d="M288 397l-235 -374v-23h342l7 121h-21l-5 -20q-10 -38 -30.5 -51t-85.5 -13h-115l240 383v13h-318l-7 -120h21l5 20q10 38 30.5 51t85.5 13h86z" />
    <glyph glyph-name="braceleft" unicode="{" horiz-adv-x="692" 
d="M195 46l8 -6q19 -13 30 -19l-49 -96h37l42 82q56 -24 115 -24q52 0 99.5 22t86.5 63q10 -7 20 -23.5t14 -33.5h20v220h-20q-21 -97 -77.5 -152.5t-138.5 -55.5q-54 0 -99 24l243 471q51 -54 72 -149h20v220h-20q-3 -17 -13 -33t-21 -24q-6 8 -21 20l47 91h-37l-36 -70
q-17 11 -40 22l25 48h-37l-18 -36q-38 10 -69 10q-62 0 -118 -24.5t-98.5 -68.5t-66.5 -102t-24 -122q0 -68 26 -127.5t72 -104.5l-73 -143h37zM203 133q-19 36 -29 80t-10 87q0 49 12 98t38 90t68.5 65.5t99.5 24.5q22 0 47 -5q-18 -35 -43.5 -84.5t-153.5 -299.5
q-17 -33 -29 -56zM460 563q22 -9 40 -23l-244 -475q-12 9 -29 30l-4 5z" />
    <glyph glyph-name="bar" unicode="|" horiz-adv-x="467" 
d="M268 138v479l-166 -34v-20q58 0 77 -19.5t19 -89.5v-316q0 -39 -3.5 -61.5t-11.5 -34.5t-23 -16.5t-42 -4.5v-21h230v21q-27 0 -42 4.5t-23 16.5t-11.5 34.5t-3.5 61.5z" />
    <glyph glyph-name="braceright" unicode="}" horiz-adv-x="1092" 
d="M301 299h-88v264h88q62 0 94.5 -37t32.5 -95t-32.5 -95t-94.5 -37zM339 263q83 9 130.5 55t47.5 113q0 73 -57 121t-158 48h-264v-21q33 0 51 -4.5t27.5 -16t13 -33.5t3.5 -62v-325q0 -40 -3.5 -62t-13 -34t-27.5 -16.5t-51 -4.5v-21h270v21q-33 0 -51 4.5t-27.5 16.5
t-13 34t-3.5 62v125h47l198 -263h165v21q-44 5 -92 39t-94 88zM963 167q0 -64 -29 -104t-85 -40q-34 0 -60.5 21.5t-40.5 58.5v129q14 35 40.5 56.5t60.5 21.5q56 0 85 -39.5t29 -103.5zM748 -113v156q23 -28 54 -44t68 -16q35 0 66.5 14t55.5 40t37.5 59.5t13.5 70.5
t-13.5 70.5t-37.5 59t-55.5 39.5t-66.5 14q-39 0 -69.5 -16.5t-53.5 -44.5q0 2 -4 16q-3 16 -6 28t-6 17l-133 -25v-21q26 0 41 -4.5t23.5 -16t11.5 -34t3 -61.5v-301q0 -39 -3 -61.5t-11.5 -34t-23.5 -16t-41 -4.5v-21h229v21q-27 0 -42 4.5t-23 16t-11 33.5t-3 62z" />
    <glyph glyph-name="asciitilde" unicode="~" horiz-adv-x="423" 
d="M298 258q-16 0 -34 9t-46 26q-30 18 -50 27.5t-38 9.5q-36 0 -61 -36t-25 -93h21q6 25 22.5 43.5t33.5 18.5q12 0 29 -8.5t46 -25.5q32 -20 52.5 -30t36.5 -10q42 0 67 35.5t25 96.5h-21q-8 -30 -22 -46.5t-36 -16.5z" />
    <glyph glyph-name="nbspace" unicode="&#xa0;" horiz-adv-x="233" 
 />
    <glyph glyph-name="exclamdown" unicode="&#xa1;" 
d="M253 0v22q-36 0 -46 14.5t-10 66.5v231l-127 -26v-20q42 0 55.5 -12.5t13.5 -62.5v-110q0 -52 -10 -66.5t-47 -14.5v-22h171z" />
    <glyph glyph-name="cent" unicode="&#xa2;" 
d="M296 194h-21l-4 -16q-8 -30 -19.5 -40.5t-33.5 -11.5v213h-24l-172 -229v-17h139q0 -45 -10.5 -58t-47.5 -13v-22h172v22q-35 0 -46 13t-11 58h72zM161 126h-89l89 118v-118z" />
    <glyph glyph-name="sterling" unicode="&#xa3;" 
d="M289 92q0 33 -24 62t-62 42l79 94v23h-216l-18 -103h22l5 18q5 21 21 29t42 8h86l-99 -104q-9 -9 -9 -18q0 -18 18 -18q15 0 24 17q12 18 16 22q26 -4 42 -25t16 -47q0 -32 -18 -55.5t-52 -23.5q-28 0 -42 10.5t-26 28.5t-21 18q-20 0 -20 -18q0 -23 30 -46t79 -23
q54 0 90.5 32t36.5 77z" />
    <glyph glyph-name="currency" unicode="&#xa4;" 
d="M289 335h-159l89 79q27 23 43.5 47.5t16.5 56.5q0 44 -36.5 71.5t-86.5 27.5q-52 0 -84 -28t-32 -66q0 -45 42 -74l26 25q-16 24 -16 46q0 26 19 42.5t43 16.5q32 0 50.5 -17.5t18.5 -46.5q0 -28 -9.5 -46.5t-34.5 -40.5l-132 -119v-22h233z" />
    <glyph glyph-name="yen" unicode="&#xa5;" horiz-adv-x="625" 
d="M353 234h122v44h-98l141 214q34 51 60.5 69t84.5 18v21h-234v-21q74 0 74 -29q0 -16 -20 -47l-146 -220l-144 220q-18 28 -18 44t17 24t55 8v21h-285v-21q52 0 82 -18.5t63 -68.5l138 -214h-122v-44h150v-46h-150v-44h150v-6q0 -40 -3.5 -62t-13 -34t-27.5 -16.5
t-51 -4.5v-21h270v21q-33 0 -51 4.5t-27.5 16.5t-13 34t-3.5 62v6h122v44h-122v46z" />
    <glyph glyph-name="brokenbar" unicode="&#xa6;" horiz-adv-x="211" 
d="M128 708h-45v-300h45v300zM128 300h-45v-300h45v300z" />
    <glyph glyph-name="section" unicode="&#xa7;" 
d="M291 88q0 42 -36.5 73t-85.5 31q-16 0 -33.5 -5.5t-30.5 -14.5q6 53 25.5 89.5t53.5 36.5q17 0 27.5 -6t21.5 -18q13 -12 20 -12t13 5t6 11q0 18 -26 35t-63 17q-32 0 -57 -16.5t-42.5 -45t-26.5 -63t-9 -69.5q0 -45 12.5 -75.5t32.5 -47.5t41 -23.5t41 -6.5q48 0 82 31
t34 74zM233 88q0 -29 -15 -52t-43 -23q-29 0 -50 30.5t-22 82.5q7 16 25.5 26.5t40.5 10.5q29 0 46.5 -24t17.5 -51z" />
    <glyph glyph-name="dieresis" unicode="&#xa8;" horiz-adv-x="310" 
d="M71 662q-16 0 -27.5 -11.5t-11.5 -27.5q0 -17 11.5 -28.5t27.5 -11.5t27.5 11.5t11.5 28.5q0 16 -11.5 27.5t-27.5 11.5zM237 662q-16 0 -27.5 -11.5t-11.5 -27.5q0 -17 11.5 -28.5t27.5 -11.5t27.5 12t11.5 28t-11.5 27.5t-27.5 11.5z" />
    <glyph glyph-name="copyright" unicode="&#xa9;" horiz-adv-x="683" 
d="M342 617q-65 0 -122.5 -24.5t-101.5 -68.5t-68.5 -101.5t-24.5 -122.5t24.5 -122.5t68.5 -101.5t101.5 -68.5t122.5 -24.5t122.5 24.5t101 68.5t68 101.5t24.5 122.5t-24.5 123t-68 101.5t-101 68t-122.5 24.5zM342 585q58 0 110 -22t91.5 -61.5t61.5 -91.5t22 -110
t-22 -110t-61.5 -91.5t-91.5 -61.5t-110 -22t-110 22t-91.5 61.5t-61.5 91.5t-22 110t22 110.5t61 91.5t91.5 61t110.5 22zM506 105v157h-18q-13 -64 -48 -101t-86 -37q-36 0 -62.5 16t-42.5 42t-23.5 56.5t-7.5 61.5q0 30 7.5 60.5t23.5 57t42.5 42.5t62.5 16
q51 0 86 -36.5t48 -100.5h18v156h-17q-2 -13 -7 -26t-9 -18q-21 26 -54 42.5t-65 16.5q-41 0 -78 -16.5t-65 -45.5t-44 -67.5t-16 -80.5q0 -43 16 -81.5t44 -67t65 -45t78 -16.5q32 0 65 16.5t54 42.5q4 -4 9 -17t7 -27h17z" />
    <glyph glyph-name="ordfeminine" unicode="&#xaa;" 
d="M288 178q0 45 -12.5 75t-32 46.5t-41.5 23.5t-41 7q-48 0 -82 -30.5t-34 -73.5t36.5 -73.5t85.5 -30.5q16 0 33.5 5.5t30.5 14.5q-6 -53 -25.5 -90t-53.5 -37q-17 0 -27.5 6.5t-21.5 17.5q-13 13 -20 13t-13 -5t-6 -12q0 -17 26 -34.5t63 -17.5q32 0 57.5 17t42.5 45.5
t26 63t9 69.5zM233 188q-7 -16 -25.5 -26.5t-40.5 -10.5q-29 0 -46.5 23.5t-17.5 51.5t15 51.5t43 23.5q29 0 50 -30.5t22 -82.5z" />
    <glyph glyph-name="guillemotleft" unicode="&#xab;" horiz-adv-x="667" 
d="M428 68l-233 200l233 200l-15 17l-330 -217l330 -218zM579 122l-174 146l174 146l-11 19l-275 -165l275 -166z" />
    <glyph glyph-name="logicalnot" unicode="&#xac;" horiz-adv-x="570" 
d="M459 295h-376v-44h332v-128h44v172z" />
    <glyph glyph-name="minus" unicode="&#xad;" horiz-adv-x="458" 
d="M375 208v44h-292v-44h292z" />
    <glyph glyph-name="minus" unicode="&#x2212;" horiz-adv-x="458" 
d="M375 208v44h-292v-44h292z" />
    <glyph glyph-name="registered" unicode="&#xae;" horiz-adv-x="683" 
d="M342 617q-65 0 -122.5 -24.5t-101.5 -68.5t-68.5 -101.5t-24.5 -122.5t24.5 -122.5t68.5 -101.5t101.5 -68.5t122.5 -24.5t122.5 24.5t101 68.5t68 101.5t24.5 122.5t-24.5 123t-68 101.5t-101 68t-122.5 24.5zM428 383q0 -34 -19.5 -56t-55.5 -22h-59v157h59
q36 0 55.5 -22.5t19.5 -56.5zM550 105q-40 -42 -94 -66t-114 -24q-58 0 -110 22t-91.5 61.5t-61.5 91.5t-22 110t22 110.5t61 91.5t91.5 61t110.5 22t110 -22t91.5 -61.5t61.5 -91.5t22 -110q0 -49 -16 -94t-46 -83q-28 0 -61 24.5t-63 60.5l-57 66q50 7 79.5 37t29.5 72
q0 49 -37 80.5t-98 31.5h-195v-18q45 0 58.5 -19t13.5 -86v-144q0 -67 -13.5 -86t-58.5 -19v-18h202v18q-45 0 -58 19t-13 86v45h31l125 -168h100z" />
    <glyph glyph-name="macron" unicode="&#xaf;" horiz-adv-x="258" 
d="M203 621v23h-181v-23h181z" />
    <glyph glyph-name="degree" unicode="&#xb0;" 
d="M294 370q0 34 -22 54.5t-62 39.5q29 13 48 31.5t19 42.5q0 35 -32 57t-77 22q-44 0 -76 -25.5t-32 -60.5q0 -23 16 -41t42 -34q-34 -14 -54.5 -35.5t-20.5 -55.5q0 -41 36.5 -68t88.5 -27q53 0 89.5 29t36.5 71zM222 539q0 -19 -13 -34t-32 -25q-29 14 -46 28t-17 31
q0 22 15.5 35.5t38.5 13.5t38.5 -15t15.5 -34zM239 362q0 -25 -19.5 -44.5t-51.5 -19.5q-31 0 -51 19.5t-20 44.5q0 27 15 45t39 31q4 -2 13 -6q38 -18 56.5 -32.5t18.5 -37.5z" />
    <glyph glyph-name="plusminus" unicode="&#xb1;" horiz-adv-x="458" 
d="M408 43h-358v-44h358v44zM251 268v140h-44v-140h-157v-44h157v-141h44v141h157v44h-157z" />
    <glyph glyph-name="twosuperior" unicode="&#xb2;" 
d="M289 335h-159l89 79q27 23 43.5 47.5t16.5 56.5q0 44 -36.5 71.5t-86.5 27.5q-52 0 -84 -28t-32 -66q0 -45 42 -74l26 25q-16 24 -16 46q0 26 19 42.5t43 16.5q32 0 50.5 -17.5t18.5 -46.5q0 -28 -9.5 -46.5t-34.5 -40.5l-132 -119v-22h233z" />
    <glyph glyph-name="threesuperior" unicode="&#xb3;" 
d="M289 378q0 34 -24 63t-62 42l79 94v23h-216l-18 -103h22l5 17q5 21 21.5 29.5t41.5 8.5h86l-99 -104q-9 -9 -9 -18q0 -18 18 -18q15 0 24 16q11 18 16 23q26 -5 42 -25.5t16 -47.5q0 -32 -18 -55t-52 -23q-28 0 -42 10.5t-26 28.5t-21 18q-20 0 -20 -19q0 -22 30 -45
t79 -23q54 0 90.5 32t36.5 76z" />
    <glyph glyph-name="acute" unicode="&#xb4;" horiz-adv-x="227" 
d="M173 643q0 10 -7.5 19.5t-20.5 9.5q-11 0 -19.5 -5t-23.5 -18l-1 -1l-93 -87l5 -7l137 59q8 4 15.5 12t7.5 18z" />
    <glyph glyph-name="mu" unicode="&#xb5;" horiz-adv-x="522" 
d="M169 -8q27 -9 53 -9q39 0 73 19.5t58 44.5q3 -16 8 -36.5t8 -27.5l134 25v21q-27 0 -42 4.5t-23 16.5t-11.5 34.5t-3.5 61.5v187h-150v-20q27 0 42 -4.5t23 -16.5t11.5 -34.5t3.5 -61.5v-66q0 -22 -10.5 -40.5t-27 -31.5t-33.5 -20t-29 -7q-46 0 -65 27.5t-19 79.5v195
h-150v-20q27 0 42 -4.5t23 -16.5t11 -34t3 -62v-245q0 -40 -3 -62t-11 -34t-23 -16.5t-42 -4.5v-21h229v21q-26 0 -41 4.5t-23 16.5t-11.5 34.5t-3.5 61.5v41z" />
    <glyph glyph-name="paragraph" unicode="&#xb6;" 
d="M300 290v23h-243l-19 -103h23l4 18q6 21 22 29t41 8h128l-148 -233q-9 -15 -9 -27q0 -19 18 -25q1 0 5 -1h4q11 0 18.5 8t16.5 26z" />
    <glyph glyph-name="periodcentered" unicode="&#xb7;" 
d="M288 464q0 45 -12.5 75.5t-32.5 47.5t-41 23.5t-41 6.5q-48 0 -82 -30.5t-34 -73.5t37 -74t85 -31q17 0 34 6t30 14q-6 -53 -25.5 -89.5t-53.5 -36.5q-17 0 -27.5 6.5t-21.5 17.5q-13 12 -20 12t-13 -4.5t-6 -11.5q0 -17 26 -34.5t63 -17.5q32 0 57.5 17t42.5 45t26 62.5
t9 69.5zM233 474q-7 -16 -25.5 -26t-40.5 -10q-29 0 -46.5 23.5t-17.5 51.5t15 51.5t43 23.5q29 0 50 -31t22 -83z" />
    <glyph glyph-name="periodcentered" unicode="&#x2219;" 
d="M288 464q0 45 -12.5 75.5t-32.5 47.5t-41 23.5t-41 6.5q-48 0 -82 -30.5t-34 -73.5t37 -74t85 -31q17 0 34 6t30 14q-6 -53 -25.5 -89.5t-53.5 -36.5q-17 0 -27.5 6.5t-21.5 17.5q-13 12 -20 12t-13 -4.5t-6 -11.5q0 -17 26 -34.5t63 -17.5q32 0 57.5 17t42.5 45t26 62.5
t9 69.5zM233 474q-7 -16 -25.5 -26t-40.5 -10q-29 0 -46.5 23.5t-17.5 51.5t15 51.5t43 23.5q29 0 50 -31t22 -83z" />
    <glyph glyph-name="cedilla" unicode="&#xb8;" horiz-adv-x="218" 
d="M199 -126q0 37 -26.5 57t-57.5 21l75 76h-45l-108 -107v-14q19 6 38 6q27 0 45 -10.5t18 -28.5q0 -17 -9 -30t-22 -21.5t-25 -13t-29 -10.5v0v-27q16 2 39.5 8t48 18t41.5 31.5t17 44.5z" />
    <glyph glyph-name="onesuperior" unicode="&#xb9;" 
d="M253 287v21q-36 0 -46 14.5t-10 66.5v232l-127 -26v-21q42 0 55.5 -13.5t13.5 -61.5v-110q0 -52 -10 -66.5t-47 -14.5v-21h171z" />
    <glyph glyph-name="ordmasculine" unicode="&#xba;" 
d="M294 157q0 35 -9.5 66.5t-27 55.5t-40.5 37.5t-49 13.5t-49 -13.5t-40 -37.5t-27 -55.5t-10 -66.5t9.5 -66.5t27 -56t40.5 -38t49 -13.5t49 13.5t40.5 38t27 56t9.5 66.5zM236 157q0 -61 -17.5 -102t-50.5 -41t-50 40.5t-17 102.5t17 102t50 40q34 0 51 -40.5t17 -101.5z
" />
    <glyph glyph-name="guillemotright" unicode="&#xbb;" horiz-adv-x="667" 
d="M583 268l-329 217l-15 -17l233 -200l-233 -200l15 -18zM373 268l-274 165l-11 -19l174 -146l-174 -146l11 -20z" />
    <glyph glyph-name="onequarter" unicode="&#xbc;" horiz-adv-x="853" 
d="M636 600l-36 18l-383 -618l36 -18zM779 194h-21l-4 -16q-8 -30 -19.5 -40.5t-32.5 -11.5v213h-24l-173 -229v-17h139q0 -45 -10.5 -58t-46.5 -13v-22h171v22q-35 0 -45.5 13t-10.5 58h71zM644 126h-89l89 118v-118zM270 287v21q-36 0 -46.5 14.5t-10.5 66.5v232l-126 -26
v-21q42 0 55.5 -13.5t13.5 -61.5v-110q0 -52 -10 -66.5t-48 -14.5v-21h172z" />
    <glyph glyph-name="onehalf" unicode="&#xbd;" horiz-adv-x="853" 
d="M636 600l-36 18l-383 -618l36 -18zM781 48h-159l89 80q27 24 43.5 48t16.5 55q0 45 -36 72t-87 27q-53 0 -85 -28t-32 -66q0 -44 42 -73l27 25q-16 24 -16 47q0 25 18 41.5t41 16.5q34 0 52.5 -17t18.5 -53q0 -26 -11.5 -46t-31.5 -36l-133 -118v-23h234zM270 287v21
q-36 0 -46.5 14.5t-10.5 66.5v232l-126 -26v-21q42 0 55.5 -13.5t13.5 -61.5v-110q0 -52 -10 -66.5t-48 -14.5v-21h172z" />
    <glyph glyph-name="threequarters" unicode="&#xbe;" horiz-adv-x="853" 
d="M636 600l-36 18l-383 -618l36 -18zM771 194h-21l-4 -16q-8 -30 -19.5 -40.5t-33.5 -11.5v213h-24l-172 -229v-17h139q0 -45 -10.5 -58t-47.5 -13v-22h172v22q-35 0 -46 13t-11 58h72zM636 126h-89l89 118v-118zM306 378q0 34 -24.5 63t-62.5 42l79 94v23h-215l-19 -103
h23l5 17q4 21 20.5 29.5t41.5 8.5h87l-99 -104q-9 -9 -9 -18q0 -18 18 -18q15 0 24 16q11 18 16 23q26 -5 41.5 -25.5t15.5 -47.5q0 -32 -18 -55t-52 -23q-28 0 -42 10.5t-26 28.5t-21 18q-20 0 -20 -19q0 -22 30.5 -45t78.5 -23q55 0 91.5 32t36.5 76z" />
    <glyph glyph-name="questiondown" unicode="&#xbf;" horiz-adv-x="504" 
d="M352 390q0 20 -13.5 34t-33.5 14t-34 -14t-14 -34t14 -34t34 -14t33.5 14.5t13.5 33.5zM457 -71q0 41 -23.5 67t-51.5 26q-18 0 -34.5 -11.5t-16.5 -33.5q0 -16 12 -27.5t28 -11.5q23 0 33 -7t10 -19q0 -25 -32 -46t-84 -21q-64 0 -109.5 34t-45.5 92q0 36 16 62t43 42
t59.5 23.5t66.5 7.5v164h-45v-94q-13 -1 -42 -7.5t-68 -26.5t-68 -59.5t-29 -100.5q0 -38 17.5 -70t47.5 -54t68.5 -33.5t79.5 -11.5q71 0 119.5 34t48.5 82z" />
    <glyph glyph-name="Agrave" unicode="&#xc0;" horiz-adv-x="617" 
d="M166 208h242l48 -111q10 -22 10 -36q0 -21 -21 -30.5t-67 -9.5v-21h277v21q-31 0 -48.5 3.5t-28.5 12t-19 23t-20 42.5l-3 6l-221 509h-13l-220 -509l-3 -6q-12 -28 -20 -42.5t-19 -23t-29 -12t-49 -3.5v-21h234v21q-46 0 -67 9.5t-21 30.5q0 14 10 36zM391 245h-209
l104 241zM338 681l-94 87q-14 13 -23 18.5t-21 5.5q-13 0 -20.5 -9.5t-7.5 -19.5t7.5 -18t15.5 -12l138 -59z" />
    <glyph glyph-name="Aacute" unicode="&#xc1;" 
d="M288 385q0 48 -34.5 81.5t-85.5 33.5q-19 0 -37.5 -8.5t-28.5 -18.5l7 79h154l10 48h-195l-18 -188h33q7 25 26.5 40.5t41.5 15.5q33 0 51 -24t18 -59q0 -34 -20.5 -60t-54.5 -26q-28 0 -41 10.5t-23 28.5q-11 19 -20 19q-21 0 -21 -20q0 -23 28.5 -45t76.5 -22
q55 0 94 34t39 81z" />
    <glyph glyph-name="Acircumflex" unicode="&#xc2;" horiz-adv-x="287" 
d="M273 368q0 21 -14 37.5t-46 16.5q-20 0 -40.5 -12.5t-34.5 -32.5q-1 12 -4.5 25.5t-5.5 20.5l-103 -20v-20q37 0 47.5 -15t10.5 -66v-36q0 -52 -10.5 -66.5t-47.5 -14.5v-22h172v22q-37 0 -47 14.5t-10 66.5v39q0 38 18.5 60t34.5 22q19 0 19 -21q0 -12 8.5 -20.5
t20.5 -8.5q16 0 24 10t8 21z" />
    <glyph glyph-name="Atilde" unicode="&#xc3;" horiz-adv-x="617" 
d="M166 208h242l48 -111q10 -22 10 -36q0 -21 -21 -30.5t-67 -9.5v-21h277v21q-31 0 -48.5 3.5t-28.5 12t-19 23t-20 42.5l-3 6l-221 509h-13l-220 -509l-3 -6q-12 -28 -20 -42.5t-19 -23t-29 -12t-49 -3.5v-21h234v21q-46 0 -67 9.5t-21 30.5q0 14 10 36zM391 245h-209
l104 241zM366 726q-11 0 -25 6.5t-35 19.5q-23 15 -37.5 22t-28.5 7q-27 0 -45.5 -27.5t-18.5 -70.5h15q5 19 17 32.5t25 13.5q10 0 22.5 -6t34.5 -20q24 -14 39 -21.5t27 -7.5q32 0 50.5 26.5t18.5 72.5h-16q-11 -47 -43 -47z" />
    <glyph glyph-name="Adieresis" unicode="&#xc4;" horiz-adv-x="307" 
d="M284 202l-17 21q-17 -15 -39.5 -25t-39.5 -10q-46 0 -69 25.5t-23 67.5v10q1 9 1 11h173q4 14 4 26q0 40 -30.5 67t-73.5 27q-25 0 -50 -10t-44.5 -28.5t-31 -43t-11.5 -53.5q0 -57 38.5 -96t98.5 -39q31 0 62 14t52 36zM215 335h-112q8 25 24.5 38.5t42.5 13.5
q22 0 34.5 -12.5t12.5 -28.5q0 -6 -2 -11z" />
    <glyph glyph-name="Aring" unicode="&#xc5;" horiz-adv-x="293" 
d="M179 226q-21 -19 -35.5 -26t-26.5 -7t-20.5 8t-8.5 22q0 27 21.5 43t69.5 27v-67zM179 323q-70 -13 -112 -37.5t-42 -67.5q0 -29 20 -46.5t49 -17.5q21 0 41.5 9t45.5 30q9 -37 52 -37q29 0 51 25l-14 20q-10 -13 -20 -13q-13 0 -13 24v109q0 53 -24 77t-78 24
q-38 0 -66.5 -17.5t-28.5 -43.5q0 -12 8.5 -20t19.5 -8t19.5 8t8.5 20q0 15 12 23t26 8q28 0 36.5 -15t8.5 -54z" />
    <glyph glyph-name="AE" unicode="&#xc6;" horiz-adv-x="758" 
d="M358 547v-261h-135zM204 249h154v-111q0 -40 -3.5 -62t-13 -34t-27.5 -16.5t-51 -4.5v-21h440l8 133h-21l-5 -20q-11 -44 -31.5 -60t-84.5 -16h-36q-33 0 -51 4.5t-27.5 16t-13 34t-3.5 61.5v96h12q39 0 59.5 -3.5t30 -13t12 -26.5t2.5 -53h21v229h-21q0 -35 -2.5 -52.5
t-12 -27t-30 -13t-59.5 -3.5h-12v277h98q64 0 84 -15.5t32 -59.5l5 -20h21l-9 132h-325l-254 -492q-14 -27 -26.5 -44t-27.5 -26q-26 -17 -82 -17v-21h234v21q-40 0 -58 7.5t-18 25.5q0 15 14 43z" />
    <glyph glyph-name="Ccedilla" unicode="&#xc7;" horiz-adv-x="525" 
d="M303 68q33 4 65 22t51 43q5 -6 10 -20t8 -30h19v175h-20q-14 -67 -48 -107t-85 -45v388q51 -5 85 -45t48 -106h20v174h-19q-4 -16 -8.5 -30t-9.5 -19q-20 25 -51.5 43t-64.5 22v84h-36v-85q-42 -4 -80 -23.5t-66.5 -51t-44 -72t-15.5 -85.5t15.5 -85.5t44 -72.5t66 -51
t80.5 -23v-85h36v85zM267 106q-34 4 -58.5 23t-39 47t-21 60t-6.5 64t6.5 64t21 60t39 46.5t58.5 22.5v-387z" />
    <glyph glyph-name="Egrave" unicode="&#xc8;" horiz-adv-x="209" 
d="M146 522q0 14 -10.5 24.5t-24.5 10.5t-24 -10.5t-10 -24.5t10 -25t24 -11t24.5 11t10.5 25zM197 163v22q-37 0 -47 14.5t-10 66.5v157l-115 -19v-21q37 0 47.5 -15t10.5 -66v-36q0 -52 -10.5 -66.5t-47.5 -14.5v-22h172z" />
    <glyph glyph-name="Eacute" unicode="&#xc9;" 
d="M296 481h-21l-4 -17q-8 -30 -19.5 -40.5t-33.5 -10.5v213h-24l-172 -229v-18h139q0 -45 -10.5 -58t-47.5 -13v-21h172v21q-35 0 -46 13t-11 58h72zM161 413h-89l89 118v-118z" />
    <glyph glyph-name="Ecircumflex" unicode="&#xca;" horiz-adv-x="216" 
d="M207 197l-18 16q-26 -26 -46 -26q-30 0 -30 49v142h63v32h-63v78h-30q-4 -38 -18.5 -59t-46.5 -28v-23h38v-142q0 -42 19 -63t54 -21q17 0 39 12t39 33z" />
    <glyph glyph-name="Edieresis" unicode="&#xcb;" 
d="M291 374q0 43 -36.5 73.5t-85.5 30.5q-16 0 -33.5 -5.5t-30.5 -14.5q6 53 25.5 90t53.5 37q17 0 27.5 -6.5t21.5 -17.5q13 -13 20 -13t13 5t6 12q0 18 -26 35t-63 17q-32 0 -57 -17t-42.5 -45t-26.5 -62.5t-9 -69.5q0 -45 12.5 -75.5t32.5 -47.5t41 -23.5t41 -6.5
q48 0 82 30.5t34 73.5zM233 374q0 -28 -15 -51.5t-43 -23.5q-29 0 -50 31t-22 83q7 16 25.5 26t40.5 10q29 0 46.5 -23.5t17.5 -51.5z" />
    <glyph glyph-name="Igrave" unicode="&#xcc;" horiz-adv-x="333" 
d="M308 0v21q-33 0 -51 4.5t-27.5 16.5t-13 34t-3.5 62v325q0 40 3.5 62t13 33.5t27.5 16t51 4.5v21h-270v-21q33 0 51 -4.5t27.5 -16t13 -33.5t3.5 -62v-325q0 -40 -3.5 -62t-13 -34t-27.5 -16.5t-51 -4.5v-21h270zM219 681l-93 87q-15 13 -24 18.5t-20 5.5q-13 0 -21 -9.5
t-8 -19.5t7.5 -18t16.5 -12l137 -59z" />
    <glyph glyph-name="Iacute" unicode="&#xcd;" horiz-adv-x="236" 
d="M213 233q0 20 -13.5 39.5t-37.5 32.5l-35 19l-6 3q-20 11 -28 17.5t-8 17.5q0 31 33 31q25 0 40 -18t15 -43h22v90h-22q0 -17 -4 -17q-3 0 -9 4q-11 6 -22 9.5t-26 3.5q-30 0 -53.5 -19.5t-23.5 -49.5q0 -20 12 -40.5t38 -34.5l40 -21q19 -10 28.5 -18t9.5 -20
q0 -17 -10 -27t-27 -10q-34 0 -54.5 26t-20.5 55h-22v-111h22q0 23 9 23q4 0 17 -7q27 -16 47 -16q38 0 63.5 22.5t25.5 58.5z" />
    <glyph glyph-name="Icircumflex" unicode="&#xce;" horiz-adv-x="373" 
d="M361 170v21q-37 0 -47 14.5t-10 66.5v343l-115 -20v-21q37 0 47 -14t10 -67v-108q-35 37 -84 37q-53 0 -91 -39.5t-38 -95.5q0 -55 38 -95t91 -40t86 40v-1q3 -15 6 -25t7 -15zM246 241q-9 -24 -27.5 -39t-41.5 -15q-39 0 -59 28t-20 72t20 72t59 28q23 0 41.5 -15
t27.5 -40v-91z" />
    <glyph glyph-name="Idieresis" unicode="&#xcf;" horiz-adv-x="361" 
d="M328 287q0 55 -37.5 95t-90.5 40q-50 0 -85 -37v230l-115 -20v-21q37 0 47.5 -14.5t10.5 -66.5v-341l19 1l31 45q15 -22 39.5 -34t52.5 -12q53 0 90.5 40t37.5 95zM263 287q0 -45 -19.5 -72.5t-58.5 -27.5q-23 0 -41.5 15t-28.5 40v91q10 25 28.5 39.5t41.5 14.5
q39 0 58.5 -27.5t19.5 -72.5z" />
    <glyph glyph-name="Eth" unicode="&#xd0;" horiz-adv-x="713" 
d="M208 324v239h101q71 0 119 -23t74.5 -61.5t37.5 -83.5t11 -95q0 -49 -11 -94.5t-37.5 -84t-74.5 -61.5t-119 -23h-5q-33 0 -51 4.5t-28 16t-13.5 34t-3.5 61.5v126h100v45h-100zM133 279v-141q0 -40 -3.5 -62t-13 -34t-27.5 -16.5t-51 -4.5v-21h271q85 0 148.5 23
t104.5 64t61 95.5t20 117.5t-20 117.5t-61 95.5t-104.5 64t-148.5 23h-271v-21q33 0 51 -4.5t27.5 -16t13 -33.5t3.5 -62v-139h-116v-45h116z" />
    <glyph glyph-name="Ntilde" unicode="&#xd1;" 
d="M300 577v23h-243l-19 -103h23l4 17q6 21 22.5 29.5t40.5 8.5h128l-148 -234q-9 -15 -9 -27q0 -18 18 -24q1 0 5 -1h4q11 0 18.5 8t16.5 26z" />
    <glyph glyph-name="Ograve" unicode="&#xd2;" horiz-adv-x="196" 
d="M184 163v22q-37 0 -47 14.5t-10 66.5v349l-114 -20v-21q36 0 46 -14.5t10 -66.5v-227q0 -52 -10 -66.5t-46 -14.5v-22h171z" />
    <glyph glyph-name="Oacute" unicode="&#xd3;" horiz-adv-x="403" 
d="M391 163v22q-37 0 -47 14.5t-10 66.5v46q0 49 -24.5 79.5t-72.5 30.5q-31 0 -55.5 -13.5t-42.5 -34.5q-1 12 -4.5 27t-6.5 22l-103 -20v-20q37 0 47.5 -15t10.5 -66v-36q0 -52 -10.5 -66.5t-47.5 -14.5v-22h166v22q-34 0 -42.5 13.5t-8.5 67.5v47q0 29 25.5 48.5
t48.5 19.5q35 0 48.5 -18.5t13.5 -54.5v-42q0 -52 -10.5 -66.5t-46.5 -14.5v-22h172z" />
    <glyph glyph-name="Ocircumflex" unicode="&#xd4;" horiz-adv-x="563" 
d="M551 163v22q-36 0 -46.5 14.5t-10.5 66.5v46q0 52 -19.5 81t-66.5 29q-28 0 -56 -15.5t-44 -34.5q-9 24 -27.5 37t-49.5 13q-27 0 -50.5 -13.5t-41.5 -34.5q-1 11 -4.5 25.5t-6.5 23.5l-103 -20v-20q37 0 47.5 -15t10.5 -66v-36q0 -52 -10.5 -66.5t-47.5 -14.5v-22h160
v22q-31 0 -38 13.5t-7 67.5v47q0 29 24.5 48.5t43.5 19.5q29 0 40 -18.5t11 -54.5v-42q0 -55 -7 -68t-38 -13v-22h148v22q-31 0 -38 13t-7 68v47q0 29 24.5 48.5t43.5 19.5q29 0 40.5 -19t11.5 -54v-42q0 -55 -7 -68t-38 -13v-22h159z" />
    <glyph glyph-name="Otilde" unicode="&#xd5;" horiz-adv-x="808" 
d="M738 300q0 64 -26 122t-72 102t-107 68.5t-129 24.5q-67 0 -128 -24.5t-107 -68.5t-72 -102t-26 -122t26 -122t72 -102t107 -68.5t128 -24.5q68 0 129 24.5t107 68.5t72 102t26 122zM404 578q62 0 108 -24.5t75 -65.5t42.5 -90t13.5 -98t-13.5 -97.5t-42.5 -89.5
t-75 -65.5t-108 -24.5t-107.5 24.5t-74.5 65.5t-42.5 89.5t-13.5 97.5t13.5 98t42.5 90t74.5 65.5t107.5 24.5zM452 726q-11 0 -25 6.5t-35 19.5q-23 15 -37.5 22t-28.5 7q-27 0 -45.5 -27.5t-18.5 -70.5h15q5 19 17 32.5t25 13.5q9 0 22.5 -6.5t33.5 -19.5
q24 -14 39.5 -21.5t27.5 -7.5q31 0 50 26.5t19 72.5h-16q-11 -47 -43 -47z" />
    <glyph glyph-name="Odieresis" unicode="&#xd6;" 
d="M288 464q0 45 -12.5 75.5t-32.5 47.5t-41 23.5t-41 6.5q-48 0 -82 -30.5t-34 -73.5t37 -74t85 -31q17 0 34 6t30 14q-6 -53 -25.5 -89.5t-53.5 -36.5q-17 0 -27.5 6.5t-21.5 17.5q-13 12 -20 12t-13 -4.5t-6 -11.5q0 -17 26 -34.5t63 -17.5q32 0 57.5 17t42.5 45t26 62.5
t9 69.5zM233 474q-7 -16 -25.5 -26t-40.5 -10q-29 0 -46.5 23.5t-17.5 51.5t15 51.5t43 23.5q29 0 50 -31t22 -83z" />
    <glyph glyph-name="multiply" unicode="&#xd7;" horiz-adv-x="0" 
 />
    <glyph glyph-name="Oslash" unicode="&#xd8;" horiz-adv-x="371" 
d="M330 287q0 56 -43.5 95.5t-104.5 39.5t-105 -39.5t-44 -95.5q0 -55 44 -95t105 -40t104.5 40t43.5 95zM265 287q0 -44 -21 -72.5t-62 -28.5q-42 0 -63 28t-21 73t21 73t63 28q41 0 62 -28t21 -73z" />
    <glyph glyph-name="Ugrave" unicode="&#xd9;" horiz-adv-x="749" 
d="M573 463v-245q0 -94 -50.5 -142t-132.5 -48q-79 0 -127.5 48t-48.5 142v245q0 39 3.5 61.5t13.5 34t28 16t51 4.5v21h-271v-21q33 0 51.5 -4.5t28 -16t13 -33.5t3.5 -62v-240q0 -113 68 -176.5t172 -63.5q105 0 173 63.5t68 176.5v240q0 40 3.5 62t13 33.5t28 16
t51.5 4.5v21h-234v-21q33 0 51 -4.5t27.5 -16t13 -33.5t3.5 -62zM398 681l-94 87q-14 13 -23 18.5t-21 5.5q-13 0 -20.5 -9.5t-7.5 -19.5t7.5 -18t15.5 -12l138 -59z" />
    <glyph glyph-name="Uacute" unicode="&#xda;" horiz-adv-x="749" 
d="M573 463v-245q0 -94 -50.5 -142t-132.5 -48q-79 0 -127.5 48t-48.5 142v245q0 39 3.5 61.5t13.5 34t28 16t51 4.5v21h-271v-21q33 0 51.5 -4.5t28 -16t13 -33.5t3.5 -62v-240q0 -113 68 -176.5t172 -63.5q105 0 173 63.5t68 176.5v240q0 40 3.5 62t13 33.5t28 16
t51.5 4.5v21h-234v-21q33 0 51 -4.5t27.5 -16t13 -33.5t3.5 -62zM494 763q0 10 -7.5 19.5t-20.5 9.5q-12 0 -21 -5.5t-23 -18.5l-94 -87l5 -7l138 59q8 4 15.5 12t7.5 18z" />
    <glyph glyph-name="Ucircumflex" unicode="&#xdb;" horiz-adv-x="749" 
d="M573 463v-245q0 -94 -50.5 -142t-132.5 -48q-79 0 -127.5 48t-48.5 142v245q0 39 3.5 61.5t13.5 34t28 16t51 4.5v21h-271v-21q33 0 51.5 -4.5t28 -16t13 -33.5t3.5 -62v-240q0 -113 68 -176.5t172 -63.5q105 0 173 63.5t68 176.5v240q0 40 3.5 62t13 33.5t28 16
t51.5 4.5v21h-234v-21q33 0 51 -4.5t27.5 -16t13 -33.5t3.5 -62zM499 687l-119 129l-119 -129l12 -12l107 76l107 -76z" />
    <glyph glyph-name="Udieresis" unicode="&#xdc;" 
d="M294 443q0 35 -9.5 67t-27 56t-40.5 37.5t-49 13.5t-49 -13.5t-40.5 -37.5t-27 -56t-9.5 -67t9.5 -66.5t27 -55.5t40.5 -37.5t49 -13.5t49 13.5t40.5 37.5t27 55.5t9.5 66.5zM236 443q0 -60 -17.5 -101t-50.5 -41t-50 40.5t-17 101.5q0 62 17 102.5t50 40.5
q34 0 51 -40.5t17 -102.5z" />
    <glyph glyph-name="Yacute" unicode="&#xdd;" horiz-adv-x="625" 
d="M353 242l165 250q34 51 60.5 69t84.5 18v21h-234v-21q74 0 74 -29q0 -16 -20 -47l-146 -220l-144 220q-18 28 -18 44t17 24t55 8v21h-285v-21q52 0 82 -18.5t63 -68.5l166 -257v-97q0 -40 -3.5 -62t-13 -34t-27.5 -16.5t-51 -4.5v-21h270v21q-33 0 -51 4.5t-27.5 16.5
t-13 34t-3.5 62v104zM463 763q0 11 -7.5 20.5t-20.5 9.5q-11 0 -19.5 -5t-23.5 -18l-1 -1l-93 -87l5 -7l137 58q10 6 16.5 13t6.5 17z" />
    <glyph glyph-name="Thorn" unicode="&#xde;" horiz-adv-x="433" 
d="M335 223q0 -70 -82 -70h-57v140h57q82 0 82 -70zM196 116h57q77 0 118.5 28t41.5 80q0 106 -160 106h-56q2 52 17.5 67.5t60.5 15.5v20h-229v-20q27 0 42 -4.5t23 -16t11 -33.5t3 -62v-160q0 -40 -3 -62t-11 -34t-23 -16.5t-42 -4.5v-20h229v20q-47 0 -62 17.5t-17 78.5z
" />
    <glyph glyph-name="germandbls" unicode="&#xdf;" horiz-adv-x="618" 
d="M159 350h-6q-41 0 -71.5 -26t-30.5 -65q0 -27 16.5 -54.5t50.5 -45.5l55 -30q28 -14 42 -28.5t14 -32.5q0 -21 -16 -36t-40 -15q-50 0 -80 36.5t-30 75.5h-20v-146h20q0 32 12 32q7 0 25 -10q19 -10 35 -16t35 -6q50 0 84.5 30.5t34.5 78.5q0 27 -18 52t-51 44l-48 26
q-35 19 -48 31.5t-13 29.5q0 20 13 34t37 14h7q8 -20 11 -26q9 -19 23 -30.5t28 -11.5q15 0 25.5 9t10.5 22q0 21 -13.5 34t-39.5 24q-23 43 -23 80q0 52 38 83t85 31q57 0 87.5 -31.5t30.5 -72.5q0 -40 -19 -71.5t-61 -40.5v-24h52v-202q0 -57 25 -85t68 -28q25 0 54.5 16
t50.5 42l-17 17q-35 -35 -65 -35q-45 0 -45 73v202h87v35h-87v75q0 71 -43.5 112.5t-116.5 41.5q-65 0 -114 -41t-49 -114q0 -27 8 -57z" />
    <glyph glyph-name="agrave" unicode="&#xe0;" horiz-adv-x="514" 
d="M301 515l-93 88q-14 12 -23.5 17.5t-21.5 5.5q-13 0 -20.5 -9.5t-7.5 -19.5t7.5 -18t15.5 -12l138 -58zM158 143h164l20 -46q13 -31 13 -46q0 -17 -15.5 -23.5t-51.5 -6.5v-21h224v21q-21 0 -33.5 3t-22.5 12t-19.5 25.5t-22.5 46.5l-147 342h-14l-147 -342
q-13 -31 -22 -47t-19 -25t-24 -12t-38 -3v-21h189v21q-38 0 -53.5 6t-15.5 21q0 14 15 49zM306 180h-132l66 153z" />
    <glyph glyph-name="aacute" unicode="&#xe1;" horiz-adv-x="514" 
d="M402 597q0 10 -7.5 19.5t-20.5 9.5q-11 0 -19.5 -5t-23.5 -18l-1 -1l-93 -87l5 -7l137 59q8 4 15.5 12t7.5 18zM158 143h164l20 -46q13 -31 13 -46q0 -17 -15.5 -23.5t-51.5 -6.5v-21h224v21q-21 0 -33.5 3t-22.5 12t-19.5 25.5t-22.5 46.5l-147 342h-14l-147 -342
q-13 -31 -22 -47t-19 -25t-24 -12t-38 -3v-21h189v21q-38 0 -53.5 6t-15.5 21q0 14 15 49zM306 180h-132l66 153z" />
    <glyph glyph-name="acircumflex" unicode="&#xe2;" horiz-adv-x="514" 
d="M375 520l-119 129l-119 -129l12 -12l107 76l107 -76zM158 143h164l20 -46q13 -31 13 -46q0 -17 -15.5 -23.5t-51.5 -6.5v-21h224v21q-21 0 -33.5 3t-22.5 12t-19.5 25.5t-22.5 46.5l-147 342h-14l-147 -342q-13 -31 -22 -47t-19 -25t-24 -12t-38 -3v-21h189v21
q-38 0 -53.5 6t-15.5 21q0 14 15 49zM306 180h-132l66 153z" />
    <glyph glyph-name="atilde" unicode="&#xe3;" horiz-adv-x="514" 
d="M382 608h-16q-13 -48 -43 -48q-11 0 -25 6.5t-35 19.5q-23 15 -37.5 22t-28.5 7q-27 0 -45.5 -27.5t-18.5 -69.5h15q5 19 17 32t25 13q9 0 22.5 -6.5t33.5 -19.5q24 -14 39.5 -21.5t27.5 -7.5q31 0 50 26.5t19 73.5zM158 143h164l20 -46q13 -31 13 -46q0 -17 -15.5 -23.5
t-51.5 -6.5v-21h224v21q-21 0 -33.5 3t-22.5 12t-19.5 25.5t-22.5 46.5l-147 342h-14l-147 -342q-13 -31 -22 -47t-19 -25t-24 -12t-38 -3v-21h189v21q-38 0 -53.5 6t-15.5 21q0 14 15 49zM306 180h-132l66 153z" />
    <glyph glyph-name="adieresis" unicode="&#xe4;" horiz-adv-x="514" 
d="M180 587q-16 0 -27.5 -11.5t-11.5 -27.5q0 -17 11.5 -28.5t27.5 -11.5t27.5 11.5t11.5 28.5q0 16 -11.5 27.5t-27.5 11.5zM346 587q-16 0 -27.5 -11.5t-11.5 -27.5q0 -17 11.5 -28.5t27.5 -11.5t27.5 12t11.5 28t-11.5 27.5t-27.5 11.5zM158 143h164l20 -46
q13 -31 13 -46q0 -17 -15.5 -23.5t-51.5 -6.5v-21h224v21q-21 0 -33.5 3t-22.5 12t-19.5 25.5t-22.5 46.5l-147 342h-14l-147 -342q-13 -31 -22 -47t-19 -25t-24 -12t-38 -3v-21h189v21q-38 0 -53.5 6t-15.5 21q0 14 15 49zM306 180h-132l66 153z" />
    <glyph glyph-name="aring" unicode="&#xe5;" horiz-adv-x="514" 
d="M260 672q-34 0 -58 -24t-24 -58q0 -35 24 -59t58 -24q35 0 59 24t24 59q0 34 -24 58t-59 24zM260 636q19 0 32.5 -13.5t13.5 -32.5t-13.5 -32.5t-32.5 -13.5t-32.5 13.5t-13.5 32.5t13.5 32.5t32.5 13.5zM158 143h164l20 -46q13 -31 13 -46q0 -17 -15.5 -23.5t-51.5 -6.5
v-21h224v21q-21 0 -33.5 3t-22.5 12t-19.5 25.5t-22.5 46.5l-147 342h-14l-147 -342q-13 -31 -22 -47t-19 -25t-24 -12t-38 -3v-21h189v21q-38 0 -53.5 6t-15.5 21q0 14 15 49zM306 180h-132l66 153z" />
    <glyph glyph-name="ae" unicode="&#xe6;" horiz-adv-x="657" 
d="M198 182h118v-45q0 -39 -3.5 -61.5t-11.5 -34.5t-23 -16.5t-41 -4.5v-20h374l8 121h-21l-5 -20q-9 -38 -29.5 -51t-85.5 -13h-12q-27 0 -42 4.5t-23 16t-11 33.5t-3 62v29h6q39 0 60 -3t31.5 -11.5t13.5 -23t3 -41.5h20v195h-20q0 -28 -3 -42.5t-13.5 -22.5t-31.5 -11.5
t-60 -3.5h-6v179h66q65 0 86 -13.5t30 -50.5l5 -20h21l-8 120h-129h-150l-187 -325q-32 -55 -55 -71t-63 -16v-21h184v21q-59 0 -59 25q0 16 20 51zM316 385v-167h-97z" />
    <glyph glyph-name="ccedilla" unicode="&#xe7;" horiz-adv-x="688" 
d="M279 344q-16 37 -16 71q0 55 37 89t83 34q57 0 87.5 -31.5t30.5 -72.5q0 -40 -19 -71.5t-61 -40.5v-24h52v-202q0 -57 25 -85t68 -28q25 0 54.5 16t50.5 42l-17 17q-35 -35 -65 -35q-45 0 -45 73v202h87v35h-87v75q0 71 -44 112.5t-116 41.5q-67 0 -115.5 -47t-48.5 -126
q0 -18 3 -39q-30 0 -61.5 -14t-57 -39.5t-41 -61t-15.5 -77.5q0 -77 48 -126t129 -49q42 0 81 17.5t68 48.5l-17 22q-24 -22 -52.5 -34t-54.5 -12q-60 0 -90.5 35.5t-30.5 97.5q0 69 28 114.5t68 45.5h5q1 -2 2 -7q2 -8 4 -12q10 -29 26 -46.5t38 -17.5q21 0 32.5 14
t11.5 29q0 22 -16.5 40t-48.5 26z" />
    <glyph glyph-name="egrave" unicode="&#xe8;" horiz-adv-x="475" 
d="M313 515l-93 88q-14 12 -23.5 17.5t-21.5 5.5q-13 0 -20.5 -9.5t-7.5 -19.5t7.5 -18t15.5 -12l138 -58zM287 37h-12q-27 0 -42 4.5t-23 16t-11 33.5t-3 62v58h6q39 0 60 -3t31.5 -11.5t13.5 -23t3 -41.5h20v195h-20q0 -28 -3 -42.5t-13.5 -22.5t-31 -11t-60.5 -3h-6v149
h67q64 0 85 -13.5t30 -50.5l5 -20h21l-8 120h-129h-221v-20q27 0 42 -4.5t23 -16t11 -33.5t3 -62v-160q0 -40 -3 -62t-11 -34t-23 -16.5t-42 -4.5v-20h374l8 121h-20l-5 -20q-10 -38 -30.5 -51t-85.5 -13z" />
    <glyph glyph-name="eacute" unicode="&#xe9;" horiz-adv-x="475" 
d="M358 597q0 10 -7.5 19.5t-20.5 9.5q-11 0 -19.5 -5t-23.5 -18l-1 -1l-93 -87l5 -7l137 59q8 4 15.5 12t7.5 18zM287 37h-12q-27 0 -42 4.5t-23 16t-11 33.5t-3 62v58h6q39 0 60 -3t31.5 -11.5t13.5 -23t3 -41.5h20v195h-20q0 -28 -3 -42.5t-13.5 -22.5t-31 -11t-60.5 -3
h-6v149h67q64 0 85 -13.5t30 -50.5l5 -20h21l-8 120h-129h-221v-20q27 0 42 -4.5t23 -16t11 -33.5t3 -62v-160q0 -40 -3 -62t-11 -34t-23 -16.5t-42 -4.5v-20h374l8 121h-20l-5 -20q-10 -38 -30.5 -51t-85.5 -13z" />
    <glyph glyph-name="ecircumflex" unicode="&#xea;" horiz-adv-x="475" 
d="M356 520l-119 129l-119 -129l12 -12l107 76l106 -76zM287 37h-12q-27 0 -42 4.5t-23 16t-11 33.5t-3 62v58h6q39 0 60 -3t31.5 -11.5t13.5 -23t3 -41.5h20v195h-20q0 -28 -3 -42.5t-13.5 -22.5t-31 -11t-60.5 -3h-6v149h67q64 0 85 -13.5t30 -50.5l5 -20h21l-8 120h-129
h-221v-20q27 0 42 -4.5t23 -16t11 -33.5t3 -62v-160q0 -40 -3 -62t-11 -34t-23 -16.5t-42 -4.5v-20h374l8 121h-20l-5 -20q-10 -38 -30.5 -51t-85.5 -13z" />
    <glyph glyph-name="edieresis" unicode="&#xeb;" horiz-adv-x="475" 
d="M155 587q-16 0 -27.5 -11.5t-11.5 -27.5q0 -17 11.5 -28.5t27.5 -11.5t27.5 11.5t11.5 28.5q0 16 -11.5 27.5t-27.5 11.5zM321 587q-16 0 -27.5 -11.5t-11.5 -27.5q0 -17 11.5 -28.5t27.5 -11.5t27.5 12t11.5 28t-11.5 27.5t-27.5 11.5zM287 37h-12q-27 0 -42 4.5t-23 16
t-11 33.5t-3 62v58h6q39 0 60 -3t31.5 -11.5t13.5 -23t3 -41.5h20v195h-20q0 -28 -3 -42.5t-13.5 -22.5t-31 -11t-60.5 -3h-6v149h67q64 0 85 -13.5t30 -50.5l5 -20h21l-8 120h-129h-221v-20q27 0 42 -4.5t23 -16t11 -33.5t3 -62v-160q0 -40 -3 -62t-11 -34t-23 -16.5
t-42 -4.5v-20h374l8 121h-20l-5 -20q-10 -38 -30.5 -51t-85.5 -13z" />
    <glyph glyph-name="igrave" unicode="&#xec;" horiz-adv-x="322" 
d="M210 515l-93 88q-26 23 -44 23q-14 0 -21.5 -9t-7.5 -20q0 -10 7.5 -18t16.5 -12l137 -59zM275 0v20q-27 0 -41.5 4.5t-23 16.5t-11.5 34t-3 62v160q0 40 3 62t11.5 33.5t23 16t41.5 4.5v20h-229v-20q27 0 42 -4.5t23 -16t11 -33.5t3 -62v-160q0 -40 -3 -62t-11 -34
t-23 -16.5t-42 -4.5v-20h229z" />
    <glyph glyph-name="iacute" unicode="&#xed;" horiz-adv-x="322" 
d="M270 597q0 10 -7.5 19.5t-20.5 9.5q-19 0 -44 -23l-94 -88l5 -7l138 59q8 4 15.5 12t7.5 18zM275 0v20q-27 0 -41.5 4.5t-23 16.5t-11.5 34t-3 62v160q0 40 3 62t11.5 33.5t23 16t41.5 4.5v20h-229v-20q27 0 42 -4.5t23 -16t11 -33.5t3 -62v-160q0 -40 -3 -62t-11 -34
t-23 -16.5t-42 -4.5v-20h229z" />
    <glyph glyph-name="icircumflex" unicode="&#xee;" horiz-adv-x="322" 
d="M279 519l-119 129l-119 -129l12 -11l107 75l107 -75zM275 0v20q-27 0 -41.5 4.5t-23 16.5t-11.5 34t-3 62v160q0 40 3 62t11.5 33.5t23 16t41.5 4.5v20h-229v-20q27 0 42 -4.5t23 -16t11 -33.5t3 -62v-160q0 -40 -3 -62t-11 -34t-23 -16.5t-42 -4.5v-20h229z" />
    <glyph glyph-name="idieresis" unicode="&#xef;" horiz-adv-x="322" 
d="M76 587q-16 0 -27.5 -11.5t-11.5 -27.5q0 -17 11.5 -28.5t27.5 -11.5t27.5 11.5t11.5 28.5q0 16 -11.5 27.5t-27.5 11.5zM242 587q-16 0 -27.5 -11.5t-11.5 -27.5q0 -17 11.5 -28.5t27.5 -11.5t27.5 12t11.5 28t-11.5 27.5t-27.5 11.5zM275 0v20q-27 0 -41.5 4.5
t-23 16.5t-11.5 34t-3 62v160q0 40 3 62t11.5 33.5t23 16t41.5 4.5v20h-229v-20q27 0 42 -4.5t23 -16t11 -33.5t3 -62v-160q0 -40 -3 -62t-11 -34t-23 -16.5t-42 -4.5v-20h229z" />
    <glyph glyph-name="eth" unicode="&#xf0;" horiz-adv-x="558" 
d="M196 243v154h65q47 0 78.5 -16t49 -42.5t24 -57t6.5 -64.5t-6.5 -65t-24 -57t-49 -42t-78.5 -16h-8q-37 0 -47 13.5t-10 62.5v86h95v44h-95zM125 199v-62q0 -40 -3 -62t-11 -34t-23 -16.5t-42 -4.5v-20h212q121 0 186 64q29 29 43.5 68t14.5 85q0 45 -14.5 84.5t-44.5 69
t-76.5 46t-108.5 16.5h-212v-20q27 0 42 -4.5t23 -16t11 -33.5t3 -62v-54h-83v-44h83z" />
    <glyph glyph-name="ntilde" unicode="&#xf1;" horiz-adv-x="597" 
d="M414 608h-16q-11 -48 -43 -48q-11 0 -25 6.5t-35 19.5q-23 15 -37.5 22t-28.5 7q-27 0 -45.5 -27.5t-18.5 -69.5h15q5 19 17 32t26 13q9 0 22.5 -6.5t33.5 -19.5q23 -14 38.5 -21.5t27.5 -7.5q32 0 50.5 26.5t18.5 73.5zM125 297v-160q0 -40 -3 -62t-11 -34t-23 -16.5
t-42 -4.5v-20h195v20q-27 0 -41.5 4.5t-23 16.5t-11.5 34t-3 62v196l291 -349h19v313q0 40 3 62t11.5 33.5t23 16t41.5 4.5v20h-195v-20q27 0 42 -4.5t23 -16t11 -33.5t3 -62v-180l-266 316h-123v-20q27 0 42 -4.5t23 -16t11 -33.5t3 -62z" />
    <glyph glyph-name="ograve" unicode="&#xf2;" horiz-adv-x="602" 
d="M363 515l-93 88q-14 12 -23.5 17.5t-21.5 5.5q-13 0 -20.5 -9.5t-7.5 -19.5t7.5 -18t15.5 -12l138 -58zM545 217q0 47 -19 89.5t-53 75t-78.5 50.5t-93.5 18t-93.5 -18t-78.5 -50.5t-53 -75t-19 -89.5t19 -90t53 -75.5t78.5 -50.5t93.5 -18t93.5 18t78.5 50.5t53 75.5
t19 90zM463 217q0 -35 -9 -69t-28.5 -62.5t-51 -46t-73.5 -17.5t-73.5 17.5t-51 46t-28.5 62.5t-9 69t9 69t28.5 62.5t51 46t73.5 17.5t73.5 -17.5t51 -46t28.5 -62.5t9 -69z" />
    <glyph glyph-name="oacute" unicode="&#xf3;" horiz-adv-x="602" 
d="M409 597q0 10 -7.5 19.5t-20.5 9.5q-11 0 -19.5 -5t-23.5 -18l-1 -1l-93 -87l5 -7l137 59q8 4 15.5 12t7.5 18zM545 217q0 47 -19 89.5t-53 75t-78.5 50.5t-93.5 18t-93.5 -18t-78.5 -50.5t-53 -75t-19 -89.5t19 -90t53 -75.5t78.5 -50.5t93.5 -18t93.5 18t78.5 50.5
t53 75.5t19 90zM463 217q0 -35 -9 -69t-28.5 -62.5t-51 -46t-73.5 -17.5t-73.5 17.5t-51 46t-28.5 62.5t-9 69t9 69t28.5 62.5t51 46t73.5 17.5t73.5 -17.5t51 -46t28.5 -62.5t9 -69z" />
    <glyph glyph-name="ocircumflex" unicode="&#xf4;" horiz-adv-x="602" 
d="M417 520l-119 129l-120 -129l13 -12l107 76l106 -76zM545 217q0 47 -19 89.5t-53 75t-78.5 50.5t-93.5 18t-93.5 -18t-78.5 -50.5t-53 -75t-19 -89.5t19 -90t53 -75.5t78.5 -50.5t93.5 -18t93.5 18t78.5 50.5t53 75.5t19 90zM463 217q0 -35 -9 -69t-28.5 -62.5t-51 -46
t-73.5 -17.5t-73.5 17.5t-51 46t-28.5 62.5t-9 69t9 69t28.5 62.5t51 46t73.5 17.5t73.5 -17.5t51 -46t28.5 -62.5t9 -69z" />
    <glyph glyph-name="otilde" unicode="&#xf5;" horiz-adv-x="602" 
d="M441 608h-16q-11 -48 -43 -48q-11 0 -25 6.5t-35 19.5q-23 15 -37.5 22t-28.5 7q-27 0 -45.5 -27.5t-18.5 -69.5h15q5 19 17 32t25 13q9 0 22.5 -6.5t33.5 -19.5q24 -14 39.5 -21.5t27.5 -7.5q31 0 50 26.5t19 73.5zM545 217q0 47 -19 89.5t-53 75t-78.5 50.5t-93.5 18
t-93.5 -18t-78.5 -50.5t-53 -75t-19 -89.5t19 -90t53 -75.5t78.5 -50.5t93.5 -18t93.5 18t78.5 50.5t53 75.5t19 90zM463 217q0 -35 -9 -69t-28.5 -62.5t-51 -46t-73.5 -17.5t-73.5 17.5t-51 46t-28.5 62.5t-9 69t9 69t28.5 62.5t51 46t73.5 17.5t73.5 -17.5t51 -46
t28.5 -62.5t9 -69z" />
    <glyph glyph-name="odieresis" unicode="&#xf6;" horiz-adv-x="602" 
d="M227 587q-16 0 -27.5 -11.5t-11.5 -27.5q0 -17 11.5 -28.5t27.5 -11.5t27.5 11.5t11.5 28.5q0 16 -11.5 27.5t-27.5 11.5zM393 587q-16 0 -27.5 -11.5t-11.5 -27.5q0 -17 11.5 -28.5t27.5 -11.5t27.5 12t11.5 28t-11.5 27.5t-27.5 11.5zM545 217q0 47 -19 89.5t-53 75
t-78.5 50.5t-93.5 18t-93.5 -18t-78.5 -50.5t-53 -75t-19 -89.5t19 -90t53 -75.5t78.5 -50.5t93.5 -18t93.5 18t78.5 50.5t53 75.5t19 90zM463 217q0 -35 -9 -69t-28.5 -62.5t-51 -46t-73.5 -17.5t-73.5 17.5t-51 46t-28.5 62.5t-9 69t9 69t28.5 62.5t51 46t73.5 17.5
t73.5 -17.5t51 -46t28.5 -62.5t9 -69z" />
    <glyph glyph-name="divide" unicode="&#xf7;" horiz-adv-x="458" 
d="M375 199v44h-292v-44h292zM277 84q0 19 -15 34t-34 15t-32.5 -14.5t-13.5 -34.5t13.5 -34t32.5 -14q20 0 34.5 14.5t14.5 33.5zM277 358q0 19 -15 34t-34 15t-32.5 -14.5t-13.5 -34.5q0 -19 13.5 -33.5t32.5 -14.5t34 14.5t15 33.5z" />
    <glyph glyph-name="oslash" unicode="&#xf8;" horiz-adv-x="602" 
d="M421 354q21 -27 31.5 -63.5t10.5 -73.5q0 -35 -9 -69t-28.5 -62.5t-51 -46t-73.5 -17.5q-53 0 -92 29zM182 79q-22 28 -32.5 64.5t-10.5 73.5q0 35 9 69t28.5 62.5t51 46t73.5 17.5q53 0 92 -29zM150 33l-41 -58l34 -19l40 57q55 -30 118 -30q49 0 93.5 18t78.5 50.5
t53 75.5t19 90q0 53 -25 101t-67 81l40 59l-34 20l-40 -58q-55 30 -118 30q-49 0 -93.5 -18t-78.5 -50.5t-53 -75t-19 -89.5q0 -55 24.5 -102.5t68.5 -81.5z" />
    <glyph glyph-name="ugrave" unicode="&#xf9;" horiz-adv-x="573" 
d="M333 514l-93 88q-14 12 -23.5 17.5t-21.5 5.5q-13 0 -20.5 -9.5t-7.5 -19.5t7.5 -18t15.5 -12l138 -58zM179 155v142q0 39 3.5 61.5t11.5 34t23 16t41 4.5v20h-229v-20q27 0 42 -4.5t23 -16t11 -33.5t3 -62v-135q0 -84 50.5 -131t127.5 -47t128 47t51 131v135
q0 39 3.5 61.5t11.5 34t23 16t41 4.5v20h-204v-20q27 0 42 -4.5t23 -16t11 -33.5t3 -62v-142q0 -63 -33.5 -95t-88.5 -32q-54 0 -86 32t-32 95z" />
    <glyph glyph-name="uacute" unicode="&#xfa;" horiz-adv-x="573" 
d="M415 596q0 10 -7.5 19.5t-20.5 9.5q-11 0 -19.5 -5t-23.5 -18l-1 -1l-93 -87l5 -7l137 59q8 4 15.5 12t7.5 18zM179 155v142q0 39 3.5 61.5t11.5 34t23 16t41 4.5v20h-229v-20q27 0 42 -4.5t23 -16t11 -33.5t3 -62v-135q0 -84 50.5 -131t127.5 -47t128 47t51 131v135
q0 39 3.5 61.5t11.5 34t23 16t41 4.5v20h-204v-20q27 0 42 -4.5t23 -16t11 -33.5t3 -62v-142q0 -63 -33.5 -95t-88.5 -32q-54 0 -86 32t-32 95z" />
    <glyph glyph-name="ucircumflex" unicode="&#xfb;" horiz-adv-x="573" 
d="M408 520l-120 129l-119 -129l13 -12l106 76l107 -76zM179 155v142q0 39 3.5 61.5t11.5 34t23 16t41 4.5v20h-229v-20q27 0 42 -4.5t23 -16t11 -33.5t3 -62v-135q0 -84 50.5 -131t127.5 -47t128 47t51 131v135q0 39 3.5 61.5t11.5 34t23 16t41 4.5v20h-204v-20
q27 0 42 -4.5t23 -16t11 -33.5t3 -62v-142q0 -63 -33.5 -95t-88.5 -32q-54 0 -86 32t-32 95z" />
    <glyph glyph-name="udieresis" unicode="&#xfc;" horiz-adv-x="573" 
d="M217 587q-16 0 -27.5 -11.5t-11.5 -27.5q0 -17 11.5 -28.5t27.5 -11.5t27.5 11.5t11.5 28.5q0 16 -11.5 27.5t-27.5 11.5zM383 587q-16 0 -27.5 -11.5t-11.5 -27.5q0 -17 11.5 -28.5t27.5 -11.5t27.5 12t11.5 28t-11.5 27.5t-27.5 11.5zM179 155v142q0 39 3.5 61.5
t11.5 34t23 16t41 4.5v20h-229v-20q27 0 42 -4.5t23 -16t11 -33.5t3 -62v-135q0 -84 50.5 -131t127.5 -47t128 47t51 131v135q0 39 3.5 61.5t11.5 34t23 16t41 4.5v20h-204v-20q27 0 42 -4.5t23 -16t11 -33.5t3 -62v-142q0 -63 -33.5 -95t-88.5 -32q-54 0 -86 32t-32 95z
" />
    <glyph glyph-name="yacute" unicode="&#xfd;" horiz-adv-x="483" 
d="M375 597q0 10 -7.5 19.5t-20.5 9.5q-11 0 -19.5 -5t-23.5 -18l-1 -1l-93 -87l5 -7l137 59q8 4 15.5 12t7.5 18zM283 179l99 146q35 51 58.5 69.5t63.5 18.5v20h-188v-20q56 0 56 -20q0 -16 -28 -56l-77 -115l-78 115q-25 36 -25 53q0 23 54 23v20h-222v-20q38 0 59.5 -17
t57.5 -71l100 -147v-41q0 -39 -3.5 -61.5t-11.5 -34.5t-23 -16.5t-42 -4.5v-20h230v20q-27 0 -42 4.5t-23 16.5t-11.5 34.5t-3.5 61.5v42z" />
    <glyph glyph-name="thorn" unicode="&#xfe;" horiz-adv-x="540" 
d="M301 174h-88v264h88q62 0 94.5 -37t32.5 -95t-32.5 -95t-94.5 -37zM133 475v-337q0 -40 -3.5 -62t-13 -34t-27.5 -16.5t-51 -4.5v-21h270v21q-33 0 -51 4.5t-27.5 16.5t-13 34t-3.5 62h89q99 0 157 48t58 120t-58 120.5t-157 48.5h-89q0 35 4 55t13.5 30.5t27.5 14.5
t50 4v21h-270v-21q32 0 50 -4t27.5 -14.5t13.5 -30.5t4 -55z" />
    <glyph glyph-name="ydieresis" unicode="&#xff;" horiz-adv-x="483" 
d="M161 587q-16 0 -27.5 -11.5t-11.5 -27.5q0 -17 11.5 -28.5t27.5 -11.5t27.5 11.5t11.5 28.5q0 16 -11.5 27.5t-27.5 11.5zM327 587q-16 0 -27.5 -11.5t-11.5 -27.5q0 -17 11.5 -28.5t27.5 -11.5t27.5 12t11.5 28t-11.5 27.5t-27.5 11.5zM283 179l99 146q35 51 58.5 69.5
t63.5 18.5v20h-188v-20q56 0 56 -20q0 -16 -28 -56l-77 -115l-78 115q-25 36 -25 53q0 23 54 23v20h-222v-20q38 0 59.5 -17t57.5 -71l100 -147v-41q0 -39 -3.5 -61.5t-11.5 -34.5t-23 -16.5t-42 -4.5v-20h230v20q-27 0 -42 4.5t-23 16.5t-11.5 34.5t-3.5 61.5v42z" />
    <glyph glyph-name="OE" unicode="&#x152;" horiz-adv-x="934" 
d="M512 600q-52 17 -108 17q-67 0 -128 -24.5t-107 -68.5t-72 -102t-26 -122t26 -122t72 -102t107 -68.5t128 -24.5q56 0 107 17h368l9 133h-21l-5 -20q-12 -44 -32 -60t-84 -16h-86q-33 0 -51 4.5t-28 16t-13.5 34t-3.5 61.5v146h50q40 0 62 -3.5t34 -13t16.5 -27.5
t4.5 -52h21v229h-21q0 -33 -4.5 -51.5t-16.5 -28t-34 -13t-62 -3.5h-50v227h149q64 0 84 -15.5t31 -59.5l5 -20h21l-8 132h-334zM404 578q44 0 81 -14v-528q-39 -13 -81 -13q-62 0 -107.5 24.5t-74.5 65.5t-42.5 89.5t-13.5 97.5t13.5 98t42.5 90t74.5 65.5t107.5 24.5z" />
    <glyph glyph-name="oe" unicode="&#x153;" horiz-adv-x="758" 
d="M413 363v-293q-41 -48 -112 -48q-42 0 -73.5 17.5t-51 46t-28.5 62.5t-9 69t9 69t28.5 62.5t51 46t73.5 17.5q71 0 112 -49zM391 0h317l9 121h-21l-5 -20q-10 -38 -30.5 -51t-85.5 -13h-12q-26 0 -41 4.5t-23 16t-11.5 34t-3.5 61.5v58h6q39 0 60 -3t31.5 -11.5t13.5 -23
t3 -41.5h20v195h-20q0 -28 -3 -42.5t-13.5 -22.5t-31 -11t-60.5 -3h-6v149h67q65 0 85.5 -13t30.5 -51l5 -20h21l-9 120h-129h-164q-43 17 -90 17q-49 0 -93.5 -18t-78.5 -50.5t-53 -75t-19 -89.5t19 -90t53 -75.5t78.5 -50.5t93.5 -18q47 0 90 17z" />
    <glyph glyph-name="Scaron" unicode="&#x160;" horiz-adv-x="498" 
d="M107 30q11 -2 36 -15q31 -14 58.5 -23t61.5 -9q39 0 73.5 13t60.5 36.5t41 57t15 73.5q0 45 -25 85t-79 67l-96 49q-68 36 -94.5 61.5t-26.5 62.5q0 38 27.5 63.5t69.5 25.5t70.5 -15t45.5 -40.5t25.5 -55.5t11.5 -64h21v220h-20q-6 -27 -29 -46q-27 20 -54.5 30.5
t-67.5 10.5q-72 0 -119 -43t-47 -106q0 -54 32 -97t79 -68l96 -49q55 -29 85 -58.5t30 -62.5q0 -48 -35.5 -79t-89.5 -31q-63 0 -102 25.5t-56.5 59t-22 59t-4.5 36.5h-20v-220h20q6 28 29 47zM360 803l-12 12l-107 -76l-107 76l-12 -12l119 -129z" />
    <glyph glyph-name="scaron" unicode="&#x161;" horiz-adv-x="398" 
d="M314 637l-12 12l-107 -76l-107 76l-12 -12l119 -129zM353 120q0 31 -20.5 62.5t-57.5 50.5l-67 35q-48 25 -67.5 42.5t-19.5 41.5q0 26 21 43t51 17q26 0 45 -11.5t31.5 -30.5t19.5 -41.5t9 -47.5h20v169h-20q-1 -11 -4.5 -16.5t-9.5 -11.5q-38 27 -96 27q-53 0 -89 -33
t-36 -81q0 -39 24 -71.5t59 -50.5l68 -35q39 -20 60.5 -39t21.5 -41q0 -36 -23.5 -56t-61.5 -20q-42 0 -69 19t-39.5 43.5t-16.5 43.5t-4 27h-20v-172h18q4 21 17 34q6 -2 18 -8q26 -12 48 -19t48 -7q59 0 100.5 38.5t41.5 98.5z" />
    <glyph glyph-name="Ydieresis" unicode="&#x178;" horiz-adv-x="625" 
d="M353 242l165 250q34 51 60.5 69t84.5 18v21h-234v-21q74 0 74 -29q0 -16 -20 -47l-146 -220l-144 220q-18 28 -18 44t17 24t55 8v21h-285v-21q52 0 82 -18.5t63 -68.5l166 -257v-97q0 -40 -3.5 -62t-13 -34t-27.5 -16.5t-51 -4.5v-21h270v21q-33 0 -51 4.5t-27.5 16.5
t-13 34t-3.5 62v104zM238 753q-16 0 -27.5 -12t-11.5 -28t11.5 -27.5t27.5 -11.5t28 11.5t12 27.5t-12 28t-28 12zM404 753q-16 0 -27.5 -12t-11.5 -28t11.5 -27.5t27.5 -11.5t27.5 11.5t11.5 27.5q0 17 -11.5 28.5t-27.5 11.5z" />
    <glyph glyph-name="florin" unicode="&#x192;" horiz-adv-x="316" 
d="M189 -78v376h101v35h-101v96q0 84 18 119.5t57 35.5q23 0 32.5 -11t17.5 -32q7 -17 13.5 -25.5t21.5 -8.5q33 0 33 34q0 28 -26.5 52t-72.5 24q-32 0 -61.5 -10.5t-53 -33.5t-37 -59t-13.5 -85v-96h-81v-35h81v-376q0 -88 -18.5 -122t-51.5 -34q-24 0 -35 10.5t-20 31.5
q-8 18 -16 27t-25 9q-26 -2 -26 -28q0 -29 32 -56t85 -27q62 0 104 47.5t42 141.5z" />
    <glyph glyph-name="circumflex" unicode="&#x2c6;" horiz-adv-x="403" 
d="M391 163v22q-37 0 -47 14.5t-10 66.5v46q0 49 -24.5 79.5t-72.5 30.5q-31 0 -55.5 -13.5t-42.5 -34.5q-1 12 -4.5 27t-6.5 22l-103 -20v-20q37 0 47.5 -15t10.5 -66v-36q0 -52 -10.5 -66.5t-47.5 -14.5v-22h166v22q-34 0 -42.5 13.5t-8.5 67.5v47q0 29 25.5 48.5
t48.5 19.5q35 0 48.5 -18.5t13.5 -54.5v-42q0 -52 -10.5 -66.5t-46.5 -14.5v-22h172z" />
    <glyph glyph-name="tilde" unicode="&#x2dc;" horiz-adv-x="563" 
d="M551 163v22q-36 0 -46.5 14.5t-10.5 66.5v46q0 52 -19.5 81t-66.5 29q-28 0 -56 -15.5t-44 -34.5q-9 24 -27.5 37t-49.5 13q-27 0 -50.5 -13.5t-41.5 -34.5q-1 11 -4.5 25.5t-6.5 23.5l-103 -20v-20q37 0 47.5 -15t10.5 -66v-36q0 -52 -10.5 -66.5t-47.5 -14.5v-22h160
v22q-31 0 -38 13.5t-7 67.5v47q0 29 24.5 48.5t43.5 19.5q29 0 40 -18.5t11 -54.5v-42q0 -55 -7 -68t-38 -13v-22h148v22q-31 0 -38 13t-7 68v47q0 29 24.5 48.5t43.5 19.5q29 0 40.5 -19t11.5 -54v-42q0 -55 -7 -68t-38 -13v-22h159z" />
    <glyph glyph-name="endash" unicode="&#x2013;" horiz-adv-x="525" 
d="M525 199v44h-526v-44h526z" />
    <glyph glyph-name="emdash" unicode="&#x2014;" horiz-adv-x="667" 
d="M667 199v44h-668v-44h668z" />
    <glyph glyph-name="quoteleft" unicode="&#x2018;" horiz-adv-x="251" 
d="M178 414q-27 28 -39.5 52.5t-17.5 54.5q2 -1 8 -1q19 0 33 14.5t14 33.5q0 20 -14 34.5t-33 14.5q-22 0 -38 -16.5t-16 -47.5q0 -36 24 -79.5t68 -70.5z" />
    <glyph glyph-name="quoteright" unicode="&#x2019;" horiz-adv-x="251" 
d="M130 521q-5 -30 -17.5 -54.5t-39.5 -52.5l11 -11q44 27 68 70.5t24 79.5q0 31 -16 47.5t-38 16.5q-19 0 -33 -14.5t-14 -34.5q0 -19 14 -33.5t33 -14.5q6 0 8 1z" />
    <glyph glyph-name="quotesinglbase" unicode="&#x201a;" 
d="M294 443q0 35 -9.5 67t-27 56t-40.5 37.5t-49 13.5t-49 -13.5t-40.5 -37.5t-27 -56t-9.5 -67t9.5 -66.5t27 -55.5t40.5 -37.5t49 -13.5t49 13.5t40.5 37.5t27 55.5t9.5 66.5zM236 443q0 -60 -17.5 -101t-50.5 -41t-50 40.5t-17 101.5q0 62 17 102.5t50 40.5
q34 0 51 -40.5t17 -102.5z" />
    <glyph glyph-name="quotedblleft" unicode="&#x201c;" horiz-adv-x="418" 
d="M345 414q-28 29 -40.5 53.5t-16.5 53.5q2 -1 8 -1q19 0 33 14.5t14 33.5q0 20 -14 34.5t-33 14.5q-22 0 -38 -16.5t-16 -47.5q0 -36 24 -79t67 -71zM178 414q-27 28 -39.5 52.5t-17.5 54.5q2 -1 8 -1q19 0 33 14.5t14 33.5q0 20 -14 34.5t-33 14.5q-22 0 -38 -16.5
t-16 -47.5q0 -36 24 -79.5t68 -70.5z" />
    <glyph glyph-name="quotedblright" unicode="&#x201d;" horiz-adv-x="418" 
d="M130 521q-5 -30 -17.5 -54.5t-39.5 -52.5l11 -11q44 27 68 70.5t24 79.5q0 31 -16 47.5t-38 16.5q-19 0 -33 -14.5t-14 -34.5q0 -19 14 -33.5t33 -14.5q6 0 8 1zM297 521q-5 -30 -17.5 -54t-40.5 -53l12 -11q44 27 68 70.5t24 79.5q0 31 -16.5 47.5t-38.5 16.5
q-19 0 -32.5 -14.5t-13.5 -34.5q0 -19 13.5 -33.5t32.5 -14.5q6 0 9 1z" />
    <glyph glyph-name="quotedblbase" unicode="&#x201e;" horiz-adv-x="418" 
d="M130 -8q-5 -30 -17.5 -53.5t-39.5 -52.5l11 -12q44 27 68 71t24 80q0 31 -16 47t-38 16q-19 0 -33 -14t-14 -34q0 -19 14 -33.5t33 -14.5h8zM297 -8q-5 -30 -17.5 -53.5t-40.5 -52.5l12 -12q44 27 68 71t24 80q0 31 -16.5 47t-38.5 16q-19 0 -32.5 -14t-13.5 -34
t13.5 -34t32.5 -14h9z" />
    <glyph glyph-name="dagger" unicode="&#x2020;" horiz-adv-x="448" 
d="M238 426l90 -29q6 -2 12 -2q18 0 32 14.5t14 33.5t-14 33t-32 14q-6 0 -12 -2l-92 -30l34 101q0 2 1 6q1 3 1 5q0 19 -14.5 33t-33.5 14t-33 -14t-14 -33v-5q1 -4 1 -6l35 -101l-94 30q-6 2 -11 2q-18 0 -32 -14t-14 -33t14 -33.5t32 -14.5q5 0 11 2l92 30l-28 -204
l37 -410h8l37 410z" />
    <glyph glyph-name="daggerdbl" unicode="&#x2021;" 
d="M300 577v23h-243l-19 -103h23l4 17q6 21 22.5 29.5t40.5 8.5h128l-148 -234q-9 -15 -9 -27q0 -18 18 -24q1 0 5 -1h4q11 0 18.5 8t16.5 26z" />
    <glyph glyph-name="bullet" unicode="&#x2022;" 
d="M294 83q0 34 -22 55.5t-62 39.5q29 13 48 31.5t19 42.5q0 34 -32 56t-77 22q-44 0 -76 -25t-32 -61q0 -22 16 -40t42 -35q-34 -14 -54.5 -35.5t-20.5 -55.5q0 -41 36.5 -68t88.5 -27t89 29.5t37 70.5zM222 253q0 -19 -12.5 -34.5t-32.5 -25.5q-30 15 -46.5 28.5
t-16.5 31.5q0 21 15.5 34.5t38.5 13.5q22 0 38 -15t16 -33zM239 75q0 -25 -19.5 -44t-51.5 -19t-51.5 19t-19.5 44q0 27 15 45.5t39 30.5l8 -4q39 -17 59.5 -32.5t20.5 -39.5z" />
    <glyph glyph-name="ellipsis" unicode="&#x2026;" horiz-adv-x="896" 
d="M194 40q0 20 -14 34t-34 14q-19 0 -33 -14t-14 -34q0 -19 14 -33.5t33 -14.5q20 0 34 14t14 34zM486 40q0 19 -14.5 33.5t-33.5 14.5t-33 -14t-14 -34q0 -19 14 -33.5t33 -14.5t33.5 14.5t14.5 33.5zM778 40q0 19 -14.5 33.5t-34.5 14.5t-33 -14t-13 -34t13 -34t33 -14
t34.5 14.5t14.5 33.5z" />
    <glyph glyph-name="perthousand" unicode="&#x2030;" horiz-adv-x="307" 
d="M284 202l-17 21q-17 -15 -39.5 -25t-39.5 -10q-46 0 -69 25.5t-23 67.5v10q1 9 1 11h173q4 14 4 26q0 40 -30.5 67t-73.5 27q-25 0 -50 -10t-44.5 -28.5t-31 -43t-11.5 -53.5q0 -57 38.5 -96t98.5 -39q31 0 62 14t52 36zM215 335h-112q8 25 24.5 38.5t42.5 13.5
q22 0 34.5 -12.5t12.5 -28.5q0 -6 -2 -11z" />
    <glyph glyph-name="guilsinglleft" unicode="&#x2039;" 
d="M289 378q0 34 -24 63t-62 42l79 94v23h-216l-18 -103h22l5 17q5 21 21.5 29.5t41.5 8.5h86l-99 -104q-9 -9 -9 -18q0 -18 18 -18q15 0 24 16q11 18 16 23q26 -5 42 -25.5t16 -47.5q0 -32 -18 -55t-52 -23q-28 0 -42 10.5t-26 28.5t-21 18q-20 0 -20 -19q0 -22 30 -45
t79 -23q54 0 90.5 32t36.5 76z" />
    <glyph glyph-name="guilsinglright" unicode="&#x203a;" 
d="M296 481h-21l-4 -17q-8 -30 -19.5 -40.5t-33.5 -10.5v213h-24l-172 -229v-18h139q0 -45 -10.5 -58t-47.5 -13v-21h172v21q-35 0 -46 13t-11 58h72zM161 413h-89l89 118v-118z" />
    <glyph glyph-name="trademark" unicode="&#x2122;" 
d="M289 48h-159l89 80q27 23 43.5 47.5t16.5 55.5q0 45 -36 72t-87 27q-53 0 -84.5 -28t-31.5 -66q0 -44 42 -73l26 25q-16 24 -16 46q0 26 19 42.5t43 16.5q32 0 50.5 -18t18.5 -47q0 -27 -9.5 -46t-34.5 -41l-132 -118v-23h233z" />
    </font>
</defs>
</svg>
